<svg width="120" height="120" viewBox="0 0 120 120" fill="none" xmlns="http://www.w3.org/2000/svg">
  <path fill-rule="evenodd" clip-rule="evenodd" d="M20.1298 61.5361L21.9443 60.5656C22.5204 60.2575 22.9935 59.7904 23.3118 59.2227L24.311 57.431C24.3323 57.3928 24.3635 57.361 24.4013 57.339C24.439 57.317 24.4821 57.3055 24.5258 57.3058C24.5696 57.3061 24.6124 57.3182 24.65 57.3407C24.6875 57.3632 24.7183 57.3955 24.7391 57.434L25.719 59.2394C26.0297 59.8131 26.4983 60.2857 27.0693 60.6012L28.8724 61.5967C28.9111 61.6175 28.9434 61.6484 28.9659 61.6862C28.9883 61.7239 29 61.7671 28.9998 61.8109C28.9995 61.8548 28.9873 61.8978 28.9644 61.9353C28.9415 61.9727 28.9089 62.0032 28.87 62.0234L27.0554 62.9953C26.4811 63.3025 26.007 63.768 25.6895 64.3367L24.6888 66.1285C24.6675 66.1667 24.6363 66.1985 24.5985 66.2205C24.5607 66.2425 24.5177 66.254 24.474 66.2536C24.4302 66.2533 24.3873 66.2413 24.3498 66.2187C24.3123 66.1962 24.2815 66.164 24.2607 66.1255L23.2823 64.32C22.9705 63.748 22.5045 63.2743 21.9305 62.9598L20.1274 61.9627C20.0887 61.942 20.0564 61.911 20.0339 61.8733C20.0115 61.8355 19.9997 61.7924 20 61.7485C20.0003 61.7046 20.0125 61.6616 20.0354 61.6242C20.0582 61.5867 20.0909 61.5563 20.1298 61.5361Z" fill="#00B2B2"/>
  <path fill-rule="evenodd" clip-rule="evenodd" d="M25.1298 81.7615L26.9443 80.7911C27.5204 80.483 27.9935 80.0159 28.3118 79.4482L29.311 77.6565C29.3323 77.6182 29.3635 77.5865 29.4013 77.5644C29.439 77.5424 29.4821 77.531 29.5258 77.5313C29.5696 77.5316 29.6124 77.5436 29.65 77.5662C29.6875 77.5887 29.7183 77.6209 29.7391 77.6594L30.719 79.4649C31.0297 80.0386 31.4983 80.5112 32.0693 80.8267L33.8724 81.8222C33.9111 81.8429 33.9434 81.8739 33.9659 81.9116C33.9883 81.9494 34 81.9925 33.9998 82.0364C33.9995 82.0803 33.9873 82.1233 33.9644 82.1607C33.9415 82.1982 33.9089 82.2286 33.87 82.2489L32.0554 83.2208C31.4811 83.5279 31.007 83.9934 30.6895 84.5622L29.6888 86.3539C29.6675 86.3921 29.6363 86.4239 29.5985 86.4459C29.5607 86.468 29.5177 86.4794 29.474 86.4791C29.4302 86.4788 29.3873 86.4668 29.3498 86.4442C29.3123 86.4217 29.2815 86.3895 29.2607 86.351L28.2823 84.5455C27.9705 83.9734 27.5045 83.4998 26.9305 83.1852L25.1274 82.1882C25.0887 82.1674 25.0564 82.1365 25.0339 82.0988C25.0115 82.061 24.9997 82.0179 25 81.974C25.0003 81.9301 25.0125 81.8871 25.0354 81.8496C25.0582 81.8122 25.0909 81.7817 25.1298 81.7615Z" fill="#E4E4E6"/>
  <path fill-rule="evenodd" clip-rule="evenodd" d="M40.2772 39.8762L43.8848 41.868C45.027 42.4986 45.965 43.4434 46.5877 44.5905L48.5456 48.2023C48.5876 48.2792 48.6494 48.3435 48.7245 48.3885C48.7997 48.4335 48.8855 48.4575 48.973 48.4581C49.0605 48.4587 49.1466 48.4359 49.2223 48.3919C49.2979 48.348 49.3605 48.2846 49.4033 48.2083L51.4046 44.6239C52.0383 43.4877 52.9886 42.5554 54.1371 41.9408L57.7692 39.9976C58.1086 39.8153 58.1114 39.333 57.7742 39.146L54.1665 37.1525C53.0243 36.522 52.0862 35.5772 51.4636 34.43L49.5041 30.8182C49.4621 30.7413 49.4003 30.677 49.3251 30.632C49.25 30.587 49.1642 30.563 49.0766 30.5624C48.9891 30.5618 48.9031 30.5846 48.8274 30.6286C48.7517 30.6725 48.6892 30.7359 48.6463 30.8122L46.6468 34.3966C46.0107 35.5344 45.0618 36.4655 43.9126 37.0797L40.2821 39.0246C40.2051 39.0655 40.1407 39.1266 40.0956 39.2012C40.0505 39.2759 40.0264 39.3614 40.0259 39.4487C40.0254 39.5359 40.0485 39.6218 40.0927 39.697C40.1369 39.7723 40.2007 39.8342 40.2772 39.8762Z" fill="#57D3D2"/>
  <path fill-rule="evenodd" clip-rule="evenodd" d="M65.2312 25.6028L68.256 23.9837C69.2172 23.471 70.0058 22.6941 70.5356 21.7462L72.203 18.7589C72.2389 18.6957 72.2909 18.6432 72.3539 18.6068C72.4168 18.5704 72.4883 18.5515 72.561 18.552C72.6338 18.5525 72.7051 18.5724 72.7676 18.6097C72.8301 18.6469 72.8815 18.7001 72.9166 18.7639L74.5493 21.774C75.0677 22.7299 75.8492 23.5173 76.8011 24.043L79.8069 25.7056C79.8708 25.7405 79.9241 25.7919 79.961 25.8546C79.998 25.9172 80.0173 25.9887 80.0169 26.0614C80.0165 26.1341 79.9963 26.2054 79.9586 26.2675C79.9209 26.3296 79.8671 26.3804 79.8028 26.4143L76.778 28.0351C75.8203 28.5471 75.0298 29.323 74.5001 30.2709L72.8327 33.2582C72.7968 33.3215 72.7448 33.374 72.6818 33.4103C72.6189 33.4467 72.5474 33.4656 72.4747 33.4651C72.4019 33.4646 72.3307 33.4447 72.2681 33.4075C72.2056 33.3702 72.1542 33.317 72.1191 33.2533L70.4864 30.2431C69.968 29.2872 69.1865 28.4998 68.2346 27.9742L65.2288 26.3131C65.1645 26.2785 65.1108 26.227 65.0736 26.1641C65.0363 26.1013 65.0168 26.0295 65.0173 25.9565C65.0177 25.8835 65.038 25.812 65.076 25.7497C65.114 25.6874 65.1682 25.6366 65.2329 25.6028" fill="#57D3D2"/>
  <path fill-rule="evenodd" clip-rule="evenodd" d="M91.1284 74.4612L92.9432 73.4897C93.52 73.1821 93.9931 72.7159 94.311 72.1472L95.3114 70.3548C95.3329 70.3169 95.3642 70.2854 95.4019 70.2635C95.4397 70.2417 95.4826 70.2304 95.5263 70.2307C95.5699 70.231 95.6127 70.2429 95.6502 70.2653C95.6877 70.2876 95.7185 70.3195 95.7396 70.3578L96.7192 72.1639C97.0303 72.7374 97.4992 73.2099 98.0703 73.5253L99.8738 74.5229C99.9121 74.5437 99.9441 74.5746 99.9662 74.6122C99.9884 74.6498 100 74.6927 99.9998 74.7363C99.9995 74.78 99.9874 74.8227 99.9648 74.86C99.9422 74.8973 99.9099 74.9277 99.8713 74.948L98.0564 75.9205C97.4818 76.2277 97.0075 76.6933 96.6897 77.262L95.6892 79.0544C95.6677 79.0923 95.6365 79.1239 95.5987 79.1457C95.561 79.1675 95.5181 79.1788 95.4744 79.1785C95.4308 79.1782 95.388 79.1663 95.3505 79.144C95.313 79.1216 95.2821 79.0897 95.2611 79.0514L94.2815 77.2453C93.9704 76.6718 93.5015 76.1994 92.9304 75.884L91.1269 74.8874C91.0883 74.8666 91.0561 74.8357 91.0338 74.798C91.0114 74.7603 90.9997 74.7172 91 74.6734C91.0002 74.6296 91.0124 74.5867 91.0352 74.5493C91.058 74.5119 91.0905 74.4814 91.1294 74.4612" fill="#57D3D2"/>
  <path d="M90.9741 98.5C90.9741 103.471 77.5427 107.5 60.9741 107.5C44.4056 107.5 30.9741 103.471 30.9741 98.5C30.9741 93.5294 44.4056 89.5 60.9741 89.5C77.5427 89.5 90.9741 93.5294 90.9741 98.5Z" fill="#C0C0C4"/>
  <path fill-rule="evenodd" clip-rule="evenodd" d="M33.9102 95.8125C32.4904 96.8195 31.9741 97.7422 31.9741 98.5C31.9741 99.2578 32.4904 100.181 33.9102 101.188C35.304 102.176 37.3858 103.107 40.0483 103.906C45.3605 105.5 52.7591 106.5 60.9741 106.5C69.1891 106.5 76.5878 105.5 81.9 103.906C84.5624 103.107 86.6442 102.176 88.038 101.188C89.4578 100.181 89.9741 99.2578 89.9741 98.5C89.9741 97.7422 89.4578 96.8195 88.038 95.8125C86.6442 94.8238 84.5624 93.8926 81.9 93.0939C76.5878 91.5002 69.1891 90.5 60.9741 90.5C52.7591 90.5 45.3605 91.5002 40.0483 93.0939C37.3858 93.8926 35.304 94.8238 33.9102 95.8125ZM39.4736 91.1782C45.0192 89.5145 52.6206 88.5 60.9741 88.5C69.3277 88.5 76.929 89.5145 82.4747 91.1782C85.2411 92.0082 87.5528 93.0163 89.1951 94.1811C90.8115 95.3276 91.9741 96.7725 91.9741 98.5C91.9741 100.227 90.8115 101.672 89.1951 102.819C87.5528 103.984 85.2411 104.992 82.4747 105.822C76.929 107.485 69.3277 108.5 60.9741 108.5C52.6206 108.5 45.0192 107.485 39.4736 105.822C36.7071 104.992 34.3955 103.984 32.7531 102.819C31.1368 101.672 29.9741 100.227 29.9741 98.5C29.9741 96.7725 31.1368 95.3276 32.7531 94.1811C34.3955 93.0163 36.7071 92.0082 39.4736 91.1782Z" fill="#1A1C20"/>
  <path fill-rule="evenodd" clip-rule="evenodd" d="M81.9147 94.4517C76.5972 92.9451 69.1932 92 60.9741 92C52.755 92 45.3511 92.9451 40.0335 94.4517C37.3679 95.207 35.2833 96.0877 33.8882 97.0222C32.4566 97.9813 31.9741 98.8378 31.9741 99.5H29.9741C29.9741 97.8149 31.1706 96.4354 32.7751 95.3606C34.4162 94.2613 36.725 93.3104 39.4883 92.5275C45.0286 90.9577 52.6247 90 60.9741 90C69.3236 90 76.9196 90.9577 82.4599 92.5275C85.2232 93.3104 87.532 94.2613 89.1731 95.3606C90.7776 96.4354 91.9741 97.815 91.9741 99.5H89.9741C89.9741 98.8378 89.4917 97.9813 88.06 97.0222C86.6649 96.0877 84.5804 95.207 81.9147 94.4517Z" fill="#1A1C20"/>
  <mask id="mask0_55_2801" style="mask-type\:alpha" maskUnits="userSpaceOnUse" x="30" y="12" width="61" height="95">
    <path d="M90.9741 97.6414C90.9741 102.534 77.5427 106.5 60.9741 106.5C44.4056 106.5 30.9741 102.534 30.9741 97.6414C30.9741 92.7489 44.4056 12.5 60.9741 12.5C77.5427 12.5 90.9741 92.7489 90.9741 97.6414Z" fill="white"/>
  </mask>
  <g mask="url(#mask0_55_2801)">
   <path d="M44.9741 73.5L44.9741 74.5H45.9741L75.9741 74.5H76.9741V73.5V69.5V68.5H75.9741L45.9741 68.5L44.9741 68.5V69.5L44.9741 73.5ZM44.9741 89.5L44.9741 90.5H45.9741L75.9741 90.5H76.9741V89.5V85.5V84.5H75.9741L45.9741 84.5H44.9741V85.5L44.9741 89.5ZM44.9741 105.5L44.9741 106.5H45.9741H75.9741H76.9741V105.5V101.5V100.5H75.9741H45.9741H44.9741V101.5L44.9741 105.5Z" fill="white" stroke="#1A1C20" stroke-width="2"/>
   <path d="M74.9741 57.5C74.9741 56.3954 75.8696 55.5 76.9741 55.5C78.0787 55.5 78.9741 56.3954 78.9741 57.5V113.5C78.9741 114.605 78.0787 115.5 76.9741 115.5C75.8696 115.5 74.9741 114.605 74.9741 113.5V57.5Z" fill="white"/>
   <path d="M42.9741 57.5C42.9741 56.3954 43.8696 55.5 44.9741 55.5C46.0787 55.5 46.9741 56.3954 46.9741 57.5V113.5C46.9741 114.605 46.0787 115.5 44.9741 115.5C43.8696 115.5 42.9741 114.605 42.9741 113.5V57.5Z" fill="white"/>
   <path fill-rule="evenodd" clip-rule="evenodd" d="M73.9741 57.5C73.9741 55.8431 75.3173 54.5 76.9741 54.5C78.631 54.5 79.9741 55.8431 79.9741 57.5V113.5C79.9741 115.157 78.631 116.5 76.9741 116.5C75.3173 116.5 73.9741 115.157 73.9741 113.5V57.5ZM76.9741 56.5C76.4218 56.5 75.9741 56.9477 75.9741 57.5V113.5C75.9741 114.052 76.4218 114.5 76.9741 114.5C77.5264 114.5 77.9741 114.052 77.9741 113.5V57.5C77.9741 56.9477 77.5264 56.5 76.9741 56.5Z" fill="#1A1C20"/>
   <path fill-rule="evenodd" clip-rule="evenodd" d="M41.9741 57.5C41.9741 55.8431 43.3173 54.5 44.9741 54.5C46.631 54.5 47.9741 55.8431 47.9741 57.5V113.5C47.9741 115.157 46.631 116.5 44.9741 116.5C43.3173 116.5 41.9741 115.157 41.9741 113.5V57.5ZM44.9741 56.5C44.4218 56.5 43.9741 56.9477 43.9741 57.5V113.5C43.9741 114.052 44.4218 114.5 44.9741 114.5C45.5264 114.5 45.9741 114.052 45.9741 113.5V57.5C45.9741 56.9477 45.5264 56.5 44.9741 56.5Z" fill="#1A1C20"/>
  </g>
</svg>
