<svg width="120" height="120" fill="none" xmlns="http://www.w3.org/2000/svg">
  <path d="M92 42.002H28v44c0 2.21 1.737 4 3.879 4l25.65-.02V85.66a3.584 3.584 0 001.667.04 3.642 3.642 0 001.514-.72 3.785 3.785 0 001.053-1.333 3.905 3.905 0 000-3.35 3.785 3.785 0 00-1.053-1.334 3.641 3.641 0 00-1.514-.72 3.583 3.583 0 00-1.667.041V75.31c0-.25.047-.498.14-.729a1.91 1.91 0 01.4-.618c.172-.176.376-.317.6-.412.224-.096.464-.145.706-.145l4.187.001a3.899 3.899 0 01-.496-1.904 3.9 3.9 0 01.495-1.904c.324-.58.79-1.06 1.352-1.394a3.606 3.606 0 013.693 0 3.752 3.752 0 011.352 1.394 3.9 3.9 0 01.494 1.904 3.9 3.9 0 01-.495 1.904l4.186-.001a1.813 1.813 0 011.306.557 1.953 1.953 0 01.54 1.347v2.975a3.584 3.584 0 00-1.667-.042 3.643 3.643 0 00-1.516.72 3.788 3.788 0 00-1.053 1.333 3.906 3.906 0 000 3.352c.248.521.608.978 1.053 1.333a3.64 3.64 0 001.516.72 3.582 3.582 0 001.667-.042v4.343h12.132c2.142 0 3.879-1.79 3.879-4v-44z" fill="#fff" stroke="#000" stroke-width="2" stroke-linejoin="round"/>
  <path fill-rule="evenodd" clip-rule="evenodd" d="M31.556 30h56.888c.943 0 1.848.361 2.515 1.004A3.368 3.368 0 0192 33.43V42H28v-8.571c0-.91.375-1.782 1.041-2.425A3.623 3.623 0 0131.556 30v0z" fill="#E4E4E6" stroke="#000" stroke-width="2"/>
  <path d="M35 36.002h24m24 0h4" stroke="#000" stroke-width="2" stroke-linecap="round" stroke-linejoin="round"/>
  <path fill-rule="evenodd" clip-rule="evenodd" d="M38.096 55.906a3.807 3.807 0 01-1.708 6.37l3.054 3.052a1.903 1.903 0 010 2.693l-2.104 2.104a3.808 3.808 0 10-5.214 5.214l-2.105 2.106a1.904 1.904 0 01-2.692 0l-10.77-10.77a1.904 1.904 0 010-2.693l2.104-2.103a3.806 3.806 0 105.216-5.216l2.103-2.103a1.906 1.906 0 012.693 0l3.052 3.053a3.807 3.807 0 016.371-1.707z" fill="#FF7040" stroke="#000" stroke-width="2" stroke-linejoin="round"/>
</svg>
