<svg xmlns="http://www.w3.org/2000/svg" width="120" height="120" viewBox="0 0 120 120">
  <g fill="none" fill-rule="evenodd">
    <g stroke-width="2" transform="rotate(-20 109.22 -15.384)">
      <g stroke="#344B63" transform="rotate(-20 59.356 10.164)">
        <rect width="58" height="14" x="1.927" y="1" fill="#C0C0C4" rx="2"/>
        <path fill="#F7F7FA" d="M12.1084953 1C11.7637052 1 11.4432353 1.1776197 11.260497 1.47000106L3.76049698 13.4700011C3.66116473 13.6289327 3.60849528 13.8125803 3.60849528 14 3.60849528 14.5522847 4.05621053 15 4.60849528 15L11.8915047 15C12.2362948 15 12.5567647 14.8223803 12.739503 14.5299989L20.239503 2.52999894C20.3388353 2.37106734 20.3915047 2.18741972 20.3915047 2 20.3915047 1.44771525 19.9437895 1 19.3915047 1L12.1084953 1zM31.1084953 1C30.7637052 1 30.4432353 1.1776197 30.260497 1.47000106L22.760497 13.4700011C22.6611647 13.6289327 22.6084953 13.8125803 22.6084953 14 22.6084953 14.5522847 23.0562105 15 23.6084953 15L30.8915047 15C31.2362948 15 31.5567647 14.8223803 31.739503 14.5299989L39.239503 2.52999894C39.3388353 2.37106734 39.3915047 2.18741972 39.3915047 2 39.3915047 1.44771525 38.9437895 1 38.3915047 1L31.1084953 1zM50.1084953 1C49.7637052 1 49.4432353 1.1776197 49.260497 1.47000106L41.760497 13.4700011C41.6611647 13.6289327 41.6084953 13.8125803 41.6084953 14 41.6084953 14.5522847 42.0562105 15 42.6084953 15L49.8915047 15C50.2362948 15 50.5567647 14.8223803 50.739503 14.5299989L58.239503 2.52999894C58.3388353 2.37106734 58.3915047 2.18741972 58.3915047 2 58.3915047 1.44771525 57.9437895 1 57.3915047 1L50.1084953 1z"/>
      </g>
      <path fill="#C0C0C4" stroke="#344B63" d="M7,36 L7,63 C7,66.8659932 10.1340068,70 14,70 L58,70 C61.8659932,70 65,66.8659932 65,63 L65,36 L7,36 Z"/>
      <circle cx="8" cy="35" r="5" fill="#57D3D2" stroke="#344B63"/>
      <path stroke="#FFF" stroke-linecap="round" d="M24 54L48 54M27 45L45 45M28 54.5L28 61.5M44 54.5L44 61.5"/>
    </g>
    <path stroke="#344B63" stroke-linecap="round" stroke-width="2" d="M34.5,99 L58.5,99"/>
  </g>
</svg>
