<svg xmlns="http://www.w3.org/2000/svg" width="120" height="120" viewBox="0 0 120 120"><title>120x120_phone</title><rect width="120" height="120" fill="none"/><rect x="35" y="18" width="50" height="84" rx="5" ry="5" fill="#f7f7fa"/><path d="M80,20a3,3,0,0,1,3,3V97a3,3,0,0,1-3,3H40a3,3,0,0,1-3-3V23a3,3,0,0,1,3-3H80m0-2H40a5,5,0,0,0-5,5V97a5,5,0,0,0,5,5H80a5,5,0,0,0,5-5V23a5,5,0,0,0-5-5Z" fill="#344d63"/><circle cx="60" cy="94" r="2" fill="#c0c0c4"/><path d="M60,92a2,2,0,1,1-2,2,2,2,0,0,1,2-2m0-1.33A3.33,3.33,0,1,0,63.33,94,3.34,3.34,0,0,0,60,90.67Z" fill="#344d63"/><rect x="53" y="25" width="14" height="2" rx="1" ry="1" fill="#344d63"/><rect x="41" y="32" width="38" height="56" rx="2" ry="2" fill="#fff"/><path d="M43,32H77a2,2,0,0,1,2,2v3a0,0,0,0,1,0,0H41a0,0,0,0,1,0,0V34A2,2,0,0,1,43,32Z" fill="#e3e3e6"/><path d="M72.87,47.93l-5.3-5.3a2.5,2.5,0,0,0-3.54,0h0a2.5,2.5,0,0,0,0,3.54l5.3,5.3L72.87,55l3.54-3.54L97.27,30.6a2.5,2.5,0,0,0,0-3.54h0a2.5,2.5,0,0,0-3.54,0Z" fill="#57d3d2"/><rect x="54" y="73" width="12" height="2" rx="1" ry="1" fill="#e3e3e6"/><path d="M69.32,64.77l-4-2.28a.6.6,0,0,0-.66.12L62.56,64.9a1.17,1.17,0,0,1-.7.31s-1.47,0-4.25-2.69-2.79-4.23-2.79-4.23a1.2,1.2,0,0,1,.29-.72l2-2.11a.66.66,0,0,0,.11-.68L55,50.68a.27.27,0,0,0-.47-.08l-3.65,3.85a1.46,1.46,0,0,0-.34.72s-.46,4,5.1,9.43,9.45,4.87,9.45,4.87a1.43,1.43,0,0,0,.7-.36l3.65-3.86A.29.29,0,0,0,69.32,64.77Z" fill="#344d63"/><path d="M77,89H43a3,3,0,0,1-3-3V34a3,3,0,0,1,3-3H77a3,3,0,0,1,3,3V86A3,3,0,0,1,77,89ZM43,33a1,1,0,0,0-1,1V86a1,1,0,0,0,1,1H77a1,1,0,0,0,1-1V34a1,1,0,0,0-1-1Z" fill="#344d63"/></svg>