<svg xmlns="http://www.w3.org/2000/svg" width="120" height="120" viewBox="0 0 120 120"><title>120x120_meetings_static</title><g id="bounding"><rect width="120" height="120" fill="none"/></g><g id="illu"><path d="M40.91,99.88l.15.12H45l.15-.12L60,85,74.85,99.88,75,100h3.95l.15-.12h0a3,3,0,0,0,0-4.24L64.24,80.79,63,79.54V18a3,3,0,0,0-6,0V79.54l-1.24,1.24L40.91,95.64a3,3,0,0,0,0,4.24Z" fill="#e3e3e6"/><path d="M96,99H80.76a3.91,3.91,0,0,0-1-4.07L64,79.13V18a4,4,0,0,0-8,0V79.13L40.2,94.93a3.91,3.91,0,0,0-1,4.07H24a1,1,0,0,0,0,2H96a1,1,0,0,0,0-2ZM47.44,99,60,86.44,72.56,99Zm27.94,0L60,83.62,44.61,99H41.46a2,2,0,0,1,.15-2.66L58,80V18a2,2,0,0,1,4,0V80L78.38,96.34A2,2,0,0,1,78.54,99Z" fill="#344b63"/><polyline points="26 69 26 32 94 32 94 69" fill="#fff"/><path d="M26,69H94a0,0,0,0,1,0,0v4a6,6,0,0,1-6,6H31a5,5,0,0,1-5-5V69A0,0,0,0,1,26,69Z" fill="#f7f7fa"/><path d="M83.87,54.59l-5.3-5.3a2.5,2.5,0,0,0-3.54,0h0a2.5,2.5,0,0,0,0,3.54l5.3,5.3,3.54,3.54,3.54-3.54,20.86-20.86a2.5,2.5,0,0,0,0-3.54h0a2.5,2.5,0,0,0-3.54,0Z" fill="#57d3d2"/><path d="M59,70H85a0,0,0,0,1,0,0v4a2,2,0,0,1-2,2H61a2,2,0,0,1-2-2V70A0,0,0,0,1,59,70Z" fill="#e3e3e6"/><path d="M25,31V75h.09A6,6,0,0,0,31,80H88a7,7,0,0,0,7-7V31ZM93,73a5,5,0,0,1-5,5H31a4,4,0,0,1-4-4V70H93v3ZM27,68V33H93V68Z" fill="#344b63"/><rect x="27" y="34" width="66" height="4" fill="#e3e3e6"/><path d="M28,21H92a5,5,0,0,1,5,5v6a1,1,0,0,1-1,1H24a1,1,0,0,1-1-1V26a5,5,0,0,1,5-5Z" fill="#f7f7fa"/><path d="M96,34H24a2,2,0,0,1-2-2V26a6,6,0,0,1,6-6H92a6,6,0,0,1,6,6v6A2,2,0,0,1,96,34ZM28,22a4,4,0,0,0-4,4v6H96V26a4,4,0,0,0-4-4Z" fill="#344b63"/><path d="M35,64H27V52H40v7A5,5,0,0,1,35,64Z" fill="#e3e3e6"/><path d="M23,43H39a0,0,0,0,1,0,0V55a5,5,0,0,1-5,5H23a0,0,0,0,1,0,0V43A0,0,0,0,1,23,43Z" fill="#fff"/><path d="M34,61H22V42H40V55A6,6,0,0,1,34,61ZM24,59H34a4,4,0,0,0,4-4V44H24Z" fill="#344b63"/><path d="M29,55V54H17v1h0a5,5,0,0,0,5,5H34A5,5,0,0,1,29,55Z" fill="#f7f7fa"/><path d="M34,61H22a6,6,0,0,1-5.91-5H16V53H30v2a4,4,0,0,0,4,4ZM18,55a4,4,0,0,0,4,4h7.54A6,6,0,0,1,28,55Z" fill="#344b63"/><path d="M60,66H84a0,0,0,0,1,0,0v4a2,2,0,0,1-2,2H62a2,2,0,0,1-2-2V66A0,0,0,0,1,60,66Z" fill="#e3e3e6"/><path d="M82,73H62a3,3,0,0,1-3-3V65H85v5A3,3,0,0,1,82,73ZM61,67v3a1,1,0,0,0,1,1H82a1,1,0,0,0,1-1V67Z" fill="#344b63"/></g></svg>