<svg xmlns="http://www.w3.org/2000/svg" width="120" height="120"><g fill="none" fill-rule="evenodd" transform="translate(22 19)"><g transform="rotate(20 -89.426 58.014)"><circle cx="21" cy="21" r="21" fill="#FFF"/><circle cx="21" cy="21" r="16.625" fill="#E3E3E6"/><circle cx="21" cy="21" r="21" stroke="#344B63" stroke-linecap="round" stroke-linejoin="round" stroke-width="2"/><g transform="translate(12.25 13.125)"><path fill="#F7F7FA" stroke="#344B63" stroke-linecap="round" stroke-linejoin="round" stroke-width="2" d="M3.915 8.875h-7.087L9.015.345 12.785 6h8.44l-11.73 9.385-5.58-6.51z"/><rect width="8.75" height="1.75" y="7.875" fill="#344B63" rx=".875"/><rect width="1" height="1.75" y="7.875" fill="#344B63" rx=".5"/><rect width="9.561" height="1.75" x="6.914" y="3.78" fill="#344B63" rx=".875" transform="rotate(56 11.695 4.655)"/></g><g transform="translate(12.25 13.125)"><path fill="#F7F7FA" stroke="#344B63" stroke-linecap="round" stroke-linejoin="round" stroke-width="2" d="M3.915 8.875h-7.087L9.015.345 12.785 6h8.44l-11.73 9.385-5.58-6.51z"/><rect width="8.75" height="1.75" y="7.875" fill="#344B63" rx=".875"/><rect width="1" height="1.75" y="7.875" fill="#344B63" rx=".5"/><rect width="9.561" height="1.75" x="6.914" y="3.78" fill="#344B63" rx=".875" transform="rotate(56 11.695 4.655)"/></g></g><g transform="rotate(-10 221.202 -205.24)"><circle cx="21" cy="21" r="21" fill="#FFF"/><circle cx="21" cy="21" r="16.625" fill="#E3E3E6"/><path stroke="#344B63" stroke-linecap="round" stroke-linejoin="round" stroke-width="2" d="M34.911 11.893C31.941 7.365 26.82 4.375 21 4.375 11.818 4.375 4.375 11.818 4.375 21"/><circle cx="21" cy="21" r="21" stroke="#344B63" stroke-linecap="round" stroke-linejoin="round" stroke-width="2"/><g transform="translate(12.25 13.125)"><path fill="#F7F7FA" stroke="#344B63" stroke-linecap="round" stroke-linejoin="round" stroke-width="2" d="M3.915 8.875h-7.087L9.015.345 12.785 6h8.44l-11.73 9.385-5.58-6.51z"/><rect width="8.75" height="1.75" y="7.875" fill="#344B63" rx=".875"/><rect width="1" height="1.75" y="7.875" fill="#344B63" rx=".5"/><rect width="9.561" height="1.75" x="6.914" y="3.78" fill="#344B63" rx=".875" transform="rotate(56 11.695 4.655)"/></g><g transform="translate(12.25 13.125)"><path fill="#F7F7FA" stroke="#344B63" stroke-linecap="round" stroke-linejoin="round" stroke-width="2" d="M3.915 8.875h-7.087L9.015.345 12.785 6h8.44l-11.73 9.385-5.58-6.51z"/><rect width="8.75" height="1.75" y="7.875" fill="#344B63" rx=".875"/><rect width="1" height="1.75" y="7.875" fill="#344B63" rx=".5"/><rect width="9.561" height="1.75" x="6.914" y="3.78" fill="#344B63" rx=".875" transform="rotate(56 11.695 4.655)"/></g></g><circle cx="24" cy="24" r="24" fill="#FFF"/><circle cx="24" cy="24" r="19" fill="#57D3D2"/><path stroke="#344B63" stroke-linecap="round" stroke-linejoin="round" stroke-width="2" d="M39.899 13.592C36.504 8.418 30.65 5 24 5 13.507 5 5 13.507 5 24"/><circle cx="24" cy="24" r="24" stroke="#344B63" stroke-linecap="round" stroke-linejoin="round" stroke-width="2"/><g transform="translate(14 15)"><path fill="#F7F7FA" stroke="#344B63" stroke-linecap="round" stroke-linejoin="round" stroke-width="2" d="M4.54 10h-7.712L10.265.594 14.535 7h9.316L10.87 17.385 4.54 10z"/><rect width="10" height="2" y="9" fill="#344B63" rx="1"/><rect width="1" height="2" y="9" fill="#344B63" rx=".5"/><rect width="10.927" height="2" x="7.902" y="4.32" fill="#344B63" rx="1" transform="rotate(56 13.366 5.32)"/></g><g transform="translate(14 15)"><path fill="#F7F7FA" stroke="#344B63" stroke-linecap="round" stroke-linejoin="round" stroke-width="2" d="M4.54 10h-7.712L10.265.594 14.535 7h9.316L10.87 17.385 4.54 10z"/><rect width="10" height="2" y="9" fill="#344B63" rx="1"/><rect width="1" height="2" y="9" fill="#344B63" rx=".5"/><rect width="10.927" height="2" x="7.902" y="4.32" fill="#344B63" rx="1" transform="rotate(56 13.366 5.32)"/></g></g></svg>