<svg xmlns="http://www.w3.org/2000/svg" width="120" height="120" viewBox="0 0 120 120"><title>120x120_invoices_static</title><g id="bounding"><rect width="120" height="120" fill="none"/></g><g id="illu"><path d="M21,88V82H72v6h0a5,5,0,0,0,5,5H26A5,5,0,0,1,21,88Z" fill="#dcddde"/><path d="M77,93a5,5,0,0,0,5-5h0V30a2,2,0,0,0-2-2H35a3,3,0,0,0-3,3V88a5,5,0,0,1-5,5Z" fill="#fff"/><path d="M57.46,86.11a1.33,1.33,0,0,1-1-.4c-.62-.65-.29-1.51,0-2.27a6.84,6.84,0,0,0,.29-.87c-1.41-.09-2.58,1.36-3.62,2.64l-.64.78-2.64.13-.1-2L51.51,84l.07-.09c1.29-1.58,3.05-3.74,5.57-3.35a1.82,1.82,0,0,1,1.38.86,2.59,2.59,0,0,1,0,2.18,16.26,16.26,0,0,0,1.88-1.58C62,80.62,63.71,79,66,79h0c1.57,0,2.18.67,2.42,1.24.47,1.11-.27,2.57-1.13,3.76H73v2H62.76l1.65-1.7a8.37,8.37,0,0,0,2.17-3.23A1.78,1.78,0,0,0,66,81h0c-1.51,0-2.9,1.28-4.24,2.52A10.11,10.11,0,0,1,58.31,86,2.75,2.75,0,0,1,57.46,86.11Z" fill="#57d3d2"/><path d="M72,50V48H70V43H68v5H62V43H60v5H44V43H42v5H40v2h2v5H40v2h2v5H40v2h2v5H40v2h2v4h2V71H60v4h2V71h6v4h2V71h2V69H70V64h2V62H70V57h2V55H70V50ZM44,50H60v5H44Zm0,7H60v5H44Zm0,12V64H60v5Zm24,0H62V64h6Zm0-7H62V57h6Zm0-7H62V50h6Z" fill="#344b63"/><rect x="40" y="36" width="9" height="2" fill="#344b63"/><path d="M73.27,86a1,1,0,0,0,.87-.5L90.79,56.66l-1.73-1L71.56,86Z" fill="#344b63"/><rect x="89.67" y="40.63" width="4" height="25" transform="translate(38.85 -38.72) rotate(30)" fill="#fff"/><rect x="85.67" y="44.82" width="6" height="27" transform="translate(41.04 -36.52) rotate(30)" fill="#57d3d2"/><polygon points="84.52 71.52 79.32 68.52 73.19 81.14 76.65 83.14 84.52 71.52" fill="#fff"/><path d="M99,47.87a1,1,0,0,0-.47-.61l-5.2-3a1,1,0,0,0-1.37.37L83,60.15V30a3,3,0,0,0-3-3H35a4,4,0,0,0-4,4V81H20v7a6,6,0,0,0,6,6H77a6,6,0,0,0,5.91-5H83V75.55l2.35-3.47v0l0,0,13.5-23.38A1,1,0,0,0,99,47.87ZM27,93h0Zm4-5a4,4,0,0,1-4,4H26a4,4,0,0,1-4-4V83h9Zm50-.53V88a4,4,0,0,1-4,4H31.46A6,6,0,0,0,33,88V31a2,2,0,0,1,2-2H80a1,1,0,0,1,1,1V63.61L78.46,68v0l0,0L72.29,80.7a1,1,0,0,0,.4,1.3l3.46,2a1,1,0,0,0,1.33-.31L81,78.5Zm2.09-15.6-6.74,10L74.5,80.74l5.26-10.82,1.67,1Zm1.06-1.7-1.73-1-1.73-1L93.19,46.5l3.46,2Z" fill="#344b63"/><path d="M100.65,51.82A3,3,0,0,0,99.25,50l-1.73-1-1,1.73,1.73,1a1,1,0,0,1,.37,1.37l-8.5,14.72a1,1,0,0,1-1.37.37l-1.73-1-1,1.73,1.73,1a3,3,0,0,0,4.1-1.1l8.5-14.72A3,3,0,0,0,100.65,51.82Z" fill="#344b63"/><path d="M100.62,43a1,1,0,0,0-.47-.61l-3.46-2a1,1,0,0,0-1.37.37l-2.5,4.33,1.73,1,2-3.46,1.73,1-2,3.46,1.73,1,2.5-4.33A1,1,0,0,0,100.62,43Z" fill="#344b63"/></g></svg>