<svg xmlns="http://www.w3.org/2000/svg" width="120" height="120" viewBox="0 0 120 120">
  <g fill="none" fill-rule="evenodd">
    <path fill="#FFF" stroke="#344B63" stroke-linejoin="round" stroke-width="2" d="M92,30 C94.209139,30 96,31.790861 96,34 L96,87 C96,89.209139 94.209139,91 92,91 L83,91 L83,87.8739825 C82.6803801,87.956247 82.3452996,88 82,88 C79.790861,88 78,86.209139 78,84 C78,81.790861 79.790861,80 82,80 C82.3452996,80 82.6803801,80.043753 83,80.1260175 L83,80.1260175 L83,77 C83,75.8954305 82.1045695,75 81,75 L81,75 L76.4648712,75 C76.8052114,74.4116533 77,73.7285743 77,73 C77,70.790861 75.209139,69 73,69 C70.790861,69 69,70.790861 69,73 C69,73.7285743 69.1947886,74.4116533 69.5351288,75 L69.5351288,75 L65,75 C63.8954305,75 63,75.8954305 63,77 L63,77 L63,80.1260175 C63.3196199,80.043753 63.6547004,80 64,80 C66.209139,80 68,81.790861 68,84 C68,86.209139 66.209139,88 64,88 C63.6547004,88 63.3196199,87.956247 63,87.8739825 L63,87.8739825 L63,91 L63,91 L28,91 C25.790861,91 24,89.209139 24,87 L24,34 C24,31.790861 25.790861,30 28,30 L92,30 Z"/>
    <path fill="#57D3D2" stroke="#344B63" stroke-linejoin="round" stroke-width="2" d="M26,53 C28.209139,53 30,54.790861 30,57 C30,57.7290322 29.8049665,58.4125119 29.4642293,59.0011092 L34,59 C35.1045695,59 36,59.8954305 36,61 L36.0007613,64.1262135 C35.6809122,64.0438225 35.3455738,64 35,64 C32.790861,64 31,65.790861 31,68 C31,70.209139 32.790861,72 35,72 C35.3455738,72 35.6809122,71.9561775 36.0007613,71.8737865 L36,75 C36,76.1045695 35.1045695,77 34,77 L18,77 C16.8954305,77 16,76.1045695 16,75 L16.0000851,71.8740044 C16.3196794,71.9562548 16.6547311,72 17,72 C19.209139,72 21,70.209139 21,68 C21,65.790861 19.209139,64 17,64 C16.6547311,64 16.3196794,64.0437452 16.0000851,64.1259956 L16,61 C16,59.8954305 16.8954305,59 18,59 L22.5357707,59.0011092 C22.1950335,58.4125119 22,57.7290322 22,57 C22,54.790861 23.790861,53 26,53 Z" transform="rotate(45 26 65)"/>
    <g transform="translate(24 28)">
      <path fill="#F7F7FA" stroke="#344B63" stroke-width="2" d="M4,0 L68,0 C70.209139,-4.05812251e-16 72,1.790861 72,4 L72,14 L72,14 L0,14 L0,4 C-2.705415e-16,1.790861 1.790861,4.05812251e-16 4,0 Z"/>
      <g fill="#C0C0C4" transform="translate(4 4)">
        <rect width="6" height="6" rx="3"/>
        <rect width="6" height="6" x="9" rx="3"/>
        <rect width="6" height="6" x="18" rx="3"/>
      </g>
    </g>
  </g>
</svg>
