<svg xmlns="http://www.w3.org/2000/svg" width="88" height="79" viewBox="0 0 88 79">
  <g fill="none" fill-rule="evenodd" transform="translate(-23 -27)">
    <path fill="#FFF" stroke="#344B63" stroke-linejoin="round" stroke-width="2" d="M28,30 L92,30 C94.209139,30 96,31.790861 96,34 L96,79.5 L96,79.5 L87.5,91 L28,91 C25.790861,91 24,89.209139 24,87 L24,34 C24,31.790861 25.790861,30 28,30 Z"/>
    <g stroke="#344B63" stroke-linecap="round" transform="translate(46 51)">
      <line x2="12" y1="1" y2="1" stroke-width="2"/>
      <line x2="12" y1="14" y2="14" stroke-width="2"/>
      <line x2="12" y1="27" y2="27" stroke-width="2"/>
      <line x2="30" y1="5" y2="5" stroke-width="2"/>
      <line x2="30" y1="18" y2="18" stroke-width="2"/>
      <line x2="30" y1="31" y2="31" stroke-width="2"/>
    </g>
    <g fill="#FFF" stroke="#344B63" stroke-linejoin="round" transform="translate(32 64)">
      <rect width="8" height="8" x="-1" y="-1" stroke-width="2" rx="4"/>
      <rect width="8" height="8" x="-1" y="12" stroke-width="2" rx="4"/>
    </g>
    <g transform="translate(24 28)">
      <path fill="#E3E3E6" stroke="#344B63" stroke-width="2" d="M4,0 L68,0 C70.209139,-4.05812251e-16 72,1.790861 72,4 L72,14 L72,14 L0,14 L0,4 C-2.705415e-16,1.790861 1.790861,4.05812251e-16 4,0 Z"/>
      <path fill="#C0C0C4" d="M7,4 C8.65685425,4 10,5.34314575 10,7 C10,8.65685425 8.65685425,10 7,10 C5.34314575,10 4,8.65685425 4,7 C4,5.34314575 5.34314575,4 7,4 Z M16,4 C17.6568542,4 19,5.34314575 19,7 C19,8.65685425 17.6568542,10 16,10 C14.3431458,10 13,8.65685425 13,7 C13,5.34314575 14.3431458,4 16,4 Z M25,4 C26.6568542,4 28,5.34314575 28,7 C28,8.65685425 26.6568542,10 25,10 C23.3431458,10 22,8.65685425 22,7 C22,5.34314575 23.3431458,4 25,4 Z"/>
    </g>
    <path fill="#E3E3E6" fill-rule="nonzero" stroke="#344B63" stroke-width="2" d="M107.814413,99.1652119 C107.425957,99.6687861 106.835497,99.8896 106.229809,99.8896 C105.948269,99.8896 105.659878,99.8430439 105.380751,99.7526469 C104.94837,99.6220401 104.535345,99.56 104.101716,99.56 C103.389229,99.56 102.655625,99.7491397 102.001041,100.131223 C100.93623,100.760851 100.248181,101.789722 100.020214,102.894001 C99.9070243,103.420982 99.6618057,103.899551 99.3023896,104.256666 C98.9873074,104.569731 98.5830032,104.78566 98.1114454,104.848863 C97.4102295,104.955952 96.7125,105 96,105 C95.2875,105 94.5897705,104.955952 93.9069225,104.851498 C93.4169968,104.78566 93.0126926,104.569731 92.6976104,104.256666 C92.3381943,103.899551 92.0929757,103.420982 91.981428,102.901795 C91.7518187,101.789722 91.0637698,100.760851 89.9940682,100.12835 C89.344375,99.7491397 88.6107708,99.56 87.8982838,99.56 C87.4646552,99.56 87.0516302,99.6220401 86.6386284,99.7465873 C86.3401223,99.8430439 86.0528996,99.8896 85.7701906,99.8896 C85.1645034,99.8896 84.5740434,99.6687861 84.1899851,99.1709557 C83.3666751,98.0875429 82.6934983,96.8985814 82.1695484,95.6346248 C81.9889116,95.1737363 81.9524837,94.6641327 82.0596656,94.1925106 C82.1571354,93.7636236 82.3752561,93.3639652 82.7197812,93.0796397 C83.5939048,92.3683226 84.1808569,91.3028892 84.2641912,90.0672917 C84.1808569,88.6971108 83.5939048,87.6316774 82.7250708,86.9246948 C82.3752561,86.6360348 82.1571354,86.2363764 82.0596656,85.8074894 C81.9515931,85.3319485 81.9895269,84.8177923 82.1741726,84.3539487 C82.6975278,83.0943049 83.3691234,81.9092352 84.1855874,80.8347881 C84.5740434,80.3312139 85.1645034,80.1104 85.7701906,80.1104 C86.0528996,80.1104 86.3401223,80.1569561 86.6192487,80.2473531 C87.0516302,80.3779599 87.4646552,80.44 87.8982838,80.44 C88.6107708,80.44 89.344375,80.2508603 89.9989587,79.8687771 C91.0637698,79.2391486 91.7518187,78.210278 91.9797864,77.1059987 C92.0929757,76.5790175 92.3381943,76.1004491 92.6976104,75.7433339 C93.0126926,75.4302689 93.4169968,75.2143398 93.8885546,75.1511373 C94.5897705,75.0440478 95.2875,75 96,75 C96.7125,75 97.4102295,75.0440478 98.0930775,75.1485018 C98.5830032,75.2143398 98.9873074,75.4302689 99.3023896,75.7433339 C99.6618057,76.1004491 99.9070243,76.5790175 100.018572,77.0982046 C100.248181,78.210278 100.93623,79.2391486 102.005932,79.8716502 C102.655625,80.2508603 103.389229,80.44 104.101716,80.44 C104.535345,80.44 104.94837,80.3779599 105.361372,80.2534127 C105.659878,80.1569561 105.948269,80.1104 106.229809,80.1104 C106.835497,80.1104 107.425957,80.3312139 107.810015,80.8290443 C108.633325,81.9124571 109.306502,83.1014186 109.830452,84.3653752 C110.011088,84.8262637 110.047516,85.3358673 109.940334,85.8074894 C109.842865,86.2363764 109.624744,86.6360348 109.280219,86.9203603 C108.406095,87.6316774 107.819143,88.6971108 107.735809,89.9327083 C107.819143,91.3028892 108.406095,92.3683226 109.274929,93.0753052 C109.624744,93.3639652 109.842865,93.7636236 109.940334,94.1925106 C110.048407,94.6680515 110.010473,95.1822077 109.825827,95.6460513 C109.302472,96.9056951 108.630877,98.0907648 107.814413,99.1652119 Z M100,90.0730702 C100,88.9685007 99.5522847,87.9685007 98.8284271,87.2446431 C98.1045695,86.5207855 97.1045695,86.0730702 96,86.0730702 C94.8954305,86.0730702 93.8954305,86.5207855 93.1715729,87.2446431 C92.4477153,87.9685007 92,88.9685007 92,90.0730702 C92,91.1776397 92.4477153,92.1776397 93.1715729,92.9014974 C93.8954305,93.625355 94.8954305,94.0730702 96,94.0730702 C97.1045695,94.0730702 98.1045695,93.625355 98.8284271,92.9014974 C99.5522847,92.1776397 100,91.1776397 100,90.0730702 Z"/>
    <g fill="#FF7040" transform="rotate(45 -36.724 64.981)">
      <rect width="4" height="12" x="4" y=".5" fill-rule="nonzero" rx="2"/>
      <rect width="4" height="12" x="4" y=".5" fill-rule="nonzero" rx="2" transform="rotate(90 6 6.5)"/>
    </g>
  </g>
</svg>
