<svg xmlns="http://www.w3.org/2000/svg" width="120" height="120" viewBox="0 0 120 120"><title>120x120_planning_static</title><g id="bounding"><rect width="120" height="120" fill="none"/></g><g id="illu"><path d="M81.79,94H34.21A5.11,5.11,0,0,1,29,89V56a5.11,5.11,0,0,1,5.21-5H81.79A5.11,5.11,0,0,1,87,56V89A5.11,5.11,0,0,1,81.79,94Z" fill="#e3e3e6"/><path d="M81.79,95H34.21A6.11,6.11,0,0,1,28,89V56a6.11,6.11,0,0,1,6.21-6H81.79A6.11,6.11,0,0,1,88,56V89A6.11,6.11,0,0,1,81.79,95ZM34.21,52A4.11,4.11,0,0,0,30,56V89a4.11,4.11,0,0,0,4.21,4H81.79A4.11,4.11,0,0,0,86,89V56a4.11,4.11,0,0,0-4.21-4Z" fill="#344b63"/><path d="M81.79,90H34.21C31.33,90,29,86.76,29,84V52a5.11,5.11,0,0,1,5.21-5H81.79A5.11,5.11,0,0,1,87,52V84C87,86.76,84.67,90,81.79,90Z" fill="#fff"/><path d="M29,39H87a0,0,0,0,1,0,0V51.09A5.91,5.91,0,0,1,81.09,57H34.91A5.91,5.91,0,0,1,29,51.09V39A0,0,0,0,1,29,39Z" transform="translate(116 96) rotate(180)" fill="#f7f7fa"/><rect x="30" y="58" width="55" height="4" fill="#e3e3e6"/><rect x="38" y="43" width="9" height="3" rx="1" ry="1" fill="#344b63"/><rect x="69" y="43" width="9" height="3" rx="1" ry="1" fill="#344b63"/><path d="M93.24,19.54a1,1,0,0,0-.71-1.22L75.14,13.66c-1.86-.5-3.9,1.05-4.55,3.44h0c-.64,2.39.36,4.75,2.22,5.25L90.2,27a1,1,0,0,0,1.22-.71Z" fill="#57d3d2"/><path d="M78.35,76.1a2,2,0,0,1-1.21.93h0c-.36,1.56-2.51,3.13-5.51,3.13-3.29,0-5.58-1.89-5.58-3.58S68.29,73,71.58,73a7.79,7.79,0,0,1,1.08.07,2,2,0,0,0,2.09-1.19h0a2,2,0,0,0-1.62-2.78,11.88,11.88,0,0,0-1.55-.1C66.29,69,62,72.4,62,76.58s4.29,7.58,9.58,7.58,9.58-3.4,9.58-7.58a6.25,6.25,0,0,0-.85-3.11Z" fill="#57d3d2"/><path d="M93.8,29a1,1,0,0,0-1.22.71,1,1,0,0,1-1.22.71L73,25.51a1,1,0,0,1-.71-1.22l.26-1h0L89.94,28a2,2,0,0,0,.52.07,2,2,0,0,0,1.93-1.48L94.2,19.8h0a2,2,0,0,0-1.41-2.45L75.4,12.69c-2.4-.64-5,1.22-5.77,4.15a6.18,6.18,0,0,0,.22,4,4.61,4.61,0,0,0,.93,1.4l-.41,1.54a3,3,0,0,0,2.12,3.67l18.35,4.92a3,3,0,0,0,3.67-2.12A1,1,0,0,0,93.8,29ZM71.56,17.36c.44-1.62,1.68-2.79,2.87-2.79a1.73,1.73,0,0,1,.45.06l17.39,4.66L90.46,26,73.07,21.39A2.17,2.17,0,0,1,71.69,20,4.24,4.24,0,0,1,71.56,17.36Z" fill="#344b63"/><path d="M81.09,38H34.91A6.92,6.92,0,0,0,28,44.91V84c0,3.24,2.71,7,6.21,7H81.79c3.5,0,6.21-3.76,6.21-7V44.91A6.92,6.92,0,0,0,81.09,38ZM30,44.91A4.92,4.92,0,0,1,34.91,40H81.09A4.92,4.92,0,0,1,86,44.91V56H30ZM86,84c0,2.25-1.94,5-4.21,5H34.21C31.94,89,30,86.25,30,84V58H86Z" fill="#344b63"/><path d="M41.81,35h1.38A1.81,1.81,0,0,1,45,36.81V45a0,0,0,0,1,0,0H40a0,0,0,0,1,0,0V36.81A1.81,1.81,0,0,1,41.81,35Z" fill="#fff"/><path d="M46,46H39V36.81A2.81,2.81,0,0,1,41.81,34h1.38A2.81,2.81,0,0,1,46,36.81Zm-5-2h3V36.81a.81.81,0,0,0-.81-.81H41.81a.81.81,0,0,0-.81.81Z" fill="#344b63"/><path d="M72.81,35h1.38A1.81,1.81,0,0,1,76,36.81V45a0,0,0,0,1,0,0H71a0,0,0,0,1,0,0V36.81A1.81,1.81,0,0,1,72.81,35Z" fill="#fff"/><path d="M77,46H70V36.81A2.81,2.81,0,0,1,72.81,34h1.38A2.81,2.81,0,0,1,77,36.81Zm-5-2h3V36.81a.81.81,0,0,0-.81-.81H72.81a.81.81,0,0,0-.81.81Z" fill="#344b63"/><path d="M82.89,73.16l-2.6-1.5c-.48-.28-.14-1.75.13-2.23L98.49,38.15a2,2,0,0,1,2.73-.73l.87.5a2,2,0,0,1,.73,2.73L84.76,71.93C84.48,72.41,83.37,73.44,82.89,73.16Z" fill="#57d3d2"/><path d="M78,80.14l-1.3-.75a.75.75,0,0,1-.27-1L95.36,45.57a1.5,1.5,0,0,1,2-.55h0a1.5,1.5,0,0,1,.55,2L79,79.86A.75.75,0,0,1,78,80.14Z" fill="#57d3d2"/><path d="M78.37,81.24A1.74,1.74,0,0,1,77.5,81h0l-1.3-.75a1.75,1.75,0,0,1-.64-2.39L94.49,45.07a2.5,2.5,0,0,1,4.33,2.5L79.89,80.36A1.75,1.75,0,0,1,78.37,81.24Zm.13-2h0Zm-1.08-.62.87.5L97.09,46.57a.5.5,0,0,0-.87-.5Z" fill="#344b63"/><path d="M79.62,76.83l-.43-.25-.43-.25A2,2,0,0,1,78,73.6l3.3-7.72,14-24.25a2,2,0,0,1,2.73-.73l2.6,1.5a2,2,0,0,1,.73,2.73l-14,24.25-5,6.72a2,2,0,0,1-2.73.73Z" fill="#f7f7fa"/><path d="M102.58,37.06l-.87-.5a3,3,0,0,0-4.1,1.1l-1.18,2a3,3,0,0,0-2,1.42l-14,24.25-3.34,7.78a3,3,0,0,0,1.13,4l.87.5h0a3,3,0,0,0,4.06-1l5-6.68,14.07-24.35a3,3,0,0,0,.24-2.42l1.18-2A3,3,0,0,0,102.58,37.06Zm-1.87,1.23.87.5a1,1,0,0,1,.37,1.37l-.79,1.37h0L98.56,40l.79-1.37A1,1,0,0,1,100.72,38.29Zm-4.52,3.84a1,1,0,0,1,1.37-.37l2.6,1.5a1,1,0,0,1,.37,1.37L87,68l-4.33-2.5ZM81.55,75.5l-.07.1a1,1,0,0,1-.61.47,1,1,0,0,1-.76-.1l-.87-.5a1,1,0,0,1-.37-1.37L81.8,67.3l4.11,2.37Z" fill="#344b63"/></g></svg>