<svg xmlns="http://www.w3.org/2000/svg" width="120" height="120" viewBox="0 0 120 120">
  <g fill="none" fill-rule="evenodd">
    <rect width="120" height="120"/>
    <g transform="translate(12 26)">
      <path fill="#E3E3E6" fill-rule="nonzero" d="M47 10L45.22 10C44.6546153 9.36785607 43.8480832 9.00455333 43 9L24.72 9C24.3648954 8.38491093 23.7102221 8.00428692 23 8L5 8 5 7C5 6.44771525 5.44771525 6 6 6L25 6C25.5522847 6 26 6.44771525 26 7 26 7.55228475 26.4477153 8 27 8 27.5522847 8 28 7.55228475 28 7 28 5.34314575 26.6568542 4 25 4L6 4C4.34314575 4 3 5.34314575 3 7L3 8.58C1.37830952 9.6829608.434762895 11.5398605.5 13.5.5 16.5 2.5 19 5 19L23 19C23.7102221 18.9957131 24.3648954 18.6150891 24.72 18L43 18C43.8480832 17.9954467 44.6546153 17.6321439 45.22 17L47 17C48.1045695 17 49 16.1045695 49 15L49 12C49 10.8954305 48.1045695 10 47 10zM48.29 73.42L47 72.16C47.0488047 71.3125577 46.7363187 70.4841063 46.14 69.88L33.25 57C33.4637039 56.2903338 33.2674407 55.5206743 32.74 55L20 42.31 20.71 41.6C21.1000375 41.2122764 21.7299625 41.2122764 22.12 41.6L35.57 55C35.9577236 55.3900375 35.9577236 56.0199625 35.57 56.41 35.1668322 56.8048836 35.1601165 57.4518321 35.5550001 57.8549999 35.9498836 58.2581678 36.5968321 58.2648835 37 57.87 38.1698135 56.6987298 38.1698135 54.8012702 37 53.63L23.55 40.19C22.3787298 39.0201865 20.4812702 39.0201865 19.31 40.19L18.18 41.32C16.2607859 40.9439807 14.2827964 41.5781452 12.94 43 10.8 45.14 10.48 48.32 12.23 50.07L25 62.82C25.4989432 63.3276962 26.2348863 63.523181 26.92 63.33L39.85 76.26C40.4120694 76.8227699 41.1746186 77.1392998 41.97 77.14L42.13 77.14 43.39 78.4C43.7651365 78.7755541 44.2741815 78.9865733 44.805 78.9865733 45.3358185 78.9865733 45.8448635 78.7755541 46.22 78.4L48.34 76.28C48.7183254 75.8970318 48.9262925 75.3777212 48.9168826 74.8394776 48.9074728 74.301234 48.6814806 73.78951 48.29 73.42zM94.46 12.32L93.33 11.19C93.6973984 9.27051005 93.0557892 7.29661827 91.63 5.96 89.49 3.81 86.31 3.5 84.56 5.25L71.83 18C71.318629 18.5009521 71.1228547 19.2418234 71.32 19.93L58.4 32.82C57.8036813 33.4241063 57.4911953 34.2525577 57.54 35.1L56.28 36.36C55.9044459 36.7351365 55.6934267 37.2441815 55.6934267 37.775 55.6934267 38.3058185 55.9044459 38.8148635 56.28 39.19L58.4 41.31C58.7733503 41.6855878 59.2804232 41.8977672 59.81 41.9 60.3395768 41.8977672 60.8466497 41.6855878 61.22 41.31L62.48 40 62.64 40C63.4353814 39.9992998 64.1979306 39.6827699 64.76 39.12L77.69 26.26C77.8562748 26.3052055 78.0276944 26.3287337 78.2 26.33 78.7295768 26.3277672 79.2366497 26.1155878 79.61 25.74L92.34 13 93.05 13.71C93.4377236 14.1000375 93.4377236 14.7299625 93.05 15.12L79.61 28.58C79.4222334 28.7693127 79.1666375 28.8757983 78.9 28.8757983 78.6333625 28.8757983 78.3777666 28.7693127 78.19 28.58 77.9363414 28.3281278 77.567579 28.2307134 77.222622 28.3244521 76.8776649 28.4181907 76.6089204 28.6888412 76.517622 29.0344521 76.4263235 29.380063 76.5263414 29.7481278 76.78 30 77.9489364 31.1565592 79.8310636 31.1565592 81 30L94.43 16.57C95.5998135 15.3987298 95.5998135 13.5012702 94.43 12.33L94.46 12.32z" style="mix-blend-mode:multiply"/>
      <path stroke="#344B63" stroke-linecap="round" stroke-width="2" d="M4,9 L4,3 C4,1.8954305 4.8954305,1 6,1 L25,1 C26.1045695,1 27,1.8954305 27,3"/>
      <path fill="#57D3D2" fill-rule="nonzero" stroke="#344B63" stroke-width="2" d="M27,-11 L28,-11 C29.1045695,-11 30,-10.1045695 30,-9 L30,29 C30,29.5522847 29.5522847,30 29,30 L26,30 C25.4477153,30 25,29.5522847 25,29 L25,-9 C25,-10.1045695 25.8954305,-11 27,-11 Z" transform="rotate(-90 27.5 9.5)"/>
      <path fill="#F7F7FA" fill-rule="nonzero" stroke="#344B63" stroke-width="2" d="M23,-9 L30,-9 L30,26 C30,27.1045695 29.1045695,28 28,28 L25,28 C23.8954305,28 23,27.1045695 23,26 L23,-9 Z" transform="rotate(-90 26.5 9.5)"/>
      <path stroke="#344B63" stroke-linecap="round" stroke-width="2" d="M15.77,39.14 L20,34.9 C20.3751365,34.5244459 20.8841815,34.3134267 21.415,34.3134267 C21.9458185,34.3134267 22.4548635,34.5244459 22.83,34.9 L36.27,48.33 C36.6455541,48.7051365 36.8565733,49.2141815 36.8565733,49.745 C36.8565733,50.2758185 36.6455541,50.7848635 36.27,51.16"/>
      <path fill="#928CFF" fill-rule="nonzero" stroke="#344B63" stroke-width="2" d="M31.5344494,35.6066262 L32.5344494,35.6066262 C33.6390189,35.6066262 34.5344494,36.5020567 34.5344494,37.6066262 L34.5344494,75.6066262 C34.5344494,76.158911 34.0867341,76.6066262 33.5344494,76.6066262 L30.5344494,76.6066262 C29.9821646,76.6066262 29.5344494,76.158911 29.5344494,75.6066262 L29.5344494,37.6066262 C29.5344494,36.5020567 30.4298799,35.6066262 31.5344494,35.6066262 Z" transform="rotate(-45 32.034 56.107)"/>
      <path fill="#F7F7FA" fill-rule="nonzero" stroke="#344B63" stroke-width="2" d="M27.8203577,36.9066262 L34.8203577,36.9066262 L34.8203577,71.9066262 C34.8203577,73.0111957 33.9249272,73.9066262 32.8203577,73.9066262 L29.8203577,73.9066262 C28.7157882,73.9066262 27.8203577,73.0111957 27.8203577,71.9066262 L27.8203577,36.9066262 Z" transform="rotate(-45 31.32 55.407)"/>
      <path fill="#928CFF" fill-rule="nonzero" stroke="#344B63" stroke-width="2" d="M27.08,56.11 C26.6899625,56.4977236 26.0600375,56.4977236 25.67,56.11 L12.94,43.38 C11.58,42.02 11.94,39.47 13.65,37.72 C15.4,36 17.94,35.66 19.3,37 L32,49.74 C32.3877236,50.1300375 32.3877236,50.7599625 32,51.15 L27.08,56.11 Z"/>
      <path stroke="#344B63" stroke-linecap="round" stroke-width="2" d="M89.51,3.78 L93.75,8 C94.1255541,8.37513651 94.3365733,8.8841815 94.3365733,9.415 C94.3365733,9.9458185 94.1255541,10.4548635 93.75,10.83 L80.32,24.29 C79.9448635,24.6655541 79.4358185,24.8765733 78.905,24.8765733 C78.3741815,24.8765733 77.8651365,24.6655541 77.49,24.29"/>
      <path fill="#64788F" fill-rule="nonzero" stroke="#344B63" stroke-width="2" d="M72.0153268,-0.484280784 L73.0153268,-0.484280784 C74.1198963,-0.484280784 75.0153268,0.411149716 75.0153268,1.51571922 L75.0153268,39.5157192 C75.0153268,40.068004 74.5676116,40.5157192 74.0153268,40.5157192 L71.0153268,40.5157192 C70.4630421,40.5157192 70.0153268,40.068004 70.0153268,39.5157192 L70.0153268,1.51571922 C70.0153268,0.411149716 70.9107573,-0.484280784 72.0153268,-0.484280784 Z" transform="rotate(45 72.515 20.016)"/>
      <path fill="#F7F7FA" fill-rule="nonzero" stroke="#344B63" stroke-width="2" d="M69.7506316,0.841074555 L76.7506316,0.841074555 L76.7506316,35.8410746 C76.7506316,36.9456441 75.8552011,37.8410746 74.7506316,37.8410746 L71.7506316,37.8410746 C70.6460621,37.8410746 69.7506316,36.9456441 69.7506316,35.8410746 L69.7506316,0.841074555 Z" transform="rotate(45 73.25 19.341)"/>
      <path fill="#64788F" fill-rule="nonzero" stroke="#344B63" stroke-width="2" d="M72.54,15.09 C72.1522764,14.6999625 72.1522764,14.0700375 72.54,13.68 L85.27,1 C86.63,-0.36 89.18,3.05311332e-16 90.93,1.71 C92.68,3.46 93,6.01 91.64,7.37 L78.9,20 C78.5099625,20.3877236 77.8800375,20.3877236 77.49,20 L72.54,15.09 Z"/>
      <path fill="#57D3D2" fill-rule="nonzero" stroke="#344B63" stroke-width="2" d="M24,13 C24,13.5522847 23.5522847,14 23,14 L5,14 C3.08,14 1.5,12 1.5,9.5 C1.5,7 3.08,5 5,5 L23,5 C23.5522847,5 24,5.44771525 24,6 L24,13 Z"/>
    </g>
  </g>
</svg>
