<svg xmlns="http://www.w3.org/2000/svg" xmlns:xlink="http://www.w3.org/1999/xlink" width="120" height="120" viewBox="0 0 120 120">
  <defs>
    <path id="120x120_male_static-a" d="M0,8 C0,12.42 2.44,16 9,16 C15.56,16 18,12.42 18,8 C18,3.58 15.56,0 9,0 C2.44,0 0,3.58 0,8 Z"/>
  </defs>
  <g fill="none" fill-rule="evenodd">
    <rect width="120" height="120"/>
    <g transform="translate(44 24)">
      <path fill="#E3E3E6" fill-rule="nonzero" d="M32,72 C32,63.163444 24.836556,56 16,56 C7.163444,56 0,63.163444 0,72" style="mix-blend-mode:multiply"/>
      <g transform="translate(3 19)">
        <path fill="#FFF" fill-rule="nonzero" d="M19,26 L6,26 C2.6862915,26 -7.1e-15,23.3137085 -7.1e-15,20 L-7.1e-15,10 C-7.1e-15,7.3478351 1.0535684,4.80429597 2.92893219,2.92893219 C4.80429597,1.0535684 7.3478351,7.1e-15 10,7.1e-15 L15,7.1e-15 C20.5228475,7.1e-15 25,4.4771525 25,10 L25,20 C25,23.3137085 22.3137085,26 19,26 Z"/>
        <path stroke="#344B63" stroke-width="2" d="M19,26 L6,26 C2.6862915,26 -7.1e-15,23.3137085 -7.1e-15,20 L-7.1e-15,10 C-7.1e-15,7.3478351 1.0535684,4.80429597 2.92893219,2.92893219 C4.80429597,1.0535684 7.3478351,7.1e-15 10,7.1e-15 L15,7.1e-15 C20.5228475,7.1e-15 25,4.4771525 25,10 L25,20 C25,23.3137085 22.3137085,26 19,26 Z"/>
      </g>
      <g transform="translate(6)">
        <path fill="#F7F7FA" fill-rule="nonzero" d="M0,8 C0,12.42 2.44,16 9,16 C15.56,16 18,12.42 18,8 C18,3.58 15.56,0 9,0 C2.44,0 0,3.58 0,8 Z"/>
        <mask id="120x120_male_static-b" fill="#fff">
          <use xlink:href="#120x120_male_static-a"/>
        </mask>
        <g fill="#E3E3E6" fill-rule="nonzero" stroke="#344B63" stroke-width="2" mask="url(#120x120_male_static-b)">
          <g transform="translate(-6 -8)">
            <ellipse cx="8.501" cy="10.495" rx="6.05" ry="4.89" transform="rotate(-45 8.501 10.495)"/>
            <ellipse cx="19.003" cy="9.997" rx="6.22" ry="7.7" transform="rotate(-45 19.003 9.997)"/>
          </g>
        </g>
        <path stroke="#344B63" stroke-width="2" d="M0,8 C0,12.42 2.44,16 9,16 C15.56,16 18,12.42 18,8 C18,3.58 15.56,0 9,0 C2.44,0 0,3.58 0,8 Z"/>
      </g>
      <rect width="6" height="27" x="10" y="45" fill="#E3E3E6" fill-rule="nonzero" stroke="#344B63" stroke-width="2"/>
      <rect width="6" height="27" x="16" y="45" fill="#E3E3E6" fill-rule="nonzero" stroke="#344B63" stroke-width="2"/>
      <polyline fill="#FFF" fill-rule="nonzero" stroke="#344B63" stroke-linecap="round" stroke-width="2" points="24 34 24 47 8 47 8 28"/>
      <path stroke="#344B63" stroke-linecap="round" stroke-width="2" d="M31,72 L1,72"/>
      <circle cx="35" cy="16" r="15" fill="#57D3D2" fill-rule="nonzero" style="mix-blend-mode:multiply"/>
      <path stroke="#FFF" stroke-linecap="round" stroke-width="2" d="M35,7 L35,17"/>
      <circle cx="35" cy="23" r="2" fill="#FFF" fill-rule="nonzero"/>
    </g>
  </g>
</svg>
