<svg xmlns="http://www.w3.org/2000/svg" width="120" height="120" viewBox="0 0 120 120"><title>120x120_tasks_static</title><g id="bounding"><rect width="120" height="120" fill="none"/></g><g id="illu"><rect x="29" y="25" width="62" height="75" rx="5" ry="5" fill="#f7f7fa"/><path d="M30.1,85H86a0,0,0,0,1,0,0v6a5,5,0,0,1-5,5H30.1a0,0,0,0,1,0,0V85A0,0,0,0,1,30.1,85Z" fill="#e3e3e6"/><path d="M80,90a5,5,0,0,0,5-5V33a2,2,0,0,0-2-2H37a2,2,0,0,0-2,2V90Z" fill="#fff"/><path d="M72,21H68.44a8.49,8.49,0,0,0-16.87,0H48a5,5,0,0,0-5,5v7H77V26A5,5,0,0,0,72,21Z" fill="#e3e3e6"/><circle cx="60" cy="21" r="3" fill="#fff"/><path d="M60,25a4,4,0,1,1,4-4A4,4,0,0,1,60,25Zm0-6a2,2,0,1,0,2,2A2,2,0,0,0,60,19Z" fill="#344b63"/><path d="M42,34H78a0,0,0,0,1,0,0v0a5,5,0,0,1-5,5H47a5,5,0,0,1-5-5v0A0,0,0,0,1,42,34Z" fill="#e3e3e6"/><rect x="44" y="45" width="32" height="2" fill="#344b63"/><rect x="44" y="55" width="32" height="2" fill="#344b63"/><polygon points="64 67 44 67 44 65 62 65 64 67" fill="#344b63"/><path d="M75,85V80H26v5h0a5,5,0,0,0,5,5H80A5,5,0,0,1,75,85Z" fill="#f7f7fa"/><path d="M74.87,67.59l-5.3-5.3a2.5,2.5,0,0,0-3.54,0h0a2.5,2.5,0,0,0,0,3.54l5.3,5.3,3.54,3.54,3.54-3.54L99.27,50.27a2.5,2.5,0,0,0,0-3.54h0a2.5,2.5,0,0,0-3.54,0Z" fill="#57d3d2"/><path d="M86,24H77.65A6,6,0,0,0,72,20H69.28a9.5,9.5,0,0,0-18.57,0H48a6,6,0,0,0-5.65,4H34a6,6,0,0,0-6,6V79H25v7h.09A6,6,0,0,0,28,90.18V95a6,6,0,0,0,6,6H86a6,6,0,0,0,6-6V30A6,6,0,0,0,86,24ZM44,26a4,4,0,0,1,4-4h4.45l.1-.88a7.49,7.49,0,0,1,14.89,0l.1.88H72a4,4,0,0,1,4,4v6H44Zm34,8V32h5a1,1,0,0,1,1,1V85a4,4,0,1,1-8,0V79H36V33a1,1,0,0,1,1-1h5v2ZM30,30a4,4,0,0,1,4-4h8v4H37a3,3,0,0,0-3,3V79H30ZM27,85V81H74v4a6,6,0,0,0,1.54,4H31A4,4,0,0,1,27,85ZM90,95a4,4,0,0,1-4,4H34a4,4,0,0,1-4-4V90.91A5.94,5.94,0,0,0,31,91H80a6,6,0,0,0,6-6V33a3,3,0,0,0-3-3H78V26h8a4,4,0,0,1,4,4Z" fill="#344b63"/></g></svg>