<svg width="120" height="120" viewBox="0 0 120 120" fill="none"
    xmlns="http://www.w3.org/2000/svg">
    <g fill="transparent">
        <path d="M109.235 77.5H10.4117" stroke="#1A1C20" stroke-width="2" stroke-linecap="round" stroke-linejoin="round"/>
        <path d="M95.2906 56.5954L104.588 60.1621C105.686 60.5777 106.412 61.629 106.412 62.8028V65.7055H107.824C108.603 65.7055 109.235 66.3375 109.235 67.1172V69.9408C109.235 70.7205 108.603 71.3525 107.824 71.3525H106.412H102.882H101.765C101.212 71.3525 100.771 70.9028 100.707 70.3543C100.213 66.1466 96.6346 62.882 92.2942 62.882C87.9537 62.882 84.3758 66.1466 83.8818 70.3543C83.8174 70.9028 83.3759 71.3525 82.8236 71.3525H81C79.4407 71.3525 78.1765 70.0884 78.1765 68.529V50.1761C78.1765 48.6167 79.4406 47.3525 81 47.3525H83.1177V55.529C83.1177 56.0813 83.5654 56.529 84.1177 56.529H94.9325C95.0549 56.529 95.1763 56.5515 95.2906 56.5954Z" fill="#57D3D2"/>
        <path d="M87.2876 47.3525H83.1177V57.2349H95.1177L88.9371 48.2215C88.5641 47.6776 87.947 47.3525 87.2876 47.3525Z" fill="white"/>
        <path fill-rule="evenodd" clip-rule="evenodd" d="M80.1765 46.3525C78.5197 46.3525 77.1765 47.6957 77.1765 49.3525V69.3525C77.1765 71.0094 78.5197 72.3525 80.1765 72.3525H83.8236C84.3759 72.3525 84.8236 71.9048 84.8236 71.3525C84.8236 67.2266 88.1683 63.882 92.2942 63.882C96.4201 63.882 99.7647 67.2266 99.7647 71.3525C99.7647 71.9048 100.212 72.3525 100.765 72.3525H102.882H106.412H108.235C109.34 72.3525 110.235 71.4571 110.235 70.3525V66.7055C110.235 65.6009 109.34 64.7055 108.235 64.7055H107.412V62.234C107.412 60.9868 106.64 59.8698 105.474 59.4283L95.7343 55.7417C95.6048 55.6401 95.4495 55.5698 95.2799 55.5421C95.17 55.4686 95.0751 55.3736 95.0014 55.262L90.0064 47.6992C89.451 46.8584 88.5107 46.3525 87.5031 46.3525H83.1177H80.1765ZM82.1177 48.3525H80.1765C79.6242 48.3525 79.1765 48.8003 79.1765 49.3525V69.3525C79.1765 69.9048 79.6242 70.3525 80.1765 70.3525H82.8757C83.3753 65.5921 87.4015 61.882 92.2942 61.882C94.9346 61.882 97.3226 62.9625 99.0402 64.7055H105.412V62.234C105.412 61.8183 105.155 61.4459 104.766 61.2987L94.8066 57.529H83.1177C82.5654 57.529 82.1177 57.0813 82.1177 56.529V48.3525ZM92.7809 55.529H84.1177V48.3525H87.5031C87.839 48.3525 88.1524 48.5212 88.3375 48.8014L92.7809 55.529ZM106.412 70.3525H102.882H101.713C101.575 69.0381 101.168 67.8038 100.548 66.7055L106.41 66.7055L106.412 66.7055L106.414 66.7055H108.235V70.3525H106.412Z" fill="#1A1C20"/>
        <path d="M73.9412 44.5295V69.9413C73.9412 70.721 73.3091 71.353 72.5294 71.353H41.0588C40.5066 71.353 40.065 70.9033 40.0006 70.3548C39.5066 66.1471 35.9287 62.8825 31.5883 62.8825C27.2478 62.8825 23.6699 66.1471 23.1759 70.3548C23.1115 70.9033 22.6699 71.353 22.1177 71.353H17.4706C16.6909 71.353 16.0588 70.721 16.0588 69.9413V67.1177C16.0588 66.3381 16.6909 65.706 17.4706 65.706H17.8824C18.4347 65.706 18.8824 65.2583 18.8824 64.706V31.8236C18.8824 31.0439 19.5144 30.4119 20.2941 30.4119H86.6471C87.4268 30.4119 88.0588 31.0439 88.0588 31.8236V41.706C88.0588 42.4857 87.4268 43.1177 86.6471 43.1177H75.353C74.5733 43.1177 73.9412 43.7498 73.9412 44.5295Z" fill="white"/>
        <path d="M40 71.5H73C73.5523 71.5 74 71.0523 74 70.5V44C74 43.4477 74.4477 43 75 43H87C87.5523 43 88 42.5523 88 42V31C88 30.4477 87.5523 30 87 30H19C18.4477 30 18 30.4477 18 31V65C18 65.5523 17.5523 66 17 66V66C16.4477 66 16 66.4477 16 67V70.5C16 71.0523 16.4477 71.5 17 71.5H22.8" stroke="#1A1C20" stroke-width="2" stroke-linecap="round"/>
        <path d="M75 43H68" stroke="#1A1C20" stroke-width="2" stroke-linecap="round" stroke-linejoin="round"/>
        <path d="M24.5 67C25.0523 67 25.5 66.5523 25.5 66C25.5 65.4477 25.0523 65 24.5 65V67ZM18 65H17V67H18V65ZM24.5 65H18V67H24.5V65Z" fill="#1A1C20"/>
        <path d="M40 71.5C40 66.8056 36.1944 63 31.5 63C26.8056 63 23 66.8056 23 71.5" stroke="#1A1C20" stroke-width="2" stroke-linecap="round"/>
        <path d="M46.7359 55.4906L40.9245 46.5094H46.7359V55.4906Z" fill="#00B2B2"/>
        <path d="M46.7359 45.9811H33L46.7359 37V45.9811Z" fill="#00B2B2"/>
        <path d="M47.2642 37L55.6716 49.9934L47.2642 55.4906L47.2642 37Z" fill="#00B2B2"/>
        <path d="M56.1138 49.7043L61 46.5094L54.0466 46.5094L56.1138 49.7043Z" fill="#00B2B2"/>
        <path d="M27 41H13" stroke="#1A1C20" stroke-width="2" stroke-linecap="round" stroke-linejoin="round"/>
        <path d="M27 37H15" stroke="#1A1C20" stroke-width="2" stroke-linecap="round" stroke-linejoin="round"/>
        <circle cx="92.5" cy="71.5" r="4.5" fill="#E4E4E6" stroke="#1A1C20" stroke-width="2"/>
        <circle cx="92.5" cy="71.5" r="1" stroke="#1A1C20"/>
        <circle cx="31.5" cy="71.5" r="4.5" fill="#E4E4E6" stroke="#1A1C20" stroke-width="2"/>
        <circle cx="31.5" cy="71.5" r="1" stroke="#1A1C20"/>
    </g>
</svg>
