<svg xmlns="http://www.w3.org/2000/svg" width="120" height="120" viewBox="0 0 120 120"><title>120x120_bullhorn_static</title><g id="bounding"><rect width="120" height="120" fill="none"/></g><g id="illu"><path d="M35.54,96.8l-1.78.56c-.89.28-1.76-.52-1.76-1.61V79h7V91.42A5.49,5.49,0,0,1,35.54,96.8Z" fill="#e3e3e6"/><rect x="33" y="82" width="5" height="4" fill="#c0c0c4"/><path d="M31,78V95.75A2.75,2.75,0,0,0,32.08,98a2.23,2.23,0,0,0,1.32.44,2.2,2.2,0,0,0,.67-.1l1.78-.56A6.5,6.5,0,0,0,40,91.42V78Zm7,13.42a4.5,4.5,0,0,1-2.77,4.42l-1.78.56a.2.2,0,0,1-.2,0,.77.77,0,0,1-.26-.62V92h2a1,1,0,0,0,0-2H33V87h2a1,1,0,0,0,0-2H33V80h5Z" fill="#344b63"/><path d="M45.16,56.25a8.47,8.47,0,0,1-3.48.75H28a12,12,0,1,0,0,24H42a8.47,8.47,0,0,1,3.57.79L59,87.62V50.38Z" fill="#f7f7fa"/><rect x="57" y="48" width="5" height="42" fill="#e3e3e6"/><path d="M75.75,15.66A26.6,26.6,0,0,0,74,66.41c-.8,3.24-2.62,7.12-6.78,8.27a16.08,16.08,0,0,0,18.94-7,26.6,26.6,0,1,0-10.44-52Z" fill="#57d3d2"/><circle cx="75" cy="41" r="3" fill="#fff"/><circle cx="84" cy="41" r="3" fill="#fff"/><circle cx="93" cy="41" r="3" fill="#fff"/><path d="M62,47H57a1,1,0,0,0-1,1v2.57L44.75,55.34a7.36,7.36,0,0,1-.81.3,1,1,0,0,0-1.89.1L41.7,56H29s-.45-1-1-1a1,1,0,0,0-1,1v0a13,13,0,0,0-8.68,21.67A13.13,13.13,0,0,0,28,82v-.06c-.21,0-.11.06,0,.06h14a7.49,7.49,0,0,1,3.15.7L56,87.41V90a1,1,0,0,0,1,1h5a1,1,0,0,0,1-1V48A1,1,0,0,0,62,47ZM42,80H29V75H42Zm0-7H29V58H41.69L42,58Zm4,7.89a9.46,9.46,0,0,0-2-.68V57.7a9.3,9.3,0,0,0,1.56-.53L56,52.74V85.22ZM61,89H58V49h3Z" fill="#344b63"/><rect x="29" y="61" width="13" height="12" fill="#e3e3e6"/><rect x="29" y="75" width="13" height="5" fill="#e3e3e6"/><path d="M27,79.9a11,11,0,0,1,0-21.82Z" fill="#f7f7fa"/></g></svg>