<svg xmlns="http://www.w3.org/2000/svg" xmlns:xlink="http://www.w3.org/1999/xlink" width="120" height="120" viewBox="0 0 120 120">
  <defs>
    <circle id="account_created-a" cx="11" cy="11" r="11"/>
  </defs>
  <g fill="none" fill-rule="evenodd">
    <g transform="translate(24 28)">
      <path fill="#FFF" stroke="#344B63" stroke-linejoin="round" stroke-width="2" d="M4,2 L68,2 C70.209139,2 72,3.790861 72,6 L72,51.5 L63.5,63 L4,63 C1.790861,63 2.705415e-16,61.209139 0,59 L0,6 C-2.705415e-16,3.790861 1.790861,2 4,2 Z"/>
      <g stroke="#344B63" stroke-linecap="round" stroke-width="2" transform="translate(38 27)">
        <path d="M0 1L12 1M0 7L22 7M0 13L22 13M0 19L18.4181532 19"/>
      </g>
      <g transform="translate(9 26)">
        <mask id="account_created-b" fill="#fff">
          <use xlink:href="#account_created-a"/>
        </mask>
        <circle cx="11" cy="11" r="12" stroke="#344B63" stroke-width="2"/>
        <circle cx="11" cy="9" r="4" fill="#FFF" fill-rule="nonzero" stroke="#344B63" stroke-linecap="round" stroke-width="2" mask="url(#account_created-b)"/>
        <path fill="#FFF" fill-rule="nonzero" stroke="#344B63" stroke-linecap="round" stroke-width="2" d="M3.14614332,25.0926109 C2.81546898,25.09587 2.49981843,24.9547444 2.28174867,24.7061448 C2.06367892,24.4575453 1.96488022,24.1261988 2.01119293,23.7987675 C2.64877521,19.3242635 6.48029906,16 11,16 C15.5197009,16 19.3512248,19.3242635 19.9888071,23.7987675 C20.0351198,24.1261988 19.9363211,24.4575453 19.7182513,24.7061448 C19.5001816,24.9547444 19.184531,25.09587 18.8538567,25.0926109 L3.14614332,25.0926109 Z" mask="url(#account_created-b)"/>
      </g>
      <path fill="#E3E3E6" stroke="#344B63" stroke-width="2" d="M4,0 L68,0 C70.209139,-4.05812251e-16 72,1.790861 72,4 L72,14 L0,14 L0,4 C-2.705415e-16,1.790861 1.790861,4.05812251e-16 4,0 Z"/>
      <path fill="#C0C0C4" d="M7,4 C8.65685425,4 10,5.34314575 10,7 C10,8.65685425 8.65685425,10 7,10 C5.34314575,10 4,8.65685425 4,7 C4,5.34314575 5.34314575,4 7,4 Z M16,4 C17.6568542,4 19,5.34314575 19,7 C19,8.65685425 17.6568542,10 16,10 C14.3431458,10 13,8.65685425 13,7 C13,5.34314575 14.3431458,4 16,4 Z M25,4 C26.6568542,4 28,5.34314575 28,7 C28,8.65685425 26.6568542,10 25,10 C23.3431458,10 22,8.65685425 22,7 C22,5.34314575 23.3431458,4 25,4 Z"/>
    </g>
    <g transform="translate(81 77)">
      <path fill="#57D3D2" stroke="#344B63" stroke-width="2" d="M20,24 L4,24 C1.791,24 0,22.209 0,20 L0,4 C0,1.791 1.791,0 4,0 L20,0 C22.209,0 24,1.791 24,4 L24,20 C24,22.209 22.209,24 20,24"/>
      <path fill="#FFF" d="M10.8457,16.2842 L6.2927,11.7302 C5.9027,11.3402 5.9027,10.7072 6.2927,10.3162 C6.6837,9.9262 7.3167,9.9262 7.7067,10.3162 L10.8457,13.4562 L16.2927,8.0092 C16.6837,7.6182 17.3167,7.6182 17.7067,8.0092 C18.0977,8.3992 18.0977,9.0322 17.7067,9.4232 L10.8457,16.2842 Z"/>
    </g>
  </g>
</svg>
