<svg width="120" height="121" viewBox="0 0 120 121" fill="none" xmlns="http://www.w3.org/2000/svg">
<path fill-rule="evenodd" clip-rule="evenodd" d="M43 61.5H31L55 45.5L70 69.5L55 79.5L43 61.5ZM70 69.5L64.5 60.5H83.5L70 69.5Z" fill="white"/>
<path d="M31 61.5L30.4453 60.6679C30.0786 60.9124 29.9152 61.368 30.0429 61.7898C30.1706 62.2115 30.5593 62.5 31 62.5V61.5ZM43 61.5L43.8321 60.9453C43.6466 60.6671 43.3344 60.5 43 60.5V61.5ZM55 45.5L55.848 44.97C55.7047 44.7408 55.4748 44.5793 55.2105 44.5224C54.9463 44.4655 54.6702 44.518 54.4453 44.6679L55 45.5ZM55 79.5L54.1679 80.0547C54.3151 80.2754 54.5438 80.4286 54.8039 80.4806C55.0639 80.5326 55.334 80.4792 55.5547 80.3321L55 79.5ZM64.5 60.5V59.5C64.1383 59.5 63.8047 59.6953 63.6278 60.0108C63.4509 60.3263 63.4581 60.7128 63.6467 61.0215L64.5 60.5ZM83.5 60.5L84.0547 61.3321C84.4214 61.0876 84.5848 60.632 84.4571 60.2102C84.3294 59.7885 83.9407 59.5 83.5 59.5V60.5ZM31 62.5H43V60.5H31V62.5ZM54.4453 44.6679L30.4453 60.6679L31.5547 62.3321L55.5547 46.3321L54.4453 44.6679ZM70.848 68.97L55.848 44.97L54.152 46.03L69.152 70.03L70.848 68.97ZM55.5547 80.3321L70.5547 70.3321L69.4453 68.6679L54.4453 78.6679L55.5547 80.3321ZM42.168 62.0547L54.1679 80.0547L55.8321 78.9453L43.8321 60.9453L42.168 62.0547ZM63.6467 61.0215L69.1467 70.0215L70.8533 68.9785L65.3533 59.9785L63.6467 61.0215ZM83.5 59.5H64.5V61.5H83.5V59.5ZM70.5547 70.3321L84.0547 61.3321L82.9453 59.6679L69.4453 68.6679L70.5547 70.3321Z" fill="#1A1C20"/>
<path fill-rule="evenodd" clip-rule="evenodd" d="M54 62.5V79.5H56V45.5H54V60.5H43V62.5H54Z" fill="#1A1C20"/>
<path d="M45 96.5L27 87.5L36.5 81.5L45 96.5Z" fill="#57D3D2" stroke="#1A1C20" stroke-width="2" stroke-linecap="round" stroke-linejoin="round"/>
<path d="M54 47.3L34.35 60.5H54V47.3Z" fill="#57D3D2"/>
<path d="M79 48.5L65 19.5L88.5 33.5L79 48.5Z" fill="#57D3D2" stroke="#1A1C20" stroke-width="2" stroke-linecap="round" stroke-linejoin="round"/>
<path d="M89.5 74L73.5 83L82.5 88L89.5 74Z" fill="#57D3D2" stroke="#1A1C20" stroke-width="2" stroke-linecap="round" stroke-linejoin="round"/>
</svg>
