<svg xmlns="http://www.w3.org/2000/svg" xmlns:xlink="http://www.w3.org/1999/xlink" width="120" height="120" viewBox="0 0 120 120">
  <defs>
    <polygon id="120x120_female_static-a" points="6 27 2 27 0 0 6 0"/>
    <path id="120x120_female_static-c" d="M16,8 C16,12.42 13.83,16 8,16 C2.17,16 0,12.42 0,8 C0,3.58 2.17,0 8,0 C13.83,0 16,3.58 16,8 Z"/>
  </defs>
  <g fill="none" fill-rule="evenodd">
    <rect width="120" height="120"/>
    <g transform="translate(44 24)">
      <circle cx="35" cy="16" r="15" fill="#928CFF" fill-rule="nonzero"/>
      <path fill="#E3E3E6" fill-rule="nonzero" d="M32,72 C32,63.163444 24.836556,56 16,56 C7.163444,56 0,63.163444 0,72"/>
      <g transform="translate(10 45)">
        <polygon fill="#E3E3E6" fill-rule="nonzero" points="6 27 2 27 0 0 6 0"/>
        <mask id="120x120_female_static-b" fill="#fff">
          <use xlink:href="#120x120_female_static-a"/>
        </mask>
        <path fill="#E3E3E6" fill-rule="nonzero" d="M12,6 L11.31,15.2 C7.66000968,16.0002005 3.87999032,16.0002005 0.23,15.2 L-0.41,6.58 C2.08,3 4.69,-1.17 4.69,-5.03 L7.85,-5.03 C7.85,-1.35 9.9,2.57 12,6 Z" mask="url(#120x120_female_static-b)" style="mix-blend-mode:multiply"/>
        <polygon stroke="#344B63" stroke-width="2" points="6 27 2 27 0 0 6 0"/>
      </g>
      <g transform="translate(16 45)">
        <polygon fill="#E3E3E6" fill-rule="nonzero" points="4 27 0 27 0 0 6 0"/>
        <polygon stroke="#344B63" stroke-width="2" points="4 27 0 27 0 0 6 0"/>
      </g>
      <path fill="#E3E3E6" fill-rule="nonzero" stroke="#344B63" stroke-width="2" d="M7,0 C9.76142375,3.55271368e-15 12,2.23857625 12,5 C12,7.76142375 9.76142375,10 7,10 L2,10 L2,5 C2,2.23857625 4.23857625,3.55271368e-15 7,3.55271368e-15 Z"/>
      <g transform="translate(4 19)">
        <path fill="#FFF" fill-rule="nonzero" d="M17,26 L6,26 C2.6862915,26 0,23.3137085 0,20 L1,10 C1,4.4771525 5.4771525,7.1e-15 11,7.1e-15 L12,7.1e-15 C17.5228475,7.1e-15 22,4.4771525 22,10 L23,20 C23,23.3137085 20.3137085,26 17,26 Z"/>
        <path stroke="#344B63" stroke-width="2" d="M17,26 L6,26 C2.6862915,26 0,23.3137085 0,20 L1,10 C1,4.4771525 5.4771525,7.1e-15 11,7.1e-15 L12,7.1e-15 C17.5228475,7.1e-15 22,4.4771525 22,10 L23,20 C23,23.3137085 20.3137085,26 17,26 Z"/>
      </g>
      <g transform="translate(7)">
        <path fill="#F7F7FA" fill-rule="nonzero" d="M16,8 C16,12.42 13.83,16 8,16 C2.17,16 0,12.42 0,8 C0,3.58 2.17,0 8,0 C13.83,0 16,3.58 16,8 Z"/>
        <mask id="120x120_female_static-d" fill="#fff">
          <use xlink:href="#120x120_female_static-c"/>
        </mask>
        <ellipse cx="8" cy=".5" fill="#E3E3E6" fill-rule="nonzero" stroke="#344B63" stroke-width="2" mask="url(#120x120_female_static-d)" rx="9" ry="7.5"/>
        <path stroke="#344B63" stroke-width="2" d="M16,8 C16,12.42 13.83,16 8,16 C2.17,16 0,12.42 0,8 C0,3.58 2.17,0 8,0 C13.83,0 16,3.58 16,8 Z"/>
      </g>
      <path fill="#FFF" fill-rule="nonzero" stroke="#344B63" stroke-linecap="round" stroke-width="2" d="M22,30 L22,37 L25.42,51.54 C25.560756,52.1355712 25.4210919,52.7628064 25.0409357,53.2423881 C24.6607795,53.7219697 24.0819772,54.0011075 23.47,54 L8.38,54 C7.78295591,54.0092271 7.21301723,53.7512029 6.82601563,53.2964761 C6.43901402,52.8417492 6.27543351,52.2378883 6.38,51.65 L9,37 L9,29"/>
      <path fill="#FFF" fill-rule="nonzero" stroke="#344B63" stroke-linecap="round" stroke-linejoin="round" stroke-width="2" d="M7,48 L24,48"/>
      <path stroke="#344B63" stroke-linecap="round" stroke-width="2" d="M31,72 L1,72"/>
      <path stroke="#FFF" stroke-linecap="round" stroke-width="2" d="M35,7 L35,17"/>
      <circle cx="35" cy="23" r="2" fill="#FFF" fill-rule="nonzero"/>
    </g>
  </g>
</svg>
