<svg xmlns="http://www.w3.org/2000/svg" width="120" height="120" viewBox="0 0 120 120"><title>120x120_sharpies_static</title><g id="bounding"><rect width="120" height="120" fill="none"/></g><g id="illu"><path d="M17,33H35a2,2,0,0,1,1.72,1H55a3,3,0,0,1,2.22,1H59a2,2,0,0,1,2,2v3a2,2,0,0,1-2,2H57.22A3,3,0,0,1,55,43H36.72A2,2,0,0,1,35,44H17c-2.48,0-4.5-2.47-4.5-5.5A5.72,5.72,0,0,1,15,33.58Z" fill="#e3e3e6"/><path d="M60.29,99.42,59,98.16a3,3,0,0,0-.86-2.28L45.25,83A2,2,0,0,0,44.74,81L32,68.31l.71-.71a1,1,0,0,1,1.41,0L47.57,81a1,1,0,0,1,0,1.41A1,1,0,0,0,49,83.87a3,3,0,0,0,0-4.24L35.55,66.19a3,3,0,0,0-4.24,0l-1.13,1.13A5.7,5.7,0,0,0,24.94,69c-2.14,2.14-2.46,5.32-.71,7.07L37,88.82a1.95,1.95,0,0,0,1.92.51l12.93,12.93a3,3,0,0,0,2.12.88l.16,0,1.26,1.26a2,2,0,0,0,2.83,0l2.12-2.12A2,2,0,0,0,60.29,99.42Z" fill="#e3e3e6"/><path d="M106.46,38.32l-1.13-1.13a5.7,5.7,0,0,0-1.7-5.23c-2.14-2.15-5.32-2.46-7.07-.71L83.83,44a1.95,1.95,0,0,0-.51,1.93L70.4,58.82a3,3,0,0,0-.86,2.28l-1.26,1.26a2,2,0,0,0,0,2.83l2.12,2.12a2,2,0,0,0,1.41.59h0a2,2,0,0,0,1.41-.59L74.48,66h.16a3,3,0,0,0,2.12-.88L89.69,52.26a2,2,0,0,0,.51.07h0a2,2,0,0,0,1.41-.59L104.34,39l.71.71a1,1,0,0,1,0,1.41L91.61,54.58a1,1,0,0,1-1.42,0A1,1,0,0,0,88.78,56,3,3,0,0,0,93,56l13.43-13.43a3,3,0,0,0,0-4.24Z" fill="#e3e3e6"/><path d="M39,15h1a2,2,0,0,1,2,2V55a1,1,0,0,1-1,1H38a1,1,0,0,1-1-1V17a2,2,0,0,1,2-2Z" transform="translate(4 75) rotate(-90)" fill="#57d3d2"/><path d="M35,17h7a0,0,0,0,1,0,0V52a2,2,0,0,1-2,2H37a2,2,0,0,1-2-2V17A0,0,0,0,1,35,17Z" transform="translate(3 74) rotate(-90)" fill="#f7f7fa"/><rect x="36.5" y="33.5" width="5" height="4" transform="translate(3.5 74.5) rotate(-90)" fill="#e3e3e6"/><path d="M36,39a1,1,0,0,1-1,1H17c-1.92,0-3.5-2-3.5-4.5h0C13.5,33,15.08,31,17,31H35a1,1,0,0,1,1,1Z" fill="#57d3d2"/><path d="M59,32H57.22A3,3,0,0,0,55,31H36.72A2,2,0,0,0,35,30H17V29a1,1,0,0,1,1-1H37a1,1,0,0,1,1,1,1,1,0,0,0,2,0,3,3,0,0,0-3-3H18a3,3,0,0,0-3,3v1.58a5.72,5.72,0,0,0-2.5,4.92c0,3,2,5.5,4.5,5.5H35a2,2,0,0,0,1.72-1H55a3,3,0,0,0,2.22-1H59a2,2,0,0,0,2-2V34A2,2,0,0,0,59,32ZM35,39H17c-1.36,0-2.5-1.6-2.5-3.5S15.64,32,17,32H35Zm21-2a1,1,0,0,1-1,1H37V33H55a1,1,0,0,1,1,1Zm3,0H58V34h1Z" fill="#344b63"/><path d="M84.08,25.32h1a2,2,0,0,1,2,2v38a1,1,0,0,1-1,1h-3a1,1,0,0,1-1-1v-38a2,2,0,0,1,2-2Z" transform="translate(57.17 -46.38) rotate(45)" fill="#82828c"/><path d="M81.78,26.61h7a0,0,0,0,1,0,0v35a2,2,0,0,1-2,2h-3a2,2,0,0,1-2-2v-35a0,0,0,0,1,0,0Z" transform="translate(56.88 -47.09) rotate(45)" fill="#f7f7fa"/><rect x="82.43" y="43.46" width="5" height="4" transform="translate(57.02 -46.74) rotate(45)" fill="#e3e3e6"/><path d="M84.58,40.87a1,1,0,0,1,0-1.41L97.3,26.73c1.36-1.36,3.91-1,5.66.71h0c1.75,1.75,2.07,4.3.71,5.66L90.94,45.82a1,1,0,0,1-1.41,0Z" fill="#82828c"/><path d="M73.26,62.08l1.26-1.26A3,3,0,0,0,76.8,60L89.72,47a2,2,0,0,0,1.92-.51L104.38,33.8l.71.71a1,1,0,0,1,0,1.41L91.65,49.35a1,1,0,0,1-1.41,0,1,1,0,0,0-1.41,1.41,3,3,0,0,0,4.24,0L106.5,37.33a3,3,0,0,0,0-4.24L105.38,32a5.72,5.72,0,0,0-1.71-5.25c-2.14-2.14-5.32-2.46-7.07-.71L83.87,38.75a2,2,0,0,0-.51,1.92L70.43,53.6a3,3,0,0,0-.86,2.28l-1.26,1.26a2,2,0,0,0,0,2.83l2.12,2.12A2,2,0,0,0,73.26,62.08Zm12-21.92L98,27.43c1-1,2.9-.63,4.24.71s1.67,3.28.71,4.24L90.23,45.11ZM71.85,56.42a1,1,0,0,1,0-1.41L84.58,42.28l3.54,3.54L75.38,58.55a1,1,0,0,1-1.41,0Zm-2.12,2.12.71-.71L72.56,60h0l-.71.71Z" fill="#344b63"/><path d="M44.09,62.25h1a2,2,0,0,1,2,2v38a1,1,0,0,1-1,1h-3a1,1,0,0,1-1-1v-38a2,2,0,0,1,2-2Z" transform="translate(-45.45 55.77) rotate(-45)" fill="#928cff"/><path d="M40.39,63.54h7a0,0,0,0,1,0,0v35a2,2,0,0,1-2,2h-3a2,2,0,0,1-2-2v-35a0,0,0,0,1,0,0Z" transform="translate(-45.16 55.06) rotate(-45)" fill="#f7f7fa"/><rect x="41.74" y="80.4" width="5" height="4" transform="translate(-45.31 55.42) rotate(-45)" fill="#e3e3e6"/><path d="M39.64,82.75a1,1,0,0,1-1.41,0L25.5,70c-1.36-1.36-1-3.91.71-5.66h0c1.75-1.75,4.3-2.07,5.66-.71L44.59,76.39a1,1,0,0,1,0,1.41Z" fill="#928cff"/><path d="M60.86,94.06,59.6,92.81a3,3,0,0,0-.86-2.28L45.81,77.6a2,2,0,0,0-.51-1.92L32.57,63l.71-.71a1,1,0,0,1,1.41,0L48.13,75.68a1,1,0,0,1,0,1.41,1,1,0,1,0,1.41,1.41,3,3,0,0,0,0-4.24L36.11,60.83a3,3,0,0,0-4.24,0l-1.12,1.12a5.72,5.72,0,0,0-5.25,1.71C23.36,65.8,23,69,24.79,70.73L37.52,83.46a2,2,0,0,0,1.92.51L52.37,96.89a3,3,0,0,0,2.28.86L55.91,99a2,2,0,0,0,2.83,0l2.12-2.12A2,2,0,0,0,60.86,94.06ZM38.94,82,26.21,69.32c-1-1-.63-2.9.71-4.24s3.28-1.67,4.24-.71L43.89,77.09ZM55.2,95.48a1,1,0,0,1-1.41,0L41.06,82.75l3.54-3.54L57.32,91.94a1,1,0,0,1,0,1.41Zm2.12,2.12-.71-.71,2.12-2.12h0l.71.71Z" fill="#344b63"/></g></svg>