<svg xmlns="http://www.w3.org/2000/svg" width="120" height="120" viewBox="0 0 120 120"><title>120x120_styleguide_static</title><g id="bounding"><rect width="120" height="120" fill="none"/></g><g id="illu"><rect x="27" y="16" width="12" height="71" fill="#57d3d2"/><rect x="47" y="16" width="12" height="71" fill="#928cff"/><rect x="67" y="16" width="12" height="71" fill="#e3e3e6"/><rect x="23" y="41" width="74" height="7" fill="#f7f7fa"/><path d="M98,49H22V40H98ZM24,47H96V42H24Z" fill="#344b63"/><rect x="23" y="55" width="74" height="7" fill="#e3e3e6"/><path d="M98,63H22V54H98ZM24,61H96V56H24Z" fill="#344b63"/><rect x="23" y="69" width="74" height="7" fill="#c0c0c4"/><path d="M98,77H22V68H98ZM24,75H96V70H24Z" fill="#344b63"/><rect x="22" y="33" width="76" height="2" fill="#344b63"/><path d="M96,28V26h2v2Zm-3,0V26h2v2Zm-3,0V26h2v2Zm-3,0V26h2v2Zm-3,0V26h2v2Zm-3,0V26h2v2Zm-3,0V26h2v2Zm-3,0V26h2v2Zm-3,0V26h2v2Zm-3,0V26h2v2Zm-3,0V26h2v2Zm-3,0V26h2v2Zm-3,0V26h2v2Zm-3,0V26h2v2Zm-3,0V26h2v2Zm-3,0V26h2v2Zm-3,0V26h2v2Zm-3,0V26h2v2Zm-3,0V26h2v2Zm-3,0V26h2v2Zm-3,0V26h2v2Zm-3,0V26h2v2Zm-3,0V26h2v2Zm-3,0V26h2v2Zm-3,0V26h2v2Z" fill="#344b63"/><path d="M32,98V97H20v1h0a5,5,0,0,0,5,5H37A5,5,0,0,1,32,98Z" fill="#f7f7fa"/><path d="M37,104H25a6,6,0,0,1-5.91-5H19V96H33v2a4,4,0,0,0,4,4ZM21,98a4,4,0,0,0,4,4h7.54A6,6,0,0,1,31,98Z" fill="#344b63"/><path d="M59,99V94H40v5h0a5,5,0,0,0,5,5H64A5,5,0,0,1,59,99Z" fill="#f7f7fa"/><path d="M64,105H45a6,6,0,0,1-5.91-5H39V93H60v6a4,4,0,0,0,4,4ZM41,98.68V99a4,4,0,0,0,4,4H59.54A6,6,0,0,1,58,99V95H41Z" fill="#344b63"/><path d="M81,104H79V96a1,1,0,0,0-1-1H68V93H78a3,3,0,0,1,3,3Z" fill="#344b63"/><path d="M103.81,104h-2a9,9,0,0,0-9-9h-2V93h2A11,11,0,0,1,103.81,104Z" fill="#344b63"/><path d="M10,32c0,4.42,2.44,8,9,8s9-3.58,9-8-2.44-8-9-8S10,27.58,10,32Z" fill="#f7f7fa"/></g></svg>