<svg xmlns="http://www.w3.org/2000/svg" width="120" height="120" viewBox="0 0 120 120">
  <g fill="none" fill-rule="evenodd">
    <rect width="120" height="120"/>
    <g fill-rule="nonzero" transform="translate(21 28)">
      <path fill="#E3E3E6" stroke="#344B63" stroke-width="2" d="M0,60 L0,54 L51,54 L51,60 C51,62.7614237 53.2385763,65 56,65 L5,65 C2.23857625,65 0,62.7614237 0,60 Z"/>
      <path fill="#FFF" stroke="#344B63" stroke-width="2" d="M56,65 C57.3260824,65 58.597852,64.4732158 59.5355339,63.5355339 C60.4732158,62.597852 61,61.3260824 61,60 L61,2 C61,0.8954305 60.1045695,0 59,0 L14,0 C12.3431458,-3.55271368e-15 11,1.34314575 11,3 L11,60 C11,62.7614237 8.76142375,65 6,65 L56,65 Z"/>
      <rect width="32" height="2" x="20" y="24" fill="#344B63"/>
      <rect width="33" height="2" x="4.5" y="34.5" fill="#344B63" transform="rotate(90 21 35.5)"/>
      <rect width="33" height="2" x="34.5" y="34.5" fill="#344B63" transform="rotate(90 51 35.5)"/>
      <rect width="33" height="2" x="24.5" y="34.5" fill="#344B63" transform="rotate(90 41 35.5)"/>
      <rect width="33" height="2" x="14.5" y="34.5" fill="#344B63" transform="rotate(90 31 35.5)"/>
      <rect width="32" height="2" x="20" y="31" fill="#344B63"/>
      <rect width="32" height="2" x="20" y="38" fill="#344B63"/>
      <rect width="32" height="2" x="20" y="45" fill="#344B63"/>
      <rect width="32" height="2" x="20" y="52" fill="#344B63"/>
      <path fill="#E3E3E6" stroke="#344B63" stroke-width="2" d="M22,12 L50,12 C50.5522847,12 51,12.4477153 51,13 L51,18 L21,18 L21,13 C21,12.4477153 21.4477153,12 22,12 Z"/>
    </g>
  </g>
</svg>
