<svg xmlns="http://www.w3.org/2000/svg" width="120" height="120" viewBox="0 0 120 120"><title>120x120_timetracking_static</title><g id="bounding"><rect width="120" height="120" fill="none"/></g><g id="illu"><circle cx="60" cy="67" r="27" fill="#f7f7fa"/><path d="M80,68H76a1,1,0,0,1,0-2h4a1,1,0,0,1,0,2Z" fill="#344b63"/><rect x="57.98" y="24" width="4.04" height="5" fill="#fff"/><path d="M114,61.58A54.32,54.32,0,0,0,65.42,13,5,5,0,0,0,60,18V67h49A5,5,0,0,0,114,61.58Z" fill="#57d3d2"/><path d="M60,69a2,2,0,0,1-2-2V50a2,2,0,0,1,4,0V67A2,2,0,0,1,60,69Z" fill="#e3e3e6"/><path d="M48,53.57A1,1,0,0,0,46.57,55l2.83,2.83a1,1,0,0,0,1.41-1.41Z" fill="#344b63"/><path d="M44,66H40a1,1,0,0,0,0,2h4a1,1,0,0,0,0-2Z" fill="#344b63"/><path d="M49.39,76.19,46.57,79A1,1,0,1,0,48,80.43l2.83-2.83a1,1,0,0,0-1.41-1.41Z" fill="#344b63"/><path d="M60,82a1,1,0,0,0-1,1v4a1,1,0,0,0,2,0V83A1,1,0,0,0,60,82Z" fill="#344b63"/><path d="M70.61,76.19a1,1,0,0,0-1.41,1.41L72,80.43A1,1,0,0,0,73.43,79Z" fill="#344b63"/><path d="M69.9,58.1a1,1,0,0,0,.71-.29L73.43,55A1,1,0,0,0,72,53.57l-2.83,2.83a1,1,0,0,0,.71,1.71Z" fill="#344b63"/><path d="M80,65H64.58A5,5,0,0,0,63,63V50a3,3,0,0,0-6,0V63a5,5,0,1,0,7.58,6H80a2,2,0,0,0,0-4ZM59,50a1,1,0,0,1,2,0V62.1a5,5,0,0,0-2,0Z" fill="#344b63"/><path d="M60,95A28,28,0,1,1,88,67,28,28,0,0,1,60,95Zm0-54A26,26,0,1,0,86,67,26,26,0,0,0,60,41Z" fill="#344b63"/><rect x="56" y="28" width="8" height="8" fill="#c0c0c4"/><path d="M55,23H65a3,3,0,0,1,3,3v3a1,1,0,0,1-1,1H53a1,1,0,0,1-1-1V26A3,3,0,0,1,55,23Z" fill="#e3e3e6"/><path d="M65,22H55a4,4,0,0,0-4,4v3a2,2,0,0,0,2,2h2v6H65V31h2a2,2,0,0,0,2-2V26A4,4,0,0,0,65,22Zm-3,2v5H58V24Zm-9,5V26a2,2,0,0,1,2-2h1v5Zm10,6H57V31h6Zm1-6V24h1a2,2,0,0,1,2,2v3Z" fill="#344b63"/><path d="M60,34A33,33,0,1,0,93,67,33,33,0,0,0,60,34Zm0,61A28,28,0,1,1,88,67,28,28,0,0,1,60,95Z" fill="#f7f7fa"/><path d="M60,33a33.82,33.82,0,0,0-20.9,7.21l-3-3,.71-.71A2,2,0,0,0,34,33.72l-5.66,5.66a2,2,0,0,0,2.83,2.83l.71-.71,2.81,2.81A34,34,0,1,0,60,33Zm0,66A32,32,0,1,1,92,67,32,32,0,0,1,60,99Z" fill="#344b63"/><circle cx="60" cy="67" r="3" fill="#fff"/></g></svg>