<svg width="120" height="120" viewBox="0 0 120 120" fill="none"
    xmlns="http://www.w3.org/2000/svg">
    <path d="M48.27 98H44.27L42.27 71H48.27V98Z" fill="#C0C0C4"/>
    <path d="M52.27 98H48.27V71H54.27L52.27 98Z" fill="#C0C0C4"/>
    <path d="M112.18 45.24C113.019 44.369 113.491 43.2092 113.5 42C113.382 40.6223 112.752 39.3389 111.734 38.4036C110.715 37.4684 109.383 36.9495 108 36.9495C106.617 36.9495 105.285 37.4684 104.266 38.4036C103.248 39.3389 102.618 40.6223 102.5 42C102.57 43.3911 103.188 44.6979 104.218 45.6348C105.249 46.5717 106.609 47.0625 108 47H108.27C108.063 47.5536 108.024 48.1561 108.158 48.7318C108.292 49.3075 108.594 49.8307 109.024 50.2358C109.454 50.6409 109.995 50.9098 110.578 51.0087C111.161 51.1076 111.76 51.0322 112.3 50.7919C112.84 50.5515 113.297 50.157 113.613 49.6579C113.93 49.1587 114.092 48.5771 114.079 47.9862C114.066 47.3952 113.879 46.8212 113.541 46.3362C113.204 45.8511 112.73 45.4768 112.18 45.26V45.24Z" fill="#F7F7FA"/>
    <path d="M111.07 52C110.009 52 108.992 51.5786 108.242 50.8284C107.491 50.0783 107.07 49.0609 107.07 48V47.91C105.585 47.7617 104.204 47.0821 103.18 45.9961C102.157 44.9102 101.56 43.491 101.5 42C101.628 40.3642 102.369 38.8369 103.574 37.7229C104.779 36.609 106.359 35.9903 108 35.9903C109.641 35.9903 111.221 36.609 112.426 37.7229C113.631 38.8369 114.372 40.3642 114.5 42C114.505 43.0601 114.21 44.1 113.65 45C114.255 45.5337 114.685 46.2379 114.883 47.0203C115.081 47.8027 115.037 48.6266 114.758 49.3839C114.479 50.1411 113.977 50.7961 113.319 51.263C112.661 51.73 111.877 51.9869 111.07 52ZM108.27 46C108.432 45.9995 108.591 46.0382 108.735 46.1128C108.878 46.1875 109.001 46.2958 109.094 46.4286C109.186 46.5613 109.245 46.7145 109.265 46.875C109.286 47.0355 109.267 47.1985 109.21 47.35C109.126 47.5705 109.082 47.8041 109.08 48.04C109.079 48.4037 109.176 48.7609 109.363 49.0731C109.549 49.3854 109.817 49.641 110.138 49.8123C110.459 49.9836 110.82 50.0642 111.183 50.0454C111.547 50.0266 111.898 49.9091 112.199 49.7056C112.501 49.5021 112.741 49.2203 112.894 48.8904C113.047 48.5606 113.107 48.1952 113.068 47.8336C113.029 47.472 112.893 47.1279 112.673 46.8383C112.453 46.5487 112.158 46.3246 111.82 46.19C111.669 46.1296 111.535 46.0334 111.43 45.9097C111.325 45.7859 111.251 45.6384 111.216 45.4799C111.18 45.3213 111.184 45.1565 111.227 44.9997C111.269 44.8429 111.349 44.6989 111.46 44.58C112.106 43.8845 112.464 42.9693 112.46 42.02C112.332 40.9161 111.803 39.8976 110.974 39.1583C110.144 38.419 109.071 38.0105 107.96 38.0105C106.849 38.0105 105.776 38.419 104.946 39.1583C104.117 39.8976 103.588 40.9161 103.46 42.02C103.532 43.145 104.045 44.1961 104.888 44.945C105.73 45.694 106.834 46.0803 107.96 46.02H108.23L108.27 46Z" fill="#1A1C20"/>
    <path d="M20 72H18H12V99H18H20H26V72H20Z" fill="#1A1C20"/>
    <path d="M22 45H15C12.3478 45 9.8043 46.0536 7.92893 47.9289C6.05357 49.8043 5 52.3478 5 55L6 65C5.99974 66.5724 6.61675 68.0821 7.71829 69.2042C8.81983 70.3263 10.3178 70.9712 11.89 71L12 73H26L26.16 70.89C27.5243 70.6212 28.7529 69.8868 29.6357 68.8125C30.5185 67.7381 31.0007 66.3905 31 65L32 55C32 52.3478 30.9464 49.8043 29.0711 47.9289C27.1957 46.0536 24.6522 45 22 45Z" fill="white"/>
    <path d="M23.9998 25.63C22.6798 25.63 20.6998 26.48 20.6998 26.26C20.6716 25.6714 20.5276 25.0942 20.276 24.5614C20.0244 24.0286 19.6702 23.5507 19.2336 23.1549C18.797 22.7592 18.2866 22.4535 17.7317 22.2553C17.1768 22.0572 16.5883 21.9704 15.9998 22C14.8178 21.94 13.6602 22.3501 12.7795 23.1408C11.8989 23.9314 11.367 25.0384 11.2998 26.22V26.55C10.2429 26.643 9.25552 27.1156 8.52017 27.8804C7.78482 28.6451 7.35131 29.6503 7.2998 30.71C7.31781 31.4011 7.5107 32.0764 7.86045 32.6727C8.2102 33.269 8.70541 33.767 9.2998 34.12C10.2469 32.8368 11.4872 31.7988 12.9171 31.0925C14.3471 30.3862 15.9252 30.0322 17.5198 30.06C19.0496 30.0361 20.5647 30.3604 21.9507 31.0083C23.3367 31.6562 24.5571 32.6109 25.5198 33.8C26.4225 33.5768 27.228 33.0657 27.8144 32.344C28.4008 31.6223 28.7361 30.7293 28.7698 29.8C28.7304 29.213 28.5758 28.6395 28.3148 28.1122C28.0537 27.585 27.6914 27.1143 27.2485 26.7271C26.8055 26.3399 26.2906 26.0437 25.7332 25.8554C25.1758 25.6672 24.5868 25.5906 23.9998 25.63Z" fill="#C0C0C4"/>
    <path d="M9.5 35.49C9.5 39.57 11.8 42 18 42C24.2 42 26.5 39.62 26.5 35.54C26.5 31.46 24.2 30 18 30C11.8 30 9.5 31.41 9.5 35.49Z" fill="#E4E4E6"/>
    <path d="M22 44H15C13.547 43.9999 12.1084 44.2877 10.7672 44.8468C9.42608 45.4058 8.20898 46.225 7.18622 47.2571C6.16346 48.2892 5.3553 49.5136 4.80841 50.8598C4.26153 52.2059 3.98676 53.6471 3.99997 55.1L4.99997 65C5.00218 66.6712 5.60225 68.2865 6.69168 69.5538C7.78111 70.8212 9.28801 71.6569 10.94 71.91L11 74H26.93L27.11 71.68C28.5133 71.2365 29.7411 70.362 30.619 69.1807C31.4969 67.9995 31.9801 66.5716 32 65.1L33 55C33 52.0826 31.841 49.2847 29.7781 47.2218C27.7152 45.1589 24.9173 44 22 44ZM30 65C30 65.9202 29.7461 66.8226 29.2661 67.6077C28.7862 68.3929 28.0989 69.0304 27.28 69.45L28 60.08C28.0212 59.8148 27.9362 59.552 27.7636 59.3495C27.5911 59.1469 27.3452 59.0212 27.08 59C26.8147 58.9788 26.552 59.0638 26.3494 59.2363C26.1469 59.4089 26.0212 59.6548 26 59.92L25.22 70L25.07 72H13L12.89 70L12 54C12 53.7348 11.8946 53.4804 11.7071 53.2929C11.5195 53.1054 11.2652 53 11 53C10.7347 53 10.4804 53.1054 10.2929 53.2929C10.1053 53.4804 9.99997 53.7348 9.99997 54L10.83 69.81C9.73035 69.5454 8.75292 68.9158 8.05729 68.024C7.36167 67.1322 6.98894 66.031 6.99997 64.9L5.99997 55C5.99997 52.6131 6.94818 50.3239 8.636 48.636C10.3238 46.9482 12.613 46 15 46H22C24.3697 45.9999 26.6438 46.9343 28.3288 48.6006C30.0138 50.2668 30.9736 52.5304 31 54.9L30 65Z" fill="#1A1C20"/>
    <path d="M21.75 60L19 63L16.25 60L17.25 53.63L18.25 47.25H19H19.75L20.75 53.63L21.75 60Z" fill="#FF7040"/>
    <path d="M34 83H30C29.4477 83 29 83.4477 29 84V97C29 97.5523 29.4477 98 30 98H34C34.5523 98 35 97.5523 35 97V84C35 83.4477 34.5523 83 34 83Z" fill="#E4E4E6"/>
    <path d="M34 82H33V77C33 76.7348 32.8946 76.4804 32.7071 76.2929C32.5196 76.1054 32.2652 76 32 76C31.7348 76 31.4804 76.1054 31.2929 76.2929C31.1054 76.4804 31 76.7348 31 77V82H30C29.4696 82 28.9609 82.2107 28.5858 82.5858C28.2107 82.9609 28 83.4696 28 84V97C28 97.5304 28.2107 98.0391 28.5858 98.4142C28.9609 98.7893 29.4696 99 30 99H34C34.5304 99 35.0391 98.7893 35.4142 98.4142C35.7893 98.0391 36 97.5304 36 97V84C36 83.4696 35.7893 82.9609 35.4142 82.5858C35.0391 82.2107 34.5304 82 34 82ZM34 97H30V84H34V97Z" fill="#1A1C20"/>
    <path d="M108.26 71H97.74C96.9691 70.9831 96.2091 70.8145 95.5033 70.5038C94.7976 70.1931 94.16 69.7464 93.6269 69.1892C93.0939 68.632 92.6759 67.9753 92.3967 67.2565C92.1175 66.5377 91.9827 65.7709 92 65L93 55C92.9437 52.4051 93.9202 49.894 95.7147 48.0187C97.5093 46.1435 99.9751 45.0577 102.57 45H103.44C106.033 45.0603 108.496 46.1473 110.289 48.0222C112.081 49.8971 113.056 52.4067 113 55L114 65C114.017 65.7709 113.882 66.5377 113.603 67.2565C113.324 67.9753 112.906 68.632 112.373 69.1892C111.84 69.7464 111.202 70.1931 110.497 70.5038C109.791 70.8145 109.031 70.9831 108.26 71Z" fill="white"/>
    <path d="M108.26 72H97.7401C95.9188 71.9632 94.1865 71.2056 92.923 69.8934C91.6595 68.5811 90.968 66.8214 91.0001 65L92.0001 54.9C91.9653 52.0555 93.0572 49.3127 95.0376 47.2706C97.018 45.2284 99.7259 44.0526 102.57 44H103.44C106.298 44.063 109.014 45.2562 110.993 47.318C112.972 49.3799 114.054 52.1423 114 55L115 64.9C115.027 65.8095 114.873 66.7153 114.548 67.5652C114.223 68.4151 113.734 69.1924 113.107 69.8523C112.481 70.5122 111.73 71.0417 110.898 71.4103C110.066 71.7789 109.17 71.9793 108.26 72ZM102.56 46C100.233 46.0629 98.0256 47.0453 96.4213 48.7321C94.8169 50.4189 93.9463 52.6727 94.0001 55L93.0001 65.1C92.9892 66.3753 93.4801 67.6038 94.3668 68.5205C95.2536 69.4372 96.4651 69.9686 97.7401 70H108.26C109.551 69.9634 110.775 69.4165 111.663 68.4793C112.552 67.5421 113.032 66.291 113 65L112 55.1C112.036 53.9395 111.843 52.7832 111.431 51.6975C111.02 50.6117 110.399 49.6178 109.602 48.7725C108.806 47.9273 107.852 47.2473 106.792 46.7716C105.733 46.2958 104.591 46.0336 103.43 46H102.56Z" fill="#1A1C20"/>
    <path d="M111 34C111 38.42 108.83 42 103 42C97.17 42 95 38.42 95 34C95 29.58 97.17 26 103 26C108.83 26 111 29.58 111 34Z" fill="#F7F7FA"/>
    <path d="M103 43C97.28 43 94 39.72 94 34C94 28.28 97.28 25 103 25C108.72 25 112 28.28 112 34C112 39.72 108.72 43 103 43ZM103 27C97.21 27 96 30.81 96 34C96 37.19 97.21 41 103 41C108.79 41 110 37.19 110 34C110 30.81 108.79 27 103 27Z" fill="#1A1C20"/>
    <path d="M103 98H99L96 79H103V98Z" fill="#F7F7FA"/>
    <path d="M107 98H103V79H110L107 98Z" fill="#F7F7FA"/>
    <path d="M104 78H94.8301L98.1501 99H107.86L111.18 78H104ZM102 97H99.8501L97.1701 80H102V97ZM106.15 97H104V80H108.83L106.15 97Z" fill="#1A1C20"/>
    <path d="M95 33H101V36C101 36.2652 100.895 36.5196 100.707 36.7071C100.52 36.8946 100.265 37 100 37H96C95.7348 37 95.4804 36.8946 95.2929 36.7071C95.1054 36.5196 95 36.2652 95 36V33Z" fill="white"/>
    <path d="M100 38H96C95.4696 38 94.9609 37.7893 94.5858 37.4142C94.2107 37.0391 94 36.5304 94 36V32H102V36C102 36.5304 101.789 37.0391 101.414 37.4142C101.039 37.7893 100.53 38 100 38ZM96 34V36H100V34H96Z" fill="#1A1C20"/>
    <path d="M105 33H111V36C111 36.2652 110.895 36.5196 110.707 36.7071C110.52 36.8946 110.265 37 110 37H106C105.735 37 105.48 36.8946 105.293 36.7071C105.105 36.5196 105 36.2652 105 36V33Z" fill="white"/>
    <path d="M110 38H106C105.47 38 104.961 37.7893 104.586 37.4142C104.211 37.0391 104 36.5304 104 36V32H112V36C112 36.5304 111.789 37.0391 111.414 37.4142C111.039 37.7893 110.53 38 110 38ZM106 34V36H110V34H106Z" fill="#1A1C20"/>
    <path d="M109.24 65H103H96.76L93.79 89H103H112.21L109.24 65Z" fill="#FFBCA6"/>
    <path d="M14 74H18V78H14V74Z" fill="#E4E4E6"/>
    <path d="M20 74H24V78H20V74Z" fill="#E4E4E6"/>
    <path d="M14 78H18V97H14V78Z" fill="#F7F7FA"/>
    <path d="M20 78H24V97H20V78Z" fill="#F7F7FA"/>
    <path d="M116.33 99H3.33008C3.06486 99 2.81051 98.8946 2.62297 98.7071C2.43544 98.5196 2.33008 98.2652 2.33008 98C2.33008 97.7348 2.43544 97.4804 2.62297 97.2929C2.81051 97.1054 3.06486 97 3.33008 97H116.33C116.595 97 116.85 97.1054 117.037 97.2929C117.225 97.4804 117.33 97.7348 117.33 98C117.33 98.2652 117.225 98.5196 117.037 98.7071C116.85 98.8946 116.595 99 116.33 99ZM110.33 63.77C110.295 63.476 110.195 63.1935 110.038 62.9427C109.881 62.692 109.67 62.4793 109.42 62.32C109.793 61.0913 109.982 59.8141 109.98 58.53C109.988 56.8355 109.648 55.1574 108.98 53.6C108.932 53.4729 108.859 53.3569 108.765 53.259C108.671 53.1611 108.558 53.0833 108.433 53.0305C108.308 52.9777 108.173 52.9509 108.038 52.9518C107.902 52.9526 107.768 52.9811 107.643 53.0355C107.519 53.0898 107.407 53.169 107.314 53.2681C107.221 53.3671 107.15 53.4841 107.104 53.6117C107.057 53.7394 107.038 53.8751 107.046 54.0107C107.054 54.1462 107.089 54.2787 107.15 54.4C107.689 55.7095 107.957 57.1142 107.94 58.53C107.942 59.7093 107.753 60.8811 107.38 62H98.5801C98.2006 60.8822 98.0048 59.7104 98.0001 58.53C97.9828 57.1142 98.2515 55.7095 98.7901 54.4C98.876 54.2794 98.9341 54.1412 98.9601 53.9955C98.9861 53.8497 98.9794 53.7 98.9405 53.5571C98.9016 53.4143 98.8315 53.2818 98.7352 53.1694C98.6389 53.0569 98.5188 52.9672 98.3837 52.9068C98.2485 52.8464 98.1016 52.8167 97.9535 52.82C97.8055 52.8233 97.6601 52.8594 97.5277 52.9257C97.3953 52.992 97.2793 53.0869 97.1881 53.2035C97.0968 53.3201 97.0326 53.4556 97.0001 53.6C96.3323 55.1574 95.9919 56.8355 96.0001 58.53C95.9985 59.8141 96.1873 61.0913 96.5601 62.32C96.3105 62.4793 96.0995 62.692 95.9421 62.9427C95.7847 63.1935 95.685 63.476 95.6501 63.77L92.6601 90H113.34L110.33 63.77ZM103 70C102.735 70 102.481 70.1054 102.293 70.2929C102.105 70.4804 102 70.7348 102 71V88H94.9201L97.6401 66H108.35L111.07 88H104V71C104 70.7348 103.895 70.4804 103.707 70.2929C103.52 70.1054 103.265 70 103 70Z" fill="#1A1C20"/>
    <path d="M49.2802 70H41.2002L43.3502 99H53.2002L55.3502 70H49.2802ZM47.2802 97H45.2002L43.3502 72H47.2702L47.2802 97ZM51.3502 97H49.2802V72H53.2002L51.3502 97Z" fill="#1A1C20"/>
    <path d="M53.06 71H43.49C40.61 71 38.27 68.31 38.27 65L39.18 55C39.18 49.48 43.07 45 47.88 45H48.67C53.47 45 57.37 49.48 57.37 55L58.28 65C58.28 68.31 55.94 71 53.06 71Z" fill="#C0C0C4"/>
    <path d="M40.1444 38.1321C34.4797 44.3619 34.2554 50.2759 37.067 55.3436C39.8808 55.3812 42.6649 54.825 45.2374 53.7115C47.8099 52.5979 50.1128 50.952 51.9956 48.8815C53.8783 46.811 55.2984 44.3624 56.163 41.6959C57.0277 39.0294 57.3174 36.205 57.0132 33.4075C51.6013 31.0512 45.8091 31.9022 40.1444 38.1321Z" fill="#1A1C20"/>
    <path d="M53.06 72H43.49C40.06 72 37.27 68.86 37.27 65L38.18 54.91C38.18 48.91 42.53 44 47.87 44H48.66C54.01 44 58.36 48.93 58.36 55L59.27 64.91C59.28 68.86 56.49 72 53.06 72ZM47.88 46C43.64 46 40.18 50 40.18 55L39.27 65.09C39.27 67.76 41.17 70 43.49 70H53.06C55.39 70 57.28 67.76 57.28 65L56.37 55.09C56.37 50.04 52.91 46 48.67 46H47.88Z" fill="#1A1C20"/>
    <path d="M56.1098 58C56.3902 58.0014 56.6677 57.9439 56.9244 57.8311C57.181 57.7183 57.4111 57.5528 57.5997 57.3454C57.7883 57.1379 57.9312 56.8931 58.019 56.6269C58.1069 56.3607 58.1378 56.079 58.1098 55.8L57.9998 55C58.0561 52.4051 57.0797 49.894 55.2851 48.0187C53.4905 46.1435 51.0247 45.0577 48.4298 45H47.5698C44.9749 45.0577 42.5091 46.1435 40.7145 48.0187C38.92 49.894 37.9435 52.4051 37.9998 55L37.9198 55.8C37.8918 56.079 37.9227 56.3607 38.0106 56.6269C38.0984 56.8931 38.2413 57.1379 38.4299 57.3454C38.6185 57.5528 38.8486 57.7183 39.1053 57.8311C39.3619 57.9439 39.6394 58.0014 39.9198 58H42.9998C41.9998 73.24 37.4698 76.69 36.5498 79.64C39.2498 80.97 44.5498 81.75 47.9998 81.75C51.2694 81.7754 54.5016 81.0537 57.4498 79.64C56.5498 76.75 53.6598 72.64 52.9998 58H56.1098Z" fill="white"/>
    <path d="M29.6998 29.85C29.6323 28.4033 28.9949 27.0421 27.9268 26.064C26.8587 25.0858 25.4469 24.5703 23.9998 24.63C23.167 24.6726 22.3434 24.8239 21.5498 25.08C21.207 23.8814 20.476 22.8306 19.4716 22.0922C18.4672 21.3538 17.2461 20.9697 15.9998 21C14.6369 20.951 13.3037 21.4065 12.2557 22.2793C11.2076 23.152 10.5184 24.3807 10.3198 25.73C9.19984 26.0147 8.20328 26.6569 7.48139 27.5593C6.7595 28.4616 6.35168 29.5749 6.31982 30.73C6.33275 31.5455 6.54221 32.3458 6.93042 33.063C7.31864 33.7803 7.87415 34.3933 8.54982 34.85V35.48C8.54982 40.48 11.7498 42.94 18.0498 42.94C24.3498 42.94 27.5498 40.43 27.5498 35.48C27.5321 34.9824 27.4719 34.4873 27.3698 34C28.0725 33.5564 28.6535 32.9446 29.0603 32.22C29.4671 31.4954 29.6869 30.6809 29.6998 29.85ZM17.9998 41C11.3898 41 10.4998 38.24 10.4998 35.54C10.4998 32.54 11.6598 31 17.9998 31C24.3398 31 25.4998 32.53 25.4998 35.54C25.4998 38.19 24.6098 41 17.9998 41ZM26.6898 32C25.1698 29.4 21.6898 29 17.9998 29C13.9998 29 10.3398 29.52 8.99982 32.67C8.54226 32.1499 8.28675 31.4827 8.27982 30.79C8.33795 29.9711 8.68954 29.2007 9.27003 28.6202C9.85052 28.0397 10.6209 27.6881 11.4398 27.63L12.4398 27.51L12.3298 26.31C12.3529 25.8515 12.4661 25.402 12.6632 24.9874C12.8602 24.5727 13.1371 24.201 13.478 23.8935C13.8189 23.586 14.2172 23.3488 14.6499 23.1955C15.0826 23.0422 15.5414 22.9758 15.9998 23C16.9161 22.9422 17.8183 23.2477 18.5109 23.8504C19.2034 24.4531 19.6306 25.3045 19.6998 26.22V26.74L20.0998 27.04C20.5698 27.39 21.0298 27.26 21.8698 27.04C22.5613 26.8203 23.2762 26.6827 23.9998 26.63C24.9161 26.5722 25.8183 26.8777 26.5109 27.4804C27.2034 28.0831 27.6306 28.9345 27.6998 29.85C27.6867 30.2583 27.5904 30.6595 27.4167 31.0292C27.243 31.3989 26.9957 31.7293 26.6898 32Z" fill="#1A1C20"/>
    <path d="M56 34C56 38.42 53.83 42 48 42C42.17 42 40 38.42 40 34C40 29.58 42.17 26 48 26C53.83 26 56 29.53 56 34Z" fill="#C0C0C4"/>
    <path d="M48.4998 26C44.2398 26 41.9498 27.91 41.0098 30.66C41.9534 31.7156 43.1092 32.56 44.4016 33.1382C45.694 33.7164 47.0939 34.0153 48.5098 34.0153C49.9256 34.0153 51.3255 33.7164 52.6179 33.1382C53.9103 32.56 55.0661 31.7156 56.0098 30.66C55.0498 27.86 52.7598 26 48.4998 26Z" fill="#1A1C20"/>
    <path d="M48 25C42.28 25 39 28.28 39 34C39 39.72 42.28 43 48 43C53.72 43 57 39.72 57 34C57 28.28 53.72 25 48 25ZM48 27C51.66 27 53.48 28.52 54.34 30.45C52.6374 32.0871 50.367 33.0016 48.005 33.0016C45.643 33.0016 43.3726 32.0871 41.67 30.45C42.52 28.48 44.34 27 48 27ZM48 41C42.21 41 41 37.19 41 34C41.0014 33.5386 41.0314 33.0777 41.09 32.62C43.0647 34.1632 45.4988 35.0015 48.005 35.0015C50.5112 35.0015 52.9453 34.1632 54.92 32.62C54.9752 33.0779 55.002 33.5388 55 34C55 37.15 53.79 41 48 41Z" fill="#1A1C20"/>
    <path d="M111 32.57H95C95 32.26 95.05 31.96 95.1 31.68C95.72 27.68 98.52 25.43 103 25.43C107.48 25.43 110.29 27.68 110.9 31.68C110.95 32 111 32.26 111 32.57Z" fill="#F7F7FA"/>
    <path d="M112 33C112 32.65 111.94 32.32 111.89 32C111.2 27.52 108.06 25 103.04 25C98.0199 25 94.8799 27.52 94.1899 32C94.1399 32.32 94.0999 32.65 94.0799 33C94.0599 33.35 94.0799 33.66 94.0799 34H112.08C112 33.66 112 33.32 112 33ZM96.1899 32C96.6899 29.41 98.3999 27 103 27C107.6 27 109.31 29.41 109.81 32H96.1899ZM57.7099 77.46C56.5599 74.65 54.7099 70.01 54.0699 59H56.0699C56.4904 59.0021 56.9067 58.9158 57.2917 58.7466C57.6767 58.5774 58.0219 58.3292 58.3047 58.0181C58.5876 57.7069 58.8019 57.3397 58.9337 56.9404C59.0656 56.541 59.1119 56.1184 59.0699 55.7L58.9999 55C59.0535 52.144 57.9735 49.3831 55.9963 47.3215C54.0191 45.2599 51.3056 44.0656 48.4499 44H47.5899C44.7422 44.0474 42.0292 45.2208 40.0445 47.2636C38.0598 49.3064 36.9651 52.0521 36.9999 54.9L36.9199 55.7C36.8778 56.1184 36.9242 56.541 37.056 56.9404C37.1878 57.3397 37.4021 57.7069 37.685 58.0181C37.9679 58.3292 38.3131 58.5774 38.6981 58.7466C39.0831 58.9158 39.4993 59.0021 39.9199 59H41.9199C41.0799 69.55 38.4599 74 36.9199 76.75C36.3947 77.5661 35.962 78.4381 35.6299 79.35L35.3799 80.17L36.1499 80.55C38.9999 82 44.4299 82.75 47.9999 82.75C51.4217 82.7753 54.8043 82.0195 57.8899 80.54L58.6599 80.16L58.4099 79.34C58.2399 78.76 57.9999 78.16 57.7099 77.46ZM47.9999 80.75C44.5516 80.737 41.1267 80.1836 37.8499 79.11C38.0499 78.71 38.3099 78.26 38.6099 77.75C40.3299 74.75 43.2199 69.85 43.9899 58.06V55C43.9899 54.7348 43.8845 54.4804 43.697 54.2929C43.5095 54.1054 43.2551 54 42.9899 54C42.7247 54 42.4703 54.1054 42.2828 54.2929C42.0952 54.4804 41.9899 54.7348 41.9899 55V57H39.9299C39.7903 56.9997 39.6524 56.9701 39.525 56.9133C39.3975 56.8565 39.2834 56.7736 39.1899 56.67C39.0414 56.1264 38.9773 55.5631 38.9999 55C38.9462 52.671 39.8181 50.4157 41.4246 48.7286C43.0311 47.0415 45.241 46.0603 47.5699 46H48.4299C49.5905 46.0336 50.733 46.2958 51.7922 46.7716C52.8513 47.2473 53.8062 47.9273 54.6023 48.7725C55.3983 49.6178 56.0198 50.6117 56.4312 51.6975C56.8426 52.7832 57.0359 53.9395 56.9999 55.1C57.0267 55.629 56.9694 56.159 56.8299 56.67C56.7364 56.7736 56.6222 56.8565 56.4948 56.9133C56.3674 56.9701 56.2294 56.9997 56.0899 57H53.9999V55C53.9999 54.7348 53.8945 54.4804 53.707 54.2929C53.5195 54.1054 53.2651 54 52.9999 54C52.7347 54 52.4803 54.1054 52.2928 54.2929C52.1052 54.4804 51.9999 54.7348 51.9999 55V58C51.9973 58.04 51.9973 58.08 51.9999 58.12C52.5499 70.12 54.5999 75.2 55.8299 78.21C55.9599 78.53 56.0799 78.83 56.1899 79.11C53.5992 80.2059 50.8128 80.7638 47.9999 80.75Z" fill="#1A1C20"/>
    <path d="M90 97H82V71H68V97H60C59.7348 97 59.4804 97.1054 59.2929 97.2929C59.1054 97.4804 59 97.7348 59 98C59 98.2652 59.1054 98.5196 59.2929 98.7071C59.4804 98.8946 59.7348 99 60 99H90C90.2652 99 90.5196 98.8946 90.7071 98.7071C90.8946 98.5196 91 98.2652 91 98C91 97.7348 90.8946 97.4804 90.7071 97.2929C90.5196 97.1054 90.2652 97 90 97ZM70 97V73H74V97H70ZM76 97V73H80V97H76Z" fill="#1A1C20"/>
    <path d="M70 79H74V97H70V79Z" fill="#F7F7FA"/>
    <path d="M76 79H80V97H76V79Z" fill="#F7F7FA"/>
    <path d="M70 73H74V78H70V73Z" fill="#E4E4E6"/>
    <path d="M76 73H80V78H76V73Z" fill="#E4E4E6"/>
    <path d="M77 44H72C69.3478 44 66.8043 45.0536 64.9289 46.9289C63.0536 48.8043 62 51.3478 62 54V64C62.0014 65.4169 62.5042 66.7875 63.4194 67.8692C64.3345 68.9509 65.6029 69.6739 67 69.91V71.79H83V69.65C84.1687 69.2368 85.1807 68.4718 85.897 67.46C86.6133 66.4483 86.9986 65.2396 87 64V54C87 51.3478 85.9464 48.8043 84.0711 46.9289C82.1957 45.0536 79.6522 44 77 44Z" fill="#FF7040"/>
    <path d="M77 43H72C69.0826 43 66.2847 44.1589 64.2218 46.2218C62.1589 48.2847 61 51.0826 61 54V64C61.0039 65.5043 61.4924 66.9674 62.3929 68.1724C63.2935 69.3774 64.5584 70.2602 66 70.69V73H84V70.32C85.1961 69.7526 86.2069 68.8577 86.9149 67.739C87.6229 66.6204 87.9991 65.3239 88 64V54C88 51.0826 86.8411 48.2847 84.7782 46.2218C82.7153 44.1589 79.9174 43 77 43ZM86 64C86 64.7762 85.8193 65.5418 85.4721 66.2361C85.125 66.9303 84.621 67.5343 84 68V59C84 58.7348 83.8946 58.4804 83.7071 58.2929C83.5196 58.1054 83.2652 58 83 58C82.7348 58 82.4804 58.1054 82.2929 58.2929C82.1054 58.4804 82 58.7348 82 59V71H68V53C68 52.7348 67.8946 52.4804 67.7071 52.2929C67.5196 52.1054 67.2652 52 67 52C66.7348 52 66.4804 52.1054 66.2929 52.2929C66.1054 52.4804 66 52.7348 66 53V68.57C65.1103 68.1817 64.3529 67.5428 63.8201 66.7313C63.2874 65.9198 63.0024 64.9707 63 64V54C63 51.6131 63.9482 49.3239 65.636 47.636C67.3239 45.9482 69.6131 45 72 45H77C79.3869 45 81.6761 45.9482 83.364 47.636C85.0518 49.3239 86 51.6131 86 54V64Z" fill="#1A1C20"/>
    <path d="M74 24C67.64 24 64 27.28 64 33C64 38.72 67.64 42 74 42C80.36 42 84 38.72 84 33C84 27.28 80.36 24 74 24ZM82 32.33C81.0566 32.8848 79.9554 33.11 78.87 32.97C77.1355 32.7395 75.5245 31.9467 74.2837 30.7131C73.0428 29.4795 72.2406 27.8731 72 26.14C72.6625 26.0456 73.3308 25.9988 74 26C80.15 26 81.78 29.3 82 32.33ZM70.09 26.6C70.2411 27.5761 70.5483 28.5216 71 29.4C70.7897 29.7044 70.5521 29.9889 70.29 30.25C69.752 30.8283 69.0956 31.284 68.3657 31.586C67.6358 31.888 66.8494 32.0292 66.06 32C66.114 30.7999 66.5269 29.6436 67.2454 28.6809C67.9639 27.7181 68.9549 26.9932 70.09 26.6ZM74 40C68 40 66.33 36.92 66.05 34H66.34C68.3507 33.9529 70.2619 33.1158 71.66 31.67C71.81 31.52 71.95 31.36 72.08 31.2C72.3285 31.522 72.5956 31.8292 72.88 32.12C74.4115 33.7085 76.4407 34.7249 78.63 35C78.9131 35.0151 79.1969 35.0151 79.48 35C80.2919 35.0011 81.0976 34.8589 81.86 34.58C81.41 37.32 79.54 40 74 40Z" fill="#1A1C20"/>
</svg>
