<svg xmlns="http://www.w3.org/2000/svg" width="120" height="120" viewBox="0 0 120 120"><title>120x120_marketing_static</title><g id="bounding"><rect width="120" height="120" fill="none"/></g><g id="illu"><polygon points="48.27 98 44.27 98 42.27 71 48.27 71 48.27 98" fill="#c0c0c4"/><polygon points="52.27 98 48.27 98 48.27 71 54.27 71 52.27 98" fill="#c0c0c4"/><path d="M48.28,71V86.68A19.84,19.84,0,0,1,43.39,86L42.28,71Z" fill="#c0c0c4"/><path d="M54.28,71,53.16,86.16a20.73,20.73,0,0,1-4.66.53h-.22V71Z" fill="#c0c0c4"/><path d="M112.18,45.24A4.72,4.72,0,0,0,113.5,42a5.52,5.52,0,0,0-11,0,5.27,5.27,0,0,0,5.5,5h.27a3,3,0,1,0,3.91-1.74Z" fill="#e3e3e6"/><path d="M111.07,52a4,4,0,0,1-4-4s0-.06,0-.09A6.19,6.19,0,0,1,101.5,42a6.52,6.52,0,0,1,13,0,5.63,5.63,0,0,1-.85,3A4,4,0,0,1,111.07,52Zm-2.8-6a1,1,0,0,1,.94,1.35,2,2,0,0,0-.13.69,2,2,0,1,0,2.74-1.85,1,1,0,0,1-.36-1.61,3.74,3.74,0,0,0,1-2.56,4.53,4.53,0,0,0-9,0,4.28,4.28,0,0,0,4.5,4h.27Z" fill="#344b63"/><polygon points="20 72 18 72 12 72 12 99 18 99 20 99 26 99 26 72 20 72" fill="#344b63"/><path d="M22,45H15A10,10,0,0,0,5,55L6,65a6,6,0,0,0,5.89,6L12,73H26l.16-2.11A6,6,0,0,0,31,65l1-10A10,10,0,0,0,22,45Z" fill="#fff"/><path d="M24,25.63c-1.32,0-3.3.85-3.3.63A4.48,4.48,0,0,0,16,22a4.48,4.48,0,0,0-4.7,4.22c0,.11,0,.22,0,.33a4.39,4.39,0,0,0-4,4.16,4.09,4.09,0,0,0,2,3.41,10,10,0,0,1,8.22-4.06,10.09,10.09,0,0,1,8,3.74,4.28,4.28,0,0,0,3.25-4A4.48,4.48,0,0,0,24,25.63Z" fill="#c0c0c4"/><path d="M9.5,35.49C9.5,39.57,11.8,42,18,42s8.5-2.38,8.5-6.46S24.2,30,18,30,9.5,31.41,9.5,35.49Z" fill="#f7f7fa"/><path d="M22,44H15A11,11,0,0,0,4,55.1L5,65a7,7,0,0,0,5.94,6.91L11,74H26.93l.18-2.32A7,7,0,0,0,32,65.1L33,55A11,11,0,0,0,22,44Zm8,21a5,5,0,0,1-2.72,4.45L28,60.08a1,1,0,0,0-2-.16L25.22,70l-.15,2H13l-.11-2L12,54a1,1,0,0,0-1-1,1,1,0,0,0-1,1l.83,15.81A5,5,0,0,1,7,64.9L6,55a9,9,0,0,1,9-9h7a9,9,0,0,1,9,8.9Z" fill="#344b63"/><polygon points="21.75 60 19 63 16.25 60 17.25 53.63 18.25 47.25 19 47.25 19.75 47.25 20.75 53.63 21.75 60" fill="#344b63"/><rect x="29" y="83" width="6" height="15" rx="1" ry="1" fill="#c0c0c4"/><path d="M34,82H33V77a1,1,0,0,0-2,0v5H30a2,2,0,0,0-2,2V97a2,2,0,0,0,2,2h4a2,2,0,0,0,2-2V84A2,2,0,0,0,34,82Zm0,15H30V84h4Z" fill="#344b63"/><path d="M108.26,71H97.74A5.87,5.87,0,0,1,92,65l1-10a9.79,9.79,0,0,1,9.57-10h.87A9.79,9.79,0,0,1,113,55l1,10A5.87,5.87,0,0,1,108.26,71Z" fill="#fff"/><path d="M108.26,72H97.74A6.88,6.88,0,0,1,91,65l1-10.1A10.77,10.77,0,0,1,102.57,44h.87A10.8,10.8,0,0,1,114,55l1,9.9A6.9,6.9,0,0,1,108.26,72Zm-5.7-26A8.8,8.8,0,0,0,94,55L93,65.1A4.86,4.86,0,0,0,97.74,70h10.52A4.88,4.88,0,0,0,113,65l-1-9.9a8.83,8.83,0,0,0-8.57-9.1Z" fill="#344b63"/><path d="M111,34c0,4.42-2.17,8-8,8s-8-3.58-8-8,2.17-8,8-8S111,29.58,111,34Z" fill="#f7f7fa"/><path d="M103,43c-5.72,0-9-3.28-9-9s3.28-9,9-9,9,3.28,9,9S108.72,43,103,43Zm0-16c-5.79,0-7,3.81-7,7s1.21,7,7,7,7-3.81,7-7S108.79,27,103,27Z" fill="#344b63"/><polygon points="103 98 99 98 96 79 103 79 103 98" fill="#f7f7fa"/><polygon points="107 98 103 98 103 79 110 79 107 98" fill="#f7f7fa"/><path d="M104,78H94.83l3.32,21h9.71l3.32-21Zm-2,19H99.85L97.17,80H102Zm4.15,0H104V80h4.83Z" fill="#344b63"/><path d="M95,33h6a0,0,0,0,1,0,0v3a1,1,0,0,1-1,1H96a1,1,0,0,1-1-1V33A0,0,0,0,1,95,33Z" fill="#fff"/><path d="M100,38H96a2,2,0,0,1-2-2V32h8v4A2,2,0,0,1,100,38Zm-4-4v2h4V34Z" fill="#344b63"/><path d="M105,33h6a0,0,0,0,1,0,0v3a1,1,0,0,1-1,1h-4a1,1,0,0,1-1-1V33A0,0,0,0,1,105,33Z" fill="#fff"/><path d="M110,38h-4a2,2,0,0,1-2-2V32h8v4A2,2,0,0,1,110,38Zm-4-4v2h4V34Z" fill="#344b63"/><polygon points="109.24 65 103 65 96.76 65 93.79 89 103 89 112.21 89 109.24 65" fill="#e3e3e6"/><rect x="14" y="74" width="4" height="4" fill="#c0c0c4"/><rect x="20" y="74" width="4" height="4" fill="#c0c0c4"/><rect x="14" y="78" width="4" height="19" fill="#e3e3e6"/><rect x="20" y="78" width="4" height="19" fill="#e3e3e6"/><path d="M67.54,69A5.68,5.68,0,0,1,63,63.62V54.31C63,49.17,67.48,45,73,45h5c5.52,0,10,4.17,10,9.31v9.31a5.59,5.59,0,0,1-3.6,5.12" fill="#fff"/><path d="M67.31,70A6.66,6.66,0,0,1,62,63.62V54.31C62,48.63,66.93,44,73,44h5c6.07,0,11,4.63,11,10.31v9.31a6.58,6.58,0,0,1-4.22,6L84,67.82a4.6,4.6,0,0,0,3-4.2V54.31C87,49.73,83,46,78,46H73c-5,0-9,3.73-9,8.31v9.31a4.67,4.67,0,0,0,3.76,4.45Z" fill="#344b63"/><rect x="69" y="71" width="6" height="27" fill="#e3e3e6"/><path d="M76,99H68V70h8Zm-6-2h4V72H70Z" fill="#344b63"/><rect x="76" y="71" width="6" height="27" fill="#e3e3e6"/><path d="M83,99H75V70h8Zm-6-2h4V72H77Z" fill="#344b63"/><rect x="70" y="72" width="4" height="5" fill="#c0c0c4"/><rect x="77" y="72" width="4" height="5" fill="#c0c0c4"/><path d="M67.42,34c0,4,2.19,7.18,8.08,7.18S83.58,38,83.58,34s-2.19-7.18-8.08-7.18S67.42,30,67.42,34Z" fill="#e3e3e6"/><path d="M75.5,42.18c-5.77,0-9.08-3-9.08-8.18s3.31-8.18,9.08-8.18,9.08,3,9.08,8.18S81.27,42.18,75.5,42.18Zm0-14.37c-5.85,0-7.08,3.36-7.08,6.18s1.23,6.18,7.08,6.18,7.08-3.36,7.08-6.18S81.35,27.82,75.5,27.82Z" fill="#344b63"/><path d="M66.11,31.56c0-4.46,4.27-8.06,9.47-8.06S85,27.14,85,31.63Z" fill="#c0c0c4"/><path d="M86,31c-.29-3.71-3.13-6.81-7-8V22a1,1,0,0,0-2,0v.6a10.83,10.83,0,0,0-3,0V22a1,1,0,0,0-2,0v1.06A9.43,9.43,0,0,0,65.14,31H65a1,1,0,0,0,0,2H86a1,1,0,0,0,0-2ZM67.15,31A7.33,7.33,0,0,1,72,25.18V27a1,1,0,0,0,2,0V24.63a9.73,9.73,0,0,1,3,0V27a1,1,0,0,0,2,0V25.12A7.34,7.34,0,0,1,84,31Z" fill="#344b63"/><path d="M84,44a1,1,0,0,0-1,1v8H68V45a1,1,0,0,0-2,0V72H85V45A1,1,0,0,0,84,44ZM83,69v1H68V55H83Z" fill="#344b63"/><rect x="68" y="61" width="15" height="2" fill="#57d3d2"/><rect x="68" y="65" width="15" height="2" fill="#57d3d2"/><path d="M116.33,99H3.33a1,1,0,0,1,0-2h113a1,1,0,1,1,0,2Z" fill="#344b63"/><path d="M110.33,63.77a2,2,0,0,0-.91-1.45,13,13,0,0,0,.56-3.79,12.36,12.36,0,0,0-1-4.93,1,1,0,1,0-1.83.8,10.52,10.52,0,0,1,.79,4.13,10.93,10.93,0,0,1-.56,3.47H98.58A10.93,10.93,0,0,1,98,58.53a10.52,10.52,0,0,1,.79-4.13A1,1,0,1,0,97,53.6a12.36,12.36,0,0,0-1,4.93,13,13,0,0,0,.56,3.79,2,2,0,0,0-.91,1.45L92.66,90h20.68ZM103,70a1,1,0,0,0-1,1V88H94.92l2.72-22h10.71l2.72,22H104V71A1,1,0,0,0,103,70Z" fill="#344b63"/><path d="M49.28,70H41.2l2.15,29H53.2l2.15-29Zm-2,27H45.2L43.35,72h3.92Zm4.07,0H49.28V72H53.2Z" fill="#344b63"/><circle cx="40.78" cy="26.5" r="4.5" fill="#82828c"/><path d="M40.78,32a5.5,5.5,0,1,1,5.5-5.5A5.51,5.51,0,0,1,40.78,32Zm0-9a3.5,3.5,0,1,0,3.5,3.5A3.5,3.5,0,0,0,40.78,23Z" fill="#344b63"/><path d="M53.06,71H43.49c-2.88,0-5.22-2.69-5.22-6l.91-10c0-5.52,3.89-10,8.7-10h.79c4.8,0,8.7,4.48,8.7,10l.91,10C58.28,68.31,55.94,71,53.06,71Z" fill="#c0c0c4"/><path d="M53.06,72H43.49c-3.43,0-6.22-3.14-6.22-7l.91-10.09c0-6,4.35-10.91,9.69-10.91h.79c5.35,0,9.7,4.93,9.7,11l.91,9.91C59.28,68.86,56.49,72,53.06,72ZM47.88,46c-4.24,0-7.7,4-7.7,9l-.91,10.09c0,2.67,1.9,4.91,4.22,4.91h9.57c2.33,0,4.22-2.24,4.22-5l-.91-9.91c0-5.05-3.46-9.09-7.7-9.09Z" fill="#344b63"/><path d="M56.11,58a2,2,0,0,0,2-2.2L58,55a9.79,9.79,0,0,0-9.57-10h-.86A9.79,9.79,0,0,0,38,55l-.08.8a2,2,0,0,0,2,2.2H43c-1,15.24-5.53,18.69-6.45,21.64,2.7,1.33,8,2.11,11.45,2.11a21.47,21.47,0,0,0,9.45-2.11c-.9-2.89-3.79-7-4.45-21.64Z" fill="#82828c"/><path d="M29.7,29.85A5.48,5.48,0,0,0,24,24.63a9.57,9.57,0,0,0-2.45.45A5.63,5.63,0,0,0,16,21a5.54,5.54,0,0,0-5.68,4.73,5.31,5.31,0,0,0-4,5,5.07,5.07,0,0,0,2.23,4.12c0,.21,0,.41,0,.63,0,5,3.2,7.46,9.5,7.46s9.5-2.51,9.5-7.46A8.73,8.73,0,0,0,27.37,34,5,5,0,0,0,29.7,29.85ZM18,41c-6.61,0-7.5-2.76-7.5-5.46,0-3,1.16-4.54,7.5-4.54s7.5,1.53,7.5,4.54C25.5,38.19,24.61,41,18,41ZM26.69,32C25.17,29.4,21.69,29,18,29c-4,0-7.66.52-9,3.67a2.89,2.89,0,0,1-.72-1.88,3.41,3.41,0,0,1,3.16-3.16l1-.12-.11-1.2A3.49,3.49,0,0,1,16,23a3.49,3.49,0,0,1,3.7,3.22v.52l.4.3c.47.35.93.22,1.77,0A9.25,9.25,0,0,1,24,26.63a3.49,3.49,0,0,1,3.7,3.22A3,3,0,0,1,26.69,32Z" fill="#344b63"/><path d="M56,34c0,4.42-2.17,8-8,8s-8-3.58-8-8,2.17-8,8-8S56,29.53,56,34Z" fill="#c0c0c4"/><path d="M48.5,26c-4.26,0-6.55,1.91-7.49,4.66a10.06,10.06,0,0,0,15,0C55.05,27.86,52.76,26,48.5,26Z" fill="#82828c"/><path d="M48,25c-5.72,0-9,3.28-9,9s3.28,9,9,9,9-3.28,9-9S53.72,25,48,25Zm0,2c3.66,0,5.48,1.52,6.34,3.45a9.14,9.14,0,0,1-12.67,0C42.52,28.48,44.34,27,48,27Zm0,14c-5.79,0-7-3.81-7-7a11.13,11.13,0,0,1,.09-1.38,11.23,11.23,0,0,0,13.83,0A11.13,11.13,0,0,1,55,34C55,37.15,53.79,41,48,41Z" fill="#344b63"/><path d="M111,32.57H95c0-.31.05-.61.1-.89.62-4,3.42-6.25,7.9-6.25s7.29,2.25,7.9,6.25C110.95,32,111,32.26,111,32.57Z" fill="#e3e3e6"/><path d="M112,33c0-.35-.06-.68-.11-1-.69-4.48-3.83-7-8.85-7s-8.16,2.52-8.85,7c-.05.32-.09.65-.11,1s0,.66,0,1h18C112,33.66,112,33.32,112,33ZM96.19,32c.5-2.59,2.21-5,6.81-5s6.31,2.41,6.81,5Z" fill="#344b63"/><path d="M57.71,77.46c-1.15-2.81-3-7.45-3.64-18.46h2a3,3,0,0,0,3-3.3L59,55A10.8,10.8,0,0,0,48.45,44h-.86A10.77,10.77,0,0,0,37,54.9l-.08.8a3,3,0,0,0,3,3.3h2c-.84,10.55-3.46,15-5,17.75a13.07,13.07,0,0,0-1.29,2.6l-.25.82.77.38C39,82,44.43,82.75,48,82.75a22.49,22.49,0,0,0,9.89-2.21l.77-.38-.25-.82C58.24,78.76,58,78.16,57.71,77.46ZM48,80.75a33,33,0,0,1-10.15-1.64c.2-.4.46-.85.76-1.36,1.72-3,4.61-7.9,5.38-19.69l0,0s0,0,0,0V55a1,1,0,0,0-2,0v2H39.93a1,1,0,0,1-.74-.33A5.5,5.5,0,0,1,39,55a8.8,8.8,0,0,1,8.57-9h.86A8.83,8.83,0,0,1,57,55.1a5,5,0,0,1-.17,1.57,1,1,0,0,1-.74.33H54V55a1,1,0,0,0-2,0v3a.94.94,0,0,0,0,.12c.55,12,2.6,17.08,3.83,20.09.13.32.25.62.36.9A20.76,20.76,0,0,1,48,80.75Z" fill="#344b63"/></g></svg>