<svg xmlns="http://www.w3.org/2000/svg" width="120" height="120"><g fill="none" fill-rule="evenodd"><path fill="#FFF" stroke="#344B63" stroke-linejoin="round" stroke-width="2" d="M28 30h64a4 4 0 0 1 4 4v45.5L87.5 91H28a4 4 0 0 1-4-4V34a4 4 0 0 1 4-4z"/><path d="M46 52h12M46 65h12M46 78h12M46 56h30M46 69h30M46 82h30" stroke="#344B63" stroke-linecap="round" stroke-width="2"/><g transform="translate(29 47)"><rect width="8" height="8" x="2" y="16" fill="#FFF" stroke="#344B63" stroke-linejoin="round" stroke-width="2" rx="4"/><rect width="8" height="8" x="2" y="29" fill="#FFF" stroke="#344B63" stroke-linejoin="round" stroke-width="2" rx="4"/><path fill="#57D3D2" fill-rule="nonzero" d="M4.592 6.007L9.142.586a2 2 0 0 1 2.829 0c.78.78.78 2.047.052 2.771l-5.952 6.957a1.996 1.996 0 0 1-2.828 0L.586 7.657a2 2 0 0 1 2.828-2.829l1.178 1.179z"/></g><path fill="#E3E3E6" stroke="#344B63" stroke-width="2" d="M28 28h64a4 4 0 0 1 4 4v10H24V32a4 4 0 0 1 4-4z"/><path fill="#C0C0C4" d="M31 32a3 3 0 1 1 0 6 3 3 0 0 1 0-6zm9 0a3 3 0 1 1 0 6 3 3 0 0 1 0-6zm9 0a3 3 0 1 1 0 6 3 3 0 0 1 0-6z"/><path fill="#E3E3E6" fill-rule="nonzero" stroke="#344B63" stroke-width="2" d="M93.907 75.149l-.018.002c-.942.126-1.679.883-1.908 1.947a4.211 4.211 0 0 1-1.987 2.774 4.175 4.175 0 0 1-2.096.568c-.43 0-.846-.062-1.279-.193a2.763 2.763 0 0 0-.849-.137c-.66 0-1.222.254-1.58.719a15.865 15.865 0 0 0-2.016 3.525c-.37.928-.139 2.001.546 2.566a4.23 4.23 0 0 1 1.544 3.013v.134a4.227 4.227 0 0 1-1.539 3.008c-.69.57-.92 1.643-.556 2.558a15.878 15.878 0 0 0 2.017 3.532c.362.47.924.725 1.584.725.281 0 .569-.046.869-.143a4.306 4.306 0 0 1 1.26-.187 4.18 4.18 0 0 1 2.1.571 4.204 4.204 0 0 1 1.98 2.763c.231 1.072.968 1.829 1.928 1.957.656.1 1.349.149 2.093.149s1.437-.048 2.111-.151c.942-.126 1.679-.883 1.908-1.947a4.211 4.211 0 0 1 1.987-2.774 4.175 4.175 0 0 1 2.096-.568c.43 0 .846.062 1.279.193.28.09.569.137.849.137.66 0 1.222-.254 1.58-.719a15.865 15.865 0 0 0 2.016-3.525c.37-.928.139-2.001-.546-2.566a4.23 4.23 0 0 1-1.544-3.013v-.134a4.227 4.227 0 0 1 1.539-3.008c.69-.57.92-1.643.556-2.558a15.878 15.878 0 0 0-2.017-3.532c-.362-.47-.924-.725-1.584-.725-.28 0-.57.047-.869.143a4.306 4.306 0 0 1-1.26.187 4.18 4.18 0 0 1-2.1-.571 4.204 4.204 0 0 1-1.98-2.763c-.231-1.072-.968-1.829-1.928-1.957-.656-.1-1.349-.149-2.093-.149s-1.437.048-2.093.149zM96 94.073a4 4 0 1 1 0-8 4 4 0 0 1 0 8z"/></g></svg>