<svg width="120" height="120" fill="none" xmlns="http://www.w3.org/2000/svg">
  <path d="M59 38.794V93H31s-.78.07-1.33-.5L59 38.794z" fill="#E4E4E6"/>
  <path fill-rule="evenodd" clip-rule="evenodd" d="M31 31h34a2 2 0 012 2v58a2 2 0 01-2 2H31a2 2 0 01-2-2V33a2 2 0 012-2zm-4 2a4 4 0 014-4h34a4 4 0 014 4v58a4 4 0 01-4 4H31a4 4 0 01-4-4V33zm8 10a1 1 0 100 2h10a1 1 0 100-2H35zm1 38V58h26v23H36zm-2-24a1 1 0 011-1h28a1 1 0 011 1v25a1 1 0 01-1 1H35a1 1 0 01-1-1V57zm0-7a1 1 0 011-1h24a1 1 0 110 2H35a1 1 0 01-1-1z" fill="#000"/>
  <path fill-rule="evenodd" clip-rule="evenodd" d="M52.9 26H55a2 2 0 012 2v4a2 2 0 01-2 2H41a2 2 0 01-2-2v-4a2 2 0 012-2h2.1a5.002 5.002 0 019.8 0z" fill="#E4E4E6"/>
  <path fill-rule="evenodd" clip-rule="evenodd" d="M51.265 28l-.325-1.602a3.002 3.002 0 00-5.88 0L44.735 28H41v4h14v-4h-3.735zM43.1 26H41a2 2 0 00-2 2v4a2 2 0 002 2h14a2 2 0 002-2v-4a2 2 0 00-2-2h-2.1a5.002 5.002 0 00-9.8 0z" fill="#000"/>
  <path d="M60 95h35a1 1 0 001-1V49.101a1 1 0 00-.367-.774L89.5 43.314l-6.224-5.088a1 1 0 00-.633-.226H60a1 1 0 00-1 1v55a1 1 0 001 1z" fill="#fff"/>
  <path fill-rule="evenodd" clip-rule="evenodd" d="M94 93V49.575L82.287 40H61v53h33zm1 2H60a1 1 0 01-1-1V39a1 1 0 011-1h22.643a1 1 0 01.633.226l12.357 10.101a1 1 0 01.367.774V94a1 1 0 01-1 1z" fill="#000"/>
  <path d="M82 49v-9.399a1 1 0 011.63-.776L90 44l5.274 4.22c.738.59.32 1.78-.625 1.78H83a1 1 0 01-1-1z" fill="#E4E4E6"/>
  <path fill-rule="evenodd" clip-rule="evenodd" d="M88.745 45.557L84 41.702V48h7.798l-3.053-2.443zM90 44l-6.37-5.175A1 1 0 0082 39.6V49a1 1 0 001 1h11.65c.944 0 1.362-1.19.624-1.78L90 44zm-7 24a1 1 0 011-1h4a1 1 0 110 2h-4a1 1 0 01-1-1zm0 7a1 1 0 011-1h4a1 1 0 110 2h-4a1 1 0 01-1-1zm1 6a1 1 0 100 2h4a1 1 0 100-2h-4z" fill="#000"/>
  <path d="M66 56a6 6 0 0112 0 6 6 0 01-12 0z" fill="#E4E4E6"/>
  <path fill-rule="evenodd" clip-rule="evenodd" d="M68 56a4 4 0 108 0 4 4 0 00-8 0zm4-6a6 6 0 100 12 6 6 0 000-12z" fill="#000"/>
  <path d="M43 71a4 4 0 014-4h28a4 4 0 014 4v28a4 4 0 01-4 4H47a4 4 0 01-4-4V71z" fill="#fff"/>
  <path d="M43 71a4 4 0 014-4h28a4 4 0 014 4v5H43v-5z" fill="#FF7040"/>
  <path fill-rule="evenodd" clip-rule="evenodd" d="M75 69H47a2 2 0 00-2 2v3h32v-3a2 2 0 00-2-2zm-28-2a4 4 0 00-4 4v5h36v-5a4 4 0 00-4-4H47z" fill="#000"/>
  <path fill-rule="evenodd" clip-rule="evenodd" d="M47 69h28a2 2 0 012 2v28a2 2 0 01-2 2H47a2 2 0 01-2-2V71a2 2 0 012-2zm-4 2a4 4 0 014-4h28a4 4 0 014 4v28a4 4 0 01-4 4H47a4 4 0 01-4-4V71zm7 10a1 1 0 100 2h4a1 1 0 100-2h-4zm9 0a1 1 0 100 2h4a1 1 0 100-2h-4zm8 1a1 1 0 011-1h4a1 1 0 110 2h-4a1 1 0 01-1-1zm-17 5a1 1 0 100 2h4a1 1 0 100-2h-4zm8 1a1 1 0 011-1h4a1 1 0 110 2h-4a1 1 0 01-1-1zm10-1a1 1 0 100 2h4a1 1 0 100-2h-4zm-19 7a1 1 0 011-1h4a1 1 0 110 2h-4a1 1 0 01-1-1zm10-1a1 1 0 100 2h4a1 1 0 100-2h-4zm8 1a1 1 0 011-1h4a1 1 0 110 2h-4a1 1 0 01-1-1z" fill="#000"/>
</svg>
