<svg xmlns="http://www.w3.org/2000/svg" width="120" height="120" viewBox="0 0 120 120">
  <g fill="none" fill-rule="evenodd">
    <rect width="120" height="120"/>
    <g transform="translate(35 18)">
      <g fill-rule="nonzero">
        <rect width="48" height="82" x="1" y="1" fill="#F7F7FA" rx="4"/>
        <path fill="#344B63" d="M45,2 C46.6568542,2 48,3.34314575 48,5 L48,79 C48,80.6568542 46.6568542,82 45,82 L5,82 C3.34314575,82 2,80.6568542 2,79 L2,5 C2,3.34314575 3.34314575,2 5,2 L45,2 Z M45,0 L5,0 C2.23857625,3.55271368e-15 0,2.23857625 0,5 L0,79 C0,81.7614237 2.23857625,84 5,84 L45,84 C47.7614237,84 50,81.7614237 50,79 L50,5 C50,2.23857625 47.7614237,3.55271368e-15 45,0 Z"/>
      </g>
      <g fill-rule="nonzero" transform="translate(21 72)">
        <circle cx="4" cy="4" r="2.67" fill="#E3E3E6"/>
        <path fill="#344B63" d="M4,2 C5.1045695,2 6,2.8954305 6,4 C6,5.1045695 5.1045695,6 4,6 C2.8954305,6 2,5.1045695 2,4 C2,2.8954305 2.8954305,2 4,2 Z M4,0.67 C2.16089178,0.67 0.67,2.16089178 0.67,4 C0.67,5.83910822 2.16089178,7.33 4,7.33 C5.83910822,7.33 7.33,5.83910822 7.33,4 C7.3245087,2.16317116 5.83682884,0.675491304 4,0.67 Z"/>
      </g>
      <rect width="14" height="2" x="18" y="7" fill="#344B63" fill-rule="nonzero" rx="1"/>
      <g transform="translate(6 14)">
        <rect width="38" height="56" fill="#FFF" fill-rule="nonzero" rx="2"/>
        <rect width="38" height="56" stroke="#344B63" stroke-width="2" rx="2"/>
      </g>
      <path fill="#57D3D2" fill-rule="nonzero" d="M37.87,29.93 L32.57,24.63 C32.1009787,24.1597915 31.4641363,23.8955311 30.8,23.8955311 C30.1358637,23.8955311 29.4990213,24.1597915 29.03,24.63 C28.5597915,25.0990213 28.2955311,25.7358637 28.2955311,26.4 C28.2955311,27.0641363 28.5597915,27.7009787 29.03,28.17 L34.33,33.47 L37.87,37 L41.41,33.46 L62.27,12.6 C62.7402085,12.1309787 63.0044689,11.4941363 63.0044689,10.83 C63.0044689,10.1658637 62.7402085,9.52902132 62.27,9.06 C61.8009787,8.5897915 61.1641363,8.32553108 60.5,8.32553108 C59.8358637,8.32553108 59.1990213,8.5897915 58.73,9.06 L37.87,29.93 Z" style="mix-blend-mode:multiply"/>
      <rect width="12" height="2" x="19" y="55" fill="#E3E3E6" fill-rule="nonzero" rx="1"/>
      <path fill="#344B63" fill-rule="nonzero" d="M34.32,46.77 L30.32,44.49 C30.0960989,44.3917935 29.8350028,44.4392656 29.66,44.61 L27.56,46.9 C27.3680328,47.0789086 27.121495,47.1880896 26.86,47.21 C26.86,47.21 25.39,47.21 22.61,44.52 C19.83,41.83 19.82,40.29 19.82,40.29 C19.834233,40.0245001 19.9362384,39.7712453 20.11,39.57 L22.11,37.46 C22.2714253,37.2719619 22.3139079,37.009342 22.22,36.78 L20,32.68 C19.9685776,32.5852498 19.8874403,32.5155683 19.789031,32.4988178 C19.6906217,32.4820673 19.5910001,32.5209813 19.53,32.6 L15.88,36.45 C15.7021471,36.6538633 15.5844359,36.9031342 15.54,37.17 C15.54,37.17 15.08,41.17 20.64,46.6 C26.2,52.03 30.09,51.47 30.09,51.47 C30.3524163,51.4178468 30.5949386,51.2931211 30.79,51.11 L34.44,47.25 C34.5107908,47.1779865 34.5390238,47.0743335 34.5145321,46.976367 C34.4900405,46.8784004 34.4163512,46.800228 34.32,46.77 Z"/>
    </g>
  </g>
</svg>
