<svg xmlns="http://www.w3.org/2000/svg" width="120" height="120" viewBox="0 0 120 120"><title>120x120_training_static</title><g id="bounding"><rect width="120" height="120" fill="none"/></g><g id="illu"><rect x="25" y="31" width="70" height="52" rx="3" ry="3" fill="#fff"/><path d="M25,71H95a0,0,0,0,1,0,0v9a3,3,0,0,1-3,3H28a3,3,0,0,1-3-3V71A0,0,0,0,1,25,71Z" fill="#f7f7fa"/><circle cx="60" cy="77" r="3" fill="#c0c0c4"/><rect x="56" y="84" width="7" height="4" fill="#e3e3e6"/><path d="M70.76,96H48.27A8,8,0,0,1,56,90h7A8,8,0,0,1,70.76,96Z" fill="#f7f7fa"/><path d="M92,30H28a4,4,0,0,0-4,4V80a4,4,0,0,0,4,4H54v4.2A10,10,0,0,0,46.22,96H35a1,1,0,0,0,0,2H85a1,1,0,0,0,0-2H72.81A10,10,0,0,0,65,88.2V84H92a4,4,0,0,0,4-4V34A4,4,0,0,0,92,30ZM70.76,96H48.27A8,8,0,0,1,56,90h7A8,8,0,0,1,70.76,96ZM56,88V84h7v4H56Zm38-8a2,2,0,0,1-2,2H28a2,2,0,0,1-2-2V72H94Zm0-10H26V34a2,2,0,0,1,2-2H92a2,2,0,0,1,2,2Z" fill="#344b63"/><circle cx="60" cy="41" r="25" fill="#57d3d2"/><path d="M50.5,34c0,4.42,2.44,8,9,8s9-3.58,9-8-2.44-8-9-8S50.5,29.58,50.5,34Z" fill="#f7f7fa"/><path d="M59.1,32.4c2.83,2.83,6.9,3.41,9.39,1.44C68.44,29.5,66,26,59.5,26a13.93,13.93,0,0,0-3,.3A8.4,8.4,0,0,0,59.1,32.4Z" fill="#e3e3e6"/><path d="M50.51,33.81a6.23,6.23,0,0,0,6-1.85A6.24,6.24,0,0,0,58.31,26C52.73,26.45,50.57,29.75,50.51,33.81Z" fill="#e3e3e6"/><path d="M59.5,25c-6.36,0-10,3.28-10,9s3.64,9,10,9,10-3.28,10-9S65.86,25,59.5,25Zm8,8.33a4.93,4.93,0,0,1-3.13.64,8,8,0,0,1-6.81-6.83,14,14,0,0,1,2-.14C65.65,27,67.28,30.3,67.48,33.33ZM55.59,27.6a9.2,9.2,0,0,0,.87,2.79,6.07,6.07,0,0,1-.71.85A5.5,5.5,0,0,1,51.56,33,6,6,0,0,1,55.59,27.6ZM59.5,41c-6,0-7.67-3.08-7.95-6l.29,0a7.65,7.65,0,0,0,5.32-2.33c.15-.15.29-.31.42-.47a10.42,10.42,0,0,0,.8.92A9.66,9.66,0,0,0,64.13,36,8,8,0,0,0,65,36a6.9,6.9,0,0,0,2.38-.42C66.91,38.32,65,41,59.5,41Z" fill="#344b63"/><path d="M60,47c-7.18,0-13,6.27-13,14v2.71a21.86,21.86,0,0,0,26,0V61C73,53.27,67.18,47,60,47Z" fill="#fff"/><path d="M60,45A14,14,0,0,0,46,59v2.71q1,.67,2,1.25c0-.32,0-.64,0-1V59a12,12,0,0,1,24,0v3c0,.32,0,.64,0,1q1.06-.58,2-1.25V59A14,14,0,0,0,60,45Z" fill="#344b63"/><path d="M53,55a1,1,0,0,0-1,1v8.68c.66.22,1.32.42,2,.59V56A1,1,0,0,0,53,55Z" fill="#344b63"/><path d="M67,58a1,1,0,0,0-1,1v6.27c.68-.17,1.34-.36,2-.59V59A1,1,0,0,0,67,58Z" fill="#344b63"/></g></svg>