<svg xmlns="http://www.w3.org/2000/svg" width="120" height="120"><g fill="none" fill-rule="evenodd"><g fill-rule="nonzero"><g stroke="#344B63" stroke-width="2"><path fill="#E3E3E6" d="M21 88v-6h51v6a5 5 0 0 0 5 5H26a5 5 0 0 1-5-5z"/><path fill="#FFF" d="M77 93a5 5 0 0 0 5-5V30a2 2 0 0 0-2-2H35a3 3 0 0 0-3 3v57a5 5 0 0 1-5 5h50z"/></g><path fill="#344B63" d="M68 69v-5h-6v5h6zm0 2h-6v3a1 1 0 0 1-2 0v-3H44v3a1 1 0 0 1-2 0v-3h-1a1 1 0 0 1 0-2h1v-5h-1a1 1 0 0 1 0-2h1v-5h-1a1 1 0 0 1 0-2h1v-5h-1a1 1 0 0 1 0-2h1v-4a1 1 0 0 1 2 0v4h16v-4a1 1 0 0 1 2 0v4h6v-4a1 1 0 0 1 2 0v4h1a1 1 0 0 1 0 2h-1v5h1a1 1 0 0 1 0 2h-1v5h1a1 1 0 0 1 0 2h-1v5h1a1 1 0 0 1 0 2h-1v3a1 1 0 0 1-2 0v-3zm-24-2h16v-5H44v5zm24-7v-5h-6v5h6zm-24 0h16v-5H44v5zm24-7v-5h-6v5h6zm-24 0h16v-5H44v5zm-3-19h7a1 1 0 0 1 0 2h-7a1 1 0 0 1 0-2z"/></g><g transform="translate(73 78)"><rect width="34" height="23" x="1" y="1" fill="#F7F7FA" stroke="#344B63" stroke-width="2" rx="4"/><path stroke="#344B63" stroke-linecap="round" stroke-width="2" d="M6 15h6m-6 4h18"/><path fill="#57D3D2" d="M2 5h32v5H2z"/></g></g></svg>