<svg xmlns="http://www.w3.org/2000/svg" width="120" height="120" viewBox="0 0 120 120">
  <g fill="none" fill-rule="evenodd">
    <g transform="translate(7 24)">
      <path fill="#344B63" fill-rule="nonzero" d="M91.9379023,39.3449173 L98.1807681,30.4265377 C98.5788699,29.8578208 99.4211301,29.8578208 99.8192319,30.4265377 L106.819232,40.4265377 C107.283176,41.0893151 106.809023,42 106,42 L92.6102096,42 L74.8892878,76.457348 C74.409494,77.3902804 73,77.0490781 73,76 L73,19 C73,18.0602156 74.1788503,17.6394092 74.7739573,18.3667622 L91.9379023,39.3449173 Z M19.9509706,17.9988191 C19.4214593,17.9732548 19,17.5358459 19,17 L19,2 C19,1.13888248 20.0159231,0.680428159 20.6616216,1.25016214 L37.6616216,16.2501621 C38.3524622,16.8597274 37.9213199,18 37,18 L20.0526681,18 C20.5409255,18.0302097 21,18.4113087 21,19 L21,30 L22,30 C22.5522847,30 23,30.4477153 23,31 L23,48 C23,48.5522847 22.5522847,49 22,49 L5,49 C2.23857625,49 0,46.7614237 0,44 L0,35 C0,32.2385763 2.23857625,30 5,30 L10.5,30 L19.2,18.4 C19.3989361,18.1347518 19.6748609,18.0095586 19.9509706,17.9988191 Z"/>
      <path fill="#FF7385" d="M93.9206556,40 L104.079344,40 L99,32.7437937 L93.9206556,40 Z M11.8,31.6 C11.6111456,31.8518058 11.3147573,32 11,32 L5,32 C3.34314575,32 2,33.3431458 2,35 L2,44 C2,45.6568542 3.34314575,47 5,47 L21,47 L21,32 L20,32 C19.4477153,32 19,31.5522847 19,31 L19,22 L11.8,31.6 Z M21,16 L21,4.21597459 L34.3552288,16 L21,16 Z M75,21.8014078 L90.8108302,41.1257559 L75,71.8690368 L75,21.8014078 Z"/>
    </g>
    <g transform="translate(26 17)">
      <g transform="translate(0 23)">
        <path fill="#344B63" d="M1,0 L59,0 C59.5522847,0 60,0.44771525 60,1 L60,42 C60,44.7614237 57.7614237,47 55,47 L12,47 C11.832681,47 11.6680365,46.9580166 11.5211479,46.8778956 L0.521147869,40.8778956 C0.199887059,40.7026624 0,40.3659442 0,40 L0,1 C0,0.44771525 0.44771525,0 1,0 Z"/>
        <path fill="#FFF" fill-rule="nonzero" d="M2,2 L2,39.4063669 L12.254994,45 L55,45 C56.6568542,45 58,43.6568542 58,42 L58,2 L2,2 Z"/>
      </g>
      <path fill="#344B63" d="M0.362432286,23.2296057 L26.8121614,1.34017466 C28.6617627,-0.190529863 31.3382373,-0.190529863 33.1878386,1.34017466 L59.6375677,23.2296057 C60.1194102,23.6283718 60.1210594,24.3666229 59.6410035,24.7675379 L33.2050176,46.8453523 C31.3493497,48.3950993 28.6506503,48.3950993 26.7949824,46.8453523 L0.358996479,24.7675379 C-0.121059443,24.3666229 -0.119410158,23.6283718 0.362432286,23.2296057 Z"/>
      <path fill="#FFF" fill-rule="nonzero" d="M28.0769894,45.3102764 C29.1903902,46.2401246 30.8096098,46.2401246 31.9230106,45.3102764 L57.4357618,24.0034946 L31.9127031,2.88096331 C30.8029424,1.96254059 29.1970576,1.96254059 28.0872969,2.88096331 L2.56423824,24.0034946 L28.0769894,45.3102764 Z"/>
      <path fill="#344B63" fill-rule="nonzero" d="M2 25C1.44771525 25 1 24.5522847 1 24 1 23.4477153 1.44771525 23 2 23L37 23C37.5522847 23 38 23.4477153 38 24 38 24.5522847 37.5522847 25 37 25L2 25zM46 25C45.4477153 25 45 24.5522847 45 24 45 23.4477153 45.4477153 23 46 23L58 23C58.5522847 23 59 23.4477153 59 24 59 24.5522847 58.5522847 25 58 25L46 25z"/>
    </g>
    <g transform="translate(16 71)">
      <path fill="#344B63" fill-rule="nonzero" d="M27.2554306,30.667545 L1.25543056,1.66754502 C0.678092928,1.0235915 1.13513304,0 2,0 L28,0 C28.5522847,0 29,0.44771525 29,1 L29,30 C29,30.9174211 29,30.667545 27.2554306,30.667545 Z"/>
      <polygon fill="#FFB5BF" points="27 2 4.24 2 27 27.387"/>
    </g>
    <path fill="#344B63" fill-rule="nonzero" d="M18.5769231,101.854223 C18.0246383,101.854223 17.5769231,101.406508 17.5769231,100.854223 C17.5769231,100.301938 18.0246383,99.854223 18.5769231,99.854223 L87.8076923,99.854223 C88.3599771,99.854223 88.8076923,100.301938 88.8076923,100.854223 C88.8076923,101.406508 88.3599771,101.854223 87.8076923,101.854223 L18.5769231,101.854223 Z M104.598646,99.854223 C105.150931,99.854223 105.598646,100.301938 105.598646,100.854223 C105.598646,101.406508 105.150931,101.854223 104.598646,101.854223 L93.8294155,101.854223 C93.2771307,101.854223 92.8294155,101.406508 92.8294155,100.854223 C92.8294155,100.301938 93.2771307,99.854223 93.8294155,99.854223 L104.598646,99.854223 Z"/>
  </g>
</svg>
