<svg xmlns="http://www.w3.org/2000/svg" xmlns:xlink="http://www.w3.org/1999/xlink" width="120" height="120" viewBox="0 0 120 120">
  <defs>
    <polygon id="120x120_crowd_static-a" points="6 27 2 27 0 0 6 0"/>
    <polygon id="120x120_crowd_static-c" points="4 27 0 27 0 0 6 0"/>
    <path id="120x120_crowd_static-e" d="M16,8 C16,12.42 13.83,16 8,16 C2.17,16 0,12.42 0,8 C0,3.58 2.17,0 8,0 C13.83,0 16,3.58 16,8 Z"/>
    <path id="120x120_crowd_static-g" d="M16,8 C16,12.42 13.83,16 8,16 C2.17,16 0,12.42 0,8 C0,3.58 2.17,0 8,0 C13.83,0 16,3.58 16,8 Z"/>
  </defs>
  <g fill="none" fill-rule="evenodd">
    <rect width="120" height="120"/>
    <g transform="translate(1 21)">
      <g transform="translate(41 50)">
        <polygon fill="#E3E3E6" fill-rule="nonzero" points="6 27 2 27 0 0 6 0"/>
        <mask id="120x120_crowd_static-b" fill="#fff">
          <use xlink:href="#120x120_crowd_static-a"/>
        </mask>
        <path fill="#E3E3E6" fill-rule="nonzero" d="M12,6 L11.31,15.2 C7.66000968,16.0002005 3.87999032,16.0002005 0.23,15.2 L-0.41,6.58 C2.08,3 4.69,-1.17 4.69,-5.03 L7.85,-5.03 C7.85,-1.35 9.9,2.57 12,6 Z" mask="url(#120x120_crowd_static-b)" style="mix-blend-mode:multiply"/>
        <polygon stroke="#344B63" stroke-width="2" points="6 27 2 27 0 0 6 0"/>
      </g>
      <g transform="translate(47 50)">
        <polygon fill="#E3E3E6" fill-rule="nonzero" points="4 27 0 27 0 0 6 0"/>
        <mask id="120x120_crowd_static-d" fill="#fff">
          <use xlink:href="#120x120_crowd_static-c"/>
        </mask>
        <path fill="#E3E3E6" fill-rule="nonzero" d="M6,6 L5.31,15.2 C1.66000968,16.0002005 -2.12000968,16.0002005 -5.77,15.2 L-6.41,6.58 C-3.92,3 -1.31,-1.17 -1.31,-5.03 L1.85,-5.03 C1.85,-1.35 3.9,2.57 6,6 Z" mask="url(#120x120_crowd_static-d)" style="mix-blend-mode:multiply"/>
        <polygon stroke="#344B63" stroke-width="2" points="4 27 0 27 0 0 6 0"/>
      </g>
      <path fill="#E3E3E6" fill-rule="nonzero" stroke="#344B63" stroke-linecap="round" stroke-linejoin="round" stroke-width="2" d="M112.18,24.24 C113.018793,23.3689638 113.491283,22.2092154 113.5,21 C113.256197,18.1437577 110.866629,15.9494678 108,15.9494678 C105.133371,15.9494678 102.743803,18.1437577 102.5,21 C102.645631,23.8959273 105.103338,26.1302069 108,26 L108.27,26 C107.691943,27.5454381 108.470424,29.2676043 110.012456,29.8546868 C111.554488,30.4417693 113.281176,29.673371 113.877264,28.1347977 C114.473352,26.5962244 113.715062,24.8650732 112.18,24.26 L112.18,24.24 Z"/>
      <path fill="#E3E3E6" fill-rule="nonzero" stroke="#344B63" stroke-width="2" d="M23,4.63 C21.68,4.63 19.7,5.48 19.7,5.26 C19.643064,4.07132097 19.1155268,2.95413845 18.2337797,2.15493787 C17.3520326,1.35573729 16.1885383,0.940197651 15,1 C12.5394937,0.875045625 10.4398105,2.7602931 10.3,5.22 C10.3,5.33 10.3,5.44 10.3,5.55 C8.11448011,5.7423217 6.40650015,7.51862085 6.3,9.71 C6.33659253,11.1147709 7.09179528,12.4023916 8.3,13.12 C10.2216956,10.5163848 13.2844865,9.0036194 16.52,9.06 C19.6196044,9.01154122 22.5694478,10.390593 24.52,12.8 C26.3746744,12.3414789 27.7008515,10.7092609 27.77,8.8 C27.6904495,7.61447677 27.1432024,6.50911294 26.2486505,5.72708325 C25.3540985,4.94505357 24.1855212,4.55041998 23,4.63 Z"/>
      <g transform="translate(4 24)">
        <path fill="#FFF" fill-rule="nonzero" d="M20,26 L7,26 C3.6862915,26 1,23.3137085 1,20 L0,10 C-8.8817842e-16,4.4771525 4.4771525,0 10,0 L17,0 C22.5228475,0 27,4.4771525 27,10 L26,20 C26,23.3137085 23.3137085,26 20,26 Z"/>
        <path stroke="#344B63" stroke-width="2" d="M20,26 L7,26 C3.6862915,26 1,23.3137085 1,20 L0,10 C-8.8817842e-16,4.4771525 4.4771525,0 10,0 L17,0 C22.5228475,0 27,4.4771525 27,10 L26,20 C26,23.3137085 23.3137085,26 20,26 Z"/>
      </g>
      <rect width="6" height="27" x="12" y="50" fill="#E3E3E6" fill-rule="nonzero" stroke="#344B63" stroke-width="2"/>
      <rect width="6" height="27" x="18" y="50" fill="#E3E3E6" fill-rule="nonzero" stroke="#344B63" stroke-width="2"/>
      <polyline fill="#FFF" fill-rule="nonzero" stroke="#344B63" stroke-linecap="round" stroke-width="2" points="26 39 25 52 11 52 10 33"/>
      <path fill="#E3E3E6" fill-rule="nonzero" stroke="#344B63" stroke-width="2" d="M38,5 C40.7614237,5 43,7.23857625 43,10 C43,12.7614237 40.7614237,15 38,15 L33,15 L33,10 C33,7.23857625 35.2385763,5 38,5 Z"/>
      <g transform="translate(35 24)">
        <path fill="#FFF" fill-rule="nonzero" d="M17,26 L6,26 C2.6862915,26 0,23.3137085 0,20 L1,10 C1,4.4771525 5.4771525,0 11,0 L12,0 C17.5228475,0 22,4.4771525 22,10 L23,20 C23,23.3137085 20.3137085,26 17,26 Z"/>
        <path stroke="#344B63" stroke-width="2" d="M17,26 L6,26 C2.6862915,26 0,23.3137085 0,20 L1,10 C1,4.4771525 5.4771525,0 11,0 L12,0 C17.5228475,0 22,4.4771525 22,10 L23,20 C23,23.3137085 20.3137085,26 17,26 Z"/>
      </g>
      <g transform="translate(38 5)">
        <path fill="#F7F7FA" fill-rule="nonzero" d="M16,8 C16,12.42 13.83,16 8,16 C2.17,16 0,12.42 0,8 C0,3.58 2.17,0 8,0 C13.83,0 16,3.58 16,8 Z"/>
        <mask id="120x120_crowd_static-f" fill="#fff">
          <use xlink:href="#120x120_crowd_static-e"/>
        </mask>
        <ellipse cx="8" cy=".5" fill="#E3E3E6" fill-rule="nonzero" stroke="#344B63" stroke-width="2" mask="url(#120x120_crowd_static-f)" rx="9" ry="7.5"/>
        <path stroke="#344B63" stroke-width="2" d="M16,8 C16,12.42 13.83,16 8,16 C2.17,16 0,12.42 0,8 C0,3.58 2.17,0 8,0 C13.83,0 16,3.58 16,8 Z"/>
      </g>
      <path fill="#FFF" fill-rule="nonzero" stroke="#344B63" stroke-linecap="round" stroke-width="2" d="M53,35 L53,42 L56.42,56.54 C56.560355,57.133865 56.4219102,57.7593158 56.0440401,58.2384706 C55.66617,58.7176255 55.0902224,58.9980537 54.48,59 L39.38,59 C38.7829559,59.0092271 38.2130172,58.7512029 37.8260156,58.2964761 C37.439014,57.8417492 37.2754335,57.2378883 37.38,56.65 L40,42 L40,34"/>
      <g transform="translate(8 9)">
        <path fill="#FFF" fill-rule="nonzero" d="M0.5,5.49 C0.5,9.57 2.8,12 9,12 C15.2,12 17.5,9.62 17.5,5.54 C17.5,1.46 15.2,0 9,0 C2.8,0 0.5,1.41 0.5,5.49 Z"/>
        <path stroke="#344B63" stroke-width="2" d="M0.5,5.49 C0.5,9.57 2.8,12 9,12 C15.2,12 17.5,9.62 17.5,5.54 C17.5,1.46 15.2,0 9,0 C2.8,0 0.5,1.41 0.5,5.49 Z"/>
      </g>
      <polygon fill="#344B63" fill-rule="nonzero" points="20.75 39 18 42 15.25 39 16.25 32.63 17.25 26.25 18 26.25 18.75 26.25 19.75 32.63" style="mix-blend-mode:multiply"/>
      <rect width="6" height="15" x="27" y="62" fill="#E3E3E6" fill-rule="nonzero" stroke="#344B63" stroke-width="2"/>
      <path fill="#E3E3E6" fill-rule="nonzero" stroke="#344B63" stroke-width="2" d="M30,56 L30,62"/>
      <path fill="#FFF" fill-rule="nonzero" stroke="#344B63" stroke-linecap="round" stroke-linejoin="round" stroke-width="2" d="M38,53 L55,53"/>
      <g transform="translate(90 24)">
        <path fill="#FFF" fill-rule="nonzero" d="M17.26,26 L6.74,26 C5.18305373,25.9659011 3.70346808,25.3145081 2.62692833,24.1892052 C1.55038857,23.0639024 0.965137451,21.5569294 1,20 L2,10 C1.882728,4.59646493 6.16652891,0.120183931 11.57,0 L12.44,0 C17.8395319,0.125613228 22.1173147,4.60028143 22,10 L23,20 C23.0348625,21.5569294 22.4496114,23.0639024 21.3730717,24.1892052 C20.2965319,25.3145081 18.8169463,25.9659011 17.26,26 Z"/>
        <path stroke="#344B63" stroke-width="2" d="M17.26,26 L6.74,26 C5.18305373,25.9659011 3.70346808,25.3145081 2.62692833,24.1892052 C1.55038857,23.0639024 0.965137451,21.5569294 1,20 L2,10 C1.882728,4.59646493 6.16652891,0.120183931 11.57,0 L12.44,0 C17.8395319,0.125613228 22.1173147,4.60028143 22,10 L23,20 C23.0348625,21.5569294 22.4496114,23.0639024 21.3730717,24.1892052 C20.2965319,25.3145081 18.8169463,25.9659011 17.26,26 Z"/>
      </g>
      <g transform="translate(94 5)">
        <path fill="#F7F7FA" fill-rule="nonzero" d="M16,8 C16,12.42 13.83,16 8,16 C2.17,16 0,12.42 0,8 C0,3.58 2.17,0 8,0 C13.83,0 16,3.58 16,8 Z"/>
        <mask id="120x120_crowd_static-h" fill="#fff">
          <use xlink:href="#120x120_crowd_static-g"/>
        </mask>
        <rect width="26" height="12" x="-5" y="-5" fill="#E3E3E6" fill-rule="nonzero" stroke="#344B63" stroke-width="2" mask="url(#120x120_crowd_static-h)"/>
        <path stroke="#344B63" stroke-width="2" d="M16,8 C16,12.42 13.83,16 8,16 C2.17,16 0,12.42 0,8 C0,3.58 2.17,0 8,0 C13.83,0 16,3.58 16,8 Z"/>
      </g>
      <polygon fill="#F7F7FA" fill-rule="nonzero" stroke="#344B63" stroke-width="2" points="102 77 98 77 95 58 102 58"/>
      <polygon fill="#F7F7FA" fill-rule="nonzero" stroke="#344B63" stroke-width="2" points="106 77 102 77 102 58 109 58"/>
      <rect width="8.48" height="5" x="98.98" y="60" fill="#E3E3E6" fill-rule="nonzero" style="mix-blend-mode:multiply"/>
      <path fill="#FFF" fill-rule="nonzero" stroke="#344B63" stroke-width="2" d="M94 12L100 12 100 15C100 15.5522847 99.5522847 16 99 16L95 16C94.4477153 16 94 15.5522847 94 15L94 12zM104 12L110 12 110 15C110 15.5522847 109.552285 16 109 16L105 16C104.447715 16 104 15.5522847 104 15L104 12z"/>
      <polygon fill="#E3E3E6" fill-rule="nonzero" stroke="#344B63" stroke-width="2" points="102 68 92.79 68 95.76 44 102 44"/>
      <polygon fill="#E3E3E6" fill-rule="nonzero" stroke="#344B63" stroke-width="2" points="111.21 68 102 68 102 44 108.24 44"/>
      <path fill="#344B63" fill-rule="nonzero" stroke="#344B63" stroke-width="2" d="M97,42 L107,42 C107.552285,42 108,42.4477153 108,43 L108,44 L96,44 L96,43 C96,42.4477153 96.4477153,42 97,42 Z"/>
      <rect width="10" height="4" x="97" y="45" fill="#E3E3E6" fill-rule="nonzero"/>
      <g transform="translate(62 24)">
        <path fill="#FFF" fill-rule="nonzero" d="M4.54,24 C1.96382965,23.4736664 0.085658566,21.2479923 0,18.62 L0,9.31 C0,4.17 4.48,0 10,0 L15,0 C20.52,0 25,4.17 25,9.31 L25,18.62 C24.9574808,20.9014696 23.5325286,22.9280683 21.4,23.74"/>
        <path stroke="#344B63" stroke-width="2" d="M4.54,24 C1.96382965,23.4736664 0.085658566,21.2479923 0,18.62 L0,9.31 C0,4.17 4.48,0 10,0 L15,0 C20.52,0 25,4.17 25,9.31 L25,18.62 C24.9574808,20.9014696 23.5325286,22.9280683 21.4,23.74"/>
      </g>
      <rect width="6" height="27" x="68" y="50" fill="#E3E3E6" fill-rule="nonzero" stroke="#344B63" stroke-width="2"/>
      <rect width="6" height="27" x="75" y="50" fill="#E3E3E6" fill-rule="nonzero" stroke="#344B63" stroke-width="2"/>
      <path stroke="#344B63" stroke-linecap="round" stroke-width="2" d="M67,33 L82,33"/>
      <g transform="translate(63 1)">
        <g transform="translate(2 4)">
          <path fill="#F2F2F2" fill-rule="nonzero" d="M0.5,8 C0.5,12.42 2.94,16 9.5,16 C16.06,16 18.5,12.42 18.5,8 C18.5,3.58 16.06,0 9.5,0 C2.94,0 0.5,3.58 0.5,8 Z"/>
          <path stroke="#344B63" stroke-width="2" d="M0.5,8 C0.5,12.42 2.94,16 9.5,16 C16.06,16 18.5,12.42 18.5,8 C18.5,3.58 16.06,0 9.5,0 C2.94,0 0.5,3.58 0.5,8 Z"/>
        </g>
        <path fill="#E3E3E6" fill-rule="nonzero" stroke="#344B63" stroke-width="2" d="M2.11,9.56 C2.11,5.1 6.38,1.5 11.58,1.5 C16.78,1.5 21,5.14 21,9.63"/>
        <path fill="#E3E3E6" fill-rule="nonzero" stroke="#344B63" stroke-linecap="round" stroke-width="2" d="M0,10 L23,10"/>
        <path fill="#E3E3E6" fill-rule="nonzero" stroke="#344B63" stroke-linecap="round" stroke-width="2" d="M5 5L5 0M0 5L0 0" transform="translate(9)"/>
      </g>
      <path stroke="#344B63" stroke-linecap="round" stroke-width="2" d="M83,48 L83,24"/>
      <polyline stroke="#344B63" stroke-linecap="round" stroke-width="2" points="66 24 66 50 83 50 83 48"/>
      <path stroke="#57D3D2" stroke-width="2" d="M67 41L82 41M67 45L82 45" style="mix-blend-mode:multiply"/>
      <path fill="#E3E3E6" fill-rule="nonzero" stroke="#344B63" stroke-width="2" d="M0.33,77 L117.33,77"/>
      <path stroke="#344B63" stroke-linecap="round" stroke-linejoin="round" stroke-width="2" d="M107.11 33C107.704847 34.4351827 108.000874 35.9765662 107.98 37.53 108.027142 39.4424936 107.55729 41.3322648 106.62 43M96.89 33C96.2883011 34.433746 95.9854582 35.9751824 96 37.53 95.958948 39.4443449 96.4357393 41.3342349 97.38 43"/>
    </g>
  </g>
</svg>
