<svg width="120" height="120" fill="none" xmlns="http://www.w3.org/2000/svg">
  <path fill-rule="evenodd" clip-rule="evenodd" d="M55 45c0-13.807 11.193-25 25-25s25 11.193 25 25v11a1 1 0 01-1 1H56a1 1 0 01-1-1V45zm25-23c-12.703 0-23 10.297-23 23v10h46V45c0-12.703-10.297-23-23-23z" fill="#1A1C20"/>
  <path d="M46.977 35.431a2 2 0 000-2.828l-4.43-4.431a2 2 0 00-2.84.01L28 40.056l7.227 7.125 11.75-11.75z" fill="#57D3D2"/>
  <path fill-rule="evenodd" clip-rule="evenodd" d="M47.684 36.138a3 3 0 000-4.242l-4.43-4.431a3 3 0 00-4.258.015L27.288 39.353a1 1 0 00.01 1.415l7.227 7.125a1 1 0 001.41-.005l11.75-11.75zM46.27 33.31a1 1 0 010 1.414L35.222 45.772l-5.808-5.727L40.42 28.884a1 1 0 011.42-.005l4.43 4.43z" fill="#1A1C20"/>
  <path d="M32.803 35l7.71 7.574V60A20.077 20.077 0 0149 76.394V105H16a3 3 0 01-3-3V69.35a36 36 0 0111.076-25.977L32.803 35z" fill="#fff"/>
  <path fill-rule="evenodd" clip-rule="evenodd" d="M33.503 34.287a1 1 0 00-1.393-.009l-8.726 8.373A37 37 0 0012 69.35V102a4 4 0 004 4h33a1 1 0 001-1V76.394a21.077 21.077 0 00-8.487-16.904V42.574a1 1 0 00-.3-.714l-7.71-7.573zm-.709 2.107l6.719 6.6V60a1 1 0 00.423.817A19.077 19.077 0 0148 76.394V104H16a2 2 0 01-2-2V69.35a35 35 0 0110.768-25.255l8.026-7.701z" fill="#1A1C20"/>
  <path d="M55.056 55.187h50l-4.464 50H59.52l-4.464-50z" fill="#F7F7FA"/>
  <path fill-rule="evenodd" clip-rule="evenodd" d="M54.318 54.512a1 1 0 01.738-.325h50a1 1 0 01.996 1.089l-4.464 49.999a1 1 0 01-.996.912H59.52a1 1 0 01-.996-.912l-4.464-50a1 1 0 01.258-.763zm1.831 1.675l4.286 48h39.242l4.286-48H56.149z" fill="#1A1C20"/>
  <path d="M52.206 51h55.588l1.599 6.524A2 2 0 01107.451 60H52.549a2 2 0 01-1.942-2.476L52.206 51z" fill="#F7F7FA"/>
  <path fill-rule="evenodd" clip-rule="evenodd" d="M51.235 50.762a1 1 0 01.97-.762h55.589a1 1 0 01.971.762l1.599 6.524A3 3 0 01107.451 61H52.549a3 3 0 01-2.913-3.714l1.599-6.524zM52.99 52l-1.412 5.762A1 1 0 0052.55 59h54.902a1 1 0 00.971-1.238L107.01 52H52.99z" fill="#1A1C20"/>
  <path d="M61 51a3 3 0 013-3h27v42H61V51z" fill="#fff"/>
  <path fill-rule="evenodd" clip-rule="evenodd" d="M60 51a4 4 0 014-4h27a1 1 0 011 1v42a1 1 0 01-1 1H61a1 1 0 01-1-1V51zm4-2a2 2 0 00-2 2v38h28V49H64z" fill="#1A1C20"/>
  <path d="M91 51h3a3 3 0 00-3-3v3z" fill="#1A1C20"/>
  <path fill-rule="evenodd" clip-rule="evenodd" d="M90 51a1 1 0 001 1h3v-1h1a4 4 0 00-4-4v1h-1v3zm2-1.732c.304.175.557.428.732.732H92v-.732z" fill="#1A1C20"/>
  <path d="M56.682 105.118c-1.428-.861-3.32-.861-4.747 0a12.35 12.35 0 01-6.396 1.77c-6.755 0-12.23-5.373-12.23-12 0-6.628 5.475-12 12.23-12 2.344 0 4.535.647 6.396 1.77 1.427.86 3.32.86 4.747 0a12.348 12.348 0 016.396-1.77c6.754 0 12.23 5.372 12.23 12 0 6.627-5.476 12-12.23 12a12.35 12.35 0 01-6.396-1.77z" fill="#57D3D2"/>
  <path fill-rule="evenodd" clip-rule="evenodd" d="M45.54 83.888c-6.221 0-11.232 4.942-11.232 11 0 6.057 5.01 11 11.231 11 2.158 0 4.17-.596 5.88-1.626 1.745-1.053 4.034-1.053 5.78 0a11.352 11.352 0 005.879 1.626c6.22 0 11.23-4.943 11.23-11 0-6.058-5.01-11-11.23-11-2.159 0-4.17.595-5.88 1.625-1.745 1.053-4.034 1.053-5.78 0a11.349 11.349 0 00-5.879-1.625zm-13.232 11c0-7.198 5.942-13 13.231-13 2.53 0 4.899.699 6.912 1.913 1.11.67 2.605.67 3.715 0a13.348 13.348 0 016.912-1.913c7.289 0 13.23 5.802 13.23 13 0 7.197-5.941 13-13.23 13-2.531 0-4.9-.699-6.912-1.913-1.11-.67-2.605-.67-3.715 0a13.348 13.348 0 01-6.912 1.913c-7.289 0-13.23-5.803-13.23-13z" fill="#1A1C20"/>
  <path d="M62.682 105.118c-1.428-.861-3.32-.861-4.747 0a12.35 12.35 0 01-6.396 1.77c-6.755 0-12.23-5.373-12.23-12 0-6.628 5.475-12 12.23-12 2.344 0 4.535.647 6.396 1.77 1.427.86 3.32.86 4.747 0a12.348 12.348 0 016.396-1.77c6.754 0 12.23 5.372 12.23 12 0 6.627-5.476 12-12.23 12a12.35 12.35 0 01-6.396-1.77z" fill="#fff"/>
  <path fill-rule="evenodd" clip-rule="evenodd" d="M51.54 83.888c-6.221 0-11.232 4.942-11.232 11 0 6.057 5.01 11 11.231 11 2.158 0 4.17-.596 5.88-1.626 1.745-1.053 4.034-1.053 5.78 0a11.352 11.352 0 005.879 1.626c6.22 0 11.23-4.943 11.23-11 0-6.058-5.01-11-11.23-11-2.159 0-4.17.595-5.88 1.625-1.745 1.053-4.034 1.053-5.78 0a11.349 11.349 0 00-5.879-1.625zm-13.232 11c0-7.198 5.942-13 13.231-13 2.53 0 4.899.699 6.912 1.913 1.11.67 2.605.67 3.715 0a13.348 13.348 0 016.912-1.913c7.289 0 13.23 5.802 13.23 13 0 7.197-5.941 13-13.23 13-2.531 0-4.9-.699-6.912-1.913-1.11-.67-2.605-.67-3.715 0a13.348 13.348 0 01-6.912 1.913c-7.289 0-13.23-5.803-13.23-13z" fill="#1A1C20"/>
  <path d="M14 72h9a3 3 0 013 3v18a3 3 0 01-3 3h-9V72z" fill="#57D3D2"/>
  <path fill-rule="evenodd" clip-rule="evenodd" d="M57.843 18.2l-2.218-1.194a4.166 4.166 0 01-1.672-1.65l-1.223-2.203a.3.3 0 00-.414-.11.302.302 0 00-.109.113l-1.197 2.22a4.187 4.187 0 01-1.652 1.674l-2.204 1.227a.295.295 0 00-.154.262.298.298 0 00.157.26l2.218 1.196a4.16 4.16 0 011.67 1.649l1.224 2.203a.3.3 0 00.414.11.302.302 0 00.109-.113l1.197-2.22a4.187 4.187 0 011.652-1.674l2.204-1.225a.297.297 0 00-.003-.524" fill="#57D3D2"/>
  <path fill-rule="evenodd" clip-rule="evenodd" d="M23 7a1 1 0 011 1v8a1 1 0 11-2 0V8a1 1 0 011-1z" fill="#1A1C20"/>
  <path fill-rule="evenodd" clip-rule="evenodd" d="M28 12a1 1 0 01-1 1h-8a1 1 0 110-2h8a1 1 0 011 1z" fill="#1A1C20"/>
  <path d="M68 8a2 2 0 11-4 0 2 2 0 014 0z" fill="#fff"/>
  <path fill-rule="evenodd" clip-rule="evenodd" d="M66 9a1 1 0 100 2 1 1 0 000-2zm-3 1a3 3 0 116 0 3 3 0 01-6 0z" fill="#1A1C20"/>
</svg>
