<svg xmlns="http://www.w3.org/2000/svg" width="120" height="120" viewBox="0 0 120 120">
  <g fill="none" fill-rule="evenodd">
    <path fill="#FFF" stroke="#344B63" stroke-linejoin="round" stroke-width="2" d="M28,30 L92,30 C94.209139,30 96,31.790861 96,34 L96,79.5 L87.5,91 L28,91 C25.790861,91 24,89.209139 24,87 L24,34 C24,31.790861 25.790861,30 28,30 Z"/>
    <path stroke="#344B63" stroke-linecap="round" stroke-width="2" d="M0 1L12 1M0 14L12 14M0 27L12 27M0 5L30 5M0 18L30 18M0 31L30 31" transform="translate(46 51)"/>
    <g transform="translate(29 47)">
      <rect width="8" height="8" x="2" y="16" fill="#FFF" stroke="#344B63" stroke-linejoin="round" stroke-width="2" rx="4"/>
      <rect width="8" height="8" x="2" y="29" fill="#FFF" stroke="#344B63" stroke-linejoin="round" stroke-width="2" rx="4"/>
      <path fill="#57D3D2" fill-rule="nonzero" d="M4.59238571,6.00659927 L9.14213562,0.585786438 C9.92318421,-0.195262146 11.1895142,-0.195262146 11.9705627,0.585786438 C12.7516113,1.36683502 12.7516113,2.63316498 12.0234935,3.35698592 L6.07106781,10.3137085 C5.69151395,10.6932624 5.18294642,10.8994949 4.65685425,10.8994949 C4.13076208,10.8994949 3.62219455,10.6932624 3.24264069,10.3137085 L0.585786438,7.65685425 C-0.195262146,6.87580567 -0.195262146,5.60947571 0.585786438,4.82842712 C1.36683502,4.04737854 2.63316498,4.04737854 3.41421356,4.82842712 L4.59238571,6.00659927 Z"/>
    </g>
    <g transform="translate(24 28)">
      <path fill="#E3E3E6" stroke="#344B63" stroke-width="2" d="M4,0 L68,0 C70.209139,-4.05812251e-16 72,1.790861 72,4 L72,14 L0,14 L0,4 C-2.705415e-16,1.790861 1.790861,4.05812251e-16 4,0 Z"/>
      <path fill="#C0C0C4" d="M7,4 C8.65685425,4 10,5.34314575 10,7 C10,8.65685425 8.65685425,10 7,10 C5.34314575,10 4,8.65685425 4,7 C4,5.34314575 5.34314575,4 7,4 Z M16,4 C17.6568542,4 19,5.34314575 19,7 C19,8.65685425 17.6568542,10 16,10 C14.3431458,10 13,8.65685425 13,7 C13,5.34314575 14.3431458,4 16,4 Z M25,4 C26.6568542,4 28,5.34314575 28,7 C28,8.65685425 26.6568542,10 25,10 C23.3431458,10 22,8.65685425 22,7 C22,5.34314575 23.3431458,4 25,4 Z"/>
    </g>
    <path fill="#E3E3E6" fill-rule="nonzero" stroke="#344B63" stroke-width="2" d="M93.9069225,75.1485018 L93.8885546,75.1511373 C92.9471057,75.277319 92.2100765,76.0338251 91.981428,77.0982046 C91.7444105,78.2461583 91.0330537,79.2573112 89.9940682,79.8716502 C89.3554241,80.2444112 88.6257741,80.44 87.8982838,80.44 C87.46774,80.44 87.0521048,80.378103 86.6192487,80.2473531 C86.3385854,80.1564583 86.0509591,80.1104 85.7701906,80.1104 C85.1099377,80.1104 84.5483889,80.364471 84.1899851,80.8290443 C83.3762199,81.8998968 82.6995138,83.0865341 82.1741487,84.3537266 C81.8046573,85.2822761 82.0350138,86.3552737 82.7197812,86.9203603 C83.6210541,87.6537701 84.1833718,88.7343998 84.2641912,89.9327083 L84.2641912,90.0672917 C84.1833718,91.2656002 83.6210541,92.3462299 82.7250708,93.0753052 C82.0350138,93.6447263 81.8046573,94.7177239 82.168793,95.6330881 C82.6995138,96.9134659 83.3762199,98.1001032 84.1855874,99.1652119 C84.5483889,99.635529 85.1099377,99.8896 85.7701906,99.8896 C86.0509591,99.8896 86.3385854,99.8435417 86.6386284,99.7465873 C87.0521048,99.621897 87.46774,99.56 87.8982838,99.56 C88.6257741,99.56 89.3554241,99.7555888 89.9989587,100.131223 C91.0330537,100.742689 91.7444105,101.753842 91.9797864,102.894001 C92.2100765,103.966175 92.9471057,104.722681 93.9069225,104.851498 C94.5627815,104.951824 95.2558669,105 96,105 C96.7441331,105 97.4372185,104.951824 98.1114454,104.848863 C99.0528943,104.722681 99.7899235,103.966175 100.018572,102.901795 C100.255589,101.753842 100.966946,100.742689 102.005932,100.12835 C102.644576,99.7555888 103.374226,99.56 104.101716,99.56 C104.53226,99.56 104.947895,99.621897 105.380751,99.7526469 C105.660785,99.8433378 105.949981,99.8896 106.229809,99.8896 C106.890062,99.8896 107.451611,99.635529 107.810015,99.1709557 C108.62378,98.1001032 109.300486,96.9134659 109.825851,95.6462734 C110.195343,94.7177239 109.964986,93.6447263 109.280219,93.0796397 C108.378946,92.3462299 107.816628,91.2656002 107.735809,90.0672917 L107.735809,89.9327083 C107.816628,88.7343998 108.378946,87.6537701 109.274929,86.9246948 C109.964986,86.3552737 110.195343,85.2822761 109.831207,84.3669119 C109.300486,83.0865341 108.62378,81.8998968 107.814413,80.8347881 C107.451611,80.364471 106.890062,80.1104 106.229809,80.1104 C105.949981,80.1104 105.660785,80.1566622 105.361372,80.2534127 C104.947895,80.378103 104.53226,80.44 104.101716,80.44 C103.374226,80.44 102.644576,80.2444112 102.001041,79.8687771 C100.966946,79.2573112 100.255589,78.2461583 100.020214,77.1059987 C99.7899235,76.0338251 99.0528943,75.277319 98.0930775,75.1485018 C97.4372185,75.0481762 96.7441331,75 96,75 C95.2558669,75 94.5627815,75.0481762 93.9069225,75.1485018 Z M96,94.0730702 C93.790861,94.0730702 92,92.2822092 92,90.0730702 C92,87.8639312 93.790861,86.0730702 96,86.0730702 C98.209139,86.0730702 100,87.8639312 100,90.0730702 C100,92.2822092 98.209139,94.0730702 96,94.0730702 Z"/>
  </g>
</svg>
