<svg xmlns="http://www.w3.org/2000/svg" width="120" height="120" viewBox="0 0 120 120">
  <g fill="none" fill-rule="evenodd">
    <path fill="#FFF" d="M104.1604,56.9996 L100.0004,56.9996 L94.9004,56.9996 C94.9694,56.6696 95.0004,56.3396 95.0004,55.9996 C95.0004,53.2406 92.7594,50.9996 90.0004,50.9996 C87.2404,50.9996 85.0004,53.2406 85.0004,55.9996 C85.0004,56.3396 85.0304,56.6696 85.0994,56.9996 L82.1294,56.9996 C81.7404,56.9996 81.3494,56.9196 81.0004,56.7696 C80.4004,56.5306 79.8794,56.0896 79.5404,55.5096 L79.0004,54.5796 L69.9504,38.9996 L68.7904,36.9996 L63.0304,27.0896 C62.5304,26.2296 61.8204,25.5796 61.0004,25.1606 C60.3794,24.8396 59.7004,24.6496 59.0004,24.6096 C58.0604,24.5496 57.0894,24.7496 56.2104,25.2596 L41.0004,33.9906 L32.2594,38.9996 L21.0004,45.4596 L19.0004,46.6096 L13.6804,49.6606 C12.1204,50.5496 11.1704,52.2096 11.1704,53.9996 C11.1704,56.7596 13.4004,58.9996 16.1704,58.9996 L19.0004,58.9996 L21.0004,58.9996 L26.5404,58.9996 C27.3104,58.9996 27.7904,58.1696 27.4004,57.4996 C27.1404,57.0496 27.0004,56.5396 27.0004,55.9996 C27.0004,54.3396 28.3394,52.9996 30.0004,52.9996 C31.6604,52.9996 33.0004,54.3396 33.0004,55.9996 C33.0004,56.5396 32.8594,57.0496 32.6004,57.4996 C32.2104,58.1696 32.6904,58.9996 33.4604,58.9996 L38.1904,58.9996 C39.2594,58.9996 40.2504,59.5696 40.7904,60.4906 L50.3794,76.9996 L51.5404,78.9996 L57.2994,88.9106 C57.7304,89.6506 58.3194,90.2406 59.0004,90.6606 C59.6094,91.0306 60.2904,91.2696 61.0004,91.3606 C62.0404,91.4996 63.1294,91.2996 64.1104,90.7406 L73.9104,85.1206 L77.5594,83.0306 L79.0004,82.2006 L87.3494,77.4106 L99.0004,70.7306 L101.0004,69.5796 L106.6504,66.3396 C108.2004,65.4506 109.1604,63.7896 109.1604,61.9996 C109.1604,59.2406 106.9204,56.9996 104.1604,56.9996 Z"/>
    <path fill="#344B63" d="M105.6504,64.5996 L101.0004,67.2696 L101.0004,58.9996 L104.1604,58.9996 C105.8204,58.9996 107.1604,60.3396 107.1604,61.9996 C107.1604,63.0706 106.5804,64.0706 105.6504,64.5996 Z M84.0404,76.9996 L81.0004,76.9996 L81.0004,72.9006 C81.3304,72.9696 81.6604,72.9996 82.0004,72.9996 C84.7594,72.9996 87.0004,70.7596 87.0004,67.9996 C87.0004,65.2406 84.7594,62.9996 82.0004,62.9996 C81.6604,62.9996 81.3304,63.0306 81.0004,63.0996 L81.0004,58.9996 L82.1294,58.9996 L86.5404,58.9996 C87.3094,58.9996 87.7904,58.1696 87.4004,57.4996 C87.1394,57.0496 87.0004,56.5396 87.0004,55.9996 C87.0004,54.3396 88.3394,52.9996 90.0004,52.9996 C91.6604,52.9996 93.0004,54.3396 93.0004,55.9996 C93.0004,56.5396 92.8604,57.0496 92.5994,57.4996 C92.2104,58.1696 92.6904,58.9996 93.4604,58.9996 L99.0004,58.9996 L99.0004,68.4196 L84.0404,76.9996 Z M63.1204,88.9996 C62.8794,89.1396 62.6294,89.2306 62.3794,89.2996 C62.2504,89.3296 62.1204,89.3606 61.9904,89.3706 C61.9204,89.3796 61.8604,89.3796 61.7994,89.3796 C61.6294,89.4006 61.4694,89.4006 61.3094,89.3796 C61.2104,89.3706 61.1104,89.3496 61.0094,89.3296 L61.0004,89.3296 L61.0004,78.9996 L66.5404,78.9996 C67.3094,78.9996 67.7904,78.1696 67.4004,77.4996 C67.1394,77.0496 67.0004,76.5396 67.0004,75.9996 C67.0004,74.3396 68.3394,72.9996 70.0004,72.9996 C71.6604,72.9996 73.0004,74.3396 73.0004,75.9996 C73.0004,76.5396 72.8604,77.0496 72.5994,77.4996 C72.2104,78.1696 72.6904,78.9996 73.4604,78.9996 L79.0004,78.9996 L79.0004,79.8896 L63.1204,88.9996 Z M53.8504,78.9996 L59.0004,78.9996 L59.0004,87.8606 L53.8504,78.9996 Z M42.5094,59.4906 C42.4104,59.3196 42.2994,59.1496 42.1804,58.9996 L46.5404,58.9996 C47.3104,58.9996 47.7904,58.1696 47.4004,57.4996 C47.1404,57.0496 47.0004,56.5396 47.0004,55.9996 C47.0004,54.3396 48.3394,52.9996 50.0004,52.9996 C51.6604,52.9996 53.0004,54.3396 53.0004,55.9996 C53.0004,56.5396 52.8594,57.0496 52.6004,57.4996 C52.2104,58.1696 52.6904,58.9996 53.4604,58.9996 L59.0004,58.9996 L59.0004,63.0996 C58.6704,63.0306 58.3394,62.9996 58.0004,62.9996 C55.2404,62.9996 53.0004,65.2406 53.0004,67.9996 C53.0004,70.7596 55.2404,72.9996 58.0004,72.9996 C58.3394,72.9996 58.6704,72.9696 59.0004,72.9006 L59.0004,76.9996 L52.6904,76.9996 L42.5094,59.4906 Z M38.6004,57.0196 C38.5304,57.0096 38.4604,56.9996 38.3904,57.0096 C38.3194,56.9996 38.2594,56.9996 38.1904,56.9996 L34.9004,56.9996 C34.9694,56.6696 35.0004,56.3396 35.0004,55.9996 C35.0004,53.2406 32.7594,50.9996 30.0004,50.9996 C27.2404,50.9996 25.0004,53.2406 25.0004,55.9996 C25.0004,56.3396 25.0304,56.6696 25.1004,56.9996 L21.0004,56.9996 L21.0004,47.7696 L36.2904,38.9996 L39.0004,38.9996 L39.0004,57.0696 C38.9404,57.0596 38.8704,57.0396 38.7994,57.0396 C38.7404,57.0306 38.6704,57.0196 38.6004,57.0196 Z M16.1704,56.9996 C14.5094,56.9996 13.1704,55.6606 13.1704,53.9996 C13.1704,52.9306 13.7404,51.9306 14.6704,51.3996 L19.0004,48.9196 L19.0004,56.9996 L16.1704,56.9996 Z M57.2104,26.9996 C57.4404,26.8596 57.6904,26.7696 57.9404,26.7006 C58.0604,26.6696 58.1904,26.6496 58.3194,26.6296 C58.3794,26.6206 58.4504,26.6206 58.5094,26.6206 C58.6804,26.5996 58.8394,26.6096 59.0004,26.6206 L59.0004,36.9996 L53.4604,36.9996 C52.6904,36.9996 52.2104,37.8296 52.6004,38.4996 C52.8594,38.9506 53.0004,39.4596 53.0004,39.9996 C53.0004,41.6606 51.6604,42.9996 50.0004,42.9996 C48.3394,42.9996 47.0004,41.6606 47.0004,39.9996 C47.0004,39.4596 47.1404,38.9506 47.4004,38.4996 C47.7904,37.8296 47.3104,36.9996 46.5404,36.9996 L41.0004,36.9996 L41.0004,36.2996 L57.2104,26.9996 Z M61.0094,27.6806 C61.1104,27.8096 61.2104,27.9396 61.2994,28.0896 L66.4804,36.9996 L61.0004,36.9996 L61.0004,27.6696 L61.0094,27.6806 Z M77.8094,56.5096 C77.9104,56.6806 78.0194,56.8496 78.1394,56.9996 L73.4604,56.9996 C72.6904,56.9996 72.2104,57.8296 72.5994,58.4996 C72.8604,58.9506 73.0004,59.4596 73.0004,59.9996 C73.0004,61.6606 71.6604,62.9996 70.0004,62.9996 C68.3394,62.9996 67.0004,61.6606 67.0004,59.9996 C67.0004,59.4596 67.1394,58.9506 67.4004,58.4996 C67.7904,57.8296 67.3094,56.9996 66.5404,56.9996 L61.0004,56.9996 L61.0004,52.8996 C61.3304,52.9696 61.6604,52.9996 62.0004,52.9996 C64.7594,52.9996 67.0004,50.7596 67.0004,47.9996 C67.0004,45.2406 64.7594,42.9996 62.0004,42.9996 C61.6604,42.9996 61.3304,43.0306 61.0004,43.0996 L61.0004,38.9996 L67.6394,38.9996 L77.8094,56.5096 Z M50.0004,50.9996 C47.2404,50.9996 45.0004,53.2406 45.0004,55.9996 C45.0004,56.3396 45.0304,56.6696 45.1004,56.9996 L41.0004,56.9996 L41.0004,38.9996 L45.1004,38.9996 C45.0304,39.3296 45.0004,39.6606 45.0004,39.9996 C45.0004,42.7596 47.2404,44.9996 50.0004,44.9996 C52.7594,44.9996 55.0004,42.7596 55.0004,39.9996 C55.0004,39.6606 54.9694,39.3296 54.9004,38.9996 L59.0004,38.9996 L59.0004,44.5396 C59.0004,45.3096 59.8304,45.7896 60.5004,45.3996 C60.9504,45.1406 61.4604,44.9996 62.0004,44.9996 C63.6604,44.9996 65.0004,46.3396 65.0004,47.9996 C65.0004,49.6606 63.6604,50.9996 62.0004,50.9996 C61.4604,50.9996 60.9504,50.8596 60.5004,50.5996 C59.8304,50.2096 59.0004,50.6896 59.0004,51.4596 L59.0004,56.9996 L54.9004,56.9996 C54.9694,56.6696 55.0004,56.3396 55.0004,55.9996 C55.0004,53.2406 52.7594,50.9996 50.0004,50.9996 Z M79.0004,71.4596 L79.0004,76.9996 L74.9004,76.9996 C74.9694,76.6696 75.0004,76.3396 75.0004,75.9996 C75.0004,73.2406 72.7594,70.9996 70.0004,70.9996 C67.2404,70.9996 65.0004,73.2406 65.0004,75.9996 C65.0004,76.3396 65.0304,76.6696 65.0994,76.9996 L61.0004,76.9996 L61.0004,71.4596 C61.0004,70.6906 60.1704,70.2096 59.5004,70.5996 C59.0494,70.8606 58.5404,70.9996 58.0004,70.9996 C56.3394,70.9996 55.0004,69.6606 55.0004,67.9996 C55.0004,66.3396 56.3394,64.9996 58.0004,64.9996 C58.5404,64.9996 59.0494,65.1396 59.5004,65.4006 C60.1704,65.7896 61.0004,65.3096 61.0004,64.5396 L61.0004,58.9996 L65.0994,58.9996 C65.0304,59.3296 65.0004,59.6606 65.0004,59.9996 C65.0004,62.7596 67.2404,64.9996 70.0004,64.9996 C72.7594,64.9996 75.0004,62.7596 75.0004,59.9996 C75.0004,59.6606 74.9694,59.3296 74.9004,58.9996 L79.0004,58.9996 L79.0004,64.5396 C79.0004,65.3096 79.8304,65.7896 80.5004,65.4006 C80.9504,65.1396 81.4604,64.9996 82.0004,64.9996 C83.6604,64.9996 85.0004,66.3396 85.0004,67.9996 C85.0004,69.6606 83.6604,70.9996 82.0004,70.9996 C81.4604,70.9996 80.9504,70.8606 80.5004,70.5996 C79.8304,70.2096 79.0004,70.6906 79.0004,71.4596 Z M104.1604,56.9996 L100.0004,56.9996 L94.9004,56.9996 C94.9694,56.6696 95.0004,56.3396 95.0004,55.9996 C95.0004,53.2406 92.7594,50.9996 90.0004,50.9996 C87.2404,50.9996 85.0004,53.2406 85.0004,55.9996 C85.0004,56.3396 85.0304,56.6696 85.0994,56.9996 L82.1294,56.9996 C81.7404,56.9996 81.3494,56.9196 81.0004,56.7696 C80.4004,56.5306 79.8794,56.0896 79.5404,55.5096 L79.0004,54.5796 L69.9504,38.9996 L68.7904,36.9996 L63.0304,27.0896 C62.5304,26.2296 61.8204,25.5796 61.0004,25.1606 C60.3794,24.8396 59.7004,24.6496 59.0004,24.6096 C58.0604,24.5496 57.0894,24.7496 56.2104,25.2596 L41.0004,33.9906 L32.2594,38.9996 L21.0004,45.4596 L19.0004,46.6096 L13.6804,49.6606 C12.1204,50.5496 11.1704,52.2096 11.1704,53.9996 C11.1704,56.7596 13.4004,58.9996 16.1704,58.9996 L19.0004,58.9996 L21.0004,58.9996 L26.5404,58.9996 C27.3104,58.9996 27.7904,58.1696 27.4004,57.4996 C27.1404,57.0496 27.0004,56.5396 27.0004,55.9996 C27.0004,54.3396 28.3394,52.9996 30.0004,52.9996 C31.6604,52.9996 33.0004,54.3396 33.0004,55.9996 C33.0004,56.5396 32.8594,57.0496 32.6004,57.4996 C32.2104,58.1696 32.6904,58.9996 33.4604,58.9996 L38.1904,58.9996 C39.2594,58.9996 40.2504,59.5696 40.7904,60.4906 L50.3794,76.9996 L51.5404,78.9996 L57.2994,88.9106 C57.7304,89.6506 58.3194,90.2406 59.0004,90.6606 C59.6094,91.0306 60.2904,91.2696 61.0004,91.3606 C62.0404,91.4996 63.1294,91.2996 64.1104,90.7406 L73.9104,85.1206 L77.5594,83.0306 L79.0004,82.2006 L87.3494,77.4106 L99.0004,70.7306 L101.0004,69.5796 L106.6504,66.3396 C108.2004,65.4506 109.1604,63.7896 109.1604,61.9996 C109.1604,59.2406 106.9204,56.9996 104.1604,56.9996 Z"/>
    <path fill="#57D3D2" d="M65,76 C65,73.2385763 67.2385763,71 70,71 C72.7614237,71 75,73.2385763 75,76 C75,76.3392697 74.9660353,76.6739298 75,77 L79,77 L79,71 C79,70.6946982 79.8340596,70.2136197 81,71 C80.9525037,70.8606047 81.4649024,71 82,71 C83.6568542,71 85,69.6568542 85,68 C85,66.3431458 83.6568542,65 82,65 C81.4649024,65 80.9525037,65.1393953 81,65 C79.8340596,65.7863803 79,65.3053018 79,65 L79,59 L75,59 C74.9660353,59.3260702 75,59.6607303 75,60 C75,62.7614237 72.7614237,65 70,65 C67.2385763,65 65,62.7614237 65,60 C65,59.6607303 65.0339647,59.3260702 65,59 L61,59 L61,65 C61,65.3053018 60.1659404,65.7863803 59,65 C59.0474963,65.1393953 58.5350976,65 58,65 C56.3431458,65 55,66.3431458 55,68 C55,69.6568542 56.3431458,71 58,71 C58.5350976,71 59.0474963,70.8606047 59,71 C60.1659404,70.2136197 61,70.6946982 61,71 L61,77 L65,77 C65.0339647,76.6739298 65,76.3392697 65,76 Z"/>
  </g>
</svg>
