<svg xmlns="http://www.w3.org/2000/svg" width="120" height="120" viewBox="0 0 120 120">
    <g fill="none" fill-rule="evenodd">
        <circle cx="60" cy="60" r="50" fill="#57D3D2"/>
        <path fill="#FFF" fill-rule="nonzero" d="M18 87.477a1 1 0 1 1 0-2c.676 0 1.33-.013 1.962-.038a1 1 0 0 1 .078 1.999c-.658.026-1.338.039-2.04.039zm6.131-.404a1 1 0 1 1-.29-1.979 25.677 25.677 0 0 0 1.892-.347 1 1 0 1 1 .438 1.951c-.645.145-1.325.27-2.04.375zm6.064-1.746a1 1 0 0 1-.889-1.791 8.912 8.912 0 0 0 1.528-.946 1 1 0 1 1 1.231 1.576 10.9 10.9 0 0 1-1.87 1.161zm4.436-5.042a1 1 0 0 1-1.958-.408 3.921 3.921 0 0 0-.004-1.595 1 1 0 1 1 1.959-.402c.164.8.168 1.612.003 2.405zm-2.46-6.425a1 1 0 1 1-1.287 1.53c-.44-.37-.929-.666-1.438-.868a1 1 0 1 1 .738-1.859c.712.283 1.385.69 1.988 1.197zm-6.717-.851a1 1 0 0 1 1.157 1.631c-.387.275-.756.68-1.084 1.196a1 1 0 1 1-1.688-1.072c.46-.726 1.004-1.321 1.615-1.755zm-3.11 6.017a1 1 0 1 1 1.978.295c-.089.598-.134 1.218-.134 1.846a1 1 0 0 1-2 0c0-.727.052-1.445.156-2.141zm3.727 12.02a1 1 0 1 1 1.433-1.396c.423.435.885.838 1.385 1.208a1 1 0 0 1-1.188 1.608 13.336 13.336 0 0 1-1.63-1.42zm5.299 3.382a1 1 0 1 1 .694-1.876c.571.212 1.171.393 1.8.544a1 1 0 0 1-.465 1.945 17.672 17.672 0 0 1-2.03-.613zm6.19 1.175a1 1 0 1 1 .087-1.998c.356.016.719.024 1.087.024.274 0 .536-.01.798-.032a1 1 0 1 1 .162 1.994 11.8 11.8 0 0 1-.96.038c-.398 0-.79-.009-1.175-.026zm6.373-1.198a1 1 0 0 1-.897-1.788 9.587 9.587 0 0 0 1.535-.961 1 1 0 1 1 1.217 1.587c-.58.445-1.202.834-1.855 1.162zm4.794-4.479a1 1 0 0 1-1.723-1.016c.307-.52.565-1.07.768-1.64a1 1 0 0 1 1.884.673c-.247.69-.558 1.354-.93 1.983zm1.471-6.482a1 1 0 0 1-1.928.53A51.444 51.444 0 0 1 47.767 82a1 1 0 1 1 1.948-.454c.144.619.305 1.252.483 1.899zm-1.185-5.738a1 1 0 0 1-1.984.252 30.78 30.78 0 0 1-.194-2.059 1 1 0 0 1 1.997-.118c.037.622.097 1.263.181 1.925zm-.082-5.748a1 1 0 1 1-1.985-.248c.09-.725.22-1.42.39-2.088a1 1 0 1 1 1.938.491c-.148.586-.263 1.2-.343 1.845zm1.775-5.233a1 1 0 1 1-1.687-1.074c.392-.615.835-1.191 1.33-1.726a1 1 0 0 1 1.468 1.358c-.413.446-.783.927-1.111 1.442z"/>
        <path fill="#344B63" fill-rule="nonzero" d="M56.858 62.336c-.811.471-1.766-.332-1.44-1.212l7.56-20.416a1 1 0 0 1 1.66-.345l9.86 10.304a1 1 0 0 1-.22 1.556l-17.42 10.113z"/>
        <path fill="#57D3D2" d="M58.26 59.21l13.914-8.078-7.876-8.23z"/>
        <path fill="#344B63" fill-rule="nonzero" d="M36.741 34.634l65.683-17.6a1 1 0 0 1 1.198 1.31L88.084 60.812a1 1 0 0 1-1.383.552L36.556 36.496c-.826-.41-.705-1.624.185-1.862z"/>
        <path fill="#FFF" d="M39.817 35.88L86.59 59.077l14.492-39.613z"/>
        <g>
            <path fill="#344B63" fill-rule="nonzero" d="M57.274 61.868c-.376.87-1.639.778-1.884-.138l-5.177-19.318a1 1 0 0 1 .59-1.186l39.451-15.983c1.078-.437 1.907 1.007.987 1.718l-28.358 21.9-5.61 13.007z"/>
            <path fill="#D3F2F2" d="M84.25 29.834L52.373 42.748l4.203 15.685 4.572-10.6a1 1 0 0 1 .307-.396l22.793-17.603z"/>
        </g>
    </g>
</svg>
