<svg xmlns="http://www.w3.org/2000/svg" width="120" height="120" viewBox="0 0 120 120">
  <g fill="none" fill-rule="evenodd">
    <rect width="120" height="120"/>
    <g transform="translate(16 18)">
      <g transform="translate(0 24)">
        <path fill="#E3E3E6" fill-rule="nonzero" stroke="#344B63" stroke-width="2.05" d="M19.54,48.8 L17.76,49.36 C16.87,49.64 16,48.84 16,47.75 L16,31 L23,31 L23,43.42 C23.1184054,45.7694076 21.7268505,47.9331548 19.54,48.8 Z"/>
        <path stroke="#344B63" stroke-linecap="round" stroke-width="2.05" d="M17 43L19 43M17 38L19 38"/>
        <g transform="translate(0 9)">
          <circle cx="12" cy="12" r="12" fill="#F7F7FA" fill-rule="nonzero"/>
          <circle cx="12" cy="12" r="12" stroke="#344B63" stroke-width="2.05"/>
        </g>
        <g transform="translate(12 2)">
          <path fill="#F7F7FA" fill-rule="nonzero" d="M14,31 L0,31 L0,7 L13.68,7 C14.8800323,6.9993466 16.066228,6.74370098 17.16,6.25 L31,0.38 L31,37.62 L17.61,31.79 C16.4794799,31.2641718 15.2468118,30.994419 14,31 Z"/>
          <path stroke="#344B63" stroke-linejoin="round" stroke-width="2.05" d="M14,31 L0,31 L0,7 L13.68,7 C14.8800323,6.9993466 16.066228,6.74370098 17.16,6.25 L31,0.38 L31,37.62 L17.61,31.79 C16.4794799,31.2641718 15.2468118,30.994419 14,31 Z"/>
        </g>
        <path stroke="#344B63" stroke-linecap="round" stroke-width="2.05" d="M12 8L12 33M27 8L27 33M12 26L27 26"/>
        <rect width="5" height="42" x="41" fill="#E3E3E6" fill-rule="nonzero" stroke="#344B63" stroke-linejoin="round" stroke-width="2.05"/>
      </g>
      <path fill="#57D3D2" fill-rule="nonzero" d="M61.4,0.63 C49.7692417,0.625750354 39.4843745,8.17833634 36.0069934,19.2770921 C32.5296124,30.3758478 36.6661614,42.4468465 46.22,49.08 C44.59,51.99 41.8,55.24 37.48,55.24 C43.7462496,59.4849401 52.1245114,58.7853636 57.6,53.56 C67.4530539,54.9746431 77.2714195,50.7696701 83.0462769,42.6619634 C88.8211344,34.5542567 89.5859806,23.9007544 85.0285303,15.051261 C80.47108,6.20176765 71.3540862,0.637369637 61.4,0.63 Z" style="mix-blend-mode:multiply"/>
      <g fill="#FFF" fill-rule="nonzero" transform="translate(50 24)">
        <circle cx="3" cy="3" r="3"/>
        <circle cx="12" cy="3" r="3"/>
        <circle cx="21" cy="3" r="3"/>
      </g>
    </g>
  </g>
</svg>
