<svg xmlns="http://www.w3.org/2000/svg" width="120" height="120" viewBox="0 0 120 120"><title>120x120_search_static</title><g id="bounding"><polyline points="0 0 120 0 120 120 0 120" fill="none"/></g><g id="illu"><path d="M68.39,27.49c-.86-5-4.54-7.3-10.09-6.34s-8.23,4.38-7.37,9.37c.74,4.25,3.51,6.56,7.74,6.56A13.8,13.8,0,0,0,61,36.86c2.93-.51,5.05-1.67,6.3-3.46A7.8,7.8,0,0,0,68.39,27.49Z" fill="#fff"/><path d="M68.53,27.46c-.6-3.44-2.61-6.09-6.61-6.51h0a13.19,13.19,0,0,0-3.62.16C52,22.21,50.14,26,50.76,30.24c2.91,1.72,7.08.43,9.52-3a9.66,9.66,0,0,0,1.08-2,7.27,7.27,0,0,0,1.42,1.44,5.73,5.73,0,0,0,5.77.92Z" fill="#e3e3e6"/><path d="M31,62,59.61,49,57.2,43.77,35,55.43A7.42,7.42,0,0,0,31,62Z" fill="#c0c0c4"/><polygon points="49.89 62.18 44.64 88.49 49.89 88 58.67 64.28 49.89 62.18" fill="#c0c0c4"/><path d="M101,105a11.1,11.1,0,0,0-13.89-9.89,26.76,26.76,0,0,0-47.54-4.3A15.4,15.4,0,0,0,21,105Z" fill="#e3e3e6"/><path d="M63,105a6.94,6.94,0,0,0-8.68-6.18A16.72,16.72,0,0,0,24.6,96.13,9.62,9.62,0,0,0,13,105Z" fill="#fff"/><path d="M71,31.57l26,4.36V22.07l-25.38,6A8.51,8.51,0,0,1,71,31.57Z" fill="#57d3d2"/><rect x="99" y="21" width="4" height="16" fill="#57d3d2"/><path d="M107,104h-5.13A12.13,12.13,0,0,0,87.71,94,27.75,27.75,0,0,0,40.79,87.4a18,18,0,0,0-2-.12A17.63,17.63,0,0,0,24.13,95a10.61,10.61,0,0,0-12,9H7a1,1,0,0,0,0,2H107a1,1,0,0,0,0-2Zm-92.88,0A8.63,8.63,0,0,1,24.4,97.11l.68.14.37-.59a15.72,15.72,0,0,1,27.94,2.53l.33.82.85-.22A5.93,5.93,0,0,1,61.82,104Zm49.74,0a8,8,0,0,0-8.95-6.32,17.61,17.61,0,0,0-11.85-9.87,25.75,25.75,0,0,1,43.11,7.67l.33.82.85-.22A10.1,10.1,0,0,1,99.86,104Z" fill="#344b63"/><path d="M67.12,46.46C80.44,45.53,83.58,30.7,80,22.9h0a4.52,4.52,0,0,0-3.76,5c.72,5.3-2,11.72-10.86,11.72l-8,4.11a10,10,0,0,0-5.26,7L48,72l17-7.23c5.16-1.78,9-1.31,10.95,1.39,2.62,3.68,1.54,10.87-4.79,18.2l3,2.62c7.05-8.17,9.17-18.32,5-24.14C78,61.09,74.56,57.77,67.41,59A2,2,0,0,1,65,57l.18-8.61A2,2,0,0,1,67.12,46.46Z" fill="#fff"/><path d="M67.24,58a1,1,0,0,1-.85-.23A1,1,0,0,1,66,57l.19-8.62a1,1,0,0,1,1-1,15.17,15.17,0,0,0,12.52-7.59c3-5.16,3.52-12.31,1.17-17.39l-.32-.69-.76.13a5.48,5.48,0,0,0-4.58,6.16,9.51,9.51,0,0,1-2,7.57c-1.75,2-4.39,3-7.84,3h-.24L34.51,54.54A8.41,8.41,0,0,0,30,62v1.55l20.38-9.24-1.5,7.79L44.59,83.6A22.54,22.54,0,0,1,47,81.82l1.81-9.07,6.73-2.86L52.1,79.16a23.37,23.37,0,0,1,2.44-.83l3.52-9.52,7.27-3.09c4.69-1.62,8.18-1.26,9.8,1,1.74,2.45,1.7,7.23-1.71,12.83-.34.56-.71,1.12-1.12,1.69s-.89,1.21-1.4,1.83L70,82.36a1,1,0,0,0-1.31,1.51L75,89.24a1,1,0,0,0,.65.25,1,1,0,0,0,.66-1.76L75.44,87a33.49,33.49,0,0,0,2.07-2.79c.38-.56.73-1.12,1.06-1.69,4.29-7.35,5-15.27,1.45-20.27C78.79,60.53,75.08,56.66,67.24,58Zm-35,2.31a6.45,6.45,0,0,1,3.23-4l16.75-8.78A11.11,11.11,0,0,0,51.1,50.6l-.25,1.3ZM76.93,81.42c-.33.56-.68,1.13-1.06,1.68-.55.83-1.15,1.65-1.8,2.45l-1.52-1.3c.58-.71,1.12-1.42,1.6-2.12s.76-1.13,1.09-1.68c3.81-6.33,3.69-11.82,1.52-14.87s-6.47-3.69-12.15-1.73L49.34,70.34,53.06,51a9,9,0,0,1,4.73-6.31l7.8-4c3.89,0,7-1.33,9.1-3.7a11.5,11.5,0,0,0,2.51-9.16,3.48,3.48,0,0,1,2.19-3.71A18.2,18.2,0,0,1,78,38.85,13.18,13.18,0,0,1,67,45.46a3.07,3.07,0,0,0-2,.92,3,3,0,0,0-.83,2L64,57a3,3,0,0,0,1.05,2.32,3,3,0,0,0,2.5.68c6.48-1.14,9.54,1.65,10.8,3.41C81.48,67.77,80.78,74.79,76.93,81.42Z" fill="#344b63"/><path d="M69.52,27.29c-1-5.63-5.12-8.24-11.39-7.16s-9.29,4.94-8.32,10.58c.83,4.8,4,7.4,8.74,7.4a15.58,15.58,0,0,0,2.65-.24c3.31-.57,5.7-1.89,7.11-3.91A8.81,8.81,0,0,0,69.52,27.29Zm-2.13-.38-.12,0a5.13,5.13,0,0,1-3.9-1.09,6,6,0,0,1-.89-.83A9.38,9.38,0,0,0,63,22.15,6,6,0,0,1,67.39,26.91ZM58.47,22.1a13.69,13.69,0,0,1,2.33-.22H61a8,8,0,0,1-1.53,4.74c-2,2.86-5.34,4.06-7.78,3C51.4,26.6,52.48,23.14,58.47,22.1Zm8.2,10.71c-1.09,1.57-3,2.6-5.81,3.08-5.51,1-7.8-1.41-8.7-4.07a6.6,6.6,0,0,0,1.44.16,9.46,9.46,0,0,0,7.5-4.21q.28-.4.52-.82c.18.16.36.33.56.47A7.39,7.39,0,0,0,66.59,29a6.06,6.06,0,0,0,1-.09l.06,0A6.22,6.22,0,0,1,66.67,32.81Z" fill="#344b63"/></g></svg>