<svg xmlns="http://www.w3.org/2000/svg" width="120" height="120" viewBox="0 0 120 120">
  <g fill="none" fill-rule="evenodd">
    <rect width="120" height="120"/>
    <g transform="translate(21 28)">
      <path fill="#E3E3E6" fill-rule="nonzero" stroke="#344B63" stroke-width="2" d="M0,60 L0,54 L51,54 L51,60 C51,62.7614237 53.2385763,65 56,65 L5,65 C2.23857625,65 0,62.7614237 0,60 Z"/>
      <path fill="#FFF" fill-rule="nonzero" stroke="#344B63" stroke-width="2" d="M56,65 C57.3260824,65 58.597852,64.4732158 59.5355339,63.5355339 C60.4732158,62.597852 61,61.3260824 61,60 L61,2 C61,0.8954305 60.1045695,0 59,0 L14,0 C12.3431458,-3.55271368e-15 11,1.34314575 11,3 L11,60 C11,62.7614237 8.76142375,65 6,65 L56,65 Z"/>
      <rect width="32" height="2" x="19" y="20" fill="#344B63" fill-rule="nonzero"/>
      <rect width="32" height="2" x="6" y="30" fill="#344B63" fill-rule="nonzero" transform="rotate(90 22 31)"/>
      <rect width="32" height="2" x="32" y="30" fill="#344B63" fill-rule="nonzero" transform="rotate(90 48 31)"/>
      <rect width="32" height="2" x="24" y="30" fill="#344B63" fill-rule="nonzero" transform="rotate(90 40 31)"/>
      <rect width="32" height="2" x="19" y="27" fill="#344B63" fill-rule="nonzero"/>
      <rect width="32" height="2" x="19" y="34" fill="#344B63" fill-rule="nonzero"/>
      <rect width="32" height="2" x="19" y="41" fill="#344B63" fill-rule="nonzero"/>
      <path stroke="#57D3D2" stroke-width="2" d="M52,57 L44.13,57 C44.13,57 49,52 45,52 C41.76,52 39.51,56.19 37,57 C34.49,57.81 38.28,53.92 36,53.57 C33.72,53.22 32.3,55.44 31,57 L28.8,57.11" style="mix-blend-mode:multiply"/>
      <rect width="9" height="2" x="19" y="8" fill="#344B63" fill-rule="nonzero"/>
      <path fill="#344B63" fill-rule="nonzero" d="M52.27,58 C52.6286848,58.001424 52.960659,57.8106342 53.14,57.5 L69.79,28.66 L68.06,27.66 L50.56,58.0000079 L52.27,58 Z"/>
      <path stroke="#344B63" stroke-linecap="round" stroke-width="2" d="M72.56,19.86 L77.76,22.86 C78.7146113,23.4129293 79.041234,24.6344087 78.49,25.59 L70,40.32 C69.4470707,41.2746113 68.2255913,41.601234 67.27,41.05 L64.67,39.55"/>
      <rect width="4" height="25" x="68.674" y="12.627" fill="#FFF" fill-rule="nonzero" stroke="#344B63" stroke-linecap="round" stroke-linejoin="round" stroke-width="2" transform="rotate(30 70.674 25.127)"/>
      <rect width="6" height="27" x="64.67" y="16.822" fill="#57D3D2" fill-rule="nonzero" stroke="#344B63" stroke-linecap="round" stroke-linejoin="round" stroke-width="2" transform="rotate(30 67.67 30.322)"/>
      <polygon fill="#FFF" fill-rule="nonzero" stroke="#344B63" stroke-linecap="round" stroke-linejoin="round" stroke-width="2" points="63.52 43.52 58.32 40.52 52.19 53.14 55.65 55.14"/>
    </g>
  </g>
</svg>
