<svg width="120" height="120" fill="none" xmlns="http://www.w3.org/2000/svg">
  <path d="M28 43h66v42a4 4 0 01-4 4H32a4 4 0 01-4-4V43z" fill="#fff"/>
  <path fill-rule="evenodd" clip-rule="evenodd" d="M50 50a1 1 0 100 2h12a1 1 0 100-2H50zm0 12a1 1 0 100 2h12a1 1 0 100-2H50zm-1 13a1 1 0 011-1h12a1 1 0 110 2H50a1 1 0 01-1-1zm1-21a1 1 0 100 2h24a1 1 0 100-2H50zm-1 13a1 1 0 011-1h24a1 1 0 110 2H50a1 1 0 01-1-1zm1 11a1 1 0 100 2h24a1 1 0 100-2H50z" fill="#000"/>
  <path d="M44 65a3 3 0 10-6 0 3 3 0 006 0z" fill="#fff"/>
  <path fill-rule="evenodd" clip-rule="evenodd" d="M41 63a2 2 0 100 4 2 2 0 000-4zm-4 2a4 4 0 118 0 4 4 0 01-8 0z" fill="#000"/>
  <path d="M44 77a3 3 0 10-6 0 3 3 0 006 0z" fill="#fff"/>
  <path fill-rule="evenodd" clip-rule="evenodd" d="M41 75a2 2 0 100 4 2 2 0 000-4zm-4 2a4 4 0 118 0 4 4 0 01-8 0z" fill="#000"/>
  <path fill-rule="evenodd" clip-rule="evenodd" d="M32.556 30h56.888c.943 0 1.848.361 2.515 1.004A3.368 3.368 0 0193 33.43V42H29v-8.571c0-.91.375-1.782 1.041-2.425A3.623 3.623 0 0132.556 30z" fill="#E4E4E6"/>
  <path fill-rule="evenodd" clip-rule="evenodd" d="M32.556 31a2.62 2.62 0 00-1.82.724A2.368 2.368 0 0030 33.429V41h62v-7.571c0-.633-.26-1.247-.736-1.705a2.624 2.624 0 00-1.82-.724H32.556zm-1-1.892a4.593 4.593 0 00-2.209 1.176A4.367 4.367 0 0028 33.43V43h66v-9.571c0-1.187-.49-2.317-1.347-3.145A4.623 4.623 0 0089.444 29H31.556v.108z" fill="#000"/>
  <path fill-rule="evenodd" clip-rule="evenodd" d="M83.5 35c-.828 0-1.5.448-1.5 1s.672 1 1.5 1h3c.828 0 1.5-.448 1.5-1s-.672-1-1.5-1h-3zM35 35a1 1 0 100 2h24a1 1 0 100-2H35z" fill="#000"/>
  <path d="M43.667 52.236a1.455 1.455 0 000-2.095 1.547 1.547 0 00-2.148 0l-4.296 4.189a1.455 1.455 0 000 2.094 1.547 1.547 0 002.148 0l4.296-4.188z" fill="#FF7040"/>
  <path d="M41.518 56.424a1.547 1.547 0 002.148 0 1.455 1.455 0 000-2.094l-4.296-4.19a1.547 1.547 0 00-2.148 0 1.455 1.455 0 000 2.095l4.296 4.188z" fill="#FF7040"/>
  <path fill-rule="evenodd" clip-rule="evenodd" d="M92 42.971H30v42.086c0 1.089.895 1.972 2 1.972h58c1.105 0 2-.883 2-1.972V42.971zM28 41v44.057C28 87.235 29.79 89 32 89h58c2.21 0 4-1.765 4-3.943V41H28z" fill="#000"/>
</svg>
