<svg xmlns="http://www.w3.org/2000/svg" width="120" height="120" viewBox="0 0 120 120">
  <g fill="none" fill-rule="evenodd">
    <circle cx="83" cy="83" r="21" fill="#57D3D2" fill-rule="nonzero"/>
    <g transform="translate(18 15)">
      <path fill="#E3E3E6" stroke="#344B63" stroke-linejoin="round" stroke-width="2" d="M69.1685623,16.4876773 C68.5618391,39.570537 55.1330746,60.0008688 34.6151343,72.8475712 C34.4385578,72.9581294 34.2617054,73.0679699 34.0843238,73.1770909 C33.9071999,73.0679699 33.7303474,72.9581293 33.5537709,72.8475712 C13.0358325,60.0008681 -0.392931576,39.5705366 -0.999654739,16.4876773 C-1.00709806,16.2044952 -1.01259328,15.9216105 -1.01526602,15.6389109 C-0.741781809,15.5877192 -0.468360261,15.5349508 -0.195012885,15.4806011 C12.4561832,12.9651601 23.9583428,7.25912285 33.4384727,-0.763353411 C33.654877,-0.946483667 33.8702652,-1.13085271 34.0860017,-1.31496328 C34.2997941,-1.12986679 34.5146092,-0.945994014 34.7304349,-0.763353411 C44.2105647,7.25912285 55.7127244,12.9651601 68.3639204,15.4806011 C68.63804,15.5351044 68.9122341,15.5880173 69.1850048,15.6432502 C69.1814461,15.9244252 69.1759686,16.2059041 69.1685623,16.4876773 Z"/>
      <path fill="#FFF" d="M34,71.8756974 C13.8282474,59.2128764 0.597348702,39.1162453 0,16.3900385 C12.7832025,13.8483507 24.4089502,8.09250289 34,0 L34,71.8756974 L34,71.8756974 Z"/>
      <path fill="#E3E3E6" stroke="#344B63" stroke-linejoin="round" stroke-width="2" d="M61.8928179,21.3479916 C61.0521182,39.3740454 50.4819738,55.2919298 34.4798151,65.3687074 C34.3030335,65.4800292 34.1258954,65.5904451 33.9454939,65.6999521 C33.7680064,65.5904451 33.5908684,65.4800292 33.4140867,65.3687073 C17.4119295,55.2919292 6.84178552,39.374045 6.00108578,21.3479916 C5.98764198,21.0597332 5.97672555,20.7717799 5.96864793,20.4862856 C6.24540232,20.4335553 6.52205316,20.3787624 6.79858102,20.321899 C16.7779475,18.2698079 25.8405039,13.6768364 33.2934992,7.24303262 C33.5127584,7.0537569 33.730645,6.86287046 33.9481126,6.67158617 C34.1641628,6.86366252 34.3816001,7.05414959 34.6004045,7.24303262 C42.0533998,13.6768364 51.1159562,18.2698079 61.0953227,20.321899 C61.3724596,20.3788876 61.6497201,20.4337966 61.9254869,20.4874422 C61.9170948,20.773978 61.9062104,21.0608334 61.8928179,21.3479916 Z"/>
      <path fill="#FFF" d="M34,64.4890664 C33.9823237,64.5002204 33.9646407,64.5113671 33.946951,64.5225066 C18.2349391,54.628437 7.82591518,39.0104512 7,21.3014042 C17.1494885,19.2143303 26.3668316,14.5435446 33.9469518,8 C33.9646257,8.01525694 33.9823084,8.0305037 34,8.04574026 L34,64.4890696 L34,64.4890664 Z"/>
      <g stroke="#344B63" stroke-linecap="round" stroke-width="2" transform="translate(11 28)">
        <line x2="10" y1="11" y2="11"/>
        <line x1="43" x2="49" y1="1" y2="1"/>
        <line x1="35" x2="41" y1="20" y2="20"/>
        <line x1="26" x2="28" y1="20" y2="20"/>
      </g>
    </g>
    <g stroke="#344B63" stroke-width="2" transform="translate(75 70)">
      <path d="M13,6 L13,11 L3,11 L3,6 C3,4.61928813 3.55964406,3.36928813 4.46446609,2.46446609 C5.36928813,1.55964406 6.61928813,1 8,1 C9.38071187,1 10.6307119,1.55964406 11.5355339,2.46446609 C12.4403559,3.36928813 13,4.61928813 13,6 Z"/>
      <rect width="16" height="14" y="9" fill="#F7F7FA" stroke-linejoin="round"/>
      <g stroke-linecap="round" transform="translate(0 13)">
        <line x2="9" y1="1" y2="1"/>
        <line x2="6" y1="5" y2="5"/>
      </g>
    </g>
  </g>
</svg>
