<svg xmlns="http://www.w3.org/2000/svg" width="120" height="120" viewBox="0 0 120 120">
  <g fill="none" fill-rule="evenodd">
    <g fill-rule="nonzero" transform="translate(21 28)">
      <g stroke="#344B63" stroke-width="2">
        <path fill="#E3E3E6" d="M0,60 L0,54 L51,54 L51,60 C51,62.7614237 53.2385763,65 56,65 L5,65 C2.23857625,65 0,62.7614237 0,60 Z"/>
        <path fill="#FFF" d="M56,65 C57.3260824,65 58.597852,64.4732158 59.5355339,63.5355339 C60.4732158,62.597852 61,61.3260824 61,60 L61,2 C61,0.8954305 60.1045695,0 59,0 L14,0 C12.3431458,-3.55271368e-15 11,1.34314575 11,3 L11,60 C11,62.7614237 8.76142375,65 6,65 L56,65 Z"/>
      </g>
      <path fill="#344B63" d="M47,41 L47,36 L41,36 L41,41 L47,41 Z M47,43 L41,43 L41,46 C41,46.5522847 40.5522847,47 40,47 C39.4477153,47 39,46.5522847 39,46 L39,43 L23,43 L23,46 C23,46.5522847 22.5522847,47 22,47 C21.4477153,47 21,46.5522847 21,46 L21,43 L20,43 C19.4477153,43 19,42.5522847 19,42 C19,41.4477153 19.4477153,41 20,41 L21,41 L21,36 L20,36 C19.4477153,36 19,35.5522847 19,35 C19,34.4477153 19.4477153,34 20,34 L21,34 L21,29 L20,29 C19.4477153,29 19,28.5522847 19,28 C19,27.4477153 19.4477153,27 20,27 L21,27 L21,22 L20,22 C19.4477153,22 19,21.5522847 19,21 C19,20.4477153 19.4477153,20 20,20 L21,20 L21,16 C21,15.4477153 21.4477153,15 22,15 C22.5522847,15 23,15.4477153 23,16 L23,20 L39,20 L39,16 C39,15.4477153 39.4477153,15 40,15 C40.5522847,15 41,15.4477153 41,16 L41,20 L47,20 L47,16 C47,15.4477153 47.4477153,15 48,15 C48.5522847,15 49,15.4477153 49,16 L49,20 L50,20 C50.5522847,20 51,20.4477153 51,21 C51,21.5522847 50.5522847,22 50,22 L49,22 L49,27 L50,27 C50.5522847,27 51,27.4477153 51,28 C51,28.5522847 50.5522847,29 50,29 L49,29 L49,34 L50,34 C50.5522847,34 51,34.4477153 51,35 C51,35.5522847 50.5522847,36 50,36 L49,36 L49,41 L50,41 C50.5522847,41 51,41.4477153 51,42 C51,42.5522847 50.5522847,43 50,43 L49,43 L49,46 C49,46.5522847 48.5522847,47 48,47 C47.4477153,47 47,46.5522847 47,46 L47,43 Z M23,41 L39,41 L39,36 L23,36 L23,41 Z M47,34 L47,29 L41,29 L41,34 L47,34 Z M23,34 L39,34 L39,29 L23,29 L23,34 Z M47,27 L47,22 L41,22 L41,27 L47,27 Z M23,27 L39,27 L39,22 L23,22 L23,27 Z M20,8 L27,8 C27.5522847,8 28,8.44771525 28,9 C28,9.55228475 27.5522847,10 27,10 L20,10 C19.4477153,10 19,9.55228475 19,9 C19,8.44771525 19.4477153,8 20,8 Z"/>
    </g>
    <g transform="translate(73 78)">
      <rect width="34" height="23" x="1" y="1" fill="#F7F7FA" stroke="#344B63" stroke-width="2" rx="4"/>
      <path stroke="#344B63" stroke-linecap="round" stroke-width="2" d="M6 15L12 15M6 19L24 19"/>
      <rect width="32" height="5" x="2" y="5" fill="#57D3D2"/>
    </g>
  </g>
</svg>
