<svg xmlns="http://www.w3.org/2000/svg" width="120" height="120" viewBox="0 0 120 120"><title>120x120_male_static</title><g id="bounding"><rect width="120" height="120" fill="none"/></g><g id="illu"><path d="M62,43H57A10,10,0,0,0,47,53V63a6,6,0,0,0,5,5.91v1.88H68V68.65A6,6,0,0,0,72,63V53A10,10,0,0,0,62,43Z" fill="#fff"/><path d="M75,96a15,15,0,0,0-30,0" fill="#e3e3e6"/><path d="M75,96H67V70H53V96H45a1,1,0,0,0,0,2H75a1,1,0,0,0,0-2ZM55,96V72h4V96Zm6,0V72h4V96Z" fill="#344b63"/><rect x="55" y="77" width="4" height="18" fill="#e3e3e6"/><rect x="55" y="72" width="4" height="5" fill="#c0c0c4"/><rect x="61" y="77" width="4" height="18" fill="#e3e3e6"/><rect x="61" y="72" width="4" height="5" fill="#c0c0c4"/><circle cx="79" cy="40" r="15" fill="#57d3d2"/><path d="M79,42a1,1,0,0,1-1-1V31a1,1,0,0,1,2,0V41A1,1,0,0,1,79,42Z" fill="#fff"/><circle cx="79" cy="47" r="2" fill="#fff"/><path d="M62,42H57A11,11,0,0,0,46,53V63a7,7,0,0,0,5,6.69V72H69V69.32A7,7,0,0,0,73,63V53A11,11,0,0,0,62,42Zm9,21a5,5,0,0,1-2,4V58a1,1,0,0,0-2,0V70H53V52a1,1,0,0,0-2,0V67.57A5,5,0,0,1,48,63V53a9,9,0,0,1,9-9h5a9,9,0,0,1,9,9Z" fill="#344b63"/><path d="M50,32c0,4.42,2.44,8,9,8s9-3.58,9-8-2.44-8-9-8S50,27.58,50,32Z" fill="#f7f7fa"/><path d="M58.6,30.4c2.83,2.83,6.9,3.41,9.39,1.44C67.94,27.5,65.48,24,59,24a13.93,13.93,0,0,0-3,.3A8.4,8.4,0,0,0,58.6,30.4Z" fill="#e3e3e6"/><path d="M50,31.81A6.23,6.23,0,0,0,56,30,6.24,6.24,0,0,0,57.81,24C52.23,24.45,50.07,27.75,50,31.81Z" fill="#e3e3e6"/><path d="M59,23c-6.36,0-10,3.28-10,9s3.64,9,10,9,10-3.28,10-9S65.36,23,59,23Zm8,8.33a4.93,4.93,0,0,1-3.13.64A8,8,0,0,1,57,25.14,14,14,0,0,1,59,25C65.15,25,66.78,28.3,67,31.33ZM55.09,25.6A9.2,9.2,0,0,0,56,28.4a6.07,6.07,0,0,1-.71.85A5.5,5.5,0,0,1,51.06,31,6,6,0,0,1,55.09,25.6ZM59,39c-6,0-7.67-3.08-7.95-6l.29,0a7.65,7.65,0,0,0,5.32-2.33c.15-.15.29-.31.42-.47a10.42,10.42,0,0,0,.8.92A9.66,9.66,0,0,0,63.63,34a8,8,0,0,0,.85,0,6.9,6.9,0,0,0,2.38-.42C66.41,36.32,64.54,39,59,39Z" fill="#344b63"/></g></svg>