<svg xmlns="http://www.w3.org/2000/svg" width="120" height="120" viewBox="0 0 120 120">
  <g fill="none" fill-rule="evenodd">
    <rect width="120" height="120"/>
    <g fill-rule="nonzero" transform="translate(27 27)">
      <path fill="#FFF" stroke="#344B63" stroke-width="2" d="M61.75,65.76 L23,61.89 C22.4719854,61.8321943 21.9886537,61.5667205 21.6566061,61.1521299 C21.3245585,60.7375394 21.1710724,60.2078906 21.23,59.68 L27,3 C27.12,1.9 32.11,1.11 33.21,1.23 L68,5.11 C68.5280146,5.16780567 69.0113463,5.43327954 69.3433939,5.84787005 C69.6754415,6.26246057 69.8289276,6.79210943 69.77,7.32 L64,64 C63.9401618,64.5340297 63.6679394,65.0215135 63.2446772,65.3525987 C62.8214149,65.6836838 62.2827252,65.8305134 61.75,65.76 Z"/>
      <rect width="14" height="10" x="57" y="46" fill="#57D3D2" style="mix-blend-mode:multiply"/>
      <rect width="14" height="10" x="57" y="34" fill="#57D3D2" style="mix-blend-mode:multiply"/>
      <rect width="14" height="10" x="57" y="22" fill="#57D3D2" style="mix-blend-mode:multiply"/>
      <path fill="#E3E3E6" stroke="#344B63" stroke-width="2" d="M61,5.21 L61,56.79 C61.05581,59.6085623 58.8184734,61.939867 56,62 L21,62 C18.1815266,61.939867 15.94419,59.6085623 16,56.79 L16,5.21 C15.94419,2.3914377 18.1815266,0.0601329566 21,7.1e-15 L56,7.1e-15 C58.8184734,0.0601329566 61.05581,2.3914377 61,5.21 Z"/>
      <path fill="#E3E3E6" stroke="#344B63" stroke-width="2" d="M5,56.09 L5,5.91 C5,2.64599713 7.64599713,0 10.91,0 L19,0 L19,62 L10.91,62 C7.64599713,62 5,59.3540029 5,56.09 Z"/>
      <rect width="8" height="3" x="5.5" y="29.5" fill="#64788F" stroke="#344B63" stroke-width="2" rx="1" transform="rotate(-90 9.5 31)"/>
      <rect width="8" height="3" x="5.5" y="48.5" fill="#64788F" stroke="#344B63" stroke-width="2" rx="1" transform="rotate(-90 9.5 50)"/>
      <path fill="#FFF" stroke="#344B63" stroke-width="2" d="M3.81,26 L6.19,26 C7.1896354,26 8,26.8103646 8,27.81 L8,36 L2,36 L2,27.81 C2,26.8103646 2.8103646,26 3.81,26 Z" transform="rotate(-90 5 31)"/>
      <path fill="#FFF" stroke="#344B63" stroke-width="2" d="M3.81,45 L6.19,45 C7.1896354,45 8,45.8103646 8,46.81 L8,55 L2,55 L2,46.81 C2,45.8103646 2.8103646,45 3.81,45 Z" transform="rotate(-90 5 50)"/>
      <rect width="8" height="3" x="5.5" y="10.5" fill="#64788F" stroke="#344B63" stroke-width="2" rx="1" transform="rotate(-90 9.5 12)"/>
      <path fill="#FFF" stroke="#344B63" stroke-width="2" d="M3.81,7 L6.19,7 C7.1896354,7 8,7.8103646 8,8.81 L8,17 L2,17 L2,8.81 C2,7.8103646 2.8103646,7 3.81,7 Z" transform="rotate(-90 5 12)"/>
      <circle cx="40" cy="25" r="5" fill="#FFF" stroke="#344B63" stroke-linecap="round" stroke-width="2"/>
      <path fill="#FFF" stroke="#344B63" stroke-linecap="round" stroke-width="2" d="M33.08,42 C32.7886442,42.0028716 32.5105259,41.8785264 32.3183855,41.6594864 C32.1262452,41.4404464 32.0391941,41.1484984 32.08,40.86 C32.6417711,36.9175335 36.0177106,33.9885389 40,33.9885389 C43.9822894,33.9885389 47.3582289,36.9175335 47.92,40.86 C47.9608059,41.1484984 47.8737548,41.4404464 47.6816145,41.6594864 C47.4894741,41.8785264 47.2113558,42.0028716 46.92,42 L33.08,42 Z"/>
    </g>
  </g>
</svg>
