<svg xmlns="http://www.w3.org/2000/svg" width="120" height="120" viewBox="0 0 120 120">
  <g fill="none" fill-rule="evenodd">
    <rect width="120" height="120"/>
    <g transform="translate(29 13)">
      <path fill="#E3E3E6" fill-rule="nonzero" stroke="#344B63" stroke-width="2" d="M52.79,81 L5.21,81 C2.3914377,81.05581 0.0601329566,78.8184734 0,76 L0,43 C0.0601329566,40.1815266 2.3914377,37.94419 5.21,38 L52.79,38 C55.6085623,37.94419 57.939867,40.1815266 58,43 L58,76 C57.939867,78.8184734 55.6085623,81.05581 52.79,81 Z"/>
      <path fill="#FFF" fill-rule="nonzero" stroke="#344B63" stroke-width="2" d="M52.79,77 L5.21,77 C2.33,77 0,73.76 0,71 L0,39 C0.0601329566,36.1815266 2.3914377,33.94419 5.21,34 L52.79,34 C55.6085623,33.94419 57.939867,36.1815266 58,39 L58,71 C58,73.76 55.67,77 52.79,77 Z"/>
      <path fill="#F7F7FA" fill-rule="nonzero" stroke="#344B63" stroke-width="2" d="M0,26 L58,26 L58,38.09 C58,41.3540029 55.3540029,44 52.09,44 L5.91,44 C2.64599713,44 0,41.3540029 0,38.09 L0,26 Z" transform="rotate(180 29 35)"/>
      <rect width="9" height="3" x="9" y="30" fill="#344B63" fill-rule="nonzero" stroke="#344B63" stroke-width="2" rx="1"/>
      <path fill="#F7F7FA" fill-rule="nonzero" stroke="#344B63" stroke-width="2" d="M12.81,22 L14.19,22 C15.1896354,22 16,22.8103646 16,23.81 L16,32 L11,32 L11,23.81 C11,22.8103646 11.8103646,22 12.81,22 Z"/>
      <rect width="9" height="3" x="40" y="30" fill="#344B63" fill-rule="nonzero" stroke="#344B63" stroke-width="2" rx="1"/>
      <path fill="#F7F7FA" fill-rule="nonzero" stroke="#344B63" stroke-width="2" d="M43.81,22 L45.19,22 C46.1896354,22 47,22.8103646 47,23.81 L47,32 L42,32 L42,23.81 C42,22.8103646 42.8103646,22 43.81,22 Z"/>
      <path stroke="#344B63" stroke-linecap="round" stroke-width="2" d="M43.88,5.23 L42.33,11 C42.0435079,12.0658188 42.6745185,13.1622558 43.74,13.45 L62.1,18.39 C63.1597837,18.6778877 64.2534582,18.0573948 64.55,17"/>
      <path fill="#57D3D2" fill-rule="nonzero" stroke="#344B63" stroke-width="2" d="M64.24,6.54 C64.3797247,6.00719551 64.0622768,5.46172169 63.53,5.32 L46.14,0.66 C44.28,0.16 42.24,1.71 41.59,4.1 C40.95,6.49 41.95,8.85 43.81,9.35 L61.2,14 C61.7328045,14.1397247 62.2782783,13.8222768 62.42,13.29 L64.24,6.54 Z"/>
      <path fill="#57D3D2" fill-rule="nonzero" d="M49.35,63.1 C49.0854431,63.5577457 48.6504015,63.8921165 48.14,64.03 C47.78,65.59 45.63,67.16 42.63,67.16 C39.34,67.16 37.05,65.27 37.05,63.58 C37.05,61.89 39.29,60 42.58,60 C42.9411875,59.9982674 43.3020581,60.0216572 43.66,60.07 C44.543991,60.1833029 45.3962864,59.6980246 45.75,58.88 C46.001265,58.297157 45.9609657,57.629648 45.6414057,57.0812672 C45.3218456,56.5328864 44.7609636,56.1687386 44.13,56.1 C43.6160679,56.032891 43.0982949,55.9994863 42.58,56 C37.29,56 33,59.4 33,63.58 C33,67.76 37.29,71.16 42.58,71.16 C47.87,71.16 52.16,67.76 52.16,63.58 C52.1535263,62.4868366 51.8604414,61.4144906 51.31,60.47 L49.35,63.1 Z"/>
      <g stroke="#344B63" stroke-width="2" transform="translate(47 24)">
        <path fill="#57D3D2" fill-rule="nonzero" d="M6.89,36.16 L4.29,34.66 C3.81,34.38 4.15,32.91 4.42,32.43 L22.49,1.15 C23.0429293,0.195388685 24.2644087,-0.131234016 25.22,0.42 L26.09,0.92 C27.0446113,1.47292932 27.371234,2.69440874 26.82,3.65 L8.76,34.93 C8.48,35.41 7.37,36.44 6.89,36.16 Z"/>
        <path fill="#57D3D2" fill-rule="nonzero" d="M2,43.14 L0.7,42.39 C0.357311948,42.1823167 0.238409808,41.7419384 0.43,41.39 L19.36,8.57 C19.7720609,7.88099103 20.6535701,7.63857601 21.36,8.02 C22.049009,8.43206088 22.291424,9.31357006 21.91,10.02 L3,42.86 C2.79563342,43.2063267 2.35449482,43.3298456 2,43.14 Z"/>
        <path fill="#F7F7FA" fill-rule="nonzero" d="M3.62,39.83 L3.19,39.58 L2.76,39.33 C2.2964289,39.0694921 1.95568472,38.6350996 1.81307365,38.1228257 C1.67046257,37.6105517 1.73772659,37.0625745 2,36.6 L5.3,28.88 L19.3,4.63 C19.8529293,3.67538869 21.0744087,3.34876598 22.03,3.9 L24.63,5.4 C25.5846113,5.95292932 25.911234,7.17440874 25.36,8.13 L11.36,32.38 L6.36,39.1 C5.80707068,40.0546113 4.58559126,40.381234 3.63,39.83 L3.62,39.83 Z"/>
        <path d="M5.33,28.87 L11.39,32.37"/>
      </g>
    </g>
  </g>
</svg>
