<svg width="120" height="120" fill="none" xmlns="http://www.w3.org/2000/svg">
  <path d="M68.39 27.49c-.86-5-4.54-7.3-10.09-6.34s-8.23 4.38-7.37 9.37c.74 4.25 3.51 6.56 7.74 6.56.782-.007 1.561-.08 2.33-.22 2.93-.51 5.05-1.67 6.3-3.46a7.8 7.8 0 0 0 1.09-5.91Z" fill="#fff"/>
  <path d="M68.53 27.46c-.6-3.44-2.61-6.09-6.61-6.51a13.193 13.193 0 0 0-3.62.16c-6.3 1.1-8.16 4.89-7.54 9.13 2.91 1.72 7.08.43 9.52-3 .438-.621.8-1.293 1.08-2a7.27 7.27 0 0 0 1.42 1.44 5.73 5.73 0 0 0 5.77.92l-.02-.14Z" fill="#F7F7FA"/>
  <path d="m31 62 28.61-13-2.41-5.23L35 55.43A7.42 7.42 0 0 0 31 62Zm18.89.18-5.25 26.31 5.25-.49 8.78-23.72-8.78-2.1Z" fill="#E4E4E6"/>
  <path d="M101 105a11.11 11.11 0 0 0-4.63-8.197 11.1 11.1 0 0 0-9.26-1.693 26.76 26.76 0 0 0-47.54-4.3A15.4 15.4 0 0 0 21 105h80Z" fill="#F7F7FA"/>
  <path d="M63 105a6.942 6.942 0 0 0-8.68-6.18 16.72 16.72 0 0 0-29.72-2.69A9.618 9.618 0 0 0 13 105h50Z" fill="#fff"/>
  <path d="m71 31.57 26 4.36V22.07l-25.38 6a8.51 8.51 0 0 1-.62 3.5ZM99 21h4v16h-4V21Z" fill="#57D3D2"/>
  <path d="M107 104h-5.13a12.124 12.124 0 0 0-4.978-7.977A12.132 12.132 0 0 0 87.71 94a27.75 27.75 0 0 0-46.92-6.6 18.015 18.015 0 0 0-2-.12A17.63 17.63 0 0 0 24.13 95a10.61 10.61 0 0 0-12 9H7a.998.998 0 0 0-1 1 1.001 1.001 0 0 0 1 1h100a1.002 1.002 0 0 0 .707-1.707A.997.997 0 0 0 107 104Zm-92.88 0a8.633 8.633 0 0 1 6.853-6.922 8.63 8.63 0 0 1 3.427.032l.68.14.37-.59a15.72 15.72 0 0 1 27.94 2.53l.33.82.85-.22a5.93 5.93 0 0 1 7.25 4.21h-47.7Zm49.74 0a7.998 7.998 0 0 0-8.95-6.32 17.61 17.61 0 0 0-11.85-9.87 25.75 25.75 0 0 1 43.11 7.67l.33.82.85-.22A10.1 10.1 0 0 1 99.86 104h-36Z" fill="#1A1C20"/>
  <path d="M67.12 46.46C80.44 45.53 83.58 30.7 80 22.9a4.52 4.52 0 0 0-3.76 5c.72 5.3-2 11.72-10.86 11.72l-8 4.11a10 10 0 0 0-5.26 7L48 72l17-7.23c5.16-1.78 9-1.31 10.95 1.39 2.62 3.68 1.54 10.87-4.79 18.2l3 2.62c7.05-8.17 9.17-18.32 5-24.14-1.16-1.75-4.6-5.07-11.75-3.84A2 2 0 0 1 65 57l.18-8.61a2 2 0 0 1 1.94-1.93Z" fill="#fff"/>
  <path d="M67.24 58a1.002 1.002 0 0 1-.85-.23A1 1 0 0 1 66 57l.19-8.62a1 1 0 0 1 1-1 15.17 15.17 0 0 0 12.52-7.59c3-5.16 3.52-12.31 1.17-17.39l-.32-.69-.76.13A5.48 5.48 0 0 0 75.22 28a9.511 9.511 0 0 1-2 7.57c-1.75 2-4.39 3-7.84 3h-.24L34.51 54.54A8.41 8.41 0 0 0 30 62v1.55l20.38-9.24-1.5 7.79-4.29 21.5A22.532 22.532 0 0 1 47 81.82l1.81-9.07 6.73-2.86-3.44 9.27a23.333 23.333 0 0 1 2.44-.83l3.52-9.52 7.27-3.09c4.69-1.62 8.18-1.26 9.8 1 1.74 2.45 1.7 7.23-1.71 12.83-.34.56-.71 1.12-1.12 1.69-.41.57-.89 1.21-1.4 1.83l-.9-.71a1 1 0 0 0-1.31 1.51L75 89.24a1 1 0 1 0 1.31-1.51l-.87-.73a33.519 33.519 0 0 0 2.07-2.79c.38-.56.73-1.12 1.06-1.69 4.29-7.35 5-15.27 1.45-20.27-1.23-1.72-4.94-5.59-12.78-4.25Zm-35 2.31a6.451 6.451 0 0 1 3.23-4l16.75-8.78a11.11 11.11 0 0 0-1.12 3.07l-.25 1.3-18.61 8.41Zm44.69 21.11c-.33.56-.68 1.13-1.06 1.68-.55.83-1.15 1.65-1.8 2.45l-1.52-1.3c.58-.71 1.12-1.42 1.6-2.12.48-.7.76-1.13 1.09-1.68 3.81-6.33 3.69-11.82 1.52-14.87-2.17-3.05-6.47-3.69-12.15-1.73l-15.27 6.49L53.06 51a9 9 0 0 1 4.73-6.31l7.8-4c3.89 0 7-1.33 9.1-3.7a11.5 11.5 0 0 0 2.51-9.16 3.48 3.48 0 0 1 2.19-3.71A18.2 18.2 0 0 1 78 38.85a13.18 13.18 0 0 1-11 6.61 3.07 3.07 0 0 0-2 .92 3 3 0 0 0-.83 2L64 57a3 3 0 0 0 1.05 2.32 3 3 0 0 0 2.5.68c6.48-1.14 9.54 1.65 10.8 3.41 3.13 4.36 2.43 11.38-1.42 18.01Z" fill="#1A1C20"/>
  <path d="M69.52 27.29c-1-5.63-5.12-8.24-11.39-7.16-6.27 1.08-9.29 4.94-8.32 10.58.83 4.8 4 7.4 8.74 7.4a15.564 15.564 0 0 0 2.65-.24c3.31-.57 5.7-1.89 7.11-3.91a8.81 8.81 0 0 0 1.21-6.67Zm-2.13-.38h-.12a5.129 5.129 0 0 1-3.9-1.09 5.994 5.994 0 0 1-.89-.83 9.38 9.38 0 0 0 .52-2.84 6 6 0 0 1 4.39 4.76Zm-8.92-4.81c.769-.14 1.549-.213 2.33-.22h.2a8 8 0 0 1-1.53 4.74c-2 2.86-5.34 4.06-7.78 3-.29-3.02.79-6.48 6.78-7.52Zm8.2 10.71c-1.09 1.57-3 2.6-5.81 3.08-5.51 1-7.8-1.41-8.7-4.07.473.106.956.16 1.44.16a9.46 9.46 0 0 0 7.5-4.21c.187-.267.36-.54.52-.82.18.16.36.33.56.47A7.389 7.389 0 0 0 66.59 29c.335-.002.67-.032 1-.09h.06a6.22 6.22 0 0 1-.98 3.9Z" fill="#1A1C20"/>
</svg>