<svg xmlns="http://www.w3.org/2000/svg" width="120" height="120" viewBox="0 0 120 120"><title>120x120_deals_static</title><g id="bounding"><rect width="120" height="120" fill="none"/></g><g id="illu"><path d="M61.74,84.24,42.3,64.8,64.11,43c5.23-5.23,11.71-2.23,16.94,3l.49.49a13.39,13.39,0,0,1,0,18.94Z" fill="#e3e3e6"/><path d="M61.72,85.63,40.89,64.8,63.4,42.29c4.88-4.88,11.57-3.79,18.36,3l.49.49a14.39,14.39,0,0,1,0,20.35Zm-18-20.83,18,18,19.1-18.13a12.39,12.39,0,0,0,0-17.51l-.49-.49c-3.46-3.46-10.08-8.45-15.53-3Z" fill="#344b63"/><path d="M23.18,37.4H50.67a0,0,0,0,1,0,0v4.7a5,5,0,0,1-5,5H28.18a5,5,0,0,1-5-5V37.4a0,0,0,0,1,0,0Z" transform="translate(92.91 46.01) rotate(135)" fill="#fff"/><path d="M30.64,56.81l-4-4a6,6,0,0,1,0-8.48L39,31.93a6,6,0,0,1,8.49,0l4,4ZM43.21,32.17a4,4,0,0,0-2.83,1.17L28,45.71a4,4,0,0,0,0,5.66L30.64,54l18-18L46,33.34A4,4,0,0,0,43.21,32.17Z" fill="#344b63"/><path d="M46.54,39.49l-7.41,7.41a12,12,0,0,0,0,17L57.36,82.11l4.41,4.41,1.18,1.18a3.36,3.36,0,0,0,4.58.25,3.23,3.23,0,0,0,.13-4.69,3.23,3.23,0,0,0,4.57,0l.57-.57a3.23,3.23,0,0,0,0-4.57,3.23,3.23,0,0,0,4.57,0l.57-.57a3.23,3.23,0,0,0,0-4.57,3.23,3.23,0,0,0,4.69-.13,3.36,3.36,0,0,0-.25-4.58L81.2,67.09,79.08,65,53.61,39.49A5,5,0,0,0,46.54,39.49Z" fill="#f7f7fa"/><path d="M65.42,89.74a4.5,4.5,0,0,1-3.18-1.34L38.42,64.58a13,13,0,0,1,0-18.38l7.41-7.41a6,6,0,0,1,8.48,0L83.09,67.56a4.33,4.33,0,0,1,.29,6,4.2,4.2,0,0,1-3,1.4h-.47a4.23,4.23,0,0,1-1.22,3.35l-.57.57A4.25,4.25,0,0,1,74.72,80a4.22,4.22,0,0,1-1.22,3.35l-.57.57a4.21,4.21,0,0,1-3.35,1.22,4.14,4.14,0,0,1,0,.47,4.2,4.2,0,0,1-1.4,3A4.12,4.12,0,0,1,65.42,89.74ZM50.07,39a4,4,0,0,0-2.83,1.17l-7.41,7.41a11,11,0,0,0,0,15.56L63.65,87a2.36,2.36,0,0,0,3.2.21A2.23,2.23,0,0,0,66.94,84l1.41-1.41a2.24,2.24,0,0,0,3.16,0l.57-.57a2.24,2.24,0,0,0,0-3.16l1.41-1.41a2.24,2.24,0,0,0,3.16,0l.57-.57a2.24,2.24,0,0,0,0-3.16l1.41-1.41a2.18,2.18,0,0,0,1.64.65,2.22,2.22,0,0,0,1.6-.74,2.36,2.36,0,0,0-.21-3.2L52.9,40.2A4,4,0,0,0,50.07,39Z" fill="#344b63"/><circle cx="86" cy="83" r="15" fill="#57d3d2"/><path d="M91,56,71.58,36.53l3.32-3.32a5,5,0,0,1,7.07,0L94.33,45.57a5,5,0,0,1,0,7.07Z" fill="#fff"/><path d="M91,57.38,70.16,36.53l4-4a6,6,0,0,1,8.49,0L95,44.86a6,6,0,0,1,0,8.49ZM73,36.53l18,18,2.62-2.62a4,4,0,0,0,0-5.66L81.26,33.91a4.1,4.1,0,0,0-5.66,0Z" fill="#344b63"/><path d="M68,84.66a1,1,0,0,1-.71-.29L65.71,82.8a1,1,0,0,1,1.41-1.41l1.56,1.56A1,1,0,0,1,68,84.66Z" fill="#344b63"/><path d="M73.13,79.51a1,1,0,0,1-.71-.29l-2.13-2.13a1,1,0,0,1,1.41-1.41l2.13,2.13a1,1,0,0,1-.71,1.71Z" fill="#344b63"/><path d="M78.27,74.37a1,1,0,0,1-.71-.29l-2-2a1,1,0,0,1,1.41-1.41l2,2a1,1,0,0,1-.71,1.71Z" fill="#344b63"/><rect x="54.22" y="75.7" width="7.27" height="14.55" rx="3.55" ry="3.55" transform="translate(75.62 -16.61) rotate(45)" fill="#e3e3e6"/><path d="M55.29,90.22a4.52,4.52,0,0,1-3.21-1.33l-.13-.13a4.54,4.54,0,0,1,0-6.43l5.27-5.27a4.54,4.54,0,0,1,6.43,0l.13.13a4.55,4.55,0,0,1,0,6.43L58.5,88.89A4.51,4.51,0,0,1,55.29,90.22Zm5.14-12.5a2.53,2.53,0,0,0-1.8.75l-5.27,5.27a2.54,2.54,0,0,0,0,3.6l.13.13a2.61,2.61,0,0,0,3.6,0l5.27-5.27a2.55,2.55,0,0,0,0-3.6l-.13-.13A2.53,2.53,0,0,0,60.43,77.72Z" fill="#344b63"/><rect x="49.65" y="69.17" width="7.27" height="16.17" rx="3.55" ry="3.55" transform="translate(70.24 -15.05) rotate(45)" fill="#e3e3e6"/><path d="M50.14,85.07a4.53,4.53,0,0,1-3.21-1.33l-.13-.13a4.55,4.55,0,0,1,0-6.42l6.42-6.42a4.55,4.55,0,0,1,6.43,0l.13.13a4.55,4.55,0,0,1,0,6.42l-6.42,6.42A4.53,4.53,0,0,1,50.14,85.07Zm-1.8-2.74a2.55,2.55,0,0,0,3.6,0l6.42-6.42a2.55,2.55,0,0,0,0-3.6l-.13-.13a2.55,2.55,0,0,0-3.6,0L48.21,78.6a2.55,2.55,0,0,0,0,3.6Z" fill="#344b63"/><rect x="43.93" y="65.41" width="7.27" height="14.55" rx="3.55" ry="3.55" transform="translate(65.33 -12.35) rotate(45)" fill="#e3e3e6"/><path d="M45,79.93a4.53,4.53,0,0,1-3.21-1.33l-.13-.13a4.55,4.55,0,0,1,0-6.43l5.27-5.27a4.55,4.55,0,0,1,6.43,0l.13.13a4.54,4.54,0,0,1,0,6.42L48.21,78.6A4.53,4.53,0,0,1,45,79.93Zm5.15-12.49a2.54,2.54,0,0,0-1.8.75l-5.27,5.27a2.55,2.55,0,0,0,0,3.6l.13.13a2.55,2.55,0,0,0,3.6,0l5.27-5.27a2.54,2.54,0,0,0,0-3.6l-.13-.13A2.53,2.53,0,0,0,50.14,67.44Z" fill="#344b63"/><rect x="37.65" y="63.02" width="7.27" height="11.32" rx="3.55" ry="3.55" transform="translate(60.66 -9.07) rotate(45)" fill="#e3e3e6"/><path d="M39.85,74.79a4.52,4.52,0,0,1-3.21-1.33l-.13-.13a4.55,4.55,0,0,1,0-6.43l3-3a4.55,4.55,0,0,1,6.43,0l.13.13a4.55,4.55,0,0,1,0,6.43l-3,3A4.51,4.51,0,0,1,39.85,74.79Zm2.86-10.21a2.53,2.53,0,0,0-1.8.75l-3,3a2.55,2.55,0,0,0,0,3.6l.13.13a2.61,2.61,0,0,0,3.6,0l3-3a2.55,2.55,0,0,0,0-3.6l-.13-.13A2.53,2.53,0,0,0,42.71,64.58Z" fill="#344b63"/><path d="M70,51v9.14a5,5,0,0,1-5,5h0a5,5,0,0,1-5-5V46.84l0,0,8.28-7.28a5,5,0,0,1,7.07,0L83,47.18a11.33,11.33,0,0,1,0,16.68" fill="#e3e3e6"/><path d="M65,66.14a6,6,0,0,1-6-6V46.53l.36-.48,8.28-7.28a6,6,0,0,1,8.44,0l7.66,7.66a12.38,12.38,0,0,1,0,18.09,1,1,0,0,1-1.41-1.41,10.33,10.33,0,0,0,0-15.26l-7.66-7.66a4.09,4.09,0,0,0-5.66,0l-8,7V60.14a4,4,0,0,0,8,0V51a1,1,0,0,1,2,0v9.14A6,6,0,0,1,65,66.14Z" fill="#344b63"/><polygon points="92 82 87 82 87 77 85 77 85 82 80 82 80 84 85 84 85 89 87 89 87 84 92 84 92 82" fill="#fff"/></g></svg>