<svg xmlns="http://www.w3.org/2000/svg" width="120" height="120" viewBox="0 0 120 120"><title>120x120_female_static</title><g id="bounding"><rect width="120" height="120" fill="none"/></g><g id="illu"><path d="M67.73,68.34A6,6,0,0,0,71,63L70,53A10,10,0,0,0,60,43H59A10,10,0,0,0,49,53L48,63a6,6,0,0,0,3.67,5.53l-1.26,7.12a2,2,0,0,0,2,2.35H67.47a2,2,0,0,0,1.95-2.46Z" fill="#fff"/><path d="M75,96a15,15,0,0,0-30,0" fill="#e3e3e6"/><circle cx="79" cy="40" r="15" fill="#928cff"/><path d="M79,42a1,1,0,0,1-1-1V31a1,1,0,0,1,2,0V41A1,1,0,0,1,79,42Z" fill="#fff"/><circle cx="79" cy="47" r="2" fill="#fff"/><path d="M51.53,24h0a5,5,0,0,1,5,5v0a5,5,0,0,1-5,5h-5a0,0,0,0,1,0,0V29A5,5,0,0,1,51.53,24Z" fill="#e3e3e6"/><path d="M51.53,35h-6V29a6,6,0,1,1,6,6Zm-4-2h4a4,4,0,1,0-4-4Z" fill="#344b63"/><path d="M67.5,32c0,4.42-2.17,8-8,8s-8-3.58-8-8,2.17-8,8-8S67.5,27.58,67.5,32Z" fill="#f7f7fa"/><path d="M60,24c-4.26,0-6.55,1.91-7.49,4.66a10.06,10.06,0,0,0,15,0C66.55,25.91,64.26,24,60,24Z" fill="#e3e3e6"/><path d="M59.5,23c-5.72,0-9,3.28-9,9s3.28,9,9,9,9-3.28,9-9S65.22,23,59.5,23Zm0,2c3.66,0,5.48,1.52,6.34,3.45a9.14,9.14,0,0,1-12.67,0C54,26.52,55.84,25,59.5,25Zm0,14c-5.79,0-7-3.81-7-7a11.13,11.13,0,0,1,.09-1.38,11.23,11.23,0,0,0,13.83,0A11.13,11.13,0,0,1,66.5,32C66.5,35.19,65.29,39,59.5,39Z" fill="#344b63"/><path d="M75,96H65.08l1.26-17h1.13a3,3,0,0,0,2.93-3.69l-1.53-6.49A7.07,7.07,0,0,0,72,62.9L71,53A11,11,0,0,0,60,42H59A11,11,0,0,0,48,52.9L47,63a7,7,0,0,0,3.56,6.09l-1.13,6.39a3,3,0,0,0,3,3.52h1.28l1.26,17H45a1,1,0,0,0,0,2H75a1,1,0,0,0,0-2ZM49,63.1,50,53a9,9,0,0,1,9-9h1a9,9,0,0,1,9,9.1L70,63a5,5,0,0,1-1.63,3.69L67,60.88V54a1,1,0,0,0-2,0v7l1.57,6.75.46,2,.3,1.3H52.25l.21-1.17.34-2L54,61.17,54,53a1,1,0,0,0-2,0v7.91l-1.07,6A4.89,4.89,0,0,1,49,63.1ZM52.38,77a1,1,0,0,1-.76-.36,1,1,0,0,1-.22-.81L51.9,73H67.8l.65,2.77a1,1,0,0,1-1,1.23Zm4.55,19L55.67,79H59V96ZM61,96V79h3.33L63.07,96Z" fill="#344b63"/><polygon points="59 79 59 96 56.93 96 56 83.5 55.67 79 59 79" fill="#e3e3e6"/><polygon points="64.33 79 64 83.5 63.07 96 61 96 61 79 64.33 79" fill="#e3e3e6"/><polygon points="59 79 59 83.5 56 83.5 55.67 79 59 79" fill="#c0c0c4"/><polygon points="64.33 79 64 83.5 61 83.5 61 79 64.33 79" fill="#c0c0c4"/></g></svg>