<svg xmlns="http://www.w3.org/2000/svg" width="120" height="120" viewBox="0 0 120 120">
  <g fill="none" fill-rule="evenodd">
    <rect width="120" height="120"/>
    <g transform="translate(17 14)">
      <path fill="#E3E3E6" fill-rule="nonzero" stroke="#344B63" stroke-width="2" d="M23.91,85.88 L24.06,86 L28,86 L28.15,85.88 L43,71 L57.85,85.88 L58,86 L61.95,86 L62.1,85.88 C63.2698135,84.7087298 63.2698135,82.8112702 62.1,81.64 L47.24,66.79 L46,65.54 L46,3 C46,1.34314575 44.6568542,-1.8e-15 43,-1.8e-15 C41.3431458,-1.8e-15 40,1.34314575 40,3 L40,65.54 L38.76,66.78 L23.91,81.64 C22.7401865,82.8112702 22.7401865,84.7087298 23.91,85.88 Z"/>
      <polyline fill="#FFF" fill-rule="nonzero" stroke="#344B63" stroke-width="2" points="9 61 9 18 77 18 77 58"/>
      <path fill="#F7F7FA" fill-rule="nonzero" stroke="#344B63" stroke-width="2" d="M9 55L77 55 77 59C77 62.3137085 74.3137085 65 71 65L14 65C11.2385763 65 9 62.7614237 9 60L9 55zM11 7L75 7C77.7614237 7 80 9.23857625 80 12L80 18C80 18.5522847 79.5522847 19 79 19L7 19C6.44771525 19 6 18.5522847 6 18L6 12C6 9.23857625 8.23857625 7 11 7z"/>
      <path fill="#57D3D2" fill-rule="nonzero" d="M66.87,40.59 L61.57,35.29 C61.1009787,34.8197915 60.4641363,34.5555311 59.8,34.5555311 C59.1358637,34.5555311 58.4990213,34.8197915 58.03,35.29 C57.5597915,35.7590213 57.2955311,36.3958637 57.2955311,37.06 C57.2955311,37.7241363 57.5597915,38.3609787 58.03,38.83 L63.33,44.13 L66.87,47.67 L70.41,44.13 L91.27,23.27 C91.7402085,22.8009787 92.0044689,22.1641363 92.0044689,21.5 C92.0044689,20.8358637 91.7402085,20.1990213 91.27,19.73 C90.8009787,19.2597915 90.1641363,18.9955311 89.5,18.9955311 C88.8358637,18.9955311 88.1990213,19.2597915 87.73,19.73 L66.87,40.59 Z" style="mix-blend-mode:multiply"/>
      <path stroke="#344B63" stroke-linecap="round" stroke-width="2" d="M79,86 L7,86"/>
      <path fill="#E3E3E6" fill-rule="nonzero" stroke="#344B63" stroke-width="2" d="M43,52 L67,52 L67,56 C67,57.1045695 66.1045695,58 65,58 L45,58 C43.8954305,58 43,57.1045695 43,56 L43,52 Z"/>
      <path fill="#FFF" fill-rule="nonzero" stroke="#344B63" stroke-width="2" d="M6,29 L22,29 L22,41 C22,43.7614237 19.7614237,46 17,46 L6,46 L6,29 Z"/>
      <path fill="#F7F7FA" fill-rule="nonzero" stroke="#344B63" stroke-width="2" d="M12,41 L12,40 L0,40 L0,41 C0,43.7614237 2.23857625,46 5,46 L17,46 C14.2385763,46 12,43.7614237 12,41 Z"/>
    </g>
  </g>
</svg>
