<svg xmlns="http://www.w3.org/2000/svg" xmlns:xlink="http://www.w3.org/1999/xlink" width="120" height="120" viewBox="0 0 120 120">
  <defs>
    <path id="120x120_search_static-a" d="M-3.6e-15,19 L28.61,6 L26.2,0.77 L4,12.43 C1.54701751,13.704012 0.00552773098,16.235909 -3.6e-15,19 Z"/>
    <polygon id="120x120_search_static-c" points="5.89 .18 .64 26.49 5.89 26 14.67 2.28"/>
    <path id="120x120_search_static-e" d="M18.53,7.46 C19.28,11.81 17.53,15.76 11.03,16.88 C4.53,18 1.55,14.88 0.8,10.53 C0.05,6.18 1.8,2.23 8.3,1.11 C14.8,-0.01 17.78,3.11 18.53,7.46 Z"/>
  </defs>
  <g fill="none" fill-rule="evenodd">
    <rect width="120" height="120"/>
    <g transform="translate(7 20)">
      <g transform="translate(24 23)">
        <path fill="#E3E3E6" fill-rule="nonzero" d="M-3.6e-15,19 L28.61,6 L26.2,0.77 L4,12.43 C1.54701751,13.704012 0.00552773098,16.235909 -3.6e-15,19 Z"/>
        <mask id="120x120_search_static-b" fill="#fff">
          <use xlink:href="#120x120_search_static-a"/>
        </mask>
        <polygon fill="#E3E3E6" fill-rule="nonzero" points="25 16 14.06 16 21.1 0 25 0" mask="url(#120x120_search_static-b)" style="mix-blend-mode:multiply"/>
        <path stroke="#344B63" stroke-width="2" d="M-3.6e-15,19 L28.61,6 L26.2,0.77 L4,12.43 C1.54701751,13.704012 0.00552773098,16.235909 -3.6e-15,19 Z"/>
      </g>
      <g transform="translate(37 42)">
        <polygon fill="#E3E3E6" fill-rule="nonzero" points="5.89 .18 .64 26.49 5.89 26 14.67 2.28"/>
        <mask id="120x120_search_static-d" fill="#fff">
          <use xlink:href="#120x120_search_static-c"/>
        </mask>
        <polygon fill="#E3E3E6" fill-rule="nonzero" points="4.18 10.81 12.19 7.04 9.96 13.28 2.87 15.9" mask="url(#120x120_search_static-d)" style="mix-blend-mode:multiply"/>
        <polygon stroke="#344B63" stroke-width="2" points="5.89 .18 .64 26.49 5.89 26 14.67 2.28"/>
      </g>
      <path stroke="#344B63" stroke-linecap="round" stroke-width="2" d="M100,85 L0,85"/>
      <g transform="translate(43)">
        <path fill="#F7F7FA" fill-rule="nonzero" d="M18.53,7.46 C19.28,11.81 17.53,15.76 11.03,16.88 C4.53,18 1.55,14.88 0.8,10.53 C0.05,6.18 1.8,2.23 8.3,1.11 C14.8,-0.01 17.78,3.11 18.53,7.46 Z"/>
        <mask id="120x120_search_static-f" fill="#fff">
          <use xlink:href="#120x120_search_static-e"/>
        </mask>
        <g fill="#E3E3E6" fill-rule="nonzero" stroke="#344B63" stroke-width="2" mask="url(#120x120_search_static-f)">
          <g transform="translate(-2 -4)">
            <path d="M12.72,2.89 C11.22,5.18 12.14,8.65 14.78,10.65 C17.42,12.65 20.78,12.41 22.28,10.12 C23.78,7.83 22.86,4.36 20.22,2.36 C17.58,0.36 14.22,0.6 12.72,2.89 Z"/>
            <path d="M11.6,1 C14.51,3 14.82,7.63 12.28,11.23 C9.74,14.83 5.28,16.08 2.4,14.03 C-0.48,11.98 -0.82,7.4 1.72,3.8 C4.26,0.2 8.69,-1.07 11.6,1 Z"/>
          </g>
        </g>
        <path stroke="#344B63" stroke-width="2" d="M18.53,7.46 C19.28,11.81 17.53,15.76 11.03,16.88 C4.53,18 1.55,14.88 0.8,10.53 C0.05,6.18 1.8,2.23 8.3,1.11 C14.8,-0.01 17.78,3.11 18.53,7.46 Z"/>
      </g>
      <path fill="#F7F7FA" fill-rule="nonzero" stroke="#344B63" stroke-width="2" d="M94,85 C93.749223,81.7162042 92.0531997,78.7133194 89.3704164,76.8031159 C86.6876331,74.8929124 83.2951289,74.2726484 80.11,75.11 C76.3791379,65.7441126 67.7010508,59.2699281 57.6604138,58.361751 C47.6197767,57.4535739 37.9208543,62.2655552 32.57,70.81 C28.1758815,69.8781244 23.59391,70.911188 20.0247962,73.6384753 C16.4556823,76.3657626 14.2552044,80.5154108 14,85 L94,85 Z"/>
      <path fill="#FFF" fill-rule="nonzero" stroke="#344B63" stroke-width="2" d="M56,85 C55.8419792,82.9485113 54.7817946,81.0729033 53.1056599,79.8795263 C51.4295251,78.6861493 49.3102622,78.2980492 47.32,78.82 C44.9932589,72.9592169 39.567125,68.9059535 33.2870452,68.3375344 C27.0069654,67.7691154 20.941243,70.7822343 17.6,76.13 C14.8541817,75.5478514 11.9910595,76.1939591 9.76136051,77.89891 C7.53166148,79.6038609 6.15779622,82.1975875 6,85 L56,85 Z"/>
      <path fill="#F7F7FA" fill-rule="nonzero" stroke="#344B63" stroke-linecap="round" stroke-width="2" d="M62.4,63.12 L68.61,68.49"/>
      <g transform="translate(41 2)">
        <path fill="#FFF" fill-rule="nonzero" d="M19.12,24.46 C32.44,23.53 35.58,8.7 32,0.9 C29.609417,1.28998839 27.9511753,3.49509699 28.24,5.9 C28.96,11.2 26.24,17.62 17.38,17.62 L9.38,21.73 C6.64402497,23.1309216 4.70432707,25.7122686 4.12,28.73 L0,50 L17,42.77 C22.16,40.99 26,41.46 27.95,44.16 C30.57,47.84 29.49,55.03 23.16,62.36 L26.16,64.98 C33.21,56.81 35.33,46.66 31.16,40.84 C30,39.09 26.56,35.77 19.41,37 C18.8130763,37.1251689 18.1916613,36.9711213 17.7223215,36.5816276 C17.2529816,36.192134 16.9870178,35.6097677 17,35 L17.18,26.39 C17.2164662,25.3357086 18.0655343,24.4910172 19.12,24.46 Z"/>
        <path stroke="#344B63" stroke-width="2" d="M19.12,24.46 C32.44,23.53 35.58,8.7 32,0.9 C29.609417,1.28998839 27.9511753,3.49509699 28.24,5.9 C28.96,11.2 26.24,17.62 17.38,17.62 L9.38,21.73 C6.64402497,23.1309216 4.70432707,25.7122686 4.12,28.73 L0,50 L17,42.77 C22.16,40.99 26,41.46 27.95,44.16 C30.57,47.84 29.49,55.03 23.16,62.36 L26.16,64.98 C33.21,56.81 35.33,46.66 31.16,40.84 C30,39.09 26.56,35.77 19.41,37 C18.8130763,37.1251689 18.1916613,36.9711213 17.7223215,36.5816276 C17.2529816,36.192134 16.9870178,35.6097677 17,35 L17.18,26.39 C17.2164662,25.3357086 18.0655343,24.4910172 19.12,24.46 Z"/>
      </g>
      <path fill="#57D3D2" fill-rule="nonzero" d="M64.62,8.07 C64.6620025,9.26730226 64.4507279,10.4599814 64,11.57 L90,15.93 L90,2.07 L64.62,8.07 Z" style="mix-blend-mode:multiply"/>
      <rect width="4" height="16" x="92" y="1" fill="#57D3D2" fill-rule="nonzero" style="mix-blend-mode:multiply"/>
    </g>
  </g>
</svg>
