<svg xmlns="http://www.w3.org/2000/svg" width="120" height="120" viewBox="0 0 120 120"><title>120x120_contacts_static</title><g id="bounding"><rect width="120" height="120" fill="none"/></g><g id="illu"><path d="M88.75,92.76,50,88.89a2,2,0,0,1-1.77-2.21L54,30c.12-1.1,5.11-1.89,6.21-1.77L95,32.11a2,2,0,0,1,1.77,2.21L91,91A2,2,0,0,1,88.75,92.76Z" fill="#fff"/><path d="M84,73H96a2,2,0,0,1,2,2v6a2,2,0,0,1-2,2H84a0,0,0,0,1,0,0V73A0,0,0,0,1,84,73Z" fill="#57d3d2"/><path d="M84,61H96a2,2,0,0,1,2,2v6a2,2,0,0,1-2,2H84a0,0,0,0,1,0,0V61A0,0,0,0,1,84,61Z" fill="#57d3d2"/><path d="M84,49H96a2,2,0,0,1,2,2v6a2,2,0,0,1-2,2H84a0,0,0,0,1,0,0V49A0,0,0,0,1,84,49Z" fill="#57d3d2"/><path d="M46,89H83a5.11,5.11,0,0,0,5-5.21V32.21A5.11,5.11,0,0,0,83,27H46Z" fill="#e3e3e6"/><path d="M32,83.09V32.91A5.91,5.91,0,0,1,37.91,27H46V89H37.91A5.91,5.91,0,0,1,32,83.09Z" fill="#e3e3e6"/><rect x="34" y="53" width="5" height="10" rx="2" ry="2" fill="#344b63"/><rect x="34" y="72" width="5" height="10" rx="2" ry="2" fill="#344b63"/><rect x="34" y="34" width="5" height="10" rx="2" ry="2" fill="#344b63"/><circle cx="67" cy="52" r="5" fill="#f7f7fa"/><path d="M67,58a6,6,0,1,1,6-6A6,6,0,0,1,67,58Zm0-10a4,4,0,1,0,4,4A4,4,0,0,0,67,48Z" fill="#344b63"/><path d="M60.08,69a1,1,0,0,1-1-1.14,8,8,0,0,1,15.84,0,1,1,0,0,1-1,1.14Z" fill="#f7f7fa"/><path d="M73.92,70H60.08a2,2,0,0,1-2-2.28,9,9,0,0,1,17.82,0,2,2,0,0,1-2,2.28ZM67,62a7,7,0,0,0-6.93,6H73.92A7,7,0,0,0,67,62Z" fill="#344b63"/><path d="M97.16,32.22a3,3,0,0,0-2-1.11l-6.41-.71A6,6,0,0,0,83,26H37.91A6.92,6.92,0,0,0,31,32.91V83.09A6.92,6.92,0,0,0,37.91,90H51l37.66,3.75.33,0a3,3,0,0,0,3-2.68L97.8,34.43A3,3,0,0,0,97.16,32.22ZM45,88H37.91A4.92,4.92,0,0,1,33,83.09V32.91A4.92,4.92,0,0,1,37.91,28H45Zm2-60H83a4.11,4.11,0,0,1,4,4.21V83.79A4.11,4.11,0,0,1,83,88H47ZM90,90.88a1,1,0,0,1-1.1.88L71.15,90H83a6.11,6.11,0,0,0,6-6.21V32.44l5.93.66a1,1,0,0,1,.88,1.11Z" fill="#344b63"/><path d="M30.81,53h2.38A1.81,1.81,0,0,1,35,54.81V63a0,0,0,0,1,0,0H29a0,0,0,0,1,0,0V54.81A1.81,1.81,0,0,1,30.81,53Z" transform="translate(-26 90) rotate(-90)" fill="#fff"/><path d="M38,62H28.81A2.81,2.81,0,0,1,26,59.19V56.81A2.81,2.81,0,0,1,28.81,54H38Zm-9.19-6a.81.81,0,0,0-.81.81v2.38a.81.81,0,0,0,.81.81H36V56Z" fill="#344b63"/><path d="M30.81,72h2.38A1.81,1.81,0,0,1,35,73.81V82a0,0,0,0,1,0,0H29a0,0,0,0,1,0,0V73.81A1.81,1.81,0,0,1,30.81,72Z" transform="translate(-45 109) rotate(-90)" fill="#fff"/><path d="M38,81H28.81A2.81,2.81,0,0,1,26,78.19V75.81A2.81,2.81,0,0,1,28.81,73H38Zm-9.19-6a.81.81,0,0,0-.81.81v2.38a.81.81,0,0,0,.81.81H36V75Z" fill="#344b63"/><path d="M30.81,34h2.38A1.81,1.81,0,0,1,35,35.81V44a0,0,0,0,1,0,0H29a0,0,0,0,1,0,0V35.81A1.81,1.81,0,0,1,30.81,34Z" transform="translate(-7 71) rotate(-90)" fill="#fff"/><path d="M38,43H28.81A2.81,2.81,0,0,1,26,40.19V37.81A2.81,2.81,0,0,1,28.81,35H38Zm-9.19-6a.81.81,0,0,0-.81.81v2.38a.81.81,0,0,0,.81.81H36V37Z" fill="#344b63"/></g></svg>