<svg xmlns="http://www.w3.org/2000/svg" width="120" height="120" viewBox="0 0 120 120">
  <g fill="none" fill-rule="evenodd">
    <path fill="#344B63" fill-rule="nonzero" d="M21,56 L21,43 C21,39.3162811 17.707786,36 14,36 L0,36 L0,34 L14,34 C18.8156296,34 23,38.2149595 23,43 L23,56 L37,56 L37,58 L17,58 C12.955061,58 10,60.9788595 10,65 L10,76 L8,76 L8,65 C8,59.8778652 11.8468845,56 17,56 L21,56 Z M25,20 L32,20 C35.707786,20 39,16.6837189 39,13 L39,0 L41,0 L41,13 C41,17.7850405 36.8156296,22 32,22 L30.6573343,22 C32.6963331,23.6499555 34,26.1727339 34,29 L34,38 L32,38 L32,29 C32,25.1340068 28.8659932,22 25,22 L13,22 L13,20 L25,20 Z M74,67 L74,79 C74,83.7850405 69.8156296,88 65,88 L43,88 L43,86 L65,86 C68.707786,86 72,82.6837189 72,79 L72,67 L61,67 C56.1524304,67 52,62.8739727 52,58 L52,52 L54,52 L54,58 C54,61.7665373 57.2541541,65 61,65 L83,65 L83,67 L74,67 Z M91,18 L91,20 L61,20 C57.1662761,20 54,22.6998729 54,26 L54,41 L52,41 L52,26 C52,21.5183289 56.1261205,18 61,18 L91,18 Z" transform="translate(17 16)"/>
    <path fill="#344B63" fill-rule="nonzero" d="M71,73 C71,73.5522847 70.5522847,74 70,74 L63.4648712,74 C62.6946982,74 62.2136197,73.1659404 62.5992654,72.499274 C62.8606047,72.0474963 63,71.5350976 63,71 C63,69.3431458 61.6568542,68 60,68 C58.3431458,68 57,69.3431458 57,71 C57,71.5350976 57.1393953,72.0474963 57.4007346,72.499274 C57.7863803,73.1659404 57.3053018,74 56.5351288,74 L50,74 C49.4477153,74 49,73.5522847 49,73 L49,67.899788 C48.6739298,67.9660353 48.3392697,68 48,68 C45.2385763,68 43,65.7614237 43,63 C43,60.2385763 45.2385763,58 48,58 C48.3392697,58 48.6739298,58.0339647 49,58.100212 L49,53 C49,52.4477153 49.4477153,52 50,52 L56.5351288,52 C57.3053018,52 57.7863803,52.8340596 57.4007346,53.500726 C57.1393953,53.9525037 57,54.4649024 57,55 C57,56.6568542 58.3431458,58 60,58 C61.6568542,58 63,56.6568542 63,55 C63,54.4649024 62.8606047,53.9525037 62.5992654,53.500726 C62.2136197,52.8340596 62.6946982,52 63.4648712,52 L70,52 C70.5522847,52 71,52.4477153 71,53 L71,58.100212 C71.3260702,58.0339647 71.6607303,58 72,58 C74.7614237,58 77,60.2385763 77,63 C77,65.7614237 74.7614237,68 72,68 C71.6607303,68 71.3260702,67.9660353 71,67.899788 L71,73 Z"/>
    <path fill="#57D3D2" d="M55,71 C55,68.2385763 57.2385763,66 60,66 C62.7614237,66 65,68.2385763 65,71 C65,71.3392697 64.9660353,71.6739298 64.899788,72 L69,72 L69,66.4648712 C69,65.6946982 69.8340596,65.2136197 70.500726,65.5992654 C70.9525037,65.8606047 71.4649024,66 72,66 C73.6568542,66 75,64.6568542 75,63 C75,61.3431458 73.6568542,60 72,60 C71.4649024,60 70.9525037,60.1393953 70.500726,60.4007346 C69.8340596,60.7863803 69,60.3053018 69,59.5351288 L69,54 L64.899788,54 C64.9660353,54.3260702 65,54.6607303 65,55 C65,57.7614237 62.7614237,60 60,60 C57.2385763,60 55,57.7614237 55,55 C55,54.6607303 55.0339647,54.3260702 55.100212,54 L51,54 L51,59.5351288 C51,60.3053018 50.1659404,60.7863803 49.499274,60.4007346 C49.0474963,60.1393953 48.5350976,60 48,60 C46.3431458,60 45,61.3431458 45,63 C45,64.6568542 46.3431458,66 48,66 C48.5350976,66 49.0474963,65.8606047 49.499274,65.5992654 C50.1659404,65.2136197 51,65.6946982 51,66.4648712 L51,72 L55.100212,72 C55.0339647,71.6739298 55,71.3392697 55,71 Z"/>
    <g transform="translate(10 13)">
      <path fill="#344B63" fill-rule="nonzero" d="M21,28 C18.790861,28 17,26.209139 17,24 C17,21.790861 18.790861,20 21,20 C23.209139,20 25,21.790861 25,24 C25,26.209139 23.209139,28 21,28 Z M47,94 C44.790861,94 43,92.209139 43,90 C43,87.790861 44.790861,86 47,86 C49.209139,86 51,87.790861 51,90 C51,92.209139 49.209139,94 47,94 Z M47,8 C44.790861,8 43,6.209139 43,4 C43,1.790861 44.790861,0 47,0 C49.209139,0 51,1.790861 51,4 C51,6.209139 49.209139,8 47,8 Z M16,85 C13.790861,85 12,83.209139 12,81 C12,78.790861 13.790861,77 16,77 C18.209139,77 20,78.790861 20,81 C20,83.209139 18.209139,85 16,85 Z M4,42 C1.790861,42 0,40.209139 0,38 C0,35.790861 1.790861,34 4,34 C6.209139,34 8,35.790861 8,38 C8,40.209139 6.209139,42 4,42 Z M96,26 C93.790861,26 92,24.209139 92,22 C92,19.790861 93.790861,18 96,18 C98.209139,18 100,19.790861 100,22 C100,24.209139 98.209139,26 96,26 Z M90,73 C87.790861,73 86,71.209139 86,69 C86,66.790861 87.790861,65 90,65 C92.209139,65 94,66.790861 94,69 C94,71.209139 92.209139,73 90,73 Z"/>
      <g fill="#FFF" transform="translate(2 2)">
        <path d="M19 24C20.1045695 24 21 23.1045695 21 22 21 20.8954305 20.1045695 20 19 20 17.8954305 20 17 20.8954305 17 22 17 23.1045695 17.8954305 24 19 24zM45 90C46.1045695 90 47 89.1045695 47 88 47 86.8954305 46.1045695 86 45 86 43.8954305 86 43 86.8954305 43 88 43 89.1045695 43.8954305 90 45 90zM45 4C46.1045695 4 47 3.1045695 47 2 47 .8954305 46.1045695 0 45 0 43.8954305 0 43 .8954305 43 2 43 3.1045695 43.8954305 4 45 4zM14 81C15.1045695 81 16 80.1045695 16 79 16 77.8954305 15.1045695 77 14 77 12.8954305 77 12 77.8954305 12 79 12 80.1045695 12.8954305 81 14 81zM2 38C3.1045695 38 4 37.1045695 4 36 4 34.8954305 3.1045695 34 2 34 .8954305 34 0 34.8954305 0 36 0 37.1045695.8954305 38 2 38zM94 22C95.1045695 22 96 21.1045695 96 20 96 18.8954305 95.1045695 18 94 18 92.8954305 18 92 18.8954305 92 20 92 21.1045695 92.8954305 22 94 22z"/>
        <path fill-rule="nonzero" d="M88,69 C89.1045695,69 90,68.1045695 90,67 C90,65.8954305 89.1045695,65 88,65 C86.8954305,65 86,65.8954305 86,67 C86,68.1045695 86.8954305,69 88,69 Z"/>
      </g>
    </g>
  </g>
</svg>
