<svg xmlns="http://www.w3.org/2000/svg" width="120" height="120" viewBox="0 0 120 120">
  <g fill="none" fill-rule="evenodd">
    <circle cx="83" cy="84" r="21" fill="#57D3D2" fill-rule="nonzero"/>
    <g fill-rule="nonzero" transform="translate(24 19)">
      <g fill="#E3E3E6" stroke="#344B63" stroke-width="2">
        <path d="M0,60 L0,54 L51,54 L51,60 C51,62.7614237 53.2385763,65 56,65 L5,65 C2.23857625,65 0,62.7614237 0,60 Z"/>
        <path d="M0,6 L0,0 L49,0 L49,6 C49,8.76142375 51.2385763,11 54,11 L5,11 C2.23857625,11 0,8.76142375 0,6 Z" transform="matrix(1 0 0 -1 0 11)"/>
      </g>
      <path fill="#FFF" stroke="#344B63" stroke-width="2" d="M9,60 L9,5 C9,2.23857625 6.76142375,0 4,0 L54,0 C55.3260824,0 56.597852,0.526784202 57.5355339,1.46446609 C58.4732158,2.40214799 59,3.67391755 59,5 L59,60 C59,61.3260824 58.4732158,62.597852 57.5355339,63.5355339 C56.597852,64.4732158 55.3260824,65 54,65 L4,65 C6.76142375,65 9,62.7614237 9,60 Z"/>
      <g transform="translate(16 13)">
        <rect width="32" height="2" y="7" fill="#344B63" rx="1"/>
        <rect width="12" height="2" fill="#344B63" rx="1"/>
        <rect width="32" height="2" y="21" fill="#344B63" rx="1"/>
        <rect width="32" height="2" y="14" fill="#344B63" rx="1"/>
        <rect width="32" height="2" y="28" fill="#344B63" rx="1"/>
        <path fill="#57D3D2" d="M33,43 L33,45 L22.7600501,45 L24.4136419,43.3022672 C24.4799298,43.2342098 24.6033985,43.1021732 24.7645811,42.9206293 C25.0348182,42.6162546 25.3050289,42.2903725 25.5552939,41.9586248 C25.8088875,41.6224646 26.0268252,41.2999054 26.1977192,41.0021808 C26.4448839,40.5715802 26.5657495,40.2322846 26.5787279,40.068965 C26.4701626,40.0294828 26.2783018,40 26,40 C24.8297911,40 23.8141868,40.6336663 21.9940636,42.3040792 C20.7392755,43.4556575 20.6556011,43.5304636 20.1533323,43.916702 C19.5099136,44.4114829 18.9179685,44.7545444 18.3071136,44.9516729 C17.1923234,45.3114259 16.2222168,45.0893298 16.1086546,43.9387595 C16.0798442,43.6468628 16.1305754,43.3705634 16.2382739,43.0292597 C16.2971947,42.8425358 16.2755363,42.9007399 16.4983286,42.3138919 C16.5473204,42.1848447 16.582524,42.0893767 16.6141996,41.9985438 C16.6805741,41.8082085 16.7233561,41.6553992 16.746186,41.5450036 C15.7256124,41.4337671 14.8797621,42.0404467 13.5937208,43.6199831 C13.5542925,43.6684095 12.9465515,44.4261881 12.7682213,44.6401844 L12.4876528,44.9768666 L9.84993762,45.1087523 L9.75006238,43.1112477 L11.5059249,43.0234545 C11.7347213,42.7405003 12.0096158,42.397948 12.0427757,42.3572205 C13.7871366,40.2147688 15.1484389,39.2740553 17.1517314,39.5815782 C18.0214756,39.7150916 18.6090484,40.2483301 18.7386077,41.042985 C18.818246,41.5314479 18.7268403,42.0092093 18.5104245,42.6347626 C18.6452382,42.5460696 18.7861855,42.4450529 18.9341532,42.3312676 C19.3676903,41.997883 19.4496637,41.9245976 20.6417494,40.8305643 C22.8238006,38.8279929 24.1508606,38 26,38 C27.3533691,38 28.2901652,38.5130318 28.5269629,39.5608095 C28.6943761,40.3015759 28.4505666,41.0948823 27.9322808,41.9978192 C27.7454519,42.3233051 27.5236663,42.6582627 27.2732252,43 L33,43 Z M26.6235097,40.0855602 C26.6265305,40.0887862 26.629031,40.0910041 26.6307225,40.0919304 C26.6303321,40.0917166 26.6279279,40.0895932 26.6235097,40.0855602 Z"/>
      </g>
    </g>
    <g stroke="#344B63" stroke-width="2" transform="translate(70 71)">
      <polygon fill="#E3E3E6" stroke-linecap="round" stroke-linejoin="round" points="7 20 19 20 19 37 13 32 7 37"/>
      <path fill="#FFF" stroke-linecap="round" stroke-linejoin="round" d="M10.0327019,1.91587901 L11.4817155,0.229642575 C11.5467755,0.153931353 11.6174127,0.0831973204 11.6930346,0.0180335444 C12.5297973,-0.703008701 13.7926478,-0.609198715 14.51369,0.227564012 L15.9687907,1.91619463 L18.0739082,1.18013285 C18.1681004,1.14719821 18.2646253,1.1213589 18.3626742,1.10283139 C19.4480364,0.897739301 20.4941563,1.61133919 20.6992484,2.69670135 L21.1130112,4.88636407 L23.303833,5.30054834 C23.4022348,5.31915162 23.4991004,5.34511944 23.5936123,5.37823267 C24.6360523,5.74346226 25.1850398,6.88460392 24.8198102,7.92704391 L24.0831121,10.029731 L25.7728919,11.4857096 C25.8482244,11.550619 25.9186111,11.6210562 25.9834664,11.6964353 C26.703876,12.5337427 26.6091117,13.7965219 25.7718043,14.5169315 L24.0832543,15.9697405 L24.820045,18.0730757 C24.8530657,18.1673406 24.8789785,18.2639467 24.897566,18.362083 C25.1031219,19.4473574 24.3899692,20.4937822 23.3046947,20.6993381 L21.1130111,21.1144529 L20.6993842,23.3026295 C20.680808,23.4009017 20.6548866,23.4976422 20.6218382,23.5920366 C20.2568416,24.6345582 19.1158227,25.1838007 18.0733011,24.8188041 L15.9688295,24.0820088 L14.5141303,25.7713246 C14.4486984,25.8473094 14.3776447,25.9182658 14.3015702,25.9835935 C13.4635771,26.7032055 12.2008888,26.6072387 11.4812768,25.7692456 L10.0326628,24.0823249 L7.92772288,24.819217 C7.83393176,24.8520511 7.73782397,24.8778495 7.64019805,24.8963976 C6.5550404,25.102569 5.50821137,24.3900099 5.30203997,23.3048522 L4.88588797,21.1144876 L2.69614908,20.6994503 C2.59804591,20.6808561 2.50147294,20.6549413 2.4072403,20.6219234 C1.36480919,20.2566684 0.815849433,19.1155134 1.18110436,18.0730823 L1.91804842,15.969857 L0.228936194,14.5172244 C0.15331518,14.4521905 0.0826649234,14.3815909 0.0175767785,14.3060165 C-0.703245552,13.4690644 -0.609103711,12.2062386 0.227848467,11.4854163 L1.91819066,10.0296146 L1.18133932,7.92703751 C1.14822873,7.83255768 1.12225889,7.7357251 1.10364882,7.63735634 C0.89832103,6.55203874 1.61169372,5.50576394 2.69701131,5.30043615 L4.88588798,4.88632954 L5.30217618,2.69447996 C5.32067548,2.59707706 5.34639185,2.50118456 5.37911259,2.40759556 C5.74365614,1.36491546 6.8844363,0.81517717 7.92711639,1.17972072 L10.0327019,1.91587901 Z"/>
      <circle cx="13" cy="13" r="7" fill="#E3E3E6" fill-rule="nonzero"/>
    </g>
  </g>
</svg>
