<svg xmlns="http://www.w3.org/2000/svg" width="120" height="120" viewBox="0 0 120 120">
  <path d="M57.552 30.077a3 3 0 015.638-2.052l23.257 63.899a3 3 0 11-5.638 2.052l-23.257-63.9z" fill="#F7F7FA"/>
  <path fill-rule="evenodd" clip-rule="evenodd" d="M84.568 92.608l-23.257-63.9a1 1 0 10-1.88.685L82.69 93.292a1 1 0 101.879-.684zM59.345 26.232a3 3 0 00-1.793 3.845l23.257 63.899a3 3 0 005.638-2.052l-23.257-63.9a3 3 0 00-3.845-1.792z" fill="#1A1C20"/>
  <path d="M57.283 27.82a3 3 0 115.639 2.051l-23.258 63.9a3 3 0 01-5.638-2.053L57.283 27.82z" fill="#F7F7FA"/>
  <path fill-rule="evenodd" clip-rule="evenodd" d="M37.785 93.086l23.257-63.899a1 1 0 00-1.88-.684l-23.257 63.9a1 1 0 001.88.683zm23.344-67.06a3 3 0 00-3.846 1.793l-23.257 63.9a3 3 0 005.638 2.051l23.258-63.899a3 3 0 00-1.793-3.845z" fill="#1A1C20"/>
  <path d="M57 32a3 3 0 016 0v68a3 3 0 11-6 0V32z" fill="#F7F7FA"/>
  <path fill-rule="evenodd" clip-rule="evenodd" d="M61 100V32a1 1 0 10-2 0v68a1 1 0 002 0zm-1-71a3 3 0 00-3 3v68a3 3 0 106 0V32a3 3 0 00-3-3z" fill="#1A1C20"/>
  <path d="M65 26a5 5 0 11-10 0 5 5 0 0110 0z" fill="#E4E4E6"/>
  <path fill-rule="evenodd" clip-rule="evenodd" d="M60 29a3 3 0 100-6 3 3 0 000 6zm0 2a5 5 0 100-10 5 5 0 000 10z" fill="#1A1C20"/>
  <path d="M41 85.644l2.053-5.5 15.455 4.142v5.859L41 85.645z" fill="#F7F7FA"/>
  <path fill-rule="evenodd" clip-rule="evenodd" d="M41 85.644l17.508 4.5v-5.858l-15.455-4.142-2.053 5.5zm2.651-1.383l12.857 3.305V85.82L44.29 82.547l-.64 1.714z" fill="#1A1C20"/>
  <path d="M61.967 90.925l-.366-5.86 15.801-2.514 2.387 5.35-17.822 3.024z" fill="#F7F7FA"/>
  <path fill-rule="evenodd" clip-rule="evenodd" d="M61.967 90.925l17.822-3.023-2.387-5.351-15.801 2.514.366 5.86zm1.857-2.344l13.088-2.22-.711-1.594-12.49 1.988.113 1.826z" fill="#1A1C20"/>
  <path d="M44 77.644l1.966-5.523 12.956 3.472-.236 5.795L44 77.644z" fill="#F7F7FA"/>
  <path fill-rule="evenodd" clip-rule="evenodd" d="M44 77.644l14.686 3.744.236-5.795-12.956-3.472L44 77.644zm2.62-1.396l10.168 2.593.07-1.73-9.627-2.58-.611 1.717z" fill="#1A1C20"/>
  <path d="M61.777 81.808l-.312-5.855L74.76 74.17l2.012 5.44-14.995 2.199z" fill="#F7F7FA"/>
  <path fill-rule="evenodd" clip-rule="evenodd" d="M61.777 81.808l14.995-2.199-2.012-5.44-13.295 1.784.312 5.855zm1.88-2.298l10.383-1.522-.6-1.624-9.88 1.326.098 1.82z" fill="#1A1C20"/>
  <path d="M47 68.644l1.863-5.55 10.02 2.684-.516 5.721L47 68.644z" fill="#F7F7FA"/>
  <path fill-rule="evenodd" clip-rule="evenodd" d="M47 68.644L58.367 71.5l.516-5.72-10.02-2.685L47 68.644zm2.584-1.413l7.001 1.759.155-1.715-6.58-1.763-.576 1.72z" fill="#1A1C20"/>
  <path d="M62.523 71.762l-.4-5.84 9.87-1.271 1.657 5.492-11.127 1.619z" fill="#F7F7FA"/>
  <path fill-rule="evenodd" clip-rule="evenodd" d="M62.523 71.762l11.127-1.619-1.658-5.492-9.87 1.27.401 5.84zm1.848-2.29l6.694-.974-.498-1.647-6.32.813.124 1.808z" fill="#1A1C20"/>
  <path d="M51 59.645l1.72-5.59 5.96 1.597-.9 5.618L51 59.644z" fill="#F7F7FA"/>
  <path fill-rule="evenodd" clip-rule="evenodd" d="M51 59.645l6.78 1.625.9-5.618-5.96-1.596L51 59.645zm2.538-1.449l2.609.626.273-1.705-2.355-.63-.526 1.71z" fill="#1A1C20"/>
  <path d="M62.337 61.41l-.785-5.796 6.079-1.053 1.542 5.476-6.836 1.372z" fill="#F7F7FA"/>
  <path fill-rule="evenodd" clip-rule="evenodd" d="M62.337 61.41l6.836-1.373-1.542-5.476-6.08 1.053.786 5.795zm1.696-2.381l2.63-.528-.468-1.662-2.402.417.24 1.773z" fill="#1A1C20"/>
  <path d="M28.18 43.95a1.47 1.47 0 01-2.04 0l-1.02-.994-1.02.994c-.563.55-1.477.55-2.04 0a1.382 1.382 0 010-1.989l1.02-.994-1.02-.995a1.382 1.382 0 010-1.989 1.469 1.469 0 012.04 0l1.02.995 1.02-.994a1.469 1.469 0 012.04 0c.563.55.563 1.44 0 1.989l-1.02.994 1.02.994c.563.549.563 1.44 0 1.989zM100 44.975a1.353 1.353 0 010 1.95l-1 .975 1 .975a1.354 1.354 0 010 1.95 1.44 1.44 0 01-2 0l-1-.975-1 .974a1.44 1.44 0 01-2 0 1.355 1.355 0 010-1.95l1-.974-1-.975a1.354 1.354 0 010-1.95 1.44 1.44 0 012 0l1 .975 1-.975a1.44 1.44 0 012 0zm-19.25 1.143a1.08 1.08 0 001.5 0 1.016 1.016 0 000-1.463l-.75-.73.75-.732a1.016 1.016 0 000-1.462 1.08 1.08 0 00-1.5 0l-.75.731-.75-.731a1.08 1.08 0 00-1.5 0 1.016 1.016 0 000 1.462l.75.732-.75.73a1.016 1.016 0 000 1.463 1.08 1.08 0 001.5 0l.75-.73.75.73zm-45.545 7.006c-.411.4-1.077.4-1.487 0l-.743-.724-.743.725c-.411.4-1.077.4-1.487 0a1.007 1.007 0 010-1.45l.743-.724-.744-.726a1.007 1.007 0 010-1.45c.41-.4 1.076-.4 1.486 0l.745.726.744-.725c.41-.4 1.076-.4 1.487 0 .41.4.41 1.05 0 1.45l-.744.724.742.724c.411.4.411 1.05 0 1.45zm58.668 5.001a1.91 1.91 0 000-2.75 2.03 2.03 0 00-2.82 0l-1.411 1.376-1.411-1.376a2.03 2.03 0 00-2.82 0 1.91 1.91 0 000 2.75l1.41 1.376-1.41 1.374a1.91 1.91 0 000 2.75 2.03 2.03 0 002.821 0l1.41-1.374 1.41 1.374a2.03 2.03 0 002.82 0 1.91 1.91 0 000-2.75l-1.41-1.374 1.411-1.376z" fill="#FF7040"/>
  <path d="M35.374 18.445a2.014 2.014 0 113.864 1.139l-1.181 4.01a10.28 10.28 0 000 5.813l1.181 4.01a2.014 2.014 0 11-3.864 1.138L34 29.893a12 12 0 010-6.786l1.374-4.662zm8.792.555c-.822 0-1.556.51-1.844 1.28l-.87 2.333a11.114 11.114 0 000 7.774l.87 2.334a1.967 1.967 0 103.687-1.376l-.853-2.285a7.32 7.32 0 010-5.12l.853-2.285A1.967 1.967 0 0044.166 19zm6.781 2c-.704 0-1.348.395-1.668 1.022l-.531 1.045a7.567 7.567 0 000 6.866l.532 1.045a1.872 1.872 0 003.335-1.699l-.339-.665a4.659 4.659 0 010-4.228l.339-.665A1.871 1.871 0 0050.947 21zm18.106 11c.704 0 1.348-.395 1.668-1.022l.531-1.045a7.567 7.567 0 000-6.866l-.531-1.045a1.872 1.872 0 00-3.336 1.699l.339.665a4.66 4.66 0 010 4.228l-.339.665A1.871 1.871 0 0069.053 32zm8.625.72a1.967 1.967 0 11-3.687-1.375l.853-2.285a7.32 7.32 0 000-5.12l-.853-2.285a1.967 1.967 0 113.687-1.376l.87 2.334a11.113 11.113 0 010 7.774l-.87 2.334zM82.694 36c.893 0 1.68-.588 1.932-1.445L86 29.893a12 12 0 000-6.786l-1.374-4.662a2.014 2.014 0 10-3.864 1.139l1.181 4.01a10.28 10.28 0 010 5.813l-1.181 4.01A2.014 2.014 0 0082.694 36z" fill="#E4E4E6"/>
</svg>
