<svg xmlns="http://www.w3.org/2000/svg" width="120" height="120" viewBox="0 0 120 120">
  <g fill="none" fill-rule="evenodd">
    <g transform="translate(15 68)">
      <path fill="#344B63" fill-rule="nonzero" d="M9.8749835,28.4848288 C9.37444353,28.7182344 8.77946307,28.5016792 8.54605745,28.0011392 L5.78419268,22.0783011 C5.45870348,21.3802873 6.01130569,20.5917933 6.77849146,20.6595616 C7.29838792,20.7054859 7.82168983,20.615272 8.30665298,20.3891299 C9.80827288,19.6889131 10.4579384,17.9039717 9.75772155,16.4023518 C9.05750469,14.9007319 7.27256331,14.2510664 5.77094341,14.9512832 C5.28598026,15.1774252 4.88050037,15.5203094 4.58149745,15.9480927 C4.14027346,16.5793517 3.18104618,16.4958354 2.85555698,15.7978216 L0.093692213,9.8749835 C-0.139713408,9.37444353 0.0768417688,8.77946307 0.577381738,8.54605745 L18.7035375,0.093692213 C19.2040774,-0.139713408 19.7990579,0.0768417688 20.0324635,0.577381738 L28.4848288,18.7035375 C28.7182344,19.2040774 28.5016792,19.7990579 28.0011392,20.0324635 L23.3787774,22.1879062 C23.5766211,22.4554289 23.748837,22.7443799 23.8922186,23.0518626 C25.0592467,25.5545625 23.9764708,28.5294648 21.4737709,29.6964929 C18.9710711,30.863521 15.9961688,29.7807451 14.8291407,27.2780452 C14.6857591,26.9705625 14.5751081,26.6529033 14.4973453,26.3293861 L9.8749835,28.4848288 Z"/>
      <path fill="#F7F7FA" d="M9.93605476,26.2495949 L14.9525851,23.9103484 C15.6505989,23.5848592 16.4390929,24.1374614 16.3713246,24.9046472 C16.3254003,25.4245437 16.4156142,25.9478456 16.6417563,26.4328087 C17.3419731,27.9344286 19.1269145,28.5840942 20.6285344,27.8838773 C22.1301543,27.1836604 22.7798199,25.3987191 22.079603,23.8970991 C21.853461,23.412136 21.5105769,23.0066561 21.0827935,22.7076532 C20.4515345,22.2664292 20.5350508,21.3072019 21.2330646,20.9817127 L26.2495949,18.6424662 L18.6424662,2.32892605 L2.32892605,9.93605476 L4.0617505,13.6521088 C4.32927318,13.4542651 4.61822412,13.2820492 4.92570688,13.1386676 C7.42840673,11.9716395 10.403309,13.0544154 11.5703371,15.5571153 C12.7373652,18.0598151 11.6545893,21.0347174 9.1518895,22.2017455 C8.84440674,22.3451271 8.52674761,22.4557781 8.20323031,22.5335409 L9.93605476,26.2495949 Z"/>
    </g>
    <g transform="translate(15 29)">
      <path fill="#344B63" fill-rule="nonzero" d="M29.991378,14.6776695 C30.3819023,15.0681938 30.3819023,15.7013588 29.991378,16.0918831 L25.3703442,20.712917 C24.8257496,21.2575116 23.8958065,21.0079162 23.6970949,20.2638192 C23.5624346,19.7595693 23.2986814,19.2986814 22.9203102,18.9203102 C21.7487373,17.7487373 19.8492424,17.7487373 18.6776695,18.9203102 C17.5060967,20.0918831 17.5060967,21.991378 18.6776695,23.1629509 C19.0560407,23.5413221 19.5169286,23.8050753 20.0211786,23.9397356 C20.7652755,24.1384472 21.0148709,25.0683902 20.4702763,25.6129848 L15.8492424,30.2340187 C15.4587181,30.624543 14.8255531,30.624543 14.4350288,30.2340187 L0.292893219,16.0918831 C-0.0976310729,15.7013588 -0.0976310729,15.0681938 0.292893219,14.6776695 L14.4350288,0.535533906 C14.8255531,0.145009614 15.4587181,0.145009614 15.8492424,0.535533906 L19.4556369,4.14192837 C19.6393594,3.864518 19.8519832,3.60386093 20.0918831,3.36396103 C22.0445046,1.41133957 25.2103294,1.41133957 27.1629509,3.36396103 C29.1155724,5.31658249 29.1155724,8.48240738 27.1629509,10.4350288 C26.923051,10.6749287 26.6623939,10.8875525 26.3849836,11.0712751 L29.991378,14.6776695 Z"/>
      <path fill="#FFF" d="M17.263456,24.5771645 C15.3108345,22.624543 15.3108345,19.4587181 17.263456,17.5060967 C19.2160774,15.5534752 22.3819023,15.5534752 24.3345238,17.5060967 C24.5744237,17.7459966 24.7870474,18.0066536 24.97077,18.284064 L27.8700577,15.3847763 L23.9561306,11.4708492 C23.411536,10.9262546 23.6611314,9.99631156 24.4052283,9.79759994 C24.9094782,9.66293963 25.3703662,9.39918644 25.7487373,9.02081528 C26.9203102,7.84924241 26.9203102,5.94974747 25.7487373,4.77817459 C24.5771645,3.60660172 22.6776695,3.60660172 21.5060967,4.77817459 C21.1277255,5.15654575 20.8639723,5.61743371 20.729312,6.12168362 C20.5306004,6.86578054 19.6006573,7.11537594 19.0560627,6.57078135 L15.1421356,2.65685425 L2.41421356,15.3847763 L15.1421356,28.1126984 L18.0414233,25.2134107 C17.7640129,25.0296881 17.5033559,24.8170644 17.263456,24.5771645 Z"/>
    </g>
    <g transform="translate(61 15)">
      <path fill="#344B63" fill-rule="nonzero" d="M0.778174593,16.0918831 C0.387650301,15.7013588 0.387650301,15.0681938 0.778174593,14.6776695 L4.38456905,11.0712751 C4.10715869,10.8875525 3.84650162,10.6749287 3.60660172,10.4350288 C1.65398026,8.48240738 1.65398026,5.31658249 3.60660172,3.36396103 C5.55922318,1.41133957 8.72504807,1.41133957 10.6776695,3.36396103 C10.9175694,3.60386093 11.1301932,3.864518 11.3139158,4.14192837 L14.9203102,0.535533906 C15.3108345,0.145009614 15.9439995,0.145009614 16.3345238,0.535533906 L30.4766594,14.6776695 C30.8671837,15.0681938 30.8671837,15.7013588 30.4766594,16.0918831 L16.3345238,30.2340187 C15.9439995,30.624543 15.3108345,30.624543 14.9203102,30.2340187 L11.3139158,26.6276243 C11.1301932,26.9050346 10.9175694,27.1656917 10.6776695,27.4055916 C8.72504807,29.358213 5.55922318,29.358213 3.60660172,27.4055916 C1.65398026,25.4529701 1.65398026,22.2871452 3.60660172,20.3345238 C3.84650162,20.0946239 4.10715869,19.8820001 4.38456905,19.6982776 L0.778174593,16.0918831 Z"/>
      <path fill="#F7F7FA" d="M6.81342203,19.2987034 C7.35801662,19.843298 7.10842123,20.7732411 6.36432431,20.9719527 C5.8600744,21.106613 5.39918644,21.3703662 5.02081528,21.7487373 C3.84924241,22.9203102 3.84924241,24.8198052 5.02081528,25.991378 C6.19238816,27.1629509 8.09188309,27.1629509 9.26345597,25.991378 C9.64182712,25.6130069 9.90558032,25.1521189 10.0402406,24.647869 C10.2389522,23.9037721 11.1688953,23.6541767 11.7134899,24.1987713 L15.627417,28.1126984 L28.3553391,15.3847763 L15.627417,2.65685425 L11.7134899,6.57078135 C11.1688953,7.11537594 10.2389522,6.86578054 10.0402406,6.12168362 C9.90558032,5.61743371 9.64182712,5.15654575 9.26345597,4.77817459 C8.09188309,3.60660172 6.19238816,3.60660172 5.02081528,4.77817459 C3.84924241,5.94974747 3.84924241,7.84924241 5.02081528,9.02081528 C5.39918644,9.39918644 5.8600744,9.66293963 6.36432431,9.79759994 C7.10842123,9.99631156 7.35801662,10.9262546 6.81342203,11.4708492 L2.89949494,15.3847763 L6.81342203,19.2987034 Z"/>
    </g>
    <g transform="translate(48 49)">
      <path fill="#344B63" fill-rule="nonzero" d="M30.2340187,14.6776695 C30.624543,15.0681938 30.624543,15.7013588 30.2340187,16.0918831 L25.6129848,20.712917 C25.0683902,21.2575116 24.1384472,21.0079162 23.9397356,20.2638192 C23.8050753,19.7595693 23.5413221,19.2986814 23.1629509,18.9203102 C21.991378,17.7487373 20.0918831,17.7487373 18.9203102,18.9203102 C17.7487373,20.0918831 17.7487373,21.991378 18.9203102,23.1629509 C19.2986814,23.5413221 19.7595693,23.8050753 20.2638192,23.9397356 C21.0079162,24.1384472 21.2575116,25.0683902 20.712917,25.6129848 L16.0918831,30.2340187 C15.7013588,30.624543 15.0681938,30.624543 14.6776695,30.2340187 L11.0712751,26.6276243 C10.8875525,26.9050346 10.6749287,27.1656917 10.4350288,27.4055916 C8.48240738,29.358213 5.31658249,29.358213 3.36396103,27.4055916 C1.41133957,25.4529701 1.41133957,22.2871452 3.36396103,20.3345238 C3.60386093,20.0946239 3.864518,19.8820001 4.14192837,19.6982776 L0.535533906,16.0918831 C0.145009614,15.7013588 0.145009614,15.0681938 0.535533906,14.6776695 L5.15656778,10.0566357 C5.70116237,9.51204106 6.63110544,9.76163646 6.82981706,10.5057334 C6.96447737,11.0099833 7.22823056,11.4708712 7.60660172,11.8492424 C8.77817459,13.0208153 10.6776695,13.0208153 11.8492424,11.8492424 C13.0208153,10.6776695 13.0208153,8.77817459 11.8492424,7.60660172 C11.4708712,7.22823056 11.0099833,6.96447737 10.5057334,6.82981706 C9.76163646,6.63110544 9.51204106,5.70116237 10.0566357,5.15656778 L14.6776695,0.535533906 C15.0681938,0.145009614 15.7013588,0.145009614 16.0918831,0.535533906 L19.6982776,4.14192837 C19.8820001,3.864518 20.0946239,3.60386093 20.3345238,3.36396103 C22.2871452,1.41133957 25.4529701,1.41133957 27.4055916,3.36396103 C29.358213,5.31658249 29.358213,8.48240738 27.4055916,10.4350288 C27.1656917,10.6749287 26.9050346,10.8875525 26.6276243,11.0712751 L30.2340187,14.6776695 Z"/>
      <path fill="#57D3D2" d="M17.5060967,24.5771645 C15.5534752,22.624543 15.5534752,19.4587181 17.5060967,17.5060967 C19.4587181,15.5534752 22.624543,15.5534752 24.5771645,17.5060967 C24.8170644,17.7459966 25.0296881,18.0066536 25.2134107,18.284064 L28.1126984,15.3847763 L24.1987713,11.4708492 C23.6541767,10.9262546 23.9037721,9.99631156 24.647869,9.79759994 C25.1521189,9.66293963 25.6130069,9.39918644 25.991378,9.02081528 C27.1629509,7.84924241 27.1629509,5.94974747 25.991378,4.77817459 C24.8198052,3.60660172 22.9203102,3.60660172 21.7487373,4.77817459 C21.3703662,5.15654575 21.106613,5.61743371 20.9719527,6.12168362 C20.7732411,6.86578054 19.843298,7.11537594 19.2987034,6.57078135 L15.3847763,2.65685425 L12.4854886,5.55614193 C12.762899,5.7398645 13.0235561,5.95248826 13.263456,6.19238816 C15.2160774,8.14500961 15.2160774,11.3108345 13.263456,13.263456 C11.3108345,15.2160774 8.14500961,15.2160774 6.19238816,13.263456 C5.95248826,13.0235561 5.7398645,12.762899 5.55614193,12.4854886 L2.65685425,15.3847763 L6.57078135,19.2987034 C7.11537594,19.843298 6.86578054,20.7732411 6.12168362,20.9719527 C5.61743371,21.106613 5.15654575,21.3703662 4.77817459,21.7487373 C3.60660172,22.9203102 3.60660172,24.8198052 4.77817459,25.991378 C5.94974747,27.1629509 7.84924241,27.1629509 9.02081528,25.991378 C9.39918644,25.6130069 9.66293963,25.1521189 9.79759994,24.647869 C9.99631156,23.9037721 10.9262546,23.6541767 11.4708492,24.1987713 L15.3847763,28.1126984 L18.284064,25.2134107 C18.0066536,25.0296881 17.7459966,24.8170644 17.5060967,24.5771645 Z"/>
    </g>
    <g transform="translate(71 72)">
      <path fill="#344B63" fill-rule="nonzero" d="M28.0011392,10.9839042 C28.5016792,11.2173098 28.7182344,11.8122902 28.4848288,12.3128302 L25.722964,18.2356683 C25.3974748,18.9336822 24.4382475,19.0171985 23.9970235,18.3859395 C23.6980206,17.9581561 23.2925407,17.615272 22.8075776,17.3891299 C21.3059577,16.6889131 19.5210163,17.3385786 18.8207994,18.8401985 C18.1205826,20.3418184 18.7702481,22.1267598 20.271868,22.8269767 C20.7568311,23.0531187 21.2801331,23.1433327 21.8000295,23.0974083 C22.5672153,23.02964 23.1198175,23.818134 22.7943283,24.5161479 L20.0324635,30.438986 C19.7990579,30.9395259 19.2040774,31.1560811 18.7035375,30.9226755 L0.577381738,22.4703102 C0.0768417688,22.2369046 -0.139713408,21.6419242 0.093692213,21.1413842 L2.85555698,15.2185461 C3.18104618,14.5205323 4.14027346,14.4370159 4.58149745,15.068275 C4.88050037,15.4960583 5.28598026,15.8389425 5.77094341,16.0650845 C7.27256331,16.7653013 9.05750469,16.1156358 9.75772155,14.6140159 C10.4579384,13.112396 9.80827288,11.3274546 8.30665298,10.6272378 C7.82168983,10.4010957 7.29838792,10.3108818 6.77849146,10.3568061 C6.01130569,10.4245744 5.45870348,9.6360804 5.78419268,8.93806656 L8.54605745,3.01522846 C8.77946307,2.51468849 9.37444353,2.29813331 9.8749835,2.53153894 L14.4973453,4.68698165 C14.5751081,4.36346435 14.6857591,4.04580522 14.8291407,3.73832246 C15.9961688,1.23562261 18.9710711,0.152846726 21.4737709,1.31987483 C23.9764708,2.48690294 25.0592467,5.46180523 23.8922186,7.96450507 C23.748837,8.27198783 23.5766211,8.56093878 23.3787774,8.82846146 L28.0011392,10.9839042 Z"/>
      <path fill="#FFF" d="M26.2495949,12.3739015 L21.2330646,10.034655 C20.5350508,9.70916578 20.4515345,8.74993849 21.0827935,8.30871451 C21.5105769,8.00971159 21.853461,7.60423169 22.079603,7.11926855 C22.7798199,5.61764864 22.1301543,3.83270727 20.6285344,3.1324904 C19.1269145,2.43227354 17.3419731,3.08193907 16.6417563,4.58355898 C16.4156142,5.06852212 16.3254003,5.59182404 16.3713246,6.1117205 C16.4390929,6.87890626 15.6505989,7.43150847 14.9525851,7.10601927 L9.93605476,4.76677277 L8.20323031,8.4828268 C8.52674761,8.56058961 8.84440674,8.67124061 9.1518895,8.81462218 C11.6545893,9.98165029 12.7373652,12.9565526 11.5703371,15.4592524 C10.403309,17.9619523 7.42840673,19.0447282 4.92570688,17.8777001 C4.61822412,17.7343185 4.32927318,17.5621026 4.0617505,17.3642589 L2.32892605,21.0803129 L18.6424662,28.6874416 L20.3752907,24.9713876 C20.0517734,24.8936248 19.7341142,24.7829738 19.4266315,24.6395922 C16.9239316,23.4725641 15.8411557,20.4976618 17.0081838,17.994962 C18.175212,15.4922621 21.1501142,14.4094863 23.6528141,15.5765144 C23.9602969,15.7198959 24.2492478,15.8921119 24.5167705,16.0899555 L26.2495949,12.3739015 Z"/>
    </g>
  </g>
</svg>
