<svg xmlns="http://www.w3.org/2000/svg" width="120" height="120" viewBox="0 0 120 120">
  <g fill="none" fill-rule="evenodd">
    <rect width="120" height="120"/>
    <g stroke="#344B63" stroke-width="2" transform="translate(17 25)">
      <g fill="#FFF">
        <path d="M15.3216427,23.981047 L27.2844984,12.0181913 C31.6891002,7.61358946 38.8303708,7.61358946 43.2349727,12.0181913 L65.5146531,30.2978718 L57.539416,38.2731089 L61.1792562,45.9129491 L41.2411634,65.851042 L15.3216427,39.9315213 C10.9170408,35.5269194 10.9170408,28.3856489 15.3216427,23.981047 Z"/>
        <g stroke-linecap="round" transform="translate(31.486 32.426)">
          <path d="M6.43180912,18.1389413 L18.7269664,30.4340986 C20.3786921,32.0858242 20.3786921,34.7638007 18.7269664,36.4155264 C17.0752407,38.0672521 14.3972642,38.0672521 12.7455385,36.4155264 L0.450381267,24.1203692 L6.43180912,18.1389413 Z"/>
          <path d="M12.413237,12.1575134 L24.7083942,24.4526707 C26.3601199,26.1043964 26.3601199,28.7823729 24.7083942,30.4340986 C23.0566685,32.0858242 20.3786921,32.0858242 18.7269664,30.4340986 L6.43180912,18.1389413 L12.413237,12.1575134 Z"/>
          <path d="M18.3946648,6.17608559 L30.6898221,18.4712428 C32.3415478,20.1229685 32.3415478,22.800945 30.6898221,24.4526707 C29.0380964,26.1043964 26.3601199,26.1043964 24.7083942,24.4526707 L12.413237,12.1575134"/>
          <path d="M24.3760927,0.19465774 L36.6712499,12.489815 C38.3229756,14.1415407 38.3229756,16.8195172 36.6712499,18.4712428 C35.0195242,20.1229685 32.3415478,20.1229685 30.6898221,18.4712428 L18.3946648,6.17608559"/>
        </g>
        <polygon points=".368 30.959 30.94 .388 36.921 6.369 6.35 36.941"/>
      </g>
      <g transform="translate(17.038)">
        <g fill="#E3E3E6" transform="translate(0 41.475)">
          <path d="M1.27410525,3.44063467 L3.26791454,1.44682538 C4.91964023,-0.20490031 7.5976167,-0.20490031 9.24934239,1.44682538 C10.9010681,3.09855108 10.9010681,5.77652754 9.24934239,7.42825324 L7.25553311,9.42206252 C5.60380741,11.0737882 2.92583095,11.0737882 1.27410525,9.42206252 C-0.37762044,7.77033683 -0.37762044,5.09236036 1.27410525,3.44063467 Z"/>
          <path d="M7.25553311,9.42206252 L13.236961,3.44063467 C14.8886867,1.78890897 17.5666631,1.78890897 19.2183888,3.44063467 C20.8701145,5.09236036 20.8701145,7.77033683 19.2183888,9.42206252 L13.236961,15.4034904 C11.5852353,17.0552161 8.9072588,17.0552161 7.25553311,15.4034904 C5.60380741,13.7517647 5.60380741,11.0737882 7.25553311,9.42206252 Z"/>
          <path d="M13.236961,15.4034904 L25.1998167,3.44063467 C26.8515424,1.78890897 29.5295188,1.78890897 31.1812445,3.44063467 C32.8329702,5.09236036 32.8329702,7.77033683 31.1812445,9.42206252 L19.2183888,21.3849182 C17.5666631,23.0366439 14.8886867,23.0366439 13.236961,21.3849182 C11.5852353,19.7331925 11.5852353,17.0552161 13.236961,15.4034904 Z"/>
          <path d="M19.2183888,21.3849182 L31.1812445,9.42206252 C32.8329702,7.77033683 35.5109467,7.77033683 37.1626724,9.42206252 C38.8143981,11.0737882 38.8143981,13.7517647 37.1626724,15.4034904 L25.1998167,27.3663461 C23.548091,29.0180718 20.8701145,29.0180718 19.2183888,27.3663461 C17.5666631,25.7146204 17.5666631,23.0366439 19.2183888,21.3849182 Z"/>
        </g>
        <g transform="translate(10.219 8.459)">
          <path fill="#E3E3E6" d="M19.9657606,15.5220306 L15.9781421,19.5096492 C11.5735402,23.914251 4.43226965,23.914251 0.0276677992,19.5096492 L15.9781421,3.55917491 C20.3827439,-0.845426935 27.5240145,-0.845426935 31.9286164,3.55917491 L43.8914721,15.5220306 C48.2960739,19.9266325 48.2960739,27.0679031 43.8914721,31.4725049 L39.9038535,35.4601235 L19.9657606,15.5220306 Z"/>
          <path fill="#FFF" stroke-linecap="round" stroke-linejoin="round" d="M17.8391986,14.3589752 L24.4184335,14.3589752" transform="rotate(-45 21.129 14.359)"/>
        </g>
        <polygon fill="#E3E3E6" stroke-linecap="round" stroke-linejoin="round" points="62.75 36.609 32.178 6.037 38.16 .055 68.731 30.627"/>
      </g>
    </g>
  </g>
</svg>
