<svg xmlns="http://www.w3.org/2000/svg" width="120" height="120" fill="none">
  <path d="m35.54 96.8-1.78.56c-.89.28-1.76-.52-1.76-1.61V79h7v12.42a5.49 5.49 0 0 1-3.46 5.38Z" fill="#F7F7FA"/>
  <path d="M33 82h5v4h-5v-4Z" fill="#E4E4E6"/>
  <path d="M31 78v17.75A2.75 2.75 0 0 0 32.08 98a2.23 2.23 0 0 0 1.99.34l1.78-.56A6.5 6.5 0 0 0 40 91.42V78h-9Zm7 13.42a4.5 4.5 0 0 1-2.77 4.42l-1.78.56a.2.2 0 0 1-.2 0 .77.77 0 0 1-.26-.62V92h2a1 1 0 0 0 0-2H33v-3h2a1 1 0 0 0 0-2h-2v-5h5v11.42Z" fill="#1A1C20"/>
  <path d="M45.16 56.25a8.471 8.471 0 0 1-3.48.75H28a12 12 0 0 0 0 24h14a8.47 8.47 0 0 1 3.57.79L59 87.62V50.38l-13.84 5.87Z" fill="#F7F7FA"/>
  <path d="M57 48h5v42h-5V48Z" fill="#F7F7FA"/>
  <path d="M75.75 15.66A26.6 26.6 0 0 0 74 66.41c-.8 3.24-2.62 7.12-6.78 8.27a16.08 16.08 0 0 0 18.94-7 26.598 26.598 0 0 0 22.895-31.645 26.605 26.605 0 0 0-12.217-17.466 26.598 26.598 0 0 0-21.118-2.89l.03-.02Z" fill="#57D3D2"/>
  <path d="m80.654 44.594-5.344-5.3a2.522 2.522 0 0 0-1.785-.734 2.54 2.54 0 0 0-1.784.734 2.498 2.498 0 0 0-.741 1.77 2.481 2.481 0 0 0 .74 1.77l5.345 5.3 3.57 3.54 3.569-3.54 11.034-10.86a2.5 2.5 0 0 0 .74-1.77 2.482 2.482 0 0 0-.74-1.77A2.523 2.523 0 0 0 93.473 33a2.54 2.54 0 0 0-1.785.734l-11.034 10.86Z" fill="#fff"/>
  <path d="M62 47h-5a1 1 0 0 0-1 1v2.57l-11.25 4.77a7.366 7.366 0 0 1-.81.3 1 1 0 0 0-1.89.1l-.35.26H29s-.45-1-1-1a1 1 0 0 0-1 1 13 13 0 0 0-8.68 21.67A13.131 13.131 0 0 0 28 82v-.06c-.21 0-.11.06 0 .06h14a7.49 7.49 0 0 1 3.15.7L56 87.41V90a1 1 0 0 0 1 1h5a1 1 0 0 0 1-1V48a1 1 0 0 0-1-1ZM42 80H29v-5h13v5Zm0-7H29V58h13v15Zm4 7.89c-.64-.3-1.31-.529-2-.68V57.7a9.302 9.302 0 0 0 1.56-.53L56 52.74v32.48l-10-4.33ZM61 89h-3V49h3v40Z" fill="#1A1C20"/>
  <path d="M29 61h13v12H29V61Zm0 14h13v5H29v-5Zm-2 4.9a11 11 0 0 1 0-21.82V79.9Z" fill="#F7F7FA"/>
</svg>
