<svg xmlns="http://www.w3.org/2000/svg" width="120" height="120" viewBox="0 0 120 120">
  <g fill="none" fill-rule="evenodd">
    <circle cx="60" cy="60" r="50" fill="#57D3D2"/>
    <path fill="#FFF" fill-rule="nonzero" d="M18,87.4769184 C17.4477153,87.4769184 17,87.0292032 17,86.4769184 C17,85.9246337 17.4477153,85.4769184 18,85.4769184 C18.6757305,85.4769184 19.3296035,85.4643415 19.9616575,85.4394141 C20.5135132,85.4176496 20.9785243,85.8473734 21.0002888,86.3992291 C21.0220534,86.9510849 20.5923295,87.416096 20.0404738,87.4378605 C19.3818351,87.4638364 18.7017001,87.4769184 18,87.4769184 Z M24.1309504,87.0730547 C23.5845278,87.1533093 23.0765056,86.7754055 22.996251,86.2289829 C22.9159964,85.6825603 23.2939002,85.174538 23.8403228,85.0942835 C24.5068634,84.9963868 25.1376021,84.880305 25.7325831,84.7467105 C26.2714511,84.6257154 26.8063757,84.9644682 26.9273708,85.5033361 C27.048366,86.0422041 26.7096131,86.5771287 26.1707452,86.6981238 C25.5260383,86.8428836 24.8461381,86.9680131 24.1309504,87.0730547 Z M30.1951212,85.3273825 C29.7003777,85.5728356 29.1003297,85.3707458 28.8548765,84.8760023 C28.6094234,84.3812587 28.8115131,83.7812107 29.3062567,83.5357575 C29.8901269,83.2460867 30.3991715,82.929461 30.8344301,82.5895681 C31.2697181,82.2496522 31.898145,82.3269666 32.2380609,82.7622546 C32.5779768,83.1975426 32.5006624,83.8259695 32.0653744,84.1658854 C31.520701,84.5912202 30.8969774,84.9791762 30.1951212,85.3273825 Z M34.6312624,80.2845714 C34.5185766,80.825238 33.9889299,81.172185 33.4482633,81.0594993 C32.9075967,80.9468136 32.5606497,80.4171668 32.6733354,79.8765002 C32.7817525,79.356315 32.7787817,78.819278 32.6686095,78.2815175 C32.557764,77.7404706 32.9065111,77.2120074 33.447558,77.1011619 C33.9886049,76.9903164 34.517068,77.3390636 34.6279135,77.8801104 C34.7918548,78.6803226 34.7963475,79.4924922 34.6312624,80.2845714 Z M32.1716702,73.8595327 C32.5943408,74.2150154 32.6488074,74.8458334 32.2933246,75.268504 C31.9378418,75.6911746 31.3070239,75.7456411 30.8843533,75.3901583 C30.4438201,75.0196525 29.9549837,74.7243587 29.4457411,74.5220186 C28.9324873,74.3180847 28.6817341,73.7366892 28.885668,73.2234355 C29.0896019,72.7101817 29.6709974,72.4594285 30.1842511,72.6633624 C30.8958509,72.9461062 31.5693188,73.3529312 32.1716702,73.8595327 Z M25.4544707,73.0090483 C25.9049671,72.6895622 26.5291614,72.795767 26.8486475,73.2462634 C27.1681337,73.6967599 27.0619289,74.3209541 26.6114324,74.6404402 C26.2236979,74.9154165 25.8553566,75.3191516 25.5271708,75.8359577 C25.2311063,76.3021811 24.6131499,76.4401222 24.1469265,76.1440577 C23.680703,75.8479932 23.542762,75.2300368 23.8388265,74.7638134 C24.2996361,74.0381599 24.8427127,73.4428991 25.4544707,73.0090483 Z M22.3441624,79.0256701 C22.4256288,78.4794269 22.934488,78.1026508 23.4807313,78.1841173 C24.0269745,78.2655837 24.4037505,78.774443 24.3222841,79.3206862 C24.2330586,79.9189549 24.1875022,80.5385398 24.1876507,81.1670507 C24.1877812,81.7193354 23.7401717,82.1671564 23.187887,82.1672869 C22.6356022,82.1674174 22.1877812,81.7198079 22.1876508,81.1675232 C22.187479,80.4404498 22.2402974,79.7220987 22.3441624,79.0256701 Z M26.0712189,91.0460888 C25.6857816,90.650543 25.6939762,90.017431 26.0895221,89.6319937 C26.4850679,89.2465564 27.1181799,89.2547511 27.5036172,89.6502969 C27.9270439,90.0848286 28.3890191,90.4880267 28.8894899,90.8577168 C29.3337187,91.1858619 29.4278232,91.8119946 29.0996782,92.2562235 C28.7715331,92.7004523 28.1454004,92.7945568 27.7011715,92.4664118 C27.1135647,92.0323556 26.5699832,91.5579339 26.0712189,91.0460888 Z M31.3699074,94.4277871 C30.8519993,94.2359808 30.5876417,93.6606435 30.779448,93.1427355 C30.9712544,92.6248274 31.5465916,92.3604698 32.0644997,92.5522762 C32.6350687,92.7635854 33.2350209,92.9450233 33.8644399,93.0955148 C34.4015846,93.2239439 34.732914,93.7634981 34.6044849,94.3006428 C34.4760558,94.8377875 33.9365016,95.1691169 33.399357,95.0406878 C32.6927563,94.8717424 32.0161614,94.6671262 31.3699074,94.4277871 Z M37.5591097,95.6031877 C37.007358,95.5789293 36.5797402,95.1119808 36.6039987,94.560229 C36.6282571,94.0084773 37.0952056,93.5808595 37.6469574,93.605118 C38.0030163,93.6207725 38.3656546,93.6287215 38.7344704,93.6288727 C39.0079844,93.6288748 39.2702862,93.6183511 39.5319675,93.5971271 C40.0824447,93.55248 40.5648882,93.9625362 40.6095353,94.5130134 C40.6541824,95.0634905 40.2441262,95.545934 39.693649,95.5905811 C39.3779365,95.6161874 39.0616952,95.6288752 38.7340531,95.6288726 C38.3359848,95.6287095 37.9443342,95.6201246 37.5591097,95.6031877 Z M43.9325962,94.4050863 C43.4389405,94.6527202 42.8380066,94.4532803 42.5903726,93.9596247 C42.3427387,93.4659691 42.5421786,92.8650351 43.0358343,92.6174012 C43.5765419,92.3461643 44.0903883,92.024051 44.5705692,91.6558638 C45.0088445,91.3198084 45.6365636,91.4026741 45.9726189,91.8409494 C46.3086743,92.2792247 46.2258086,92.9069437 45.7875333,93.2429991 C45.2073929,93.687832 44.5863623,94.0771356 43.9325962,94.4050863 Z M48.7266113,89.9261699 C48.4458792,90.4017831 47.8327402,90.5597655 47.357127,90.2790334 C46.8815137,89.9983014 46.7235313,89.3851623 47.0042634,88.9095491 C47.3114788,88.3890681 47.5688352,87.840501 47.7724252,87.2705501 C47.9582079,86.7504509 48.5304383,86.4794337 49.0505375,86.6652164 C49.5706368,86.8509991 49.8416539,87.4232295 49.6558712,87.9433288 C49.409493,88.6330653 49.0981373,89.2967346 48.7266113,89.9261699 Z M50.1982127,83.4438934 C50.3447838,83.9763737 50.0319426,84.5268538 49.4994623,84.673425 C48.9669819,84.8199961 48.4165019,84.5071549 48.2699307,83.9746746 C48.0849342,83.3025984 47.9172384,82.6439245 47.7668585,81.9986293 C47.6415124,81.4607568 47.9759312,80.923112 48.5138037,80.7977659 C49.0516762,80.6724198 49.589321,81.0068386 49.7146671,81.5447111 C49.8589664,82.1639137 50.0201432,82.7969824 50.1982127,83.4438934 Z M49.0130364,77.7057129 C49.0826742,78.2535897 48.6949849,78.7541842 48.1471081,78.8238221 C47.5992313,78.8934599 47.0986368,78.5057706 47.0289989,77.9578938 C46.93937,77.2527369 46.8747445,76.5665484 46.8351921,75.8992893 C46.8025123,75.3479723 47.2229508,74.8745493 47.7742679,74.8418695 C48.3255849,74.8091896 48.7990079,75.2296282 48.8316877,75.7809452 C48.8685439,76.4027188 48.9289703,77.044321 49.0130364,77.7057129 Z M48.9308819,71.9581561 C48.8624043,72.5061792 48.3626318,72.8949275 47.8146087,72.8264499 C47.2665857,72.7579723 46.8778373,72.2581997 46.9463149,71.7101767 C47.03689,70.9853087 47.16653,70.2892932 47.3354627,69.6222786 C47.4710569,69.0868977 48.0149896,68.7628066 48.5503705,68.8984008 C49.0857513,69.0339949 49.4098425,69.5779277 49.2742483,70.1133086 C49.1259192,70.6989721 49.0113878,71.3138718 48.9308819,71.9581561 Z M50.7058644,66.7253366 C50.4093209,67.1912555 49.7912229,67.3285612 49.3253041,67.0320176 C48.8593853,66.735474 48.7220796,66.1173761 49.0186232,65.6514573 C49.4106292,65.0355512 49.8539626,64.459914 50.3482031,63.92513 C50.72305,63.5195338 51.3557241,63.4946065 51.7613203,63.8694533 C52.1669165,64.2443001 52.1918438,64.8769742 51.816997,65.2825705 C51.4039613,65.7294882 51.0337238,66.2102156 50.7058644,66.7253366 Z"/>
    <g transform="translate(36 16)">
      <g transform="translate(19 24)">
        <path fill="#344B63" fill-rule="nonzero" d="M1.85775418,22.3364666 C1.04693374,22.8071871 0.092363309,22.0036519 0.417895443,21.124427 L7.97721041,0.707586099 C8.2336755,0.01490336 9.12677274,-0.170244302 9.63746702,0.363398908 L19.4980883,10.6671242 C19.945743,11.1348952 19.8376302,11.8982789 19.2776904,12.223351 L1.85775418,22.3364666 Z"/>
        <polygon fill="#57D3D2" points="3.259 19.21 17.174 11.132 9.298 2.901"/>
      </g>
      <path fill="#344B63" fill-rule="nonzero" d="M0.741180955,18.6337692 L66.4241371,1.03407417 C67.2063916,0.824469719 67.9003326,1.58304587 67.6220755,2.34359113 L52.0843087,44.8121419 C51.8796624,45.3714908 51.2344843,45.6290583 50.7008901,45.3644292 L0.555700725,20.4955735 C-0.270037666,20.0860593 -0.149120691,18.8723248 0.741180955,18.6337692 Z"/>
      <polygon fill="#FFF" points="3.817 19.88 50.59 43.077 65.082 3.464"/>
      <g transform="translate(14 9)">
        <path fill="#344B63" fill-rule="nonzero" d="M7.27393774,36.8676275 C6.89846931,37.7383051 5.63516396,37.6463374 5.38975544,36.7304604 L0.21337454,17.4119438 C0.0827268659,16.9243601 0.335948369,16.4158568 0.803791541,16.226306 L40.2541216,0.242656502 C41.331928,-0.194026273 42.1612484,1.25012714 41.2408584,1.96092992 L12.8826485,23.8615299 L7.27393774,36.8676275 Z"/>
        <path fill="#D3F2F2" d="M34.2490981,4.83356385 L2.3739855,17.7480471 L6.5768631,33.4333998 L11.1485231,22.8321302 C11.2156771,22.6764059 11.3213312,22.540318 11.4555516,22.4366618 L34.2490981,4.83356385 Z"/>
      </g>
    </g>
  </g>
</svg>
