<svg xmlns="http://www.w3.org/2000/svg" width="120" height="120" viewBox="0 0 120 120">
  <g fill="none" fill-rule="evenodd">
    <path fill="#E3E3E6" fill-rule="nonzero" d="M44.9676847,70.5 C37.3550667,65.5438025 32,53.7546278 32,40 L74,40 C74,53.7546278 68.6449333,65.5438025 61.0323153,70.5 C68.6449333,75.4561975 74,87.2453722 74,101 L32,101 C32,87.2453722 37.3550667,75.4561975 44.9676847,70.5 Z"/>
    <path stroke="#344B63" stroke-linecap="round" stroke-width="2" d="M16,101 L102,101"/>
    <path fill="#FFF" stroke="#344B63" stroke-width="2" d="M73,82.3589261 L73,101 L47,101 L47,82.3589261 C47,80.8427918 47.573975,79.382869 48.6065233,78.2726855 L56.9140618,69.34052 C57.0925644,69.1485962 57.0925644,68.8514038 56.9140618,68.65948 L48.6065233,59.7273145 C47.573975,58.617131 47,57.1572082 47,55.6410739 L47,37 L73,37 L73,55.6410739 C73,57.1572082 72.426025,58.617131 71.3934767,59.7273145 L63.0859382,68.65948 C62.9074356,68.8514038 62.9074356,69.1485962 63.0859382,69.34052 L71.3934767,78.2726855 C72.426025,79.382869 73,80.8427918 73,82.3589261 Z"/>
    <path fill="#57D3D2" fill-rule="nonzero" stroke="#344B63" stroke-width="2" d="M51.6410332,80.2060419 C51.2326516,80.584233 51,81.1159437 51,81.6734241 L51,97 L69,97 L69,81.6734241 C69,81.1062089 68.7591523,80.5656713 68.3870255,80.2281615 L62.4763739,75.5685853 C61.023979,74.423611 58.976021,74.423611 57.5236261,75.5685853 L51.6410332,80.2060419 Z"/>
    <path fill="#008A8C" fill-rule="nonzero" d="M68,81.5 L68,83.5 L63,83.5 C62.4477153,83.5 62,83.0522847 62,82.5 C62,81.9477153 62.4477153,81.5 63,81.5 L68,81.5 Z"/>
    <path fill="#57D3D2" fill-rule="nonzero" stroke="#344B63" stroke-width="2" d="M63.2603095,63.0343829 L61.3692632,64.8221183 C61.3024003,64.8997673 61.2287103,64.9715805 61.149032,65.0367405 C60.3928089,65.6551713 59.2653297,65.5590817 58.6307368,64.8221183 L56.7396905,63.0343829 C56.1376908,62.4652714 56.1110297,61.5158982 56.6801412,60.9138985 C56.9634775,60.6141885 57.3577194,60.444366 57.770158,60.444366 L62.229842,60.444366 C63.0582691,60.444366 63.729842,61.1159389 63.729842,61.944366 C63.729842,62.3568046 63.5600195,62.7510465 63.2603095,63.0343829 Z"/>
    <g fill="#F7F7FA" fill-rule="nonzero" stroke="#344B63" stroke-width="2" transform="translate(42 37)">
      <path d="M0,58 L36,58 L36,62 C36,63.1045695 35.1045695,64 34,64 L2,64 C0.8954305,64 1.3527075e-16,63.1045695 0,62 L0,58 Z" transform="rotate(180 18 61)"/>
      <path d="M0,0 L36,0 L36,4 C36,5.1045695 35.1045695,6 34,6 L2,6 C0.8954305,6 1.3527075e-16,5.1045695 0,4 L0,0 Z"/>
    </g>
    <g transform="translate(78 15)">
      <path stroke="#E3E3E6" stroke-dasharray="2 4" stroke-linecap="round" stroke-width="2" d="M30.2515692,4 C14.7515692,13.0395534 30.2515692,19.9364023 19.7515692,26.1712321 C8.06980525,32.8472722 -1.39493419,11.8023005 14.1052658,11.8023005" transform="matrix(-1 0 0 1 36.252 0)"/>
      <rect width="4" height="4" fill="#344B63" transform="matrix(-1 0 0 1 4 0)"/>
    </g>
  </g>
</svg>
