<svg width="130" height="130" viewBox="0 0 130 130" fill="none" xmlns="http://www.w3.org/2000/svg">
<path d="M14.7465 120.546L14.7829 120.694C15.7317 120.564 16.7119 120.419 17.7216 120.26L18.0342 122.235C16.9897 122.4 15.976 122.549 14.9964 122.683C14.871 126.12 12.2268 129.026 8.70801 129.383C4.86181 129.774 1.42711 126.973 1.03638 123.127C0.645653 119.28 3.44687 115.846 7.29306 115.455C10.7386 115.105 13.8539 117.316 14.7465 120.546ZM7.4952 117.445C4.74791 117.724 2.74705 120.177 3.02614 122.924C3.30523 125.672 5.75859 127.673 8.50588 127.393C11.2532 127.114 13.254 124.661 12.9749 121.914C12.6958 119.166 10.2425 117.166 7.4952 117.445ZM26.5139 118.609L26.9372 120.564C25.6067 120.852 24.2919 121.12 22.9942 121.368L22.6187 119.403C23.9005 119.158 25.1995 118.894 26.5139 118.609ZM35.2011 116.482L35.7289 118.411C34.4265 118.767 33.1279 119.105 31.8342 119.426L31.3526 117.485C32.631 117.168 33.9142 116.834 35.2011 116.482ZM43.7637 113.886L44.3964 115.783C43.1202 116.209 41.8419 116.618 40.5622 117.01L39.9763 115.097C41.2405 114.71 42.5032 114.306 43.7637 113.886ZM52.1653 110.817L52.9055 112.675C51.6573 113.172 50.4031 113.653 49.1434 114.117L48.4514 112.241C49.6951 111.782 50.9332 111.308 52.1653 110.817ZM60.3676 107.26L61.2191 109.07C60.0056 109.641 58.7832 110.195 57.5522 110.734L56.7506 108.902C57.9649 108.37 59.1708 107.823 60.3676 107.26ZM68.3307 103.197L69.2976 104.947C68.1245 105.595 66.9399 106.227 65.7443 106.842L64.8291 105.064C66.0074 104.457 67.1748 103.835 68.3307 103.197ZM76.0061 98.6075L77.092 100.287C75.9649 101.016 74.8243 101.728 73.6706 102.423L72.6379 100.711C73.7738 100.026 74.8967 99.3248 76.0061 98.6075ZM83.3094 93.4984L84.5161 95.0933C83.4454 95.9034 82.3594 96.6966 81.2584 97.4732L80.1056 95.8388C81.1885 95.075 82.2565 94.2949 83.3094 93.4984ZM90.2126 87.8414L91.5404 89.3371C90.5353 90.2293 89.5134 91.1045 88.4748 91.9629L87.2007 90.4213C88.2212 89.5778 89.2253 88.7179 90.2126 87.8414ZM96.6418 81.6472L98.0878 83.0288C97.1583 84.0017 96.2105 84.9574 95.2447 85.8963L93.8506 84.4622C94.7988 83.5405 95.7293 82.6022 96.6418 81.6472ZM102.524 74.9461L104.082 76.2002C103.237 77.2497 102.373 78.2822 101.489 79.2979L99.9803 77.9855C100.847 76.9889 101.695 75.9758 102.524 74.9461ZM107.816 67.7578L109.476 68.8729C108.725 69.9921 107.953 71.0946 107.162 72.1805L105.545 71.0026C106.322 69.9373 107.079 68.8558 107.816 67.7578ZM112.474 60.1293L114.224 61.0971C113.571 62.2784 112.897 63.4434 112.204 64.5922L110.492 63.5585C111.172 62.4314 111.833 61.2884 112.474 60.1293ZM116.45 52.159L118.276 52.9762C117.723 54.2101 117.151 55.4282 116.558 56.6307L114.764 55.7463C115.346 54.566 115.908 53.3703 116.45 52.159ZM119.76 43.8753L121.645 44.5421C121.194 45.8176 120.723 47.078 120.232 48.3235L118.372 47.5902C118.854 46.3668 119.316 45.1285 119.76 43.8753ZM122.402 35.3683L124.333 35.8889C123.981 37.1953 123.61 38.4875 123.219 39.7655L121.306 39.1805C121.691 37.9239 122.056 36.6531 122.402 35.3683ZM124.417 26.6482L126.38 27.029C126.123 28.357 125.846 29.6718 125.552 30.9732L123.601 30.5314C123.891 29.2503 124.163 27.9559 124.417 26.6482ZM125.822 17.8281L127.807 18.0783C127.637 19.4205 127.45 20.7502 127.246 22.0675L125.269 21.7604C125.471 20.4621 125.656 19.1513 125.822 17.8281ZM126.667 8.92103L128.663 9.05021C128.576 10.3999 128.471 11.7379 128.35 13.0644L126.359 12.8827C126.478 11.5738 126.581 10.2532 126.667 8.92103ZM126.993 0L128.993 0.018552C128.981 1.37046 128.952 2.71154 128.908 4.04183L126.909 3.97525C126.953 2.661 126.981 1.33593 126.993 0Z" fill="#C0C0C4"/>
</svg>
