<svg xmlns="http://www.w3.org/2000/svg" width="200" height="200" viewBox="0 0 200 200">
  <g fill="none" fill-rule="evenodd">
    <path fill="#D3F2F2" stroke="#344B63" stroke-width="4" d="M168,87 L168,161 C168,164.313708 165.313708,167 162,167 C160.230049,167 158.639096,166.233615 157.540883,165.014585 C155.814423,165.651926 153.94786,166 152,166 L53,166 C44.163444,166 37,158.836556 37,150 L37,65 C37,56.163444 44.163444,49 53,49 L86.7830094,49 C88.1621696,49 89.4440492,49.7104788 90.1750026,50.8800042 L102.75,71 L152,71 C160.836556,71 168,78.163444 168,87 Z"/>
    <rect width="77" height="71" x="55" y="67" fill="#FFF" stroke="#344B63" stroke-width="4" rx="8"/>
    <g transform="translate(112 61)">
      <path fill="#57D3D2" stroke="#344B63" stroke-width="4" d="M0,24 L0,8 C0,3.581722 3.581722,0 8,0 L28,0 C32.418278,3.55271368e-15 36,3.581722 36,8 L36,24 L0,24 Z"/>
      <polygon fill="#00B2B2" points="2 21 2 15 34 15 34 21"/>
    </g>
    <path fill="#FFF" stroke="#344B63" stroke-width="4" d="M97.75,82 L140,82 C148.836556,82 156,89.163444 156,98 L156,167 L54,167 C40.745166,167 30,156.254834 30,143 L30,76 C30,67.163444 37.163444,60 46,60 L81.7830094,60 C83.1621696,60 84.4440492,60.7104788 85.1750026,61.8800042 L97.75,82 Z"/>
    <path fill="#FFF" stroke="#344B63" stroke-linecap="round" stroke-width="4" d="M0 1L18 1M91 1L161 1M160 1L166 1" transform="translate(14 166)"/>
  </g>
</svg>
