<svg xmlns="http://www.w3.org/2000/svg" width="200" height="200" viewBox="0 0 200 200">
  <g fill="none" fill-rule="evenodd">
    <path fill="#D3F2F2" stroke="#344B63" stroke-linecap="round" stroke-linejoin="round" stroke-width="4" d="M121.034802,46.5399338 L125.139043,57.8162452 C127.027968,63.0060243 124.352098,68.7444478 119.162319,70.6333729 L30.8312123,102.783266 C25.6414332,104.672191 19.9030097,101.996321 18.0140846,96.8065416 L13.9098429,85.5302301 L15.7892281,84.8461898 C24.0928746,81.8239097 28.3742679,72.6424321 25.3519878,64.3387856 C22.3297076,56.0351391 13.14823,51.7537458 4.84458356,54.776026 L2.96519832,55.4600662 L-1.1390434,44.1837548 C-3.02796849,38.9939757 -0.352097663,33.2555522 4.83768138,31.3666271 L93.1687877,-0.783266326 C98.3585668,-2.67219142 104.09699,0.00367940855 105.985915,5.19345845 L110.090157,16.4697699 L108.210772,17.1538102 C99.9071254,20.1760903 95.6257321,29.3575679 98.6480122,37.6612144 C101.670292,45.9648609 110.85177,50.2462542 119.155416,47.223974 L121.034802,46.5399338 Z" transform="translate(20 28)"/>
    <path fill="#57D3D2" d="M142.349629,84 L143.259658,86.5002855 C144.770798,90.6521087 142.630102,95.2428475 138.478278,96.7539876 L75.9931002,119.496733 C75.7265836,109.788308 67.7728202,102 58,102 L58,92 C58,87.581722 61.581722,84 66,84 L142.349629,84 Z"/>
    <g stroke="#344B63" stroke-linecap="round" stroke-width="4" transform="translate(58 92)">
      <path fill="#57D3D2" stroke-linejoin="round" d="M112,52 L112,64 C112,69.5228475 107.522847,74 102,74 L8,74 C2.4771525,74 -2,69.5228475 -2,64 L-2,52 L0,52 C8.836556,52 16,44.836556 16,36 C16,27.163444 8.836556,20 0,20 L-2,20 L-2,8 C-2,2.4771525 2.4771525,-2 8,-2 L102,-2 C107.522847,-2 112,2.4771525 112,8 L112,20 L110,20 C101.163444,20 94,27.163444 94,36 C94,44.836556 101.163444,52 110,52 L112,52 Z"/>
      <path fill="#FFF" stroke-linejoin="round" d="M34,74 L34,-2 L102,-2 C107.522847,-2 112,2.4771525 112,8 L112,20 L110,20 C101.163444,20 94,27.163444 94,36 C94,44.836556 101.163444,52 110,52 L112,52 L112,64 C112,69.5228475 107.522847,74 102,74 L34,74 Z"/>
      <path fill="#FFF" d="M47 49L71 49M47 59L83 59"/>
    </g>
  </g>
</svg>
