<svg xmlns="http://www.w3.org/2000/svg" width="200" height="200" viewBox="0 0 200 200">
  <g fill="none" fill-rule="evenodd">
    <path fill="#FFF" stroke="#344B63" stroke-linecap="round" stroke-width="4" d="M0 1L18 1M71 1L141 1M150 1L156 1" transform="translate(24 166)"/>
    <path fill="#FFF" stroke="#344B63" stroke-width="4" d="M4 0L18 0 18 12 4 12C1.790861 12 2.705415e-16 10.209139 0 8L0 4C-2.705415e-16 1.790861 1.790861 4.05812251e-16 4 0zM4 30L18 30 18 42 4 42C1.790861 42 2.705415e-16 40.209139 0 38L0 34C-2.705415e-16 31.790861 1.790861 30 4 30zM4 60L18 60 18 72 4 72C1.790861 72 2.705415e-16 70.209139 0 68L0 64C-2.705415e-16 61.790861 1.790861 60 4 60zM4 90L18 90 18 102 4 102C1.790861 102 2.705415e-16 100.209139 0 98L0 94C-2.705415e-16 91.790861 1.790861 90 4 90z" transform="translate(37 46)"/>
    <path fill="#FFF" stroke="#344B63" stroke-width="4" d="M68,27 L140,27 C149.941125,27 158,35.0588745 158,45 L158,149 C158,158.941125 149.941125,167 140,167 L68,167 L68,27 Z"/>
    <g transform="translate(149 100)">
      <path fill="#57D3D2" stroke="#344B63" stroke-width="4" d="M0,0 L16,0 C20.418278,-8.11624501e-16 24,3.581722 24,8 L24,40 C24,44.418278 20.418278,48 16,48 L0,48 L0,0 Z"/>
      <rect width="6" height="44" x="3" y="2" fill="#00B2B2"/>
    </g>
    <g transform="translate(50 25)">
      <path fill="#64788F" stroke="#344B63" stroke-width="4" d="M6,2 L84,2 C92.836556,2 100,9.163444 100,18 L100,126 C100,134.836556 92.836556,142 84,142 L6,142 C2.6862915,142 4.05812251e-16,139.313708 0,136 L0,8 C-4.05812251e-16,4.6862915 2.6862915,2 6,2 Z"/>
      <rect width="12" height="144" x="18" fill="#344B63"/>
    </g>
  </g>
</svg>
