<svg xmlns="http://www.w3.org/2000/svg" width="200" height="200" viewBox="0 0 200 200">
  <g fill="none" fill-rule="evenodd">
    <g stroke="#344B63" stroke-width="4" transform="translate(8 26)">
      <path fill="#FFF" d="M32.6030304,51.0294373 L58.0588745,25.5735931 C67.4314575,16.2010101 82.627417,16.2010101 92,25.5735931 L128.769553,62.3431458 L111.79899,79.3137085 L130.183766,97.6984848 L87.7573593,140.124892 L32.6030304,84.9705627 C23.2304474,75.5979797 23.2304474,60.4020203 32.6030304,51.0294373 Z"/>
      <g fill="#FFF" stroke-linecap="round" transform="translate(67 69)">
        <path d="M13.6862915,38.5979797 L39.8492424,64.7609307 C43.363961,68.2756493 43.363961,73.9741341 39.8492424,77.4888527 C36.3345238,81.0035713 30.636039,81.0035713 27.1213203,77.4888527 L0.95836944,51.3259018 L13.6862915,38.5979797 Z"/>
        <path d="M26.4142136,25.8700577 L52.5771645,52.0330086 C56.0918831,55.5477272 56.0918831,61.246212 52.5771645,64.7609307 C49.0624458,68.2756493 43.363961,68.2756493 39.8492424,64.7609307 L13.6862915,38.5979797 L26.4142136,25.8700577 Z"/>
        <path d="M39.1421356,13.1421356 L65.3050865,39.3050865 C68.8198052,42.8198052 68.8198052,48.51829 65.3050865,52.0330086 C61.7903679,55.5477272 56.0918831,55.5477272 52.5771645,52.0330086 L26.4142136,25.8700577"/>
        <path d="M51.8700577,0.414213562 L78.0330086,26.5771645 C81.5477272,30.0918831 81.5477272,35.7903679 78.0330086,39.3050865 C74.51829,42.8198052 68.8198052,42.8198052 65.3050865,39.3050865 L39.1421356,13.1421356"/>
      </g>
      <polygon fill="#57D3D2" points=".783 65.879 65.837 .825 78.565 13.553 13.511 78.607"/>
    </g>
    <g stroke="#344B63" stroke-width="4" transform="translate(40 26)">
      <polygon fill="#57D3D2" stroke-linecap="round" stroke-linejoin="round" points="137.782 77.899 72.728 12.846 85.456 .118 150.51 65.172"/>
      <g fill="#D3F2F2" transform="translate(0 84)">
        <path d="M6.96699141,11.5771645 L11.2096321,7.33452378 C14.7243507,3.81980515 20.4228355,3.81980515 23.9375542,7.33452378 C27.4522728,10.8492424 27.4522728,16.5477272 23.9375542,20.0624458 L19.6949135,24.3050865 C16.1801948,27.8198052 10.48171,27.8198052 6.96699141,24.3050865 C3.45227279,20.7903679 3.45227279,15.0918831 6.96699141,11.5771645 Z"/>
        <path d="M19.6949135 24.3050865L32.4228355 11.5771645C35.9375542 8.06244584 41.636039 8.06244584 45.1507576 11.5771645 48.6654762 15.0918831 48.6654762 20.7903679 45.1507576 24.3050865L32.4228355 37.0330086C28.9081169 40.5477272 23.2096321 40.5477272 19.6949135 37.0330086 16.1801948 33.51829 16.1801948 27.8198052 19.6949135 24.3050865zM32.4228355 37.0330086L57.8786797 11.5771645C61.3933983 8.06244584 67.0918831 8.06244584 70.6066017 11.5771645 74.1213203 15.0918831 74.1213203 20.7903679 70.6066017 24.3050865L45.1507576 49.7609307C41.636039 53.2756493 35.9375542 53.2756493 32.4228355 49.7609307 28.9081169 46.246212 28.9081169 40.5477272 32.4228355 37.0330086z"/>
        <path d="M45.1507576,49.7609307 L70.6066017,24.3050865 C74.1213203,20.7903679 79.8198052,20.7903679 83.3345238,24.3050865 C86.8492424,27.8198052 86.8492424,33.51829 83.3345238,37.0330086 L57.8786797,62.4888527 C54.363961,66.0035713 48.6654762,66.0035713 45.1507576,62.4888527 C41.636039,58.9741341 41.636039,53.2756493 45.1507576,49.7609307 Z"/>
      </g>
      <g transform="translate(26 18)">
        <path fill="#D3F2F2" d="M42.4852814,33.0294373 L34,41.5147186 C24.627417,50.8873016 9.43145751,50.8873016 0.058874503,41.5147186 L34,7.57359313 C43.372583,-1.79898987 58.5685425,-1.79898987 67.9411255,7.57359313 L93.3969696,33.0294373 C102.769553,42.4020203 102.769553,57.5979797 93.3969696,66.9705627 L84.9116882,75.4558441 L42.4852814,33.0294373 Z"/>
        <path fill="#FFF" stroke-linecap="round" stroke-linejoin="round" d="M37.9601551,30.5545635 L51.9601551,30.5545635" transform="rotate(-45 44.96 30.555)"/>
      </g>
    </g>
  </g>
</svg>
