<svg xmlns="http://www.w3.org/2000/svg" xmlns:xlink="http://www.w3.org/1999/xlink" width="200" height="200" viewBox="0 0 200 200">
  <defs>
    <path id="200x200_stopwatch_static-a" d="M11.002216,66.4943696 C11.0007397,66.3297546 11,66.1649637 11,66 C11,36.1766235 35.1766235,12 65,12 C94.8233765,12 119,36.1766235 119,66 C119,66.1649637 118.99926,66.3297546 118.997784,66.4943696 C114.094553,41.1438311 91.7829172,22 65,22 C38.2170828,22 15.9054469,41.1438311 11.002216,66.4943696 Z"/>
  </defs>
  <g fill="none" fill-rule="evenodd">
    <g fill="#FFF" stroke="#344B63" stroke-width="4" transform="rotate(-90 69 48)">
      <path d="M4,0 L8.99995397,0 L21,0 L26,0 C28.209139,-4.05812251e-16 30,1.790861 30,4 L30,18 L0,18 L0,4 C-2.705415e-16,1.790861 1.790861,4.05812251e-16 4,0 Z"/>
      <rect width="14" height="18" x="8"/>
    </g>
    <g stroke="#344B63" stroke-width="4" transform="translate(85 16)">
      <rect width="14" height="15" x="8" y="9" fill="#57D3D2"/>
      <path fill="#FFF" d="M4,0 L26,0 C28.209139,-4.05812251e-16 30,1.790861 30,4 L30,14 L0,14 L0,4 C-2.705415e-16,1.790861 1.790861,4.05812251e-16 4,0 Z"/>
    </g>
    <g transform="translate(35 37)">
      <circle cx="65" cy="65" r="65" fill="#FFF" stroke="#344B63" stroke-width="4"/>
      <circle cx="65" cy="66" r="56" fill="#D3F2F2" stroke="#344B63" stroke-width="4"/>
      <use fill="#57D3D2" xlink:href="#200x200_stopwatch_static-a"/>
    </g>
    <g transform="translate(91 58)">
      <path fill="#344B63" d="M9,0 C10.6568542,0 12,1.34314575 12,3 L12,44 L6,44 L6,3 C6,1.34314575 7.34314575,0 9,0 Z"/>
      <path fill="#57D3D2" stroke="#344B63" stroke-width="4" d="M40.1126984,75.1126984 C38.5506012,76.6747955 36.0179413,76.6747955 34.4558441,75.1126984 L6.17157288,46.8284271 L11.8284271,41.1715729 L40.1126984,69.4558441 C41.6747955,71.0179413 41.6747955,73.5506012 40.1126984,75.1126984 Z"/>
      <circle cx="9" cy="44" r="9" fill="#FFF" stroke="#344B63" stroke-width="4"/>
    </g>
    <g fill="#FFF" stroke="#344B63" stroke-width="4" transform="translate(60 74)">
      <path stroke-linecap="square" d="M39,62 L39,68"/>
      <path stroke-linecap="round" d="M80.5 29.5L74.5 29.5 80.5 29.5zM6.5 29.5L.5 29.5 6.5 29.5zM68.3449314.155068581L64.1022907 4.39770927 68.3449314.155068581zM16.0190296 52.4809704L11.7763889 56.7236111 16.0190296 52.4809704zM9.65506858.155068581L13.8977093 4.39770927 9.65506858.155068581z"/>
    </g>
  </g>
</svg>
