<svg xmlns="http://www.w3.org/2000/svg" width="200" height="200" viewBox="0 0 200 200">
  <g fill="none" fill-rule="evenodd">
    <rect width="120" height="99" x="40" y="68" fill="#FFF" stroke="#344B63" stroke-width="4" rx="16"/>
    <rect width="120" height="99" x="40" y="60" fill="#FFF" stroke="#344B63" stroke-width="4" rx="16"/>
    <path fill="#57D3D2" stroke="#344B63" stroke-width="4" d="M56,45 L144,45 C152.836556,45 160,52.163444 160,61 L160,75 L40,75 L40,61 C40,52.163444 47.163444,45 56,45 Z"/>
    <g transform="translate(58 34)">
      <path fill="#00B2B2" d="M24 21C24 22.6568542 22.6568542 24 21 24L3 24C1.34314575 24 0 22.6568542 0 21 0 19.3431458 1.34314575 18 3 18L21 18C22.6568542 18 24 19.3431458 24 21zM54 21C54 22.6568542 52.6568542 24 51 24L33 24C31.3431458 24 30 22.6568542 30 21 30 19.3431458 31.3431458 18 33 18L51 18C52.6568542 18 54 19.3431458 54 21zM84 21C84 22.6568542 82.6568542 24 81 24L63 24C61.3431458 24 60 22.6568542 60 21 60 19.3431458 61.3431458 18 63 18L81 18C82.6568542 18 84 19.3431458 84 21z"/>
      <path fill="#FFF" stroke="#344B63" stroke-width="4" d="M78 4L78 18 66 18 66 4C66 1.790861 67.790861 0 70 0L74 0C76.209139 0 78 1.790861 78 4zM48 4L48 18 36 18 36 4C36 1.790861 37.790861 2.13e-14 40 2.13e-14L44 2.13e-14C46.209139 2.13e-14 48 1.790861 48 4zM18 4L18 18 6 18 6 4C6 1.790861 7.790861 4.26e-14 10 4.26e-14L14 4.26e-14C16.209139 4.26e-14 18 1.790861 18 4z"/>
    </g>
    <path fill="#FFF" stroke="#344B63" stroke-linecap="round" stroke-width="4" d="M0 1L18 1M81 1L151 1M160 1L166 1" transform="translate(14 166)"/>
  </g>
</svg>
