<svg xmlns="http://www.w3.org/2000/svg" width="240" height="240" viewBox="0 0 240 240">
  <g fill="none" fill-rule="evenodd" stroke="#344B63" stroke-linecap="round" stroke-linejoin="round" stroke-width="2" transform="translate(19 46)">
    <polygon fill="#F7F7FA" points="156 32 174 32 169 42"/>
    <polygon fill="#F7F7FA" points="151 113 151 147 132 128"/>
    <polygon fill="#FFF" points="18 72 18 100 28 94.5"/>
    <polygon fill="#E3E3E6" points="18 100 62 100 62 74"/>
    <polygon fill="#E3E3E6" points="159 106 133 129 121 119"/>
    <polygon fill="#F7F7FA" points="174 66 121 119 191.5 95"/>
    <polygon fill="#F7F7FA" points="174 32 156 66 174 66"/>
    <polygon fill="#FFF" points="174 52 202 52 174 32"/>
    <polygon fill="#C0C0C4" points="121 148 139 148 121 136"/>
    <polygon fill="#F7F7FA" points="106 133 121 148 121 118"/>
    <polygon fill="#E3E3E6" points="121 118 87 118 87 85"/>
    <polygon fill="#F7F7FA" points="40 85 87 85 87 118"/>
    <polygon fill="#C0C0C4" points="151 135 169 147 151 147"/>
    <polygon fill="#C0C0C4" points="156 66 156 84 174 66"/>
    <polygon fill="#FFF" points="0 0 24 26 121 0"/>
    <polygon fill="#E3E3E6" points="24 26 24 50 121 0"/>
    <polygon fill="#F7F7FA" points="121 0 24 50 60 50"/>
    <polygon fill="#E3E3E6" points="60 50 87 85 121 0"/>
    <polygon fill="#FFF" points="121 0 87 85 121 118"/>
    <polygon fill="#C0C0C4" points="4 80 18 80 18 72"/>
    <polygon fill="#E3E3E6" points="121 0 121 119 155 85"/>
  </g>
</svg>
