<svg xmlns="http://www.w3.org/2000/svg" xmlns:xlink="http://www.w3.org/1999/xlink" width="240" height="240"><defs><path id="a" d="M0 185.49h134.688V0H0z"/></defs><g fill="none" fill-rule="evenodd" transform="translate(53 27)"><path fill="#008A8C" d="M122.246 138.664l-26.491 5.147c-.926.371-3.183-1.925-3.552-2.85l1.8-4.348a1.816 1.816 0 0 1 1.009-2.354l21.961-8.781a1.818 1.818 0 0 1 2.354 1.009l3.928 9.823a1.818 1.818 0 0 1-1.01 2.354"/><path stroke="#344B63" stroke-width="2" d="M122.246 138.664l-26.491 5.147c-.926.371-3.183-1.925-3.552-2.85l1.8-4.348a1.816 1.816 0 0 1 1.009-2.354l21.961-8.781a1.818 1.818 0 0 1 2.354 1.009l3.928 9.823a1.818 1.818 0 0 1-1.01 2.354z"/><path stroke="#334B64" stroke-linecap="round" stroke-linejoin="round" stroke-width="2" d="M1.286 184.204H133.4"/><path fill="#FFF" d="M93.875 170.088h-54.08a6.428 6.428 0 0 1-6.43-6.429V125.45h66.939v38.21a6.428 6.428 0 0 1-6.429 6.428"/><path fill="#F7F7FA" d="M100.304 125.45H33.366v-13.472a5.143 5.143 0 0 1 5.143-5.142H95.16a5.143 5.143 0 0 1 5.143 5.142v13.472z"/><path stroke="#334B64" stroke-linecap="round" stroke-linejoin="round" stroke-width="2" d="M46.006 142.152h42.6m-42.6 11.265h42.6m-11.402-18.32v25.028m-20.115-25.028v25.028"/><path stroke="#334B64" stroke-width="2" d="M100.304 125.45H33.366v-13.472a5.143 5.143 0 0 1 5.143-5.142H95.16a5.143 5.143 0 0 1 5.143 5.142v13.472z"/><path fill="#FFF" d="M50.877 112.697H45.98v-10.372a2.448 2.448 0 0 1 4.896 0v10.372z"/><path stroke="#334B64" stroke-linecap="round" stroke-linejoin="round" stroke-width="2" d="M50.877 112.697H45.98v-10.372a2.448 2.448 0 0 1 4.896 0v10.372zm-7.472 0h10.248"/><path fill="#FFF" d="M69.566 112.697h-4.897v-10.372a2.448 2.448 0 0 1 4.897 0v10.372z"/><path stroke="#334B64" stroke-linecap="round" stroke-linejoin="round" stroke-width="2" d="M69.566 112.697h-4.897v-10.372a2.448 2.448 0 0 1 4.897 0v10.372zm-7.347 0h10.248"/><path fill="#FFF" d="M88.606 112.697H83.71v-10.372a2.448 2.448 0 0 1 4.896 0v10.372z"/><path stroke="#334B64" stroke-linecap="round" stroke-linejoin="round" stroke-width="2" d="M88.606 112.697H83.71v-10.372a2.448 2.448 0 0 1 4.896 0v10.372zm-7.573 0h10.249"/><mask id="b" fill="#fff"><use xlink:href="#a"/></mask><path fill="#E4E4E6" mask="url(#b)" d="M33.366 130.116h66.938v-4.666H33.366z"/><path stroke="#334B64" stroke-width="2" d="M93.875 170.088h-54.08a6.428 6.428 0 0 1-6.43-6.429V125.45h66.939v38.21a6.428 6.428 0 0 1-6.429 6.428z" mask="url(#b)"/><path stroke="#334B64" stroke-linecap="round" stroke-linejoin="round" stroke-width="2" d="M15.568 109.096H25.59m-5.012-5.01v10.023M16.112 85.95h5.88m-2.941-2.94v5.882m-9.214 7.373a2.074 2.074 0 1 1-4.147.001 2.074 2.074 0 0 1 4.147 0z" mask="url(#b)"/><path fill="#FFF" d="M104.966 184.204H28.704a2.559 2.559 0 0 1-2.551-2.55v-9.015a2.559 2.559 0 0 1 2.55-2.55h76.263a2.559 2.559 0 0 1 2.55 2.55v9.015a2.559 2.559 0 0 1-2.55 2.55" mask="url(#b)"/><path stroke="#334B64" stroke-linecap="round" stroke-linejoin="round" stroke-width="2" d="M104.966 184.204H28.704a2.559 2.559 0 0 1-2.551-2.55v-9.015a2.559 2.559 0 0 1 2.55-2.55h76.263a2.559 2.559 0 0 1 2.55 2.55v9.015a2.559 2.559 0 0 1-2.55 2.55z" mask="url(#b)"/><path fill="#334B64" d="M101.79 181.434H31.88a2.558 2.558 0 0 1-2.55-2.55v-3.475a2.558 2.558 0 0 1 2.55-2.55h69.91a2.559 2.559 0 0 1 2.55 2.55v3.474a2.559 2.559 0 0 1-2.55 2.551" mask="url(#b)"/><path fill="#E4E4E6" d="M99.393 140.417H86.99a3.043 3.043 0 0 1-3.035-3.035v-1.266h15.438v4.3z" mask="url(#b)"/><path stroke="#344B63" stroke-linecap="round" stroke-linejoin="round" stroke-width="2" d="M69.353 50.26s-.817 15.112 7.85 24.112c8.67 8.999 11.403 28.865 11.403 28.865m14.076-71.587S89.168 42.28 91.68 64.694c2.512 22.412-3.074 41.594-3.074 41.594" mask="url(#b)"/><path fill="#57D3D2" d="M67.644 46.268l3.45.043c.9.01 1.723.518 2.139 1.32l.75 1.45a1.463 1.463 0 0 1-1.317 2.137l-6.663-.083a1.464 1.464 0 0 1-1.284-2.131l.72-1.407a2.444 2.444 0 0 1 2.205-1.33" mask="url(#b)"/><path stroke="#344B63" stroke-linecap="round" stroke-linejoin="round" stroke-width="2" d="M67.644 46.268l3.45.043c.9.01 1.723.518 2.139 1.32l.75 1.45a1.463 1.463 0 0 1-1.317 2.137l-6.663-.083a1.464 1.464 0 0 1-1.284-2.131l.72-1.407a2.444 2.444 0 0 1 2.205-1.33z" mask="url(#b)"/><path fill="#57D3D2" mask="url(#b)" d="M59.419 35.963l-12.468-.156 21.911-14.934 6.775 10.441 15.059.188-21.194 16.526z"/><path stroke="#344B63" stroke-linecap="round" stroke-linejoin="round" stroke-width="2" mask="url(#b)" d="M59.419 35.963l-12.468-.156 21.911-14.934 6.775 10.441 15.059.188-21.194 16.526z"/><g mask="url(#b)"><path fill="#57D3D2" d="M73.66 28.267l4.215 6.765"/><path stroke="#344B63" stroke-linecap="round" stroke-linejoin="round" stroke-width="2" d="M73.66 28.267l4.215 6.765"/></g><g mask="url(#b)"><path fill="#57D3D2" d="M63.67 36.007l-7.97-.081"/><path stroke="#344B63" stroke-linecap="round" stroke-linejoin="round" stroke-width="2" d="M63.67 36.007l-7.97-.081"/></g><path fill="#E3E3E6" d="M100.116 26.71l3.447-.12a2.443 2.443 0 0 1 2.199 1.217l.819 1.415a1.463 1.463 0 0 1-1.215 2.196l-6.66.231a1.464 1.464 0 0 1-1.384-2.069l.654-1.438a2.443 2.443 0 0 1 2.14-1.433" mask="url(#b)"/><path stroke="#344B63" stroke-linecap="round" stroke-linejoin="round" stroke-width="2" d="M100.116 26.71l3.447-.12a2.443 2.443 0 0 1 2.199 1.217l.819 1.415a1.463 1.463 0 0 1-1.215 2.196l-6.66.231a1.464 1.464 0 0 1-1.384-2.069l.654-1.438a2.443 2.443 0 0 1 2.14-1.433z" mask="url(#b)"/><path fill="#E3E3E6" mask="url(#b)" d="M91.414 16.804l-12.461.432 21.184-15.95 7.259 10.111 15.052-.522-20.393 17.506z"/><path stroke="#344B63" stroke-linecap="round" stroke-linejoin="round" stroke-width="2" mask="url(#b)" d="M91.414 16.804l-12.461.432 21.184-15.95 7.259 10.111 15.052-.522-20.393 17.506z"/><g mask="url(#b)"><path fill="#E3E3E6" d="M105.278 8.446l4.528 6.558"/><path stroke="#344B63" stroke-linecap="round" stroke-linejoin="round" stroke-width="2" d="M105.278 8.446l4.528 6.558"/></g><g mask="url(#b)"><path fill="#E3E3E6" d="M95.663 16.648l-7.964.293"/><path stroke="#344B63" stroke-linecap="round" stroke-linejoin="round" stroke-width="2" d="M95.663 16.648l-7.964.293"/></g><path fill="#00B2B2" d="M121.322 138.295H87.425a2.559 2.559 0 0 1-2.551-2.55V118.93a2.559 2.559 0 0 1 2.55-2.55h33.898a2.558 2.558 0 0 1 2.551 2.55v16.813a2.558 2.558 0 0 1-2.55 2.551" mask="url(#b)"/><path stroke="#334B64" stroke-width="2" d="M121.322 138.295H87.425a2.559 2.559 0 0 1-2.551-2.55V118.93a2.559 2.559 0 0 1 2.55-2.55h33.898a2.558 2.558 0 0 1 2.551 2.55v16.813a2.558 2.558 0 0 1-2.55 2.551z" mask="url(#b)"/><path fill="#FFF" mask="url(#b)" d="M89.36 128.083h5.216v-1.665H89.36zM100.472 132.256h-2.379v-7.107H98c-.243.344-.919.739-2.01.739v-1.898c1.198 0 2.103-.924 2.112-1.698h2.37v9.964zm2.233-2.928h2.335c.035.734.671 1.215 1.445 1.215.91 0 1.552-.642 1.548-1.596.004-.957-.648-1.604-1.562-1.604-.584-.005-1.139.272-1.406.72l-2.126-.4.432-5.372h6.394v1.942h-4.412l-.23 2.35h.059c.33-.55 1.113-.953 2.057-.953 1.79 0 3.114 1.353 3.114 3.25 0 2.053-1.547 3.513-3.868 3.513-2.179 0-3.751-1.274-3.78-3.065m13.999 1.557c.002.307.12.65.528.65.414 0 .532-.332.525-.65v-.386c.007-.317-.097-.663-.525-.663-.404 0-.526.346-.528.663v.386zm-1.14-.386c.004-.902.601-1.676 1.668-1.676 1.093 0 1.682.762 1.674 1.676v.386c.008.904-.595 1.68-1.674 1.68-1.082 0-1.664-.776-1.667-1.68v-.386zm-2.642-3.8c.007.319.125.652.517.652.416 0 .533-.333.526-.651v-.386c.007-.317-.096-.663-.526-.663-.402 0-.51.357-.517.663v.386zm4.25-1.755h.974l-5.028 7.312h-.973l5.027-7.312zm-5.399 1.37c.006-.914.61-1.676 1.666-1.676 1.097 0 1.683.762 1.68 1.676v.386c.003.914-.597 1.665-1.68 1.665-1.08 0-1.66-.761-1.666-1.665v-.386z"/></g></svg>