<svg xmlns="http://www.w3.org/2000/svg" width="240" height="240" viewBox="0 0 240 240">
  <g fill="none" fill-rule="evenodd">
    <g stroke="#344B63" stroke-linecap="round" stroke-width="2" transform="translate(90 65)">
      <path fill="#C0C0C4" d="M4,68.809 L10.2755515,64.766 L13.8805072,63.379 L18.3162264,62.273 L22.1971071,62 L26.1068753,62.005 C27.1767074,62.007 28.2435512,62.126 29.2874842,62.361 L30.5565401,62.646 C31.6004732,62.88 32.6663208,62.999 33.737149,63 L37.5582626,63.006 L43.223193,64.153 L47.7525474,66.719 L52,69 L4,68.809 Z"/>
      <path fill="#FFF" d="M56.9959953,74.9999978 L2.99600187,74.9239735 C1.33900207,74.9210115 -0.00199776553,73.5930553 2.2342288e-06,71.9570526 C0.00300223387,70.3220373 1.34800207,68.997043 3.00500187,69.000005 L57.0039953,69.0760292 C58.6619951,69.0780039 60.002995,70.4069475 59.999995,72.0419628 C59.997995,73.6779655 58.6529951,75.0019725 56.9959953,74.9999978 Z"/>
      <polygon fill="#F7F7FA" points="50.708 117 9.161 116.94 3 75 57 75.077"/>
      <path fill="#57D3D2" stroke-linejoin="round" d="M31.3667 54.3661C31.3667 54.3661 35.9907 45.2721 45.5367 46.0081 45.5367 46.0081 44.1717 61.2461 31.3667 54.3661zM31.521 40.2821C31.521 40.2821 33.66 33.2531 40.522 32.5771 40.522 32.5771 41.464 43.5551 31.521 40.2821zM31.0835 40.4755C31.0835 40.4755 28.6315 32.3155 20.6925 31.5085 20.6925 31.5085 19.5645 44.2395 31.0835 40.4755z"/>
      <path d="M31.0015,25.9999 L30.9495,61.9999"/>
      <path fill="#57D3D2" stroke-linejoin="round" d="M31.3013,53.5956 C31.3013,53.5956 25.9913,44.8846 16.5303,46.3506 C16.5303,46.3506 19.0633,61.4396 31.3013,53.5956 Z"/>
      <path fill="#FFF" stroke-linejoin="round" d="M22.1617,6.3783 C25.6967,6.6033 28.6577,7.2043 31.1377,8.0233 C33.6607,7.1933 36.6827,6.5913 40.2937,6.3873 L37.8557,0.6993 C37.7937,0.7393 37.7307,0.7783 37.6677,0.8173 C37.6037,0.8573 37.5397,0.8953 37.4757,0.9323 L37.4757,0.9333 C37.4117,0.9703 37.3487,1.0073 37.2837,1.0443 C37.2197,1.0803 37.1537,1.1163 37.0887,1.1513 C37.0237,1.1863 36.9587,1.2213 36.8927,1.2543 C33.0657,3.2293 28.4547,3.0583 24.8007,0.7993 C24.7367,0.7603 24.6747,0.7203 24.6107,0.6803 L22.1617,6.3783 Z"/>
      <path fill="#FFF" stroke-linejoin="round" d="M30.9849,29.4051 C37.5859,29.4151 42.9929,24.2231 43.0019,17.8671 L43.0179,6.31204715 C38.1159,6.3051 34.1729,6.9941 31.0149,8.0391 C21.2939,11.2531 19.0019,17.8331 19.0019,17.8331 C18.9929,24.1881 24.3849,29.3961 30.9849,29.4051 Z"/>
      <path fill="#FFF" stroke-linejoin="round" d="M18.9849,17.8334 C18.9849,17.8334 21.2769,11.2534 30.9989,8.0394 C27.8439,6.9854 23.9039,6.2854 19.0019,6.2784 L18.9849,17.8334 Z"/>
    </g>
    <g stroke="#344B63" stroke-linecap="round" stroke-width="2" opacity=".5" transform="translate(21 113)">
      <g transform="translate(138)">
        <path fill="#D8D8D8" d="M29,14.699 C29,14.699 31.97,4.939 41.498,4 C41.498,4 42.808,19.244 29,14.699 Z"/>
        <path fill="#C0C0C4" d="M6,20.809 L12.2755515,16.766 L15.8805072,15.379 L20.3162264,14.273 L24.1971071,14 L28.1068753,14.005 C29.1767074,14.007 30.2435512,14.126 31.2874842,14.361 L32.5565401,14.646 C33.6004732,14.88 34.6663208,14.999 35.737149,15 L39.5582626,15.006 L45.223193,16.153 L49.7525474,18.719 L54,21 L6,20.809 Z"/>
        <path fill="#FFF" d="M56.9959953,26.9999978 L2.99600187,26.9239735 C1.33900207,26.9210115 -0.00199776553,25.5930553 2.2342288e-06,23.9570526 C0.00300223387,22.3220373 1.34800207,20.997043 3.00500187,21.000005 L57.0039953,21.0760292 C58.6619951,21.0780039 60.002995,22.4069475 59.999995,24.0419628 C59.997995,25.6779655 58.6529951,27.0019725 56.9959953,26.9999978 Z"/>
        <polygon fill="#F7F7FA" points="50.708 69 9.161 68.94 3 27 57 27.077"/>
        <path d="M28.9725,6.9999449 L28.9725,13.8629"/>
        <path fill="#D8D8D8" d="M28.5032759,10.734 C28.5032759,10.734 25.5612759,0.966 16.0362759,0 C16.0362759,0 14.6832759,15.24 28.5032759,10.734 Z"/>
      </g>
      <g transform="translate(0 1)">
        <path fill="#E3E3E6" d="M27,14.1022255 C27,14.1022255 30.105387,3.94489242 39.9689488,3 C39.9689488,3 41.2717419,18.8850272 27,14.1022255 Z"/>
        <path fill="#E3E3E6" d="M27.5925228,14 C27.5925228,14 17.9499366,9.90291836 18.0001958,0 C18.0001958,0 33.690297,0.279275951 27.5925228,14 Z"/>
        <path fill="#C0C0C4" d="M6,19.809 L12.2755515,15.766 L15.8805072,14.379 L20.3162264,13.273 L24.1971071,13 L28.1068753,13.005 C29.1767074,13.007 30.2435512,13.126 31.2874842,13.361 L32.5565401,13.646 C33.6004732,13.88 34.6663208,13.999 35.737149,14 L39.5582626,14.006 L45.223193,15.153 L49.7525474,17.719 L54,20 L6,19.809 Z"/>
        <path fill="#FFF" d="M56.9959953,25.9999978 L2.99600187,25.9239735 C1.33900207,25.9210115 -0.00199776553,24.5930553 2.2342288e-06,22.9570526 C0.00300223387,21.3220373 1.34800207,19.997043 3.00500187,20.000005 L57.0039953,20.0760292 C58.6619951,20.0780039 60.002995,21.4069475 59.999995,23.0419628 C59.997995,24.6779655 58.6529951,26.0019725 56.9959953,25.9999978 Z"/>
        <polygon fill="#F7F7FA" points="50.708 68 9.161 67.94 3 26 57 26.077"/>
      </g>
    </g>
    <g stroke="#344B63" stroke-linecap="round" stroke-width="2" transform="translate(82 39)">
      <path fill="#FFF" d="M57,19.657 C57,19.657 60.001,9.907 69.533,9 C69.533,9 70.792,24.248 57,19.657 Z" transform="rotate(-80 63.282 14.76)"/>
      <path d="M15.3480759,7.51801791 C15.3480759,7.51801791 16.7701139,1.60041656 21.3321265,1.03108996 C21.3321265,1.03108996 21.9593554,10.2737042 15.3480759,7.51801791" transform="rotate(-150 18.348 4.531)"/>
      <path d="M7.42125548,61.3856412 C7.42125548,61.3856412 5.67512053,55.5746863 0.02154574,55 C0.02154574,55 -0.781733308,64.0660865 7.42125548,61.3856412"/>
      <path fill="#FFF" d="M58,126.657 C58,126.657 61.001,116.907 70.533,116 C70.533,116 71.792,131.248 58,126.657 Z" transform="rotate(-100 64.282 121.76)"/>
    </g>
    <g transform="translate(20 177)">
      <path fill="#E3E3E6" d="M0,0 L200,0 L200,16 C200,19.3137085 197.313708,22 194,22 L6,22 C2.6862915,22 4.05812251e-16,19.3137085 0,16 L0,0 Z"/>
      <path fill="#FFF" stroke="#344B63" stroke-linecap="round" stroke-width="2" d="M194.285667,5.99161183 L5.70599992,5.71438817 C2.55465425,5.7097555 0.00373079193,3.15134571 0.00833298613,2.77555756e-16 L200,0.294 L200,0.294 C199.995398,3.44530631 197.437029,5.99621405 194.285722,5.99161191 C194.285704,5.99161188 194.285685,5.99161186 194.285667,5.99161183 Z"/>
      <polygon fill="#C0C0C4" stroke="#C0C0C4" stroke-linecap="round" stroke-width="2" points="10.992 16 5 15.991 5.008 10 11 10.009"/>
      <polygon fill="#C0C0C4" stroke="#C0C0C4" stroke-linecap="round" stroke-width="2" points="194.991 16 189 15.991 189.009 10 195 10.009"/>
      <polygon fill="#C0C0C4" stroke="#344B63" stroke-linecap="round" stroke-width="2" points="10.992 12 5 11.991 5.008 6 11 6.009"/>
      <polygon fill="#C0C0C4" stroke="#344B63" stroke-linecap="round" stroke-width="2" points="194.991 12 189 11.991 189.009 6 195 6.009"/>
    </g>
  </g>
</svg>
