<svg width="241" height="120" viewBox="0 0 241 120" fill="none" xmlns="http://www.w3.org/2000/svg">
<path d="M10.5 112H230.5" stroke="#1A1C20" stroke-width="2" stroke-linecap="round"/>
<path d="M190.345 68.1323L213.5 77C215.833 77.883 215.508 79.3455 215.508 81.8398V88.0014L219 88C221 88 221.5 89 221.5 90.5L221.508 97.508C221.508 99.1648 221.665 100.008 220.008 100.008L215.508 100.008H208.008H205.508C204.403 100.008 203.52 99.1091 203.398 98.0112C202.405 89.0097 194.774 82.0079 185.508 82.0079C176.242 82.0079 168.611 89.0097 167.617 98.0112C167.496 99.1091 166.613 100.008 165.508 100.008H158.508C155.194 100.008 155.508 99.8217 155.508 96.5079L155.508 52.0079C155.508 48.6942 155.694 49.008 159.008 49.008L166.008 49.008L176.35 49.0008C177.062 49.0003 177.721 49.3782 178.079 49.9931L181 55H167.5C166.395 55 165.5 55.8954 165.5 57V66C165.5 67.1046 166.395 68 167.5 68H189.63C189.875 68 190.117 68.0448 190.345 68.1323Z" fill="#57D3D2"/>
<path d="M167.5 100H157.5C156.395 100 155.5 99.1046 155.5 98V51C155.5 49.8954 156.395 49 157.5 49H176.488C177.182 49 177.827 49.36 178.191 49.9511L188.646 66.9246C188.875 67.2978 189.222 67.5852 189.631 67.7425L214.218 77.1945C214.99 77.4915 215.5 78.2337 215.5 79.0613V89" stroke="#1A1C20" stroke-width="2" stroke-linecap="round"/>
<path d="M203.5 100C203.5 90.0589 195.441 82 185.5 82C175.559 82 167.5 90.0589 167.5 100" stroke="#1A1C20" stroke-width="2" stroke-linecap="round"/>
<path d="M203.5 101C202.948 101 202.5 100.552 202.5 100C202.5 99.4477 202.948 99 203.5 99V101ZM200.5 90H199.5V88H200.5V90ZM203.5 99H219.5V101H203.5V99ZM219.5 99V90H221.5V99H219.5ZM219.5 90H200.5V88H219.5V90ZM219.5 90V90V88C220.605 88 221.5 88.8954 221.5 90H219.5ZM219.5 99H219.5H221.5C221.5 100.105 220.605 101 219.5 101V99Z" fill="#1A1C20"/>
<path d="M166.5 73H174.5" stroke="#1A1C20" stroke-width="2" stroke-linecap="round"/>
<path d="M189.5 66.9149L192.941 62" stroke="#1A1C20" stroke-width="2" stroke-linecap="round"/>
<path d="M193.221 64.4575V58.4575" stroke="#1A1C20" stroke-width="2" stroke-linecap="round"/>
<path d="M190 68H167.5C166.395 68 165.5 67.1046 165.5 66V57C165.5 55.8954 166.395 55 167.5 55H181" stroke="#1A1C20" stroke-width="2" stroke-linecap="round"/>
<path d="M145 40V98C145 99.1046 144.105 100 143 100H75.5C74.9477 100 74.5029 99.5515 74.4724 99.0001C73.943 89.4229 65.858 82 56.5 82C47.142 82 39.057 89.4229 38.5276 99.0001C38.4971 99.5515 38.0523 100 37.5 100H22.5C21.9477 100 21.5 99.5523 21.5 99L21.5 91C21.5 90.4477 21.9477 90 22.5 90H29.5C30.0523 90 30.5 89.5523 30.5 89L30.5 14C30.5 12.8954 31.3954 12 32.5 12L175.5 12C176.605 12 177.5 12.8954 177.5 14V37C177.5 38.6759 176.614 39 175 39H146C145.448 39 145 39.4477 145 40Z" fill="white"/>
<path d="M74.5 100C74.5 90.0589 66.4411 82 56.5 82C46.5589 82 38.5 90.0589 38.5 100" stroke="#1A1C20" stroke-width="2" stroke-linecap="round"/>
<path d="M38.5 101C39.0523 101 39.5 100.552 39.5 100C39.5 99.4477 39.0523 99 38.5 99V101ZM41 91H42V89H41V91ZM38.5 99H22.5V101H38.5V99ZM22.5 99V91H20.5V99H22.5ZM22.5 91H41V89H22.5V91ZM22.5 91V91V89C21.3954 89 20.5 89.8954 20.5 91H22.5ZM22.5 99H22.5H20.5C20.5 100.105 21.3954 101 22.5 101V99Z" fill="#1A1C20"/>
<path d="M127.5 39H156.5" stroke="#1A1C20" stroke-width="2" stroke-linecap="round"/>
<path d="M10.5 39H45.5" stroke="#1A1C20" stroke-width="2" stroke-linecap="round"/>
<path d="M16.5 31H51.5" stroke="#1A1C20" stroke-width="2" stroke-linecap="round"/>
<path d="M72 90H145.5" stroke="#1A1C20" stroke-width="2" stroke-linecap="round"/>
<path d="M74.5 100H143.5C144.605 100 145.5 99.1046 145.5 98V39H175.5C176.605 39 177.5 38.1046 177.5 37V14C177.5 12.8954 176.605 12 175.5 12H32.5C31.3954 12 30.5 12.8954 30.5 14V89" stroke="#1A1C20" stroke-width="2" stroke-linecap="round"/>
<path d="M88.5 67L77.5 50H88.5V67Z" fill="#00B2B2"/>
<path d="M88.5 49H62.5L88.5 32V49Z" fill="#00B2B2"/>
<path d="M89.5 32L105.414 56.5946L89.5 67L89.5 32Z" fill="#00B2B2"/>
<path d="M106.251 56.0473L115.5 50L102.338 50L106.251 56.0473Z" fill="#00B2B2"/>
<circle cx="185.5" cy="99" r="12" fill="#E4E4E6" stroke="#1A1C20" stroke-width="2"/>
<circle cx="185.5" cy="99" r="5" fill="white" stroke="#1A1C20" stroke-width="2"/>
<circle cx="56.5" cy="99" r="12" fill="#E4E4E6" stroke="#1A1C20" stroke-width="2"/>
<circle cx="56.5" cy="99" r="5" fill="white" stroke="#1A1C20" stroke-width="2"/>
</svg>
