<svg xmlns="http://www.w3.org/2000/svg" width="240" height="240" viewBox="0 0 240 240">
  <g fill="none" fill-rule="evenodd">
    <path stroke="#344B63" stroke-linecap="round" stroke-width="2" d="M43 187L143 187M161 187L203 187"/>
    <g transform="scale(-1 1) rotate(-45 91.579 344.438)">
      <path fill="#E3E3E6" stroke="#344B63" stroke-width="2" d="M52.3816249,17.2981274 L52.3816249,6.99722798 C52.3816249,5.34037373 51.0384792,3.99722798 49.3816249,3.99722798 L40.2804685,3.99722798 C38.6236143,3.99722798 37.2804685,5.34037373 37.2804685,6.99722798 L37.2804685,17.2981274 L32.4302758,17.2981274 L32.4302758,6.14703525 C32.4302758,2.281042 35.5642825,-0.852964755 39.4302758,-0.852964755 L50.2318177,-0.852964755 C54.0978109,-0.852964755 57.2318177,2.281042 57.2318177,6.14703525 L57.2318177,17.2981274 L52.3816249,17.2981274 Z"/>
      <path fill="#E3E3E6" stroke="#344B63" stroke-linecap="round" stroke-linejoin="round" stroke-width="2" d="M90.4840662,21.9985129 C90.4840662,22.7902331 90.4840662,22.7902331 90.4840662,26.7488341 L90.4840662,27.7488341 L-0.821972757,27.7488341 L-0.821972757,21.3827224 L-0.272090984,21.1055439 C12.1699636,14.8338864 27.6641413,11.4978704 44.3975223,11.4978704 C48.9368511,11.4978704 54.4606983,12.1550184 60.7616741,13.3593942 C64.837071,14.1383703 69.141884,15.1283538 73.5765236,16.2803135 C77.5920454,17.3234015 81.4929863,18.4407478 85.1273034,19.5581994 C86.3997218,19.9494327 87.5482014,20.3128261 88.5536936,20.6391084 C88.9060709,20.7534549 89.2155422,20.8550423 89.4797251,20.9427118 C89.6389214,20.9955413 89.7480568,21.0321324 89.8047481,21.0513259 L90.4840662,21.2813175 L90.4840662,21.9985129 Z"/>
      <path fill="#FFF" d="M64.2877635,19.1245722 C70.2350349,19.3851062 75.8228606,22.0446483 79.7754976,26.4960049 L80,26.7488341 L0.178027243,26.7488341 L0.178027243,21.9985129 C6.41112798,18.4832909 27.7810401,17.5253107 64.2877635,19.1245722 Z"/>
    </g>
    <g transform="translate(44 102)">
      <path fill="#FFF" stroke="#344B63" stroke-width="2" d="M-1.10799148,-1 L91.1211825,-1 L82.0753272,77.9111012 C81.6122865,81.9504157 78.193146,85 74.1273782,85 L14.9469516,85 C10.8452098,85 7.40799396,81.8977958 6.98883317,77.8175274 L-1.10799148,-1 Z"/>
      <path fill="#E3E3E6" d="M23.1580804,0 L90,0 L81.0818336,77.7972135 C80.676673,81.3316137 77.684925,84 74.1273782,84 L68.5513562,84 C70.5842401,84 72.2938103,82.4752078 72.5253307,80.4555506 L78.9813379,21.9707614 C79.8297017,14.2854576 74.2872668,7.36755319 66.601963,6.51918941 C66.5781862,6.51656474 66.5544027,6.51400102 66.5306128,6.51149826 L23,1.93197969 C23.04882,1.27686255 23.1015135,0.632869323 23.1580804,0 Z"/>
    </g>
    <g stroke="#344B63" stroke-width="2" transform="translate(34 96)">
      <path fill="#E3E3E6" d="M2,1 L107,1 L107,2.5 C107,5.53756612 104.537566,8 101.5,8 L7.5,8 C4.46243388,8 2,5.53756612 2,2.5 L2,1 Z"/>
      <path stroke-linecap="round" d="M0,1 L109,1"/>
    </g>
    <g stroke="#344B63" stroke-linecap="round" stroke-linejoin="round" stroke-width="2" transform="translate(65 120)">
      <path fill="#57D3D2" d="M39,32 L35,27.9424985 L43,19.9424985 L46.1663727,23.7603595 C48.4012051,26.1983586 48.6247643,29.8678284 46.702428,32.5590993 L46.25,33.1924985 L43.0391178,38.5439687 C41.7740551,40.6524066 39.4955073,41.9424985 37.0366673,41.9424985 L31,41.9424985 L31,47.9424985 L23,36.9424985 L31,25.9424985 L31,32 L39,32 Z M24.5233291,7.73781383 L19.1924023,13.7800576 L10.8905969,6.56340823 L13.877443,3.23314233 C15.4692571,1.55510762 17.8226154,0.366549391 20.0579622,0.395219731 L27.6657527,0.000818473476 C30.1241905,-0.0436493385 32.4523829,1.7300085 33.7553696,3.81522305 L36.9543159,8.9346073 L42.0426045,5.75509171 L36.9534295,18.3685884 L23.3855463,17.4133155 L28.4738349,14.2337999 L24.5233291,7.73781383 Z M7.66538275,32 L14,32 L14,42.9424985 L9.08221624,42.9424985 C5.84349733,42.8016846 2.6719207,40.6904973 2.03546989,37.5346833 L0.209150943,30.1012044 C-0.387205344,27.7157793 0.311738563,25.19237 2.05040098,23.4537076 L6.31896939,19.1851391 L2.07632871,14.9424985 L15.5113575,17.0638188 L17.6326779,30.4988476 L13.3900372,26.256207 L7.66538275,32 Z"/>
      <path d="M28.4586157 14.2104794L23 5 28.4586157 14.2104794zM11.5006522 32L6 32 11.5006522 32zM42.5006522 32L37 32 42.5006522 32z"/>
    </g>
    <g fill-rule="nonzero" transform="translate(24 51)">
      <path fill="#F7F7FA" stroke="#344B63" stroke-width="2" d="M63.2356487,49.6253624 L18.1854078,63.3986032 C15.5315268,64.2629897 12.7299659,62.9942777 11.9244794,60.5632856 L3.16009848,31.8962874 C2.46848352,29.4304812 4.081628,26.8120584 6.76515389,26.0446358 L51.8153948,12.271395 C54.4692758,11.4070085 57.2708367,12.6757204 58.0763232,15.1067126 L66.8407041,43.7737108 C67.532319,46.239517 65.9191746,48.8579398 63.2356487,49.6253624 Z"/>
      <path fill="#FFF" stroke="#344B63" stroke-width="2" d="M52.79,55.0010218 L5.21,55.0010218 C2.33,55.0010218 0,51.7610218 0,49.0010218 L0,17.0010218 C0.0601329566,14.1825484 2.3914377,11.9452118 5.21,12.0010218 L52.79,12.0010218 C55.6085623,11.9452118 57.939867,14.1825484 58,17.0010218 L58,49.0010218 C58,51.7610218 55.67,55.0010218 52.79,55.0010218 Z"/>
      <path fill="#57D3D2" stroke="#344B63" stroke-width="2" d="M58,22 L0,22 L0,9.91 C0,6.64599713 2.64599713,4 5.91,4 L52.09,4 C55.3540029,4 58,6.64599713 58,9.91 L58,22 Z"/>
      <rect width="11" height="3" x="8" y="8" fill="#344B63" rx="1.5"/>
      <rect width="11" height="3" x="39" y="8" fill="#344B63" rx="1.5"/>
      <path fill="#FFF" stroke="#344B63" stroke-width="2" d="M12.81 0L14.19 0C15.1896354 0 16 .810364603 16 1.81L16 10 11 10 11 1.81C11 .810364603 11.8103646 0 12.81 0zM43.81 0L45.19 0C46.1896354 0 47 .810364603 47 1.81L47 10 42 10 42 1.81C42 .810364603 42.8103646 0 43.81 0z"/>
    </g>
  </g>
</svg>
