<svg xmlns="http://www.w3.org/2000/svg" xmlns:xlink="http://www.w3.org/1999/xlink" width="240" height="240" viewBox="0 0 240 240">
  <defs>
    <path id="goodbye-a" d="M187.553,93.776 C187.553,41.984 145.568,-5.68434189e-14 93.776,-5.68434189e-14 C41.985,-5.68434189e-14 -5.68434189e-14,41.984 -5.68434189e-14,93.776 C-5.68434189e-14,145.568 41.985,187.553 93.776,187.553 C145.568,187.553 187.553,145.568 187.553,93.776"/>
  </defs>
  <g fill="none" fill-rule="evenodd">
    <g transform="translate(26.223 27.224)">
      <mask id="goodbye-b" fill="#fff">
        <use xlink:href="#goodbye-a"/>
      </mask>
      <use fill="#ECECED" xlink:href="#goodbye-a"/>
      <g mask="url(#goodbye-b)">
        <g transform="translate(95.777 37.776)">
          <path fill="#FFF" d="M87.9995,16.876 C87.9995,7.555 80.3885,0 70.9995,0 C61.6105,0 53.9995,7.555 53.9995,16.876 L53.9995,21 L53.9995,25.332 C51.8095,24.003 49.2485,23.224 46.4995,23.224 C38.4915,23.224 31.9995,29.716 31.9995,37.724 L31.9995,49 L60.9995,49 L60.9995,39.967 C62.5235,40.624 64.2125,41 65.9995,41 C72.5365,41 77.8425,36.096 77.9855,30 L87.9995,30 L87.9995,16.876 Z"/>
          <polygon fill="#FFF" stroke="#344B63" stroke-width="2" points="68.999 71.999 40.999 71.999 35.999 58.999 63.999 58.999"/>
          <path fill="#FFF" d="M25.0669,71.7891 C25.0669,73.7221 23.7239,75.2891 22.0669,75.2891 C20.4099,75.2891 19.0669,73.7221 19.0669,71.7891 C19.0669,69.8561 20.4099,68.2891 22.0669,68.2891 C23.7239,68.2891 25.0669,69.8561 25.0669,71.7891"/>
          <path stroke="#344B63" stroke-width="2" d="M25.0669,71.7891 C25.0669,73.7221 23.7239,75.2891 22.0669,75.2891 C20.4099,75.2891 19.0669,73.7221 19.0669,71.7891 C19.0669,69.8561 20.4099,68.2891 22.0669,68.2891 C23.7239,68.2891 25.0669,69.8561 25.0669,71.7891 Z"/>
          <polygon fill="#FFF" stroke="#344B63" stroke-width="2" points="82.339 71.999 67.813 71.999 63.813 58.999 77.867 58.999"/>
          <polygon fill="#8F9EAE" points="60.999 49 63.999 59 35.999 59 32 49"/>
          <polygon stroke="#344B63" stroke-width="2" points="60.999 49 63.999 59 35.999 59 32 49"/>
          <g transform="translate(0 71)">
            <polyline fill="#64788F" points="102 1 0 1 23 29 102 29"/>
            <polyline stroke="#344B63" stroke-width="2" points="102 1 0 1 23 29 102 29"/>
          </g>
          <g transform="translate(12 92)">
            <path fill="#ECECED" d="M39.1055,10.9995 C39.1205,10.7865 39.1475,10.5755 39.1475,10.3575 C39.1475,5.0815 34.8695,0.8035 29.5925,0.8035 C25.9155,0.8035 22.7275,2.8835 21.1305,5.9295 C19.8785,4.4645 18.0215,3.5335 15.9435,3.5335 C13.2165,3.5335 10.8715,5.1355 9.7775,7.4465 C8.8465,6.7075 7.6705,6.2625 6.3895,6.2625 C3.6195,6.2625 1.3375,8.3265 0.9825,10.9995"/>
            <path stroke="#344B63" stroke-linecap="round" stroke-width="2" d="M39.1055,10.9995 C39.1205,10.7865 39.1475,10.5755 39.1475,10.3575 C39.1475,5.0815 34.8695,0.8035 29.5925,0.8035 C25.9155,0.8035 22.7275,2.8835 21.1305,5.9295 C19.8785,4.4645 18.0215,3.5335 15.9435,3.5335 C13.2165,3.5335 10.8715,5.1355 9.7775,7.4465 C8.8465,6.7075 7.6705,6.2625 6.3895,6.2625 C3.6195,6.2625 1.3375,8.3265 0.9825,10.9995"/>
          </g>
          <path stroke="#344B63" stroke-linecap="round" stroke-width="1.5" d="M27.2866,64.7446 C27.7046,66.5956 26.7586,69.0536 24.6156,69.2546"/>
          <path fill="#FFF" d="M24.0669,65.9995 C24.0669,67.3805 23.1709,68.4995 22.0669,68.4995 C20.9619,68.4995 20.0669,67.3805 20.0669,65.9995 C20.0669,64.6185 20.9619,63.4995 22.0669,63.4995 C23.1709,63.4995 24.0669,64.6185 24.0669,65.9995"/>
          <path stroke="#344B63" stroke-width="1.5" d="M24.0669,65.9995 C24.0669,67.3805 23.1709,68.4995 22.0669,68.4995 C20.9619,68.4995 20.0669,67.3805 20.0669,65.9995 C20.0669,64.6185 20.9619,63.4995 22.0669,63.4995 C23.1709,63.4995 24.0669,64.6185 24.0669,65.9995 Z"/>
          <path fill="#FFF" d="M34.9995 81.9995C34.9995 83.1035 34.1035 83.9995 32.9995 83.9995 31.8955 83.9995 30.9995 83.1035 30.9995 81.9995 30.9995 80.8955 31.8955 79.9995 32.9995 79.9995 34.1035 79.9995 34.9995 80.8955 34.9995 81.9995M47.9995 81.9995C47.9995 83.1035 47.1035 83.9995 45.9995 83.9995 44.8955 83.9995 43.9995 83.1035 43.9995 81.9995 43.9995 80.8955 44.8955 79.9995 45.9995 79.9995 47.1035 79.9995 47.9995 80.8955 47.9995 81.9995M59.9995 81.9995C59.9995 83.1035 59.1035 83.9995 57.9995 83.9995 56.8955 83.9995 55.9995 83.1035 55.9995 81.9995 55.9995 80.8955 56.8955 79.9995 57.9995 79.9995 59.1035 79.9995 59.9995 80.8955 59.9995 81.9995"/>
        </g>
      </g>
      <g stroke="#344B63" stroke-width="2" mask="url(#goodbye-b)">
        <g transform="translate(33.777 152.776)">
          <path fill="#FFF" d="M0,6 L76,6 L76,3 C76,1.343 74.656,0 73,0 L0,0 L0,6 Z"/>
          <polygon fill="#64788F" points="33 41.001 36 41.001 36 8.001 33 8.001"/>
          <polygon fill="#64788F" points="64 41.001 67 41.001 67 8.001 64 8.001"/>
        </g>
      </g>
      <g mask="url(#goodbye-b)">
        <g transform="translate(12.276 44.416)">
          <g transform="translate(8 89.36)">
            <polygon fill="#64788F" stroke="#344B63" stroke-width="2" points=".5 60.001 31.5 60.001 31.5 .001 .5 .001"/>
            <line x1="6.5" x2="6.5" y1="14" y2="60" stroke="#344B63" stroke-linecap="round" stroke-width="2"/>
          </g>
          <g transform="translate(0 22.398)">
            <path fill="#FFF" stroke="#344B63" stroke-width="2" d="M1.1189,28.3769 C0.9129,45.0169 4.3219,57.5339 6.2969,59.9809 L20.8209,57.3829 L16.5239,29.6429 L6.4759,18.5389 L1.1189,28.3769 Z"/>
            <path fill="#FFF" stroke="#344B63" stroke-width="2" d="M10.363,1.42108547e-14 C4,5.731 5.96855898e-13,19.931 5.96855898e-13,28.451 C2,28.451 7,27.504 8,26.558 C9,20.877 10.363,1.42108547e-14 10.363,1.42108547e-14 Z"/>
          </g>
          <path fill="#FFF" stroke="#344B63" stroke-width="2" d="M7.4997,93.9529817 C4.4997,60.9529817 -0.7793,14.8959817 21.4837,14.4869817 C46.3927,14.0279817 41.4997,62.9529817 41.4997,92.9529817 C20.4997,97.9529817 15.4997,94.9529817 7.4997,93.9529817 Z"/>
          <g transform="translate(18.515)">
            <path fill="#57D3D2" d="M50.8945935,29.1497817 C51.4725935,24.9767817 54.5415935,15.4647817 61.5605935,15.6217817 C68.5805935,15.7787817 72.5625935,17.1147817 78.5945935,11.6877817 C84.6265935,6.25878173 87.0245935,6.68278173 89.8905935,6.81878173 C88.4255935,8.87278173 87.0085935,11.5417817 87.0085935,11.5417817 C90.4705935,13.0687817 90.8535935,12.6637817 90.7615935,14.0687817 C90.6685935,15.4747817 89.8175935,19.5757817 89.8175935,19.5757817 C85.6635935,18.3747817 83.4675935,18.2607817 80.4405935,21.3697817 C77.4145935,24.4787817 73.0565935,25.4317817 66.1165935,23.3877817 C59.1765935,21.3437817 55.7165935,26.2617817 55.0765935,28.4717817 C54.4365935,30.6817817 50.8945935,29.1497817 50.8945935,29.1497817"/>
            <path fill="#FFF" stroke="#344B63" stroke-width="2" d="M50.3588935,22.0813817 C53.0948935,24.2283817 52.0828935,26.7073817 48.7568935,28.7803817 C50.9058935,28.9243817 52.4118935,28.9803817 55.1468935,29.0743817 C56.7928935,29.1313817 57.6668935,31.0433817 56.6328935,32.3273817 L52.2968935,37.7153817 C51.7008935,38.4563817 50.7888935,38.8703817 49.8378935,38.8313817 L41.3978935,37.4883817 C38.1838935,45.5113817 29.9628935,65.4083817 13.6138935,73.5013817 C8.45789354,65.3933817 6.25989354,57.1153817 3.63989354,49.1363817 L14.1798935,43.4103817 C15.1348935,48.9893817 15.6958935,55.4923817 16.6598935,60.5293817 C25.2938935,56.1613817 36.3558935,38.5793817 42.2618935,27.7013817 C45.2768935,25.6713817 47.5608935,24.0043817 50.3588935,22.0813817 Z"/>
            <path fill="#FFF" stroke="#344B63" stroke-width="2" d="M17.6127935,44.0290817 C14.4937935,46.9050817 7.33779354,50.6170817 1.30179354,51.3730817 C-1.16820646,38.2620817 0.0457935398,25.9040817 3.51779354,21.4390817 C8.79779354,14.6470817 16.1417935,30.9590817 17.6127935,44.0290817 Z"/>
            <path stroke="#C0C0C4" stroke-linecap="round" d="M74.9843935 6.95298173C77.4843935 3.45298173 81.9843935 1.95298173 85.9843935 2.95298173M76.3173935 1.64878173C77.3023935.269781732 79.3573935-.196218268 80.6513935.0727817318M74.4843935 27.4529817C78.4843935 27.4529817 80.4843935 26.4529817 81.4843935 25.4529817M79.4843935 30.4529817C82.0553935 30.4529817 83.5083935 30.0879817 84.4843935 29.4529817"/>
          </g>
        </g>
      </g>
    </g>
    <g stroke="#344B63" transform="translate(39.068 40.313)">
      <path fill="#FFF" stroke-width="1.75" d="M32.7088031,19.731594 C33.7108031,22.161594 35.4238031,24.345594 36.4828031,25.561594 C36.7848031,25.906594 36.7708031,26.462594 36.4548031,26.818594 C34.6228031,28.883594 31.9048031,31.404594 31.9048031,31.404594 L32.7088031,19.731594 Z"/>
      <path fill="#FFF" stroke-width="2" d="M3.24390311,18.068094 C3.55290311,23.892094 9.38451553,27.6802035 9.79590311,31.404094 C10.9319031,41.687194 23.3129031,43.652094 27.6599031,40.806094 C37.7009031,34.231094 32.6359031,16.485094 30.6069031,11.384094 L3.24390311,18.068094 Z"/>
      <path fill="#344B63" stroke-linejoin="round" stroke-width="2" d="M9.60180311,2.26729403 C8.41180311,3.06729403 7.28180311,4.13729403 6.23180311,5.52729403 C-4.97819689,9.40729403 1.49190311,25.017194 9.93190311,32.687194 C10.9319031,30.687194 11.9319031,29.687194 13.4918031,29.377294 C8.08180311,28.997294 7.11180311,20.897294 14.0018031,21.217294 C14.0118031,21.217294 13.9718031,19.457294 13.7218031,16.937294 L14.7618031,16.837294 C22.0718031,16.057294 31.7018031,16.137294 36.3118031,3.72729403 C27.5918031,5.90729403 18.7518031,-3.98270597 9.60180311,2.26729403 Z"/>
    </g>
  </g>
</svg>
