<svg xmlns="http://www.w3.org/2000/svg" width="240" height="240" viewBox="0 0 240 240">
  <g fill="none" fill-rule="evenodd">
    <path fill="#FFF" stroke="#C0C0C4" stroke-width="2" d="M69.9036,42.1164 L68.4666,37.9804 C68.0136,36.6764 68.7036,35.2514 70.0076,34.7994 C71.3116,34.3454 72.7366,35.0354 73.1896,36.3404 L74.6266,40.4754 L69.9036,42.1164 Z"/>
    <path fill="#FFF" d="M79.3186,69.216 L67.9356,36.905 C67.6946,36.22 66.9436,35.86 66.2576,36.102 L41.6506,44.771 C38.8036,45.774 37.3096,48.894 38.3116,51.739 L49.3266,83.007 L77.3096,73.411 C79.0226,72.808 79.9226,70.93 79.3186,69.216"/>
    <path fill="#FFF" stroke="#C0C0C4" stroke-width="2" d="M79.3186,69.216 L67.9356,36.905 C67.6946,36.22 66.9436,35.86 66.2576,36.102 L41.6506,44.771 C38.8036,45.774 37.3096,48.894 38.3116,51.739 L49.3266,83.007 L77.3096,73.411 C79.0226,72.808 79.9226,70.93 79.3186,69.216 Z"/>
    <path fill="#FFF" stroke="#C0C0C4" stroke-width="2" d="M73.5085,71.507 L72.2005,67.743 L41.0285,78.573 L42.3415,82.352 L42.3425,82.351 C42.8955,83.914 44.7555,84.688 46.5065,84.08 L77.6785,73.25 C75.9225,73.861 74.0545,73.08 73.5085,71.507 Z"/>
    <path fill="#F7F7FA" d="M69.7751,34.8791 L64.1071,36.8491"/>
    <path stroke="#C0C0C4" stroke-width="2" d="M69.7751,34.8791 L64.1071,36.8491"/>
    <polygon fill="#FFF" points="73.359 39.852 70.519 40.839 70.192 39.899 73.032 38.913"/>
    <polygon stroke="#C0C0C4" stroke-linecap="round" stroke-linejoin="round" stroke-width="2" points="47.641 54.214 43.862 55.526 42.55 51.748 46.328 50.436"/>
    <polygon stroke="#C0C0C4" stroke-linecap="round" stroke-linejoin="round" stroke-width="2" points="50.43 62.243 46.652 63.555 45.339 59.777 49.118 58.465"/>
    <polygon stroke="#C0C0C4" stroke-linecap="round" stroke-linejoin="round" stroke-width="2" points="53.12 69.986 49.341 71.299 48.029 67.52 51.807 66.208"/>
    <path stroke="#C0C0C4" stroke-linecap="round" stroke-width="2" d="M50.7629 51.0119L64.9319 46.0899M53.5525 59.0412L63.9435 55.4312M56.2424 66.7844L58.3254 66.0594M60.9656 65.1428L70.4116 61.8618"/>
    <path fill="#FFF" stroke="#C0C0C4" stroke-width="2" d="M208.603029,42.1616073 L207.479919,38.9290495 C207.125869,37.9098872 207.66515,36.7961554 208.684312,36.4428874 C209.703475,36.0880564 210.817206,36.6273371 211.171256,37.6472809 L212.294367,40.8790572 L208.603029,42.1616073 Z" transform="rotate(50 209.833 39.248)"/>
    <path fill="#FFF" d="M206.863716,49.8249965 L197.967148,24.5718111 C197.778791,24.0364383 197.191835,23.7550745 196.65568,23.9442135 L177.423681,30.7196108 C175.198562,31.5035217 174.030902,33.9420083 174.814031,36.1655641 L183.422983,60.6035759 L205.29355,53.1036666 C206.632373,52.6323822 207.335782,51.1646009 206.863716,49.8249965" transform="rotate(50 190.79 42.244)"/>
    <path fill="#FFF" stroke="#C0C0C4" stroke-width="2" d="M206.863716,49.8249965 L197.967148,24.5718111 C197.778791,24.0364383 197.191835,23.7550745 196.65568,23.9442135 L177.423681,30.7196108 C175.198562,31.5035217 174.030902,33.9420083 174.814031,36.1655641 L183.422983,60.6035759 L205.29355,53.1036666 C206.632373,52.6323822 207.335782,51.1646009 206.863716,49.8249965 Z" transform="rotate(50 190.79 42.244)"/>
    <path fill="#FFF" stroke="#C0C0C4" stroke-width="2" d="M192.277328,47.3688303 L191.25504,44.4270152 L166.892058,52.891377 L167.918255,55.8449157 L167.919036,55.8441341 C168.351243,57.0657221 169.804956,57.6706543 171.173478,57.1954621 L195.536459,48.7311002 C194.164029,49.2086371 192.704064,48.5982339 192.277328,47.3688303 Z" transform="rotate(50 181.214 50.892)"/>
    <path fill="#F7F7FA" d="M211.280133,34.4941003 L206.850216,36.0337857" transform="rotate(50 209.065 35.264)"/>
    <path stroke="#C0C0C4" stroke-width="2" d="M211.280133,34.4941003 L206.850216,36.0337857" transform="rotate(50 209.065 35.264)"/>
    <polygon fill="#FFF" points="210.329 40.155 208.11 40.926 207.854 40.192 210.074 39.421" transform="rotate(50 209.092 40.174)"/>
    <polygon stroke="#C0C0C4" stroke-linecap="round" stroke-linejoin="round" stroke-width="2" points="189.832 31.748 186.878 32.773 185.853 29.82 188.805 28.795" transform="rotate(50 187.842 30.784)"/>
    <polygon stroke="#C0C0C4" stroke-linecap="round" stroke-linejoin="round" stroke-width="2" points="186.425 37.451 183.473 38.477 182.447 35.524 185.4 34.498" transform="rotate(50 184.436 36.487)"/>
    <polygon stroke="#C0C0C4" stroke-linecap="round" stroke-linejoin="round" stroke-width="2" points="183.141 42.951 180.188 43.978 179.163 41.024 182.115 39.999" transform="rotate(50 181.152 41.988)"/>
    <path stroke="#C0C0C4" stroke-linecap="round" stroke-width="2" d="M191.363896,38.116456 L202.437907,34.2695872" transform="rotate(50 196.9 36.193)"/>
    <path stroke="#C0C0C4" stroke-linecap="round" stroke-width="2" d="M188.092704,42.5062811 L196.213959,39.6848272" transform="rotate(50 192.153 41.096)"/>
    <path stroke="#C0C0C4" stroke-linecap="round" stroke-width="2" d="M185.02186,45.0786279 L186.649862,44.5119924" transform="rotate(50 185.836 44.903)"/>
    <path stroke="#C0C0C4" stroke-linecap="round" stroke-width="2" d="M188.197216,49.6811209 L195.57989,47.1168022" transform="rotate(50 191.889 48.399)"/>
    <path fill="#FFF" stroke="#C0C0C4" stroke-width="2" d="M210.157333,186.412918 L208.788562,182.530171 C208.35707,181.306016 209.014309,179.968271 210.256395,179.543947 C211.498481,179.117746 212.855822,179.765497 213.287314,180.99059 L214.656085,184.872399 L210.157333,186.412918 Z" transform="rotate(2 211.656 182.913)"/>
    <path fill="#FFF" d="M218.823405,210.377434 L208.127823,180.803963 C207.901377,180.176999 207.195729,179.8475 206.551157,180.068997 L183.430169,188.003521 C180.755099,188.921542 179.351321,191.777202 180.292811,194.381162 L190.642617,223 L216.935729,214.217015 C218.545281,213.665104 219.39093,211.946216 218.823405,210.377434" transform="rotate(2 199.5 201.5)"/>
    <path fill="#FFF" stroke="#C0C0C4" stroke-width="2" d="M218.823405,210.377434 L208.127823,180.803963 C207.901377,180.176999 207.195729,179.8475 206.551157,180.068997 L183.430169,188.003521 C180.755099,188.921542 179.351321,191.777202 180.292811,194.381162 L190.642617,223 L216.935729,214.217015 C218.545281,213.665104 219.39093,211.946216 218.823405,210.377434 Z" transform="rotate(2 199.5 201.5)"/>
    <path fill="#FFF" stroke="#C0C0C4" stroke-width="2" d="M212.607717,212.420943 L211.394293,209.008312 L182.476203,218.827333 L183.694266,222.253564 L183.695193,222.252657 C184.208208,223.669751 185.93372,224.371498 187.558113,223.820255 L216.476203,214.001234 C214.847172,214.555198 213.114238,213.847104 212.607717,212.420943 Z" transform="rotate(2 199.476 216.508)"/>
    <path fill="#F7F7FA" d="M210.527429,179.101002 L204.859429,181.071002" transform="rotate(2 207.693 180.086)"/>
    <path stroke="#C0C0C4" stroke-width="2" d="M210.527429,179.101002 L204.859429,181.071002" transform="rotate(2 207.693 180.086)"/>
    <polygon fill="#FFF" points="213.603 184.405 210.913 185.429 210.603 184.453 213.294 183.429" transform="rotate(2 212.103 184.43)"/>
    <polygon stroke="#C0C0C4" stroke-linecap="round" stroke-linejoin="round" stroke-width="2" points="189.217 196.261 185.506 197.55 184.217 193.839 187.928 192.55" transform="rotate(2 186.717 195.05)"/>
    <polygon stroke="#C0C0C4" stroke-linecap="round" stroke-linejoin="round" stroke-width="2" points="191.936 204.361 188.226 205.65 186.936 201.939 190.648 200.65" transform="rotate(2 189.436 203.15)"/>
    <polygon stroke="#C0C0C4" stroke-linecap="round" stroke-linejoin="round" stroke-width="2" points="193.691 211.426 189.979 212.715 188.691 209.004 192.401 207.715" transform="rotate(2 191.19 210.215)"/>
    <path stroke="#C0C0C4" stroke-linecap="round" stroke-width="2" d="M192.349604,193.971192 L205.349604,188.971192" transform="rotate(2 198.85 191.471)"/>
    <path stroke="#C0C0C4" stroke-linecap="round" stroke-width="2" d="M194.070104,200.983769 L204.070104,197.983769" transform="rotate(2 199.07 199.484)"/>
    <path stroke="#C0C0C4" stroke-linecap="round" stroke-width="2" d="M196.756617,208.668387 L198.756617,207.943387" transform="rotate(2 197.757 208.443)"/>
    <path stroke="#C0C0C4" stroke-linecap="round" stroke-width="2" d="M200.856747,207.20696 L209.856747,204.20696" transform="rotate(2 205.357 205.707)"/>
    <path fill="#F7F7FA" stroke="#344B63" stroke-width="2" d="M148.578394,187.746052 L75.9924923,162.254638 C73.660681,161.436057 72.4348248,158.881906 73.2544484,156.551411 L104.717794,66.9915056 C105.536523,64.6610103 108.090241,63.4353756 110.422052,64.2539564 L183.007954,89.7462648 C185.33887,90.5648457 186.564726,93.1181023 185.745998,95.4485976 L154.281757,185.007608 C153.463028,187.338998 150.90931,188.564633 148.578394,187.746052 Z"/>
    <path fill="#E3E3E6" d="M75,155.276838 L142.671876,178.747511 C145.018081,179.561503 147.589278,178.342293 148.413644,176.025617 L152,165.944033 L80.0793955,141 L75,155.276838 Z"/>
    <path fill="#FFF" stroke="#344B63" stroke-width="2" d="M144.022743,171.604593 C147.644425,172.879447 151.612741,170.969866 152.884326,167.338873 L176.842391,98.9595127 C177.350665,97.506395 176.589151,95.9164286 175.13976,95.4050464 L114.805919,74.1583772 C113.357426,73.6478954 111.76974,74.4122677 111.261466,75.864485 L85,150.818888 L144.022743,171.604593 Z"/>
    <path stroke="#C0C0C4" stroke-linecap="round" stroke-width="2" d="M136.452326 103.813682L153.588326 109.777136M134.537858 109.214916L155.708226 116.581484M130.708205 120.015789L152.226626 127.503789M128.792842 125.416136L147.508947 131.929136M126.877568 130.816573L148.396884 138.304573M124.963189 136.217807L140.655084 141.677807M108.9457 118.510477L117.965542 121.648205M107.030874 123.910914L117.400874 127.5193M105.115958 129.31135L112.678274 131.942964M132.622584 114.615352L145.574795 119.121625"/>
    <path fill="#FFF" stroke="#344B63" stroke-width="2" d="M138.752071,162.102886 L141.046888,155.577797 L76.6904045,133 L74.3838978,139.558321 L74.3874947,139.559219 C73.1312803,143.191354 75.0286406,147.153112 78.6444159,148.422203 L143,171 C139.372535,169.727316 137.470678,165.744901 138.752071,162.102886 Z"/>
    <path fill="#E3E3E6" stroke="#344B63" stroke-width="2" d="M165.197142,76.6066043 C168.805616,77.8695826 170.703353,81.8073652 169.435511,85.4019957 L166.222511,94.5146913 L121.789879,78.9667783 L125.003774,69.8549739 C126.271616,66.2603435 130.224563,64.369887 133.833037,65.6319739 L138.490142,67.2621696 C141.076826,61.991887 147.265721,59.3634304 152.958037,61.356387 C158.650353,63.3475609 161.830247,69.2533435 160.540037,74.9773 L165.197142,76.6066043 Z M153.451037,72.4965326 C154.1883,70.4064239 153.085089,68.1184457 150.987826,67.3849022 C148.889668,66.6495761 146.592879,67.7494457 145.856511,69.838663 C145.118353,71.9278804 146.222458,74.21675 148.319721,74.9502935 C150.416984,75.6847283 152.714668,74.58575 153.451037,72.4965326 Z"/>
    <path fill="#E3E3E6" d="M160.313668,100.725835 L122.513721,87.4988783 C120.182037,86.6833348 118.956247,84.1395522 119.774932,81.8177043 L120.588247,79.5127913 L166.830037,95.6935304 L166.017616,97.9975522 C165.198932,100.320291 162.644458,101.541378 160.313668,100.725835"/>
    <path stroke="#344B63" stroke-linecap="round" stroke-width="2" d="M42.3039532,108.189245 L52.1969532,108.154245 C54.0179532,108.147245 55.4999532,109.619245 55.5059532,111.440245 L55.6049532,139.469245 C55.6109532,141.291245 54.1399532,142.772245 52.3189532,142.779245 L47.3719532,142.795245" transform="rotate(-15 48.954 125.475)"/>
    <polygon fill="#E3E3E6" stroke="#344B63" stroke-linecap="round" stroke-linejoin="round" stroke-width="2" points="45.396 139.416 38.801 139.439 38.655 98.22 45.25 98.196" transform="rotate(-15 42.026 118.817)"/>
    <polygon fill="#57D3D2" stroke="#344B63" stroke-linecap="round" stroke-linejoin="round" stroke-width="2" points="49.645 150.606 39.752 150.641 39.595 106.124 49.488 106.088" transform="rotate(-15 44.62 128.364)"/>
    <polygon fill="#FFF" stroke="#344B63" stroke-linecap="round" stroke-linejoin="round" stroke-width="2" points="58.39 149.434 48.497 149.469 50.227 172.546 56.823 172.523" transform="rotate(-15 53.443 160.99)"/>
    <path fill="#F7F7FA" d="M56.7468499,171.954823 L56.7218499,176.900823" transform="rotate(-15 57.222 174.428)"/>
    <path stroke="#344B63" stroke-linecap="round" stroke-linejoin="round" stroke-width="2" d="M56.7468499,171.954823 L56.7218499,176.900823" transform="rotate(-15 57.222 174.428)"/>
    <path fill="#2A3B4D" fill-rule="nonzero" d="M162.5,187.5 C163.052285,187.5 163.5,187.947715 163.5,188.5 C163.5,189.052285 163.052285,189.5 162.5,189.5 L122.971529,189.5 C122.419244,189.5 121.971529,189.052285 121.971529,188.5 C121.971529,187.947715 122.419244,187.5 122.971529,187.5 L162.5,187.5 Z"/>
  </g>
</svg>
