<svg xmlns="http://www.w3.org/2000/svg" xmlns:xlink="http://www.w3.org/1999/xlink" width="240" height="240"><defs><path id="a" d="M0 86.49h134.688v-86H0z"/></defs><g fill="none" fill-rule="evenodd" transform="translate(53 126)"><path stroke="#334B64" stroke-linecap="round" stroke-linejoin="round" stroke-width="2" d="M1.286 85.204H133.4"/><path fill="#FFF" d="M93.875 71.088h-54.08a6.428 6.428 0 0 1-6.43-6.429V26.45h66.939v38.21a6.428 6.428 0 0 1-6.429 6.428"/><path fill="#F7F7FA" d="M100.304 26.45H33.366V12.978a5.143 5.143 0 0 1 5.143-5.142H95.16a5.143 5.143 0 0 1 5.143 5.142V26.45z"/><path stroke="#334B64" stroke-linecap="round" stroke-linejoin="round" stroke-width="2" d="M46.006 43.152h42.6m-42.6 11.265h42.6m-11.402-18.32v25.028M57.089 36.097v25.028"/><path stroke="#334B64" stroke-width="2" d="M100.304 26.45H33.366V12.978a5.143 5.143 0 0 1 5.143-5.142H95.16a5.143 5.143 0 0 1 5.143 5.142V26.45z"/><path fill="#FFF" d="M50.877 13.697H45.98V3.325a2.448 2.448 0 0 1 4.896 0v10.372z"/><path stroke="#334B64" stroke-linecap="round" stroke-linejoin="round" stroke-width="2" d="M50.877 13.697H45.98V3.325a2.448 2.448 0 0 1 4.896 0v10.372zm-7.472 0h10.248"/><path fill="#FFF" d="M69.566 13.697h-4.897V3.325a2.448 2.448 0 0 1 4.897 0v10.372z"/><path stroke="#334B64" stroke-linecap="round" stroke-linejoin="round" stroke-width="2" d="M69.566 13.697h-4.897V3.325a2.448 2.448 0 0 1 4.897 0v10.372zm-7.347 0h10.248"/><path fill="#FFF" d="M88.606 13.697H83.71V3.325a2.448 2.448 0 0 1 4.896 0v10.372z"/><path stroke="#334B64" stroke-linecap="round" stroke-linejoin="round" stroke-width="2" d="M88.606 13.697H83.71V3.325a2.448 2.448 0 0 1 4.896 0v10.372zm-7.573 0h10.249"/><mask id="b" fill="#fff"><use xlink:href="#a"/></mask><path fill="#E4E4E6" mask="url(#b)" d="M33.366 31.116h66.938V26.45H33.366z"/><path stroke="#334B64" stroke-width="2" d="M93.875 71.088h-54.08a6.428 6.428 0 0 1-6.43-6.429V26.45h66.939v38.21a6.428 6.428 0 0 1-6.429 6.428z" mask="url(#b)"/><path fill="#FFF" d="M104.966 85.204H28.704a2.559 2.559 0 0 1-2.551-2.55v-9.015a2.559 2.559 0 0 1 2.55-2.55h76.263a2.559 2.559 0 0 1 2.55 2.55v9.015a2.559 2.559 0 0 1-2.55 2.55" mask="url(#b)"/><path stroke="#334B64" stroke-linecap="round" stroke-linejoin="round" stroke-width="2" d="M104.966 85.204H28.704a2.559 2.559 0 0 1-2.551-2.55v-9.015a2.559 2.559 0 0 1 2.55-2.55h76.263a2.559 2.559 0 0 1 2.55 2.55v9.015a2.559 2.559 0 0 1-2.55 2.55z" mask="url(#b)"/><path fill="#334B64" d="M47.694 82.434H29.976c-.355 0-.646-1.148-.646-2.55v-3.475c0-1.403.291-2.55.646-2.55h17.718c.355 0 .646 1.147.646 2.55v3.474c0 1.403-.29 2.551-.646 2.551" mask="url(#b)"/></g></svg>