<svg width="24" height="24" viewBox="0 0 24 24" fill="none" xmlns="http://www.w3.org/2000/svg">
<g opacity="0.84">
<path opacity="0.84" d="M8 4H16.999L20 7.058V20H8V4Z" fill="white"/>
<path opacity="0.84" d="M16 4H8V20H20V9H16V4ZM8 2H15.3721C15.9114 2 16.4279 2.21783 16.8044 2.60408L21.4323 7.35251C21.7963 7.72599 22 8.2269 22 8.74843V20C22 21.1046 21.1046 22 20 22H8C6.89543 22 6 21.1046 6 20V4C6 2.89543 6.89543 2 8 2Z" fill="#2A3B4D"/>
</g>
<path d="M12 10H4C3.44772 10 3 10.4477 3 11V15C3 15.5523 3.44772 16 4 16H12C12.5523 16 13 15.5523 13 15V11C13 10.4477 12.5523 10 12 10Z" fill="#00B2B2" stroke="#004B4D" stroke-width="2"/>
</svg>
