<svg width="25" height="16" viewBox="0 0 25 16" fill="none" xmlns="http://www.w3.org/2000/svg">
<path d="M0.667808 0.5C0.431507 0.5 0.390411 0.824207 0.328767 1.14841C0.113014 2.39121 0 5.0389 0 7.6866C0 10.3343 0.10274 13.4467 0.410959 14.6138C0.523973 15.0245 0.719178 15.0893 1.08904 15.1542C2.2911 15.3811 5.79452 15.5 9.28767 15.5C12.7911 15.5 16.2842 15.3811 17.4863 15.1542C17.7123 15.1109 17.8767 15.0569 18 14.938C17.7945 14.83 17.6096 14.7327 17.3836 14.5814C16.9932 14.3329 16.5616 14.0411 16.1096 13.7169C15.2055 13.0684 14.2089 12.312 13.2534 11.5663C12.3082 10.8206 11.4041 10.0965 10.6952 9.51297C9.9863 8.92939 9.4726 8.49712 7.89041 7.16787C6.30822 5.83862 3.19521 3.0072 1.18151 0.964697C0.873288 0.629683 0.791096 0.5 0.667808 0.5Z" fill="#2199B8"/>
<path d="M18.3812 14.5C18.4586 14.4266 18.5138 14.3323 18.558 14.1856C18.8895 13.0539 19 10.0359 19 7.46856C19 4.9012 18.8785 2.32335 18.6464 1.12874C18.5801 0.814371 18.5359 0.5 18.2818 0.5C18.1381 0.5 18.0608 0.61527 17.7072 0.94012C15.5525 2.92066 12.1934 5.66617 9 8.09731C9.1989 8.24401 9.75138 8.67365 10.5138 9.23952C11.2762 9.80539 12.2376 10.5075 13.2652 11.2305C14.2818 11.9536 15.3536 12.6871 16.337 13.3159C16.8232 13.6302 17.2873 13.9132 17.7072 14.1542C17.9724 14.3009 18.1713 14.3952 18.3812 14.5Z" fill="#FFBE09"/>
<path d="M23.6906 2.85316C22.9281 3.38291 22.0216 3.98536 21.0432 4.61898C21.1007 5.61615 21.1295 6.6237 21.1295 7.96364C21.1295 9.30359 21.0863 10.789 21 11.9108C22.3237 12.5859 23.4892 13.1468 24.3669 13.5C24.4676 13.4377 24.5396 13.3234 24.5971 13.1261C24.8849 12.1912 25 9.98914 25 7.97403C25 5.95892 24.8993 4.00614 24.6547 3.06091C24.554 2.63503 24.482 2.5 24.2518 2.5C24.1367 2.51039 23.964 2.66619 23.6906 2.85316Z" fill="#FFBE09"/>
</svg>
