<svg width="288" height="288" fill="none" xmlns="http://www.w3.org/2000/svg">
  <path d="M74 52a2 2 0 012-2h136a2 2 0 012 2v184a2 2 0 01-2 2H76a2 2 0 01-2-2V52z" fill="#fff"/>
  <path fill-rule="evenodd" clip-rule="evenodd" d="M212 52H76v184h136V52zM76 50a2 2 0 00-2 2v184a2 2 0 002 2h136a2 2 0 002-2V52a2 2 0 00-2-2H76z" fill="#1A1C20"/>
  <path d="M209 110h5v58h-5v-58z" fill="#fff"/>
  <path d="M84 116h109v7H84v-7z" fill="#E4E4E6"/>
  <path d="M84 136a1 1 0 011-1h28a1 1 0 010 2H85a1 1 0 01-1-1zm0 11a1 1 0 011-1h28a1 1 0 010 2H85a1 1 0 01-1-1zm0 11a1 1 0 011-1h28a1 1 0 010 2H85a1 1 0 01-1-1zm0 11a1 1 0 011-1h28a1 1 0 010 2H85a1 1 0 01-1-1zm0-83a1 1 0 011-1h28a1 1 0 010 2H85a1 1 0 01-1-1zm0 8a1 1 0 011-1h28a1 1 0 010 2H85a1 1 0 01-1-1zm43 42a1 1 0 011-1h17a1 1 0 010 2h-17a1 1 0 01-1-1zm0 11a1 1 0 011-1h17a1 1 0 010 2h-17a1 1 0 01-1-1zm0 11a1 1 0 011-1h17a1 1 0 010 2h-17a1 1 0 01-1-1zm0 11a1 1 0 011-1h17a1 1 0 010 2h-17a1 1 0 01-1-1zm30-33a1 1 0 011-1h17a1 1 0 010 2h-17a1 1 0 01-1-1zm0 11a1 1 0 011-1h17a1 1 0 010 2h-17a1 1 0 01-1-1zm0 11a1 1 0 011-1h17a1 1 0 010 2h-17a1 1 0 01-1-1zm0 11a1 1 0 011-1h17a1 1 0 010 2h-17a1 1 0 01-1-1z" fill="#1A1C20"/>
  <path fill-rule="evenodd" clip-rule="evenodd" d="M199 168l15.5-9-14.5-14.5-1 23.5z" fill="#fff"/>
  <path fill-rule="evenodd" clip-rule="evenodd" d="M199.637 143.568a.999.999 0 011.07.225l14.5 14.5a.998.998 0 01-.205 1.572l-15.5 9a1 1 0 01-1.501-.907l1-23.5c.017-.397.267-.746.636-.89zm1.266 3.249l-.826 19.401 12.797-7.43-11.971-11.971z" fill="#1A1C20"/>
  <path fill-rule="evenodd" clip-rule="evenodd" d="M181.817 144.88l46.773 23.197L250 124.5l-68.183 20.38z" fill="#fff"/>
  <path fill-rule="evenodd" clip-rule="evenodd" d="M250.763 123.854a1 1 0 01.134 1.087l-21.409 43.577a1 1 0 01-1.342.455l-46.773-23.197a1 1 0 01.158-1.854l68.182-20.38a1 1 0 011.05.312zm-66.229 21.258l43.601 21.623 19.958-40.621-63.559 18.998z" fill="#1A1C20"/>
  <path d="M234.5 136L193 150.5l6 17.5 5-12 30.5-20z" fill="#E4E4E6"/>
  <path fill-rule="evenodd" clip-rule="evenodd" d="M235.397 135.558a1 1 0 01-.349 1.278l-30.243 19.832-4.882 11.717a1.001 1.001 0 01-1.869-.061l-6-17.5a1 1 0 01.616-1.268l41.5-14.5a1 1 0 011.227.502zm-41.129 15.558l4.823 14.066 3.986-9.567a.995.995 0 01.375-.451l23.687-15.533-32.871 11.485z" fill="#1A1C20"/>
  <path d="M159 198.863a1.002 1.002 0 01-.707-1.708 1 1 0 01.707-.292c.676 0 1.33-.013 1.962-.038a.998.998 0 011.038.96.998.998 0 01-.96 1.039c-.658.026-1.338.039-2.04.039zm6.131-.404a1.006 1.006 0 01-.742-.188.997.997 0 01-.205-1.399.997.997 0 01.657-.392 25.783 25.783 0 001.892-.347.992.992 0 01.766.12 1.002 1.002 0 01.313 1.394 1.009 1.009 0 01-.641.437c-.645.145-1.325.27-2.04.375zm6.064-1.746a1.005 1.005 0 01-1.32-.461 1 1 0 01.431-1.33 8.9 8.9 0 001.528-.946.988.988 0 01.742-.215 1.009 1.009 0 01.673.378.99.99 0 01.204.745 1.014 1.014 0 01-.388.668c-.583.449-1.209.838-1.87 1.161zm4.436-5.042a.999.999 0 01-1.183.775 1.002 1.002 0 01-.775-1.183 3.913 3.913 0 00-.004-1.595 1.005 1.005 0 01.413-1.041 1.004 1.004 0 011.397.274.989.989 0 01.149.365c.164.8.168 1.612.003 2.405zm-2.46-6.425a1.006 1.006 0 01.372.682 1.016 1.016 0 01-.23.743 1.009 1.009 0 01-.693.354 1.026 1.026 0 01-.393-.05 1.018 1.018 0 01-.343-.199 5.237 5.237 0 00-1.438-.868 1.006 1.006 0 01-.349-1.627 1.006 1.006 0 011.087-.232 7.27 7.27 0 011.988 1.197h-.001zm-6.717-.851a.996.996 0 011.38.246 1.003 1.003 0 01-.223 1.385c-.387.275-.756.68-1.084 1.196a1.002 1.002 0 01-1.675.051.995.995 0 01-.162-.758c.025-.13.076-.255.149-.365.46-.726 1.004-1.321 1.615-1.755zm-3.11 6.017a1.006 1.006 0 01.391-.664.996.996 0 011.572.566 1 1 0 01.015.393c-.09.611-.135 1.228-.134 1.846a1 1 0 11-2 0c0-.727.052-1.445.156-2.141zm3.727 12.02a1.014 1.014 0 01-.284-.712.993.993 0 01.63-.916 1.017 1.017 0 01.765.01c.121.052.23.127.322.222.423.435.885.838 1.385 1.208a.998.998 0 01-.454 1.774 1 1 0 01-.734-.166 13.43 13.43 0 01-1.63-1.42zm5.299 3.382a1.002 1.002 0 01-.071-1.847 1 1 0 01.765-.029c.589.217 1.19.398 1.8.544a.996.996 0 01.727 1.201 1 1 0 01-1.192.744 17.962 17.962 0 01-2.03-.613h.001zm6.19 1.175a1.008 1.008 0 01-.701-.32 1.005 1.005 0 01.062-1.421 1.014 1.014 0 01.726-.257c.356.016.719.024 1.087.024.274 0 .536-.01.798-.032a1 1 0 11.162 1.994c-.319.025-.64.038-.96.038-.398 0-.79-.009-1.175-.026h.001zm6.373-1.198a1.005 1.005 0 01-1.343-.446.999.999 0 01.446-1.342 9.633 9.633 0 001.535-.961.986.986 0 01.742-.205.99.99 0 01.84.736.997.997 0 01-.365 1.056c-.58.445-1.202.834-1.855 1.162zm4.794-4.479a1.005 1.005 0 01-1.001.482.998.998 0 01-.722-1.498c.307-.52.565-1.07.768-1.64a1 1 0 111.884.673c-.247.69-.558 1.354-.93 1.983h.001zm1.471-6.482a1.005 1.005 0 01-.705 1.208 1 1 0 01-1.223-.678 51.857 51.857 0 01-.503-1.974 1.004 1.004 0 01.747-1.201.996.996 0 011.201.747c.144.619.305 1.252.483 1.899v-.001zm-1.185-5.738a.997.997 0 01-.867 1.11.999.999 0 01-1.117-.858 30.887 30.887 0 01-.194-2.059 1.002 1.002 0 01.94-1.058 1 1 0 011.057.94c.037.622.097 1.263.181 1.925zm-.082-5.748a1.001 1.001 0 01-1.985-.248c.09-.725.22-1.42.39-2.088a.99.99 0 01.452-.634.999.999 0 011.127.055.997.997 0 01.359 1.07 15.17 15.17 0 00-.343 1.845zm1.775-5.233a1.004 1.004 0 01-1.387.316 1.005 1.005 0 01-.446-1.026.996.996 0 01.146-.364 12.16 12.16 0 011.33-1.726.996.996 0 011.723.643c.012.262-.079.519-.255.715-.413.446-.783.927-1.111 1.442z" fill="#1A1C20"/>
  <path d="M229.5 139l-13.946-21.625a4 4 0 00-5.522-1.228l-12.657 8.05a4 4 0 00-1.228 5.522L211 151l18.5-12z" fill="#F7F7FA"/>
  <path fill-rule="evenodd" clip-rule="evenodd" d="M214.71 117.912a3 3 0 00-4.141-.922l-12.657 8.051a3.001 3.001 0 00-.932 4.125l14.287 20.469 16.852-10.931-13.409-20.792zm1.686-1.076a5 5 0 00-6.901-1.533l-12.656 8.051a5 5 0 00-1.536 6.902l.012.018 15.418 22.091 20.148-13.069-14.484-22.458-.001-.002z" fill="#1A1C20"/>
  <path fill-rule="evenodd" clip-rule="evenodd" d="M203.741 124.889a.999.999 0 011.38.307l3.22 5.063a.999.999 0 11-1.687 1.073l-3.22-5.063a.999.999 0 01.307-1.38zm-3.375 2.147a.999.999 0 011.38.307l9.661 15.188a1 1 0 11-1.688 1.073l-9.66-15.188a.999.999 0 01.307-1.38z" fill="#1A1C20"/>
  <path fill-rule="evenodd" clip-rule="evenodd" d="M210.5 117l15 23.5-4 2.5-15-23.5 4-2.5z" fill="#57D3D2"/>
</svg>
