<svg width="288" height="288" fill="none" xmlns="http://www.w3.org/2000/svg">
  <path fill="#fff" d="M0 0h288v288H0z"/>
  <path d="M39 75a2 2 0 012-2h206a2 2 0 012 2v116a2 2 0 01-2 2H41a2 2 0 01-2-2V75z" fill="#F7F7FA"/>
  <path fill-rule="evenodd" clip-rule="evenodd" d="M41 71h206a4 4 0 014 4v116a4 4 0 01-4 4H41a4 4 0 01-4-4V75a4 4 0 014-4zm0 2a2 2 0 00-2 2v116a2 2 0 002 2h206a2 2 0 002-2V75a2 2 0 00-2-2H41z" fill="#1A1C20"/>
  <path d="M39 75a2 2 0 012-2h206a2 2 0 012 2v10H39V75z" fill="#fff"/>
  <path fill-rule="evenodd" clip-rule="evenodd" d="M251 87H37V75a4 4 0 014-4h206a4 4 0 014 4v12zM41 73a2 2 0 00-2 2v10h210V75a2 2 0 00-2-2H41z" fill="#1A1C20"/>
  <path d="M52 79a3 3 0 11-6 0 3 3 0 016 0z" fill="#1A1C20"/>
  <path d="M60 79a3 3 0 11-6 0 3 3 0 016 0z" fill="#fff"/>
  <path fill-rule="evenodd" clip-rule="evenodd" d="M57 80a1 1 0 100-2 1 1 0 000 2zm0 2a3 3 0 100-6 3 3 0 000 6z" fill="#1A1C20"/>
  <path d="M68 79a3 3 0 11-6 0 3 3 0 016 0z" fill="#fff"/>
  <path fill-rule="evenodd" clip-rule="evenodd" d="M65 80a1 1 0 100-2 1 1 0 000 2zm0 2a3 3 0 100-6 3 3 0 000 6z" fill="#1A1C20"/>
  <path d="M102 104a4 4 0 00-4-4H61a4 4 0 00-4 4v36h45v-36z" fill="#57D3D2"/>
  <path fill-rule="evenodd" clip-rule="evenodd" d="M103 104a5 5 0 00-5-5H61a5 5 0 00-5 5v37h47v-37zm-5-3a3 3 0 013 3v35H58v-35a3 3 0 013-3h37z" fill="#1A1C20"/>
  <path d="M102 140H57v8a4 4 0 004 4h37a4 4 0 004-4v-8z" fill="#fff"/>
  <path fill-rule="evenodd" clip-rule="evenodd" d="M103 139H56v9a5 5 0 005 5h37a5 5 0 005-5v-9zm-2 2v7a3 3 0 01-3 3H61a3 3 0 01-3-3v-7h43z" fill="#1A1C20"/>
  <path fill-rule="evenodd" clip-rule="evenodd" d="M75 128a1 1 0 00-1 1v9H58v-9a1 1 0 00-2 0v89a1 1 0 002 0v-6h16v6a1 1 0 002 0v-89a1 1 0 00-1-1zm-1 82H58v-10h16v10zm0-12H58v-10h16v10zm0-12H58v-10h16v10zm0-12H58v-10h16v10zm0-12H58v-10h16v10zm0-12H58v-10h16v10z" fill="#1A1C20"/>
  <path d="M58 144h10l13.99 14L71 176l2-17-8-6-7 29.5V144z" fill="#F7F7FA"/>
  <path fill-rule="evenodd" clip-rule="evenodd" d="M69.415 142.586A2.001 2.001 0 0068 142H58a2 2 0 00-2 2v38.5a2 2 0 003.946.462l6.295-26.531 4.638 3.478-1.865 15.857a1.999 1.999 0 003.693 1.276l10.99-18a2 2 0 00-.292-2.456l-13.99-14zM73 159l-8-6-7 29.5V144h10l13.99 14L71 176l2-17z" fill="#1A1C20"/>
  <path fill-rule="evenodd" clip-rule="evenodd" d="M63.195 152.907a1 1 0 00.212 1.398l4.75 3.5a1 1 0 101.186-1.61l-4.75-3.5a1 1 0 00-1.398.212z" fill="#1A1C20"/>
  <path d="M57.5 149h16l-16-5.5v5.5z" fill="#1A1C20"/>
  <path d="M76.981 122.66c-3.494-3.083-8.968-1.956-10.96 2.257L57 144l16 3 2-15.492L95.5 139l-18.519-16.34z" fill="#fff"/>
  <path fill-rule="evenodd" clip-rule="evenodd" d="M55.219 144.909a2 2 0 001.413 1.057l16 3a2.004 2.004 0 002.352-1.71l1.68-13.011 18.15 6.633a2 2 0 002.01-3.378l-18.52-16.34c-4.492-3.964-11.53-2.514-14.091 2.902l-9.021 19.083a2 2 0 00.027 1.764zM75 131.508L73 147l-16-3 9.021-19.083c1.992-4.213 7.466-5.34 10.96-2.257L95.5 139 75 131.508z" fill="#1A1C20"/>
  <path d="M74 112a5 5 0 1010 0 5 5 0 00-10 0z" fill="#fff"/>
  <path fill-rule="evenodd" clip-rule="evenodd" d="M72 112a7 7 0 1014 0 7 7 0 00-14 0zm7 5a5 5 0 110-10 5 5 0 010 10z" fill="#1A1C20"/>
  <path d="M63.111 184L58 181v3h5.111z" fill="#1A1C20"/>
  <path fill-rule="evenodd" clip-rule="evenodd" d="M56 177.507V186h14.47L56 177.507zM63.111 184H58v-3l5.111 3zm7.952-52.848a1 1 0 00.589 1.285l17.5 6.5a1 1 0 10.696-1.874l-17.5-6.5a1 1 0 00-1.285.589z" fill="#1A1C20"/>
  <path d="M74.522 179.037L71.398 174 70 176.654l4.522 2.383z" fill="#1A1C20"/>
  <path fill-rule="evenodd" clip-rule="evenodd" d="M71.257 169.977l-3.959 7.514 12.801 6.745-8.842-14.259zm3.265 9.06L70 176.654 71.398 174l3.124 5.037z" fill="#1A1C20"/>
  <path d="M111 148a2 2 0 012-2h116a2 2 0 012 2v32a2 2 0 01-2 2H113a2 2 0 01-2-2v-32z" fill="#fff"/>
  <path fill-rule="evenodd" clip-rule="evenodd" d="M113 144h116a4 4 0 014 4v32a4 4 0 01-4 4H113a4 4 0 01-4-4v-32a4 4 0 014-4zm0 2a2 2 0 00-2 2v32a2 2 0 002 2h116a2 2 0 002-2v-32a2 2 0 00-2-2H113z" fill="#1A1C20"/>
  <path d="M119 152h25v2h-25v-2z" fill="#C0C0C4"/>
  <path d="M111 102a2 2 0 012-2h116a2 2 0 012 2v32a2 2 0 01-2 2H113a2 2 0 01-2-2v-32z" fill="#fff"/>
  <path fill-rule="evenodd" clip-rule="evenodd" d="M113 98h116a4 4 0 014 4v32a4 4 0 01-4 4H113a4 4 0 01-4-4v-32a4 4 0 014-4zm0 2a2 2 0 00-2 2v32a2 2 0 002 2h116a2 2 0 002-2v-32a2 2 0 00-2-2H113z" fill="#1A1C20"/>
  <path d="M153 100h40v36h-40v-36z" fill="#fff"/>
  <path fill-rule="evenodd" clip-rule="evenodd" d="M151 98h44v40h-44V98zm2 2v36h40v-36h-40z" fill="#1A1C20"/>
  <path d="M119 125h25v2h-25v-2zm42 0h25v2h-25v-2zm39 0h25v2h-25v-2z" fill="#C0C0C4"/>
  <path fill-rule="evenodd" clip-rule="evenodd" d="M252.29 134.049l-11.19-4.438 2.989 11.661 3.156-2.78 4.588 5.208 1.893-1.668-4.587-5.208 3.151-2.775z" fill="#fff"/>
  <path fill-rule="evenodd" clip-rule="evenodd" d="M238.188 126.305l17.872 7.088-4.098 3.609 4.587 5.209-4.895 4.311-4.587-5.208-4.105 3.615-4.774-18.624zm9.057 12.187l4.588 5.208 1.893-1.668-4.587-5.208 3.151-2.775-11.19-4.438 2.989 11.661 3.156-2.78z" fill="#1A1C20"/>
</svg>
