<svg width="288" height="288" fill="none" xmlns="http://www.w3.org/2000/svg">
  <path d="M145 144a1 1 0 01-1-1V59a1 1 0 012 0v84a1 1 0 01-1 1z" fill="#C0C0C4"/>
  <path d="M145.193 81.382a1 1 0 01-1.224.707L62.831 60.35a1 1 0 01.517-1.932l81.138 21.74a1 1 0 01.707 1.225zm2.475 57.735a1 1 0 01-.054-1.413l34.659-37.413a.999.999 0 111.467 1.359l-34.659 37.413a1 1 0 01-1.413.054z" fill="#C0C0C4"/>
  <path d="M146.016 141.068a.998.998 0 01.512-1.318l85.106-37.496a1 1 0 11.807 1.83l-85.107 37.496a1 1 0 01-1.318-.512zm-.313-2.314a1 1 0 01-.601-1.28l31.569-87.478a1 1 0 111.881.679l-31.569 87.478a.999.999 0 01-1.28.601z" fill="#C0C0C4"/>
  <path d="M219.551 108.072a1 1 0 011.324.496l16.989 37.314a1 1 0 11-1.821.829l-16.988-37.315a1 1 0 01.496-1.324zm-74.601 33.837a1 1 0 011.171-.792l60.872 11.777a1 1 0 11-.38 1.963l-60.871-11.776a1 1 0 01-.792-1.172z" fill="#C0C0C4"/>
  <path d="M142.702 139.207a1 1 0 011.382-.301l110.218 70.803a1 1 0 11-1.081 1.682l-110.218-70.802a1.001 1.001 0 01-.301-1.382z" fill="#C0C0C4"/>
  <path d="M146.054 141.789a.999.999 0 01-1.379.309l-43.925-27.832a1 1 0 011.071-1.69l43.924 27.833a1 1 0 01.309 1.38zm-37.557 2.225a1 1 0 01-1.141.836L24.34 132.026a1 1 0 11.306-1.976l83.015 12.823a1 1 0 01.836 1.141z" fill="#C0C0C4"/>
  <path d="M145.045 141.5a1 1 0 01.366 1.366l-37 64.086a1 1 0 01-1.732-1l37-64.086a1 1 0 011.366-.366z" fill="#C0C0C4"/>
  <path d="M116.563 191.122a1 1 0 01-1.366.366l-32.043-18.5a1 1 0 111-1.732l32.043 18.5a.999.999 0 01.366 1.366zm2.22 45.858a.999.999 0 01-1.384-.288l-8.766-13.385a1.001 1.001 0 011.674-1.096l8.765 13.385a1 1 0 01-.289 1.384zm44.803.057a1 1 0 01.631-1.265l13.277-4.441a1 1 0 11.635 1.897l-13.278 4.44a.999.999 0 01-1.265-.631zm-18.899-96.66a1 1 0 011.413.062l35.122 38.347a1 1 0 11-1.475 1.35l-35.122-38.346a1 1 0 01.062-1.413z" fill="#C0C0C4"/>
  <path d="M145.907 141.959a1 1 0 011.173.79l21.486 109.92a1 1 0 11-1.963.383l-21.485-109.92a1 1 0 01.789-1.173z" fill="#C0C0C4"/>
  <path d="M161.112 216.523a1 1 0 01-.478 1.331l-50.655 23.875a.999.999 0 11-.853-1.809l50.656-23.875a.998.998 0 011.33.478zm55.019-30.741a1 1 0 01.292 1.384l-17.469 26.811a1 1 0 01-1.676-1.092l17.47-26.811a.998.998 0 011.383-.292zM35.73 133.519a1 1 0 01-.357-1.368L49.03 108.86a1 1 0 011.725 1.011l-13.658 23.291a1 1 0 01-1.368.357z" fill="#C0C0C4"/>
  <path fill-rule="evenodd" clip-rule="evenodd" d="M91.519 208H100a2 2 0 012 2v10a2 2 0 01-2 2H84a2 2 0 01-2-2v-12a2 2 0 012-2h5.068a2 2 0 011.632.844l.82 1.156zM84 208v12h16v-8h-6.548a3 3 0 01-2.448-1.266L89.068 208H84zm80 53a2 2 0 012-2h10a2 2 0 012 2l-.001 12c0 2.206-1.795 4-4 4H164c-2.205 0-4-1.794-4-4v-1a1 1 0 011-1h3v-10zm11.999 12l.001-12h-10v14h7.999c1.103 0 2-.897 2-2zM169 265h4a1 1 0 010 2h-4a1 1 0 010-2zm0 4h4a1 1 0 010 2h-4a1 1 0 010-2z" fill="#1A1C20"/>
  <path d="M90.2 240.946a.906.906 0 00-.195.427c-.008.066-.01.222.01.456.036.407.134.878.312 1.408.527 1.57 1.627 3.293 3.481 5.116 1.567 1.54 3.062 2.543 4.454 3.115.935.385 1.71.532 2.298.532.124 0 .204-.006.242-.012a.88.88 0 00.409-.21l2.777-2.938c.013-.023.003-.036-.05-.066l-2.954-1.702a.229.229 0 00-.096-.022.268.268 0 00-.166.053l-2.221 2.368-1.368-.772c-.621-.351-1.318-.887-2.09-1.646-.81-.796-1.376-1.516-1.74-2.157l-.725-1.279 1.005-1.074 1.069-1.141a.354.354 0 00.059-.233l-1.712-3.151c-.007-.012-.94.964-2.8 2.928zm1.327-4.311c.392-.41.913-.635 1.466-.635.757 0 1.434.421 1.785 1.105l1.671 3.07.047.093c.39.826.223 1.866-.398 2.515l-1.055 1.127c.203.357.608.936 1.402 1.716.754.742 1.316 1.131 1.671 1.332l1.148-1.224a2.257 2.257 0 012.655-.432l.047.028 2.97 1.711c.544.298.928.826 1.034 1.428a2.043 2.043 0 01-.536 1.753l-2.77 2.93a2.858 2.858 0 01-1.56.813 3.687 3.687 0 01-.544.035c-1.16 0-4.278-.411-8.154-4.221-4.703-4.624-4.434-8.242-4.388-8.64a2.875 2.875 0 01.737-1.576l2.772-2.928z" fill="#1A1C20"/>
  <path fill-rule="evenodd" clip-rule="evenodd" d="M76 173c0 1.103-.897 2-2 2H62c-1.103 0-2-.897-2-2v-8c0-.127.015-.251.038-.372.023.03.033.065.061.092l5.78 5.78a2.99 2.99 0 002.121.862 2.99 2.99 0 002.121-.862l5.78-5.78c.028-.028.038-.063.061-.092.023.121.038.245.038.372v8zm-2-10c.259 0 .505.053.732.143a.952.952 0 00-.245.163l-5.78 5.78c-.363.363-1.051.363-1.414 0l-5.78-5.78a.974.974 0 00-.245-.162A1.96 1.96 0 0162 163h12zm-12-2c-2.2 0-4 1.8-4 4v8c0 2.2 1.8 4 4 4h12c2.2 0 4-1.8 4-4v-8c0-2.2-1.8-4-4-4H62zm195-61c0 1.103-.897 2-2 2h-12c-1.103 0-2-.897-2-2v-8c0-.127.015-.251.038-.372.023.03.033.065.061.092l5.78 5.78a2.99 2.99 0 002.121.862 2.99 2.99 0 002.121-.862l5.78-5.78c.028-.028.038-.063.061-.092.023.121.038.245.038.372v8zm-2-10c.259 0 .505.053.732.143a.952.952 0 00-.245.163l-5.78 5.78c-.363.363-1.051.363-1.414 0l-5.78-5.78a.974.974 0 00-.245-.162A1.96 1.96 0 01243 90h12zm-12-2c-2.2 0-4 1.8-4 4v8c0 2.2 1.8 4 4 4h12c2.2 0 4-1.8 4-4v-8c0-2.2-1.8-4-4-4h-12z" fill="#1A1C20"/>
  <path d="M62 89a1 1 0 112 0v13a2 2 0 01-2 2H50a2 2 0 01-2-2V89a1 1 0 112 0v13h12V89zm-8 4h4a1 1 0 110 2h-4a1 1 0 110-2zm0 4h4a1 1 0 110 2h-4a1 1 0 110-2zm.268-12a2 2 0 013.464 0H58a2 2 0 012 2v2a1 1 0 01-1 1h-6a1 1 0 01-1-1v-2a2 2 0 012-2h.268zM54 87v1h4v-1h-4zm2-1a1 1 0 00-1 1h2a1 1 0 00-1-1zM8.001 131.199l.999.577V134a2 2 0 104 0v-2.224l.998-.577a6 6 0 10-5.997 0zM3 126a8 8 0 1112 6.93V134a4 4 0 01-8 0v-1.07A7.997 7.997 0 013 126zm8-4a1 1 0 010 2 2 2 0 00-2 2 1 1 0 01-2 0 4 4 0 014-4zm-3 12h6v2H8v-2zm179.001 95.199l.999.577V232a2 2 0 104 0v-2.224l.999-.577A6 6 0 10184 224a5.998 5.998 0 003.001 5.199zM182 224a8 8 0 1112 6.93V232a4 4 0 01-8 0v-1.07a7.998 7.998 0 01-4-6.93zm8-4a1 1 0 010 2 2 2 0 00-2 2 1 1 0 01-2 0 4 4 0 014-4zm-3 12h6v2h-6v-2zM48 50.803A6 6 0 0157 56a1 1 0 11-2 0 4 4 0 00-7-2.646v-2.551zM51 49a3 3 0 110-6 3 3 0 010 6zm0-2a1 1 0 100-2 1 1 0 000 2zM39 62a1 1 0 11-2 0 6 6 0 0112 0 1 1 0 11-2 0 4 4 0 00-8 0zm4-7a3 3 0 110-6 3 3 0 010 6zm0-2a1 1 0 100-2 1 1 0 000 2z" fill="#1A1C20"/>
  <path fill-rule="evenodd" clip-rule="evenodd" d="M195 30h2a2 2 0 012 2v12a2 2 0 01-2 2h-14a2 2 0 01-2-2V32a2 2 0 012-2h2v-1a1 1 0 012 0v1h6v-1a1 1 0 012 0v1zm-12 5v9h14v-9h-14z" fill="#1A1C20"/>
  <path d="M270.201 223H278v-10h-14v10h4v2.385l2.201-2.385zm-2.466 5.621a1 1 0 01-1.735-.679V225h-2a2 2 0 01-2-2v-10a2 2 0 012-2h14a2 2 0 012 2v10a2 2 0 01-2 2h-6.923l-3.342 3.621z" fill="#1A1C20"/>
  <path fill-rule="evenodd" clip-rule="evenodd" d="M254 151h2a2 2 0 012 2v12a2 2 0 01-2 2h-14a2 2 0 01-2-2v-12a2 2 0 012-2h2v-1a1 1 0 012 0v1h6v-1a1 1 0 012 0v1zm-12 5v9h14v-9h-14zM93 102a1 1 0 00-1 1h-2a1 1 0 00-2 0c-1.103 0-2 .897-2 2v5c0 1.103.897 2 2 2h6c1.103 0 2-.897 2-2v-5c0-1.103-.897-2-2-2a1 1 0 00-1-1zm1 8h-6v-4h6v4z" fill="#1A1C20"/>
  <path d="M191.206 90.826c.121.12.237.226.344.317l.218-.232c.623-.654 1.606-.82 2.483-.383l1.725.994a1.932 1.932 0 01.485 3.041l-1.615 1.709a2.433 2.433 0 01-1.344.7 2.903 2.903 0 01-.423.028c-1.658 0-3.48-.903-5.285-2.677-1.23-1.21-2.062-2.454-2.49-3.703-.253-.738-.35-1.419-.287-1.958a2.426 2.426 0 01.633-1.35l1.612-1.706a1.93 1.93 0 011.705-.582c.626.1 1.165.504 1.402 1.015l1.01 1.86c.368.777.228 1.716-.356 2.329l-.176.186c.135.172.253.308.359.412zm2.102 1.464c-.042-.02-.078-.015-.086-.006l-1.28 1.366-.654-.299a3.586 3.586 0 01-.136-.066c-.417-.214-.867-.56-1.349-1.033a6.832 6.832 0 01-.663-.778c-.068-.09-.136-.183-.215-.293l-.188-.261-.48-.669.563-.6.75-.798c.012-.012.019-.06.027-.047l-.951-1.752-1.551 1.64a.459.459 0 00-.091.2c-.026.216.029.604.192 1.078.32.935.98 1.921 2.001 2.925 1.459 1.435 2.808 2.103 3.882 2.103.062 0 .106-.003.121-.005a.453.453 0 00.197-.101l1.56-1.651-1.649-.953zM220 157v-4h-6v4h6zm-5 3.793V159h-1.5a1.5 1.5 0 01-1.5-1.5v-5a1.5 1.5 0 011.5-1.5h7a1.5 1.5 0 011.5 1.5v5a1.5 1.5 0 01-1.5 1.5H218l-2.146 2.146a.5.5 0 01-.854-.353z" fill="#1A1C20"/>
  <path fill-rule="evenodd" clip-rule="evenodd" d="M190 188c-.645 0-1.218.305-1.584.779l-.032.042c-.159.218-.275.47-.336.742A3.998 3.998 0 01190 193h-2a2 2 0 10-4 0h-2c0-1.57.905-2.929 2.221-3.584a3 3 0 012.784-5.244 3 3 0 114.774 2.244A4.002 4.002 0 01194 190h-2a2 2 0 00-2-2zm-1-4a1 1 0 102 0 1 1 0 00-2 0zm-3 4a1 1 0 00.787-.383l.026-.034A1 1 0 10186 188z" fill="#1A1C20"/>
  <path d="M142.15 46l2.88 2.798L147.851 46h-5.701zm6.85 1.325l-3.347 3.32a.875.875 0 01-1.226.007L141 47.322V52h8v-4.675zM141 44h8a2 2 0 012 2v6a2 2 0 01-2 2h-8a2 2 0 01-2-2v-6a2 2 0 012-2z" fill="#1A1C20"/>
  <circle cx="144" cy="144" r="35" fill="#fff" stroke="#1A1C20" stroke-width="2"/>
  <circle cx="144" cy="144" r="30" fill="#57D3D2"/>
  <path d="M140.113 155.727l.687.649 17.065-16.132-.686-.727.687.726-.001.001a3.543 3.543 0 00.001-5.197h-.001c-1.48-1.396-3.851-1.396-5.331 0h-.001L140.8 146.139l-5.333-5.041c-1.48-1.399-3.853-1.399-5.333 0a3.543 3.543 0 000 5.196l9.979 9.433z" fill="#fff" stroke="#1A1C20" stroke-width="2"/>
</svg>
