<svg xmlns="http://www.w3.org/2000/svg" width="36" height="24"><g fill="none" fill-rule="evenodd"><rect width="36" height="24" fill="#13457C" rx="2"/><path fill="#FBB231" d="M22.33 19.06l.36-.01.357-.026.35-.044.347-.062.338-.078.333-.095.326-.11.318-.126.312-.141.302-.154.293-.17.285-.182.275-.196.264-.208.255-.22.243-.233.234-.243.22-.256.208-.264.195-.274.182-.285.17-.293.153-.303.142-.311.125-.319.111-.326.095-.332.078-.338.061-.347.045-.35.026-.356.01-.362-.01-.359-.026-.354-.045-.35-.061-.342-.078-.337-.095-.331-.111-.326-.125-.316-.142-.31-.153-.302-.17-.29-.182-.286-.195-.274-.209-.262-.22-.255-.233-.243-.243-.232-.255-.22-.264-.207-.275-.196-.285-.182-.293-.167-.302-.154-.312-.142-.318-.125-.326-.11-.333-.095-.338-.078-.347-.061-.35-.045-.356-.027-.362-.009-.358.01-.357.026-.35.045-.344.061-.338.078-.333.094-.323.111-.32.125-.308.142-.3.154-.293.167-.284.182-.273.196-.265.208-.252.22-.244.23-.231.244-.22.255-.207.262-.194.274-.182.286-.167.29-.157.303-.139.309-.125.316-.109.326-.094.33-.078.338-.061.343-.045.35-.026.353-.01.36.01.36.026.357.045.35.06.347.08.338.093.332.109.326.125.319.14.311.156.303.167.293.182.285.194.274.208.264.219.256.231.243.244.234.252.22.265.207.273.196.284.182.293.17.3.154.309.141.319.125.323.111.333.095.338.078.345.062.35.044.356.026z"/><path fill="#EC1C2E" d="M13.3 19.06l.357-.01.357-.026.35-.044.345-.062.337-.078.333-.095.324-.11.319-.126.309-.141.3-.154.292-.17.284-.182.274-.196.264-.208.253-.22.243-.233.232-.243.22-.256.207-.264.194-.274.181-.285.168-.293.156-.303.14-.311.125-.319.108-.326.094-.332.079-.338.06-.347.046-.35.026-.356.009-.362-.01-.359-.025-.354-.046-.35-.06-.342-.079-.337-.094-.331-.108-.326-.126-.316-.139-.31-.156-.302-.168-.29-.181-.286-.194-.274-.207-.262-.22-.255-.232-.243-.243-.232-.253-.22-.264-.207-.274-.196-.284-.182-.292-.167-.3-.154-.31-.142-.318-.125-.324-.11-.333-.095-.337-.078-.345-.061-.35-.045-.357-.027-.358-.009-.361.01-.357.026-.35.045-.347.061-.337.078-.333.094-.326.111-.319.125-.311.142-.302.154-.293.167-.286.182-.274.196-.265.208-.255.22-.243.23-.234.244-.22.255-.207.262-.196.274-.182.286-.17.29-.153.303-.142.309-.125.316-.111.326-.095.33-.078.338-.061.343-.045.35-.026.353-.01.36.01.36.026.357.045.35.061.347.078.338.095.332.111.326.125.319.142.311.153.303.17.293.182.285.196.274.208.264.22.256.233.243.243.234.255.22.265.207.274.196.286.182.293.17.302.154.311.141.319.125.326.111.333.095.337.078.347.062.35.044.357.026z"/></g></svg>