<svg xmlns="http://www.w3.org/2000/svg" width="36" height="24"><g fill="none" fill-rule="evenodd"><rect width="36" height="24" fill="#0078A9" rx="2"/><path fill="#FFF" d="M11.12 11.965v-.359l-.171.359H9.465l-.186-.385v.385H6.505l-.328-.776h-.556l-.347.776H3.836V9.623L4.89 7.237h2.019l.283.676v-.67h2.469l.543 1.137.531-1.143h7.794s.408-.005.677.184l-.002-.184h1.964v.259s.353-.259.875-.259h3.465l.304.686v-.686h2.22l.403.686v-.686h2.122v4.732h-2.18l-.512-.825v.82h-2.71l-.382-.844h-.531l-.357.845h-1.64s-.612-.008-1.07-.336v.336h-3.266V10.86c0-.16-.123-.15-.123-.15h-.12v1.254H11.12zM9.49 12.99h4.291l.62.7.633-.7h3.3s.309.007.603.164v-.165h2.938c.373 0 .686.187.686.187v-.187h3.776v.172s.269-.172.63-.172h2.46v.172s.31-.172.638-.172h1.932v4.46s-.254.286-.78.286h-2.546v-.141s-.242.141-.612.141h-6.764v-1.152c0-.113-.05-.134-.15-.134h-.094v1.286h-2.114v-1.278s-.234.126-.626.126h-.76v1.152h-2.606l-.593-.723-.634.723H9.491V12.99z"/><path fill="#0078A9" d="M23.014 13.7h2.693v.723h-1.869v.63h1.816v.636h-1.816v.662h1.869v.705h-2.693zm7.895 1.308c1.012.052 1.097.557 1.097 1.097 0 .628-.517.966-1.056.966h-1.73v-.72h1.348c.228 0 .569 0 .569-.322 0-.153-.06-.25-.303-.276a9.806 9.806 0 0 0-.57-.039c-.914-.024-1.127-.479-1.127-1.033 0-.629.442-.972.982-.972h1.73v.719h-1.267c-.287.002-.598-.034-.598.29 0 .207.153.248.348.267.068 0 .517.023.577.023m-3.101 0c1.012.052 1.097.557 1.097 1.097 0 .628-.516.966-1.056.966h-1.73v-.72h1.348c.228 0 .57 0 .57-.322 0-.153-.06-.25-.304-.276a9.857 9.857 0 0 0-.569-.039c-.915-.024-1.127-.479-1.127-1.033 0-.629.442-.972.98-.972h1.73v.719h-1.265c-.288.002-.6-.034-.6.29 0 .207.155.248.35.267.067 0 .516.023.576.023m-10.043.225h-1.026v-.805h1.029c.345 0 .454.221.454.386 0 .224-.12.42-.457.42zm-1.857 1.508l-1.184-1.4 1.184-1.31v2.71zm-3.149-.39H10.86v-.662h1.817v-.637H10.86v-.629l2.003.005.802.913-.906 1.01zm5.283-2.643h-2.89l-.944 1.041-.913-1.048h-3.247v3.355h3.141l.99-1.109.965 1.116h1.58v-1.139h1.108c.427 0 1.206-.014 1.206-1.19 0-.84-.591-1.026-.996-1.026zm3.268 1.48h-1.026v-.76h1.029c.344 0 .453.22.453.386 0 .224-.12.374-.456.374m.71.347c.45-.224.57-.524.57-.928 0-.719-.584-.898-.989-.898H19.46v3.354h.824V15.88h1.078c.285 0 .397.284.404.569l.022.614h.802l-.03-.689c0-.54-.15-.794-.54-.839m-2.23-4.267h.824V7.909h-.824zm-6.743-3.355h2.692v.722h-1.868v.63h1.816V9.9H13.87v.663h1.868v.704h-2.692zm5.031 1.48h-1.026v-.76h1.03c.343 0 .453.22.453.385 0 .225-.12.375-.457.375m.711.347c.45-.224.57-.524.57-.929 0-.719-.585-.898-.99-.898h-2.141v3.355h.824v-1.183h1.078c.285 0 .397.284.405.569l.022.614h.801l-.03-.69c0-.538-.15-.793-.539-.838m-13.445.055l.492-1.173.511 1.173H5.344zm5.804-1.882l-1.011 2.25-1.008-2.25H7.84v3.231L6.4 7.914H5.31l-1.467 3.354h.868l.322-.749h1.644l.326.749h1.658v-2.49l1.101 2.49h.75l1.126-2.449v2.449h.824V7.913h-1.314zm12.906 1.884l.49-1.173.517 1.173h-1.007zm5.059-1.886v2.323l-1.389-2.323h-1.217v3.151l-1.403-3.149h-1.09l-1.135 2.599s-.48 0-.528-.012c-.198-.04-.508-.18-.512-.772v-.244c0-.786.427-.844.974-.844h.508v-.729h-1.075c-.374 0-1.19.286-1.217 1.664-.018.93.386 1.695 1.3 1.695h1.086l.321-.75h1.644l.326.75h1.625V8.813l1.482 2.457h1.124V7.91h-.824z"/></g></svg>