<svg xmlns="http://www.w3.org/2000/svg" width="36" height="24"><g fill="none" fill-rule="evenodd"><rect width="36" height="24" fill="#183D93" rx="2"/><path fill="#FFF" d="M8.748 10.523H6.67c0-.33-.04-.552-.12-.665-.124-.167-.465-.25-1.024-.25-.542 0-.902.047-1.077.144-.176.096-.264.306-.264.63 0 .293.078.485.234.578.112.065.26.104.443.115l.42.029c.897.058 1.458.098 1.682.122.71.069 1.225.252 1.545.549.251.231.401.534.45.907.027.223.041.476.041.757 0 .648-.064 1.122-.191 1.422-.232.552-.752.9-1.56 1.046-.34.062-.858.093-1.555.093-1.164 0-1.975-.067-2.433-.202-.562-.165-.932-.5-1.112-1.004-.1-.281-.149-.749-.149-1.403h2.078v.167c0 .35.104.574.31.674.144.069.317.105.52.11h.764c.39 0 .639-.02.746-.059.191-.072.317-.19.377-.352a1.3 1.3 0 0 0 .047-.387c0-.354-.133-.57-.4-.647-.099-.03-.562-.073-1.39-.127a17.194 17.194 0 0 1-1.383-.133c-.68-.123-1.134-.377-1.36-.762-.2-.327-.299-.822-.299-1.484 0-.504.054-.908.161-1.213.108-.304.281-.535.52-.693.35-.242.799-.385 1.345-.427C4.49 8.02 4.993 8 5.547 8c.872 0 1.494.049 1.865.145.904.235 1.356.895 1.356 1.979 0 .088-.007.221-.02.399m12.477 1.556h1.387c.44-.016.707-.048.803-.1.132-.07.22-.21.264-.42.028-.14.042-.347.042-.624 0-.338-.028-.589-.084-.753-.08-.23-.272-.369-.575-.42a4.648 4.648 0 0 0-.432-.011h-1.405v2.328zM19 16V8h4.145c.568 0 1.002.045 1.3.135.682.206 1.14.63 1.374 1.27.12.335.181.84.181 1.515 0 .812-.067 1.395-.2 1.75-.266.702-.813 1.107-1.64 1.211-.096.016-.51.03-1.24.042l-.369.011h-1.326V16H19zm12.012-2.941l-.998-3.468-.969 3.468h1.967zm.424 1.558h-2.849L28.204 16H26l2.378-8h3.214L34 16h-2.158l-.406-1.383z"/><path fill="#FFD35F" d="M15.33 9.07c.89 0 1.683.415 2.205 1.065L18 9.125A4.048 4.048 0 0 0 15.192 8a4.04 4.04 0 0 0-3.75 2.512h-.907L10 11.674h1.166a4.014 4.014 0 0 0 .006.721h-.586l-.536 1.163h1.42A4.043 4.043 0 0 0 15.192 16a4.05 4.05 0 0 0 2.273-.693v-1.425a2.819 2.819 0 0 1-2.135.982c-.994 0-1.869-.52-2.378-1.306h2.972l.535-1.163h-3.945a2.98 2.98 0 0 1-.016-.72h4.293l.535-1.163H12.87a2.836 2.836 0 0 1 2.46-1.442"/></g></svg>