<svg xmlns="http://www.w3.org/2000/svg" width="36" height="24"><g fill="none" fill-rule="evenodd"><rect width="36" height="24" fill="#3957A7" rx="2"/><path fill="#FFF" d="M16.316 15.592h-1.838l1.15-7.06h1.837zm-3.384-7.061l-1.753 4.856-.207-1.045-.618-3.175s-.075-.636-.872-.636H6.584l-.033.12s.886.184 1.923.807l1.596 6.134h1.916l2.925-7.06h-1.98zm12.436 4.563l.965-2.642.544 2.642h-1.51zm2.022 2.498h1.688l-1.471-7.06h-1.478c-.683 0-.85.525-.85.525l-2.74 6.535h1.916l.382-1.049h2.338l.215 1.049zm-4.708-5.363l.262-1.516s-.809-.308-1.653-.308c-.912 0-3.078.399-3.078 2.337 0 1.825 2.543 1.847 2.543 2.805 0 .958-2.281.787-3.033.182l-.274 1.585s.82.4 2.075.4c1.254 0 3.147-.65 3.147-2.418 0-1.835-2.566-2.007-2.566-2.804 0-.8 1.791-.696 2.577-.263"/><path fill="#F9A533" d="M10.972 12.342l-.618-3.175s-.075-.636-.872-.636H6.584l-.033.12s1.392.288 2.727 1.37c1.277 1.033 1.694 2.321 1.694 2.321"/></g></svg>