<svg width="36" height="36" viewBox="0 0 36 36" fill="none" xmlns="http://www.w3.org/2000/svg">
<path fill-rule="evenodd" clip-rule="evenodd" d="M35.9574 2.0227C35.9856 1.362 36 0.687857 36 0H34C34 0.659956 33.9862 1.3056 33.9592 1.93726L35.9574 2.0227ZM34.569 10.9325C34.9248 9.69223 35.2203 8.386 35.4486 7.01042L33.4756 6.68298C33.2595 7.98517 32.9806 9.21647 32.6465 10.3809L34.569 10.9325ZM30.7793 19.196C31.5109 18.1025 32.1844 16.9263 32.7872 15.6614L30.9818 14.8009C30.4208 15.978 29.7953 17.0702 29.117 18.0839L30.7793 19.196ZM24.5455 25.8244C25.5953 25.0171 26.6132 24.1233 27.5807 23.1339L26.1508 21.7355C25.2526 22.6541 24.3058 23.4858 23.3263 24.2389L24.5455 25.8244ZM16.6596 30.2814C17.8689 29.7919 19.0918 29.2249 20.3044 28.5682L19.3519 26.8095C18.2104 27.4278 17.0555 27.9635 15.9091 28.4276L16.6596 30.2814ZM7.98526 32.7366C9.1965 32.5235 10.5157 32.242 11.9001 31.8701L11.3813 29.9386C10.0597 30.2936 8.79838 30.5628 7.63868 30.7669L7.98526 32.7366ZM1.5307 33.3965C1.8765 33.3903 2.37664 33.3743 3.00497 33.3352L2.88057 31.339C2.28414 31.3762 1.81372 31.3911 1.49516 31.3968C1.3359 31.3996 1.21467 31.4001 1.1347 31.4C1.09472 31.3999 1.06507 31.3996 1.04614 31.3994L1.02585 31.3992L1.02183 31.3991C1.02189 31.3991 1.02196 31.3991 1.00165 32.3989C0.981346 33.3987 0.981419 33.3987 0.981495 33.3987L0.981655 33.3987L0.982033 33.3987L0.982979 33.3987L0.985657 33.3988L0.994144 33.3989L1.02351 33.3993C1.04854 33.3996 1.08442 33.3999 1.13074 33.4C1.22336 33.4002 1.35777 33.3995 1.5307 33.3965Z" fill="#C0C0C4"/>
<circle cx="4.5" cy="31.5" r="3.5" fill="white" stroke="#C0C0C4" stroke-width="2"/>
</svg>
