<svg width="48" height="48" viewBox="0 0 48 48" fill="none" xmlns="http://www.w3.org/2000/svg">
<path fill-rule="evenodd" clip-rule="evenodd" d="M47.9719 1.98517C47.9905 1.33316 48 0.671488 48 0H46C46 0.65269 45.9908 1.29528 45.9727 1.92791L47.9719 1.98517ZM47.0939 10.732C47.3181 9.48468 47.5033 8.19312 47.6465 6.85574L45.6578 6.6428C45.5196 7.93425 45.3411 9.17879 45.1255 10.3782L47.0939 10.732ZM44.7377 19.2479C45.1989 18.0556 45.6179 16.8093 45.9905 15.5068L44.0676 14.9568C43.7114 16.2023 43.3114 17.3913 42.8724 18.5265L44.7377 19.2479ZM40.6353 27.1068C41.3608 26.0417 42.0472 24.9139 42.6877 23.7199L40.9253 22.7745C40.3182 23.9061 39.6684 24.9737 38.9823 25.9809L40.6353 27.1068ZM34.7825 33.7853C35.7471 32.9219 36.6851 31.9919 37.587 30.9905L36.1009 29.6521C35.2485 30.5985 34.3615 31.4779 33.4486 32.2951L34.7825 33.7853ZM27.5444 38.9033C28.671 38.2793 29.7931 37.5911 30.8986 36.8321L29.7666 35.1833C28.7166 35.9042 27.6492 36.5589 26.5754 37.1537L27.5444 38.9033ZM19.4293 42.4088C20.6326 42.0164 21.8657 41.5644 23.112 41.0437L22.341 39.1982C21.1476 39.6968 19.9651 40.1304 18.8092 40.5074L19.4293 42.4088ZM10.8564 44.4334C12.0346 44.2542 13.3259 44.0185 14.6979 43.7087L14.2573 41.7578C12.9355 42.0563 11.6912 42.2835 10.5556 42.4562L10.8564 44.4334ZM4.51521 44.9977C4.85471 44.993 5.34752 44.9798 5.97127 44.9458L5.86242 42.9488C5.2676 42.9812 4.80198 42.9936 4.48771 42.9979C4.33059 43.0001 4.21135 43.0002 4.13276 42.9998C4.09346 42.9997 4.06434 42.9994 4.04573 42.9991L4.02575 42.9988L4.02175 42.9987C4.02181 42.9987 4.0218 42.9987 4 43.9985C3.9782 44.9983 3.97827 44.9983 3.97834 44.9983L3.98233 44.9983L3.99053 44.9985L4.01904 44.9989C4.04337 44.9993 4.07832 44.9996 4.12353 44.9998C4.21395 45.0002 4.34544 45 4.51521 44.9977Z" fill="#C0C0C4"/>
<circle cx="4.5" cy="43.5" r="3.5" fill="white" stroke="#C0C0C4" stroke-width="2"/>
</svg>
