<svg xmlns="http://www.w3.org/2000/svg" width="48" height="48" viewBox="0 0 48 48"><title>48x48_sharpie_static</title><path d="M42,41l-1.25-1.26a3,3,0,0,0-.87-2.28L27,24.51a2,2,0,0,0-.51-1.93L13.74,9.85l.71-.7a1,1,0,0,1,1.41,0L29.3,22.58a1,1,0,0,1,0,1.42,1,1,0,0,0,0,1.41,1,1,0,0,0,1.41,0,3,3,0,0,0,0-4.24L17.28,7.73a3,3,0,0,0-4.25,0L11.9,8.86a5.71,5.71,0,0,0-5.23,1.7C4.52,12.71,4.21,15.88,6,17.63L18.69,30.36A2,2,0,0,0,20.1,31a2.09,2.09,0,0,0,.51-.08L33.54,43.8a3,3,0,0,0,2.12.87h.16l1.25,1.26a2,2,0,0,0,1.42.58,2,2,0,0,0,1.41-.58L42,43.8A2,2,0,0,0,42,41Z" fill="#e3e3e6"/><path d="M25.82,3.8h1a2,2,0,0,1,2,2v38a1,1,0,0,1-1,1h-3a1,1,0,0,1-1-1V5.8a2,2,0,0,1,2-2Z" transform="translate(-9.47 25.73) rotate(-45)" fill="#928cff"/><path d="M22.12,5.09h7a0,0,0,0,1,0,0v35a2,2,0,0,1-2,2h-3a2,2,0,0,1-2-2v-35a0,0,0,0,1,0,0Z" transform="translate(-9.18 25.02) rotate(-45)" fill="#f7f7fa"/><rect x="23.47" y="21.94" width="5" height="4" transform="translate(-9.32 25.38) rotate(-45)" fill="#e3e3e6"/><path d="M21.37,24.3a1,1,0,0,1-1.41,0L7.23,11.57c-1.36-1.36-1-3.91.71-5.66h0c1.75-1.75,4.29-2.07,5.66-.71L26.32,17.93a1,1,0,0,1,0,1.42Z" fill="#928cff"/><path d="M42.59,35.61l-1.26-1.26a3,3,0,0,0-.86-2.28L27.54,19.15A2,2,0,0,0,27,17.22L14.3,4.5,15,3.79a1,1,0,0,1,1.41,0L29.86,17.22a1,1,0,0,1,0,1.42,1,1,0,0,0,1.41,1.41,3,3,0,0,0,0-4.24L17.84,2.38a3,3,0,0,0-4.24,0L12.48,3.49A5.72,5.72,0,0,0,7.23,5.2c-2.14,2.15-2.46,5.32-.71,7.07L19.25,25a2,2,0,0,0,1.93.51L34.1,38.44a3,3,0,0,0,2.28.86l1.26,1.26a2,2,0,0,0,2.83,0l2.12-2.12A2,2,0,0,0,42.59,35.61Zm-21.92-12L7.94,10.86c-1-1-.64-2.9.71-4.24S11.93,5,12.89,5.91L25.62,18.64ZM36.93,37a1,1,0,0,1-1.41,0L22.79,24.3l3.53-3.54L39.05,33.49a1,1,0,0,1,0,1.41Zm2.12,2.12-.71-.7,2.13-2.12h0l.7.7Z" fill="#344b63"/></svg>