<svg width="60" height="60" viewBox="0 0 60 60" fill="none" xmlns="http://www.w3.org/2000/svg">
<path d="M19.635 45C14.3138 45 10 40.6721 10 35.3333C10 30.4096 13.6691 26.3457 18.4139 25.7436C19.5295 20.1856 24.4235 16 30.292 16C36.7641 16 42.0511 21.0911 42.3914 27.4994C46.6852 28.0646 50 31.75 50 36.2121C50 40.8687 46.3901 44.6985 41.8248 45H19.635Z" fill="#E4E4E6"/>
<path fill-rule="evenodd" clip-rule="evenodd" d="M30.292 17C24.9114 17 20.4184 20.8381 19.3943 25.9404L19.2529 26.6451L18.5398 26.7356C14.2908 27.2748 11 30.917 11 35.3333C11 40.1229 14.8691 44 19.635 44H41.7908C45.8134 43.7177 49 40.3332 49 36.2121C49 32.2559 46.0612 28.991 42.2609 28.4908L41.4368 28.3823L41.3928 27.5524C41.0804 21.6693 36.2268 17 30.292 17ZM17.5896 24.8639C19.0468 19.1932 24.1785 15 30.292 15C37.0302 15 42.577 20.0943 43.3234 26.6478C47.715 27.6054 51 31.5251 51 36.2121C51 41.3933 46.9836 45.6615 41.8907 45.9978L41.8578 46H19.635C13.7584 46 9 41.2213 9 35.3333C9 30.146 12.6922 25.8212 17.5896 24.8639Z" fill="#344B63"/>
<path fill-rule="evenodd" clip-rule="evenodd" d="M28.952 29.8264L25.7072 33.0711C25.3166 33.4616 24.6834 33.4616 24.2929 33.0711C23.9024 32.6805 23.9024 32.0474 24.2929 31.6569L29.95 26L35.6071 31.6569C35.9976 32.0474 35.9976 32.6805 35.6071 33.0711C35.2166 33.4616 34.5834 33.4616 34.1928 33.0711L30.952 29.8304V39C30.952 39.5523 30.5043 40 29.952 40C29.3997 40 28.952 39.5523 28.952 39V29.8264Z" fill="#2A3B4D"/>
</svg>
