<svg width="60" height="60" fill="none" xmlns="http://www.w3.org/2000/svg"><path d="M12 20a2 2 0 0 1 2-2h32a2 2 0 0 1 2 2v20a2 2 0 0 1-2 2H14a2 2 0 0 1-2-2V20Z" fill="#fff"/><path fill-rule="evenodd" clip-rule="evenodd" d="M14 16h32a4 4 0 0 1 4 4v20a4 4 0 0 1-4 4H14a4 4 0 0 1-4-4V20a4 4 0 0 1 4-4Zm0 2a2 2 0 0 0-2 2v20a2 2 0 0 0 2 2h32a2 2 0 0 0 2-2V20a2 2 0 0 0-2-2H14Z" fill="#1A1C20"/><path fill-rule="evenodd" clip-rule="evenodd" d="M18 30a1 1 0 0 1 1-1h15a1 1 0 1 1 0 2H19a1 1 0 0 1-1-1Zm0 5a1 1 0 0 1 1-1h12a1 1 0 1 1 0 2H19a1 1 0 0 1-1-1Z" fill="#1A1C20"/><rect x="38" y="22" width="6" height="6" rx="1" fill="#57D3D2"/></svg>