<svg width="60" height="60" fill="none" xmlns="http://www.w3.org/2000/svg">
  <path d="M23.372 10.204a1 1 0 011.32-.507l2.284 1.017a1 1 0 01.507 1.32l-1.627 3.654a1 1 0 01-1.32.507l-2.284-1.017a1 1 0 01-.507-1.32l1.627-3.654zm-3 7a1 1 0 011.32-.507l2.284 1.017a1 1 0 01.507 1.32l-1.627 3.654a1 1 0 01-1.32.507l-2.284-1.017a1 1 0 01-.507-1.32l1.627-3.654z" fill="#1A1C20"/>
  <path d="M26.628 7.617a2.721 2.721 0 013.594-1.38l16.163 7.2a2.725 2.725 0 011.379 3.597l-14.392 32.35a2.721 2.721 0 01-3.594 1.38l-16.162-7.202a2.725 2.725 0 01-1.38-3.596l14.392-32.35z" fill="#57D3D2"/>
  <path fill-rule="evenodd" clip-rule="evenodd" d="M25.715 7.21a3.721 3.721 0 014.914-1.887l16.162 7.201a3.725 3.725 0 011.887 4.916L34.286 49.79a3.721 3.721 0 01-4.915 1.887L13.21 44.476a3.725 3.725 0 01-1.887-4.916L25.715 7.21zm4.1-.06a1.721 1.721 0 00-2.273.873L13.15 40.373c-.388.87.004 1.889.873 2.276l16.162 7.201a1.721 1.721 0 002.273-.873l14.392-32.35a1.725 1.725 0 00-.873-2.276L29.816 7.15z" fill="#1A1C20"/>
  <path d="M32.565 22L23 23.598l3.913 1.854L28.557 32 38 30.705l-3.913-1.854L32.565 22z" fill="#fff"/>
  <path fill-rule="evenodd" clip-rule="evenodd" d="M33.541 21.783a1 1 0 00-1.14-.77l-9.566 1.599a1 1 0 00-.263 1.89l3.486 1.652 1.529 6.09a1 1 0 001.105.747l9.444-1.295a1 1 0 00.292-1.895l-3.47-1.644-1.417-6.374zm-7.212 2.273c.04.014.08.03.118.05l.732.366.162.076c.034.016.066.034.098.053l2.008 1.005a1 1 0 01-.894 1.788l-.139-.069.894 3.563 5.229-.717-.878-.416a1 1 0 01-.548-.687l-1.317-5.925-5.465.913z" fill="#1A1C20"/>
  <path d="M12 43a2 2 0 012-2h36a4 4 0 014 4v6H12v-8zm28-16h7.333L51 41H40V27z" fill="#fff"/>
  <path fill-rule="evenodd" clip-rule="evenodd" d="M39 40H14a3 3 0 00-3 3v9h44v-7c0-2.102-1.297-3.9-3.134-4.64L48.63 28H50a1 1 0 100-2H40a1 1 0 00-1 1v13zm7.562-12H41v12h8.704l-3.142-12zM50 42H14a1 1 0 00-1 1v7h40v-5a3 3 0 00-3-3z" fill="#1A1C20"/>
  <path d="M2.53 54h19.46c.006-.087.01-.175.01-.265 0-1.608-1.201-2.911-2.683-2.911-.43 0-.838.11-1.198.306-.692-1.44-2.08-2.424-3.68-2.424-.412 0-.81.065-1.187.187C12.366 46.606 10.282 45 7.854 45 4.62 45 2 47.844 2 51.353A6.8 6.8 0 002.53 54z" fill="#fff"/>
  <path fill-rule="evenodd" clip-rule="evenodd" d="M1 51.353C1 47.37 3.993 44 7.854 44c2.595 0 4.81 1.537 5.973 3.745.2-.026.405-.04.612-.04 1.709 0 3.192.884 4.118 2.202.245-.055.5-.083.76-.083 2.11 0 3.683 1.83 3.683 3.911 0 .117-.005.233-.014.348L22.91 55H1.867l-.258-.61A7.787 7.787 0 011 51.352zM7.854 46C5.249 46 3 48.318 3 51.353c0 .576.082 1.13.234 1.647h17.64c-.265-.722-.904-1.176-1.557-1.176-.257 0-.501.065-.721.184l-.924.502-.455-.948c-.546-1.137-1.61-1.856-2.778-1.856-.306 0-.6.048-.879.138l-.899.291-.341-.88C11.563 47.3 9.818 46 7.854 46z" fill="#1A1C20"/>
  <path fill-rule="evenodd" clip-rule="evenodd" d="M58.5 54a1 1 0 01-1 1H6a1 1 0 110-2h51.5a1 1 0 011 1zM5 35a1 1 0 011-1h11.5a1 1 0 110 2H6a1 1 0 01-1-1zm7-4a1 1 0 011-1h4.5a1 1 0 110 2H13a1 1 0 01-1-1z" fill="#1A1C20"/>
  <path d="M51 50.5a4.5 4.5 0 11-9 0 4.5 4.5 0 019 0z" fill="#E4E4E6"/>
  <path fill-rule="evenodd" clip-rule="evenodd" d="M46.5 53a2.5 2.5 0 100-5 2.5 2.5 0 000 5zm0 2a4.5 4.5 0 100-9 4.5 4.5 0 000 9z" fill="#1A1C20"/>
  <path d="M25 50.5a4.5 4.5 0 11-9 0 4.5 4.5 0 019 0z" fill="#E4E4E6"/>
  <path fill-rule="evenodd" clip-rule="evenodd" d="M20.5 53a2.5 2.5 0 100-5 2.5 2.5 0 000 5zm0 2a4.5 4.5 0 100-9 4.5 4.5 0 000 9z" fill="#1A1C20"/>
</svg>
