<svg width="60" height="60" fill="none" xmlns="http://www.w3.org/2000/svg">
  <path fill-rule="evenodd" clip-rule="evenodd" d="M6 50a1 1 0 011-1h47a1 1 0 110 2H7a1 1 0 01-1-1z" fill="#1A1C20"/>
  <path fill-rule="evenodd" clip-rule="evenodd" d="M18.3 20.824a4 4 0 10-4.392-3.163 3.001 3.001 0 104.393 3.163z" fill="#57D3D2"/>
  <path fill-rule="evenodd" clip-rule="evenodd" d="M20.788 16.37a3 3 0 10-5.9 1.09l.15.724-.65.355a2.001 2.001 0 102.928 2.109l.13-.728.735-.089a3 3 0 002.606-3.46zm-3.764-4.453a5 5 0 012.073 9.772 4 4 0 11-6.26-4.509 5 5 0 014.187-5.263z" fill="#1A1C20"/>
  <path d="M14.764 23.327a5.966 5.966 0 0111.473 0l1.67 5.849A3 3 0 0125.023 33h-9.046a3 3 0 01-2.884-3.824l1.67-5.85z" fill="#fff"/>
  <path fill-rule="evenodd" clip-rule="evenodd" d="M13.802 23.052a6.966 6.966 0 0113.396 0l1.671 5.85C29.599 31.455 27.68 34 25.023 34h-9.046c-2.657 0-4.576-2.544-3.846-5.099l1.671-5.849zM20.5 20a4.966 4.966 0 00-4.775 3.602l-1.67 5.849A2 2 0 0015.976 32h9.046a2 2 0 001.923-2.55l-1.671-5.848A4.966 4.966 0 0020.5 20z" fill="#1A1C20"/>
  <path d="M18 50h5l1-6h-7l1 6z" fill="#fff"/>
  <path fill-rule="evenodd" clip-rule="evenodd" d="M17.153 51h6.694l1.333-8h-9.36l1.333 8zm1.694-2l-.667-4h4.64l-.667 4h-3.306z" fill="#1A1C20"/>
  <path d="M17 30h7l2.482 11.58A2 2 0 0124.526 44h-8.052a2 2 0 01-1.956-2.42L17 30z" fill="#fff"/>
  <path fill-rule="evenodd" clip-rule="evenodd" d="M16.022 29.79A1 1 0 0117 29h7a1 1 0 01.978.79l2.481 11.581A3 3 0 0124.526 45h-8.052a3 3 0 01-2.933-3.629l2.481-11.58zM17.81 31l-2.313 10.79a1 1 0 00.978 1.21h8.052a1 1 0 00.978-1.21L23.192 31h-5.384z" fill="#1A1C20"/>
  <path fill-rule="evenodd" clip-rule="evenodd" d="M16 30a1 1 0 001 1h7a1 1 0 001-1v-4a1 1 0 10-2 0v3h-5v-3a1 1 0 10-2 0v4z" fill="#1A1C20"/>
  <path d="M25 12.5a4.5 4.5 0 11-9 0 4.5 4.5 0 019 0z" fill="#fff"/>
  <path fill-rule="evenodd" clip-rule="evenodd" d="M20.5 9a3.5 3.5 0 100 7 3.5 3.5 0 000-7zM15 12.5a5.5 5.5 0 1111 0 5.5 5.5 0 01-11 0z" fill="#1A1C20"/>
  <path d="M20.5 6C17.462 6 15 8.239 15 11c3.637.661 7.363.661 11 0 0-2.761-2.462-5-5.5-5z" fill="#57D3D2"/>
  <path fill-rule="evenodd" clip-rule="evenodd" d="M16.1 10.169c2.917.436 5.883.436 8.8 0C24.477 8.41 22.735 7 20.5 7c-2.234 0-3.976 1.411-4.4 3.169zM14 11c0-3.401 3.002-6 6.5-6S27 7.599 27 11a1 1 0 01-.821.984 31.749 31.749 0 01-11.358 0A1 1 0 0114 11z" fill="#1A1C20"/>
  <path d="M31.863 23.584A6 6 0 0137.849 18h2.303a6 6 0 015.985 5.584l.714 10.277A2 2 0 0144.856 36H33.144a2 2 0 01-1.995-2.139l.714-10.277z" fill="#fff"/>
  <path fill-rule="evenodd" clip-rule="evenodd" d="M30.865 23.515A7 7 0 0137.848 17h2.303a7 7 0 016.984 6.515l.714 10.277A3 3 0 0144.856 37H33.144a3 3 0 01-2.993-3.208l.714-10.277zM37.848 19a5 5 0 00-4.988 4.653l-.714 10.278A1 1 0 0033.144 35h11.712a1 1 0 00.998-1.07l-.715-10.277A5 5 0 0040.151 19h-2.303z" fill="#1A1C20"/>
  <path d="M34 32h10v18H34V32z" fill="#fff"/>
  <path fill-rule="evenodd" clip-rule="evenodd" d="M33 32a1 1 0 011-1h10a1 1 0 011 1v18a1 1 0 01-1 1H34a1 1 0 01-1-1V32zm2 1v16h8V33h-8z" fill="#1A1C20"/>
  <path d="M44 13.5c0 2.485-2.239 4.5-5 4.5s-5-2.015-5-4.5S36.239 9 39 9s5 2.015 5 4.5z" fill="#fff"/>
  <path fill-rule="evenodd" clip-rule="evenodd" d="M39 10c-2.31 0-4 1.664-4 3.5s1.69 3.5 4 3.5 4-1.664 4-3.5-1.69-3.5-4-3.5zm-6 3.5c0-3.134 2.788-5.5 6-5.5s6 2.366 6 5.5-2.788 5.5-6 5.5-6-2.366-6-5.5z" fill="#1A1C20"/>
  <path d="M42.002 7.5c-.711 0-1.778.35-1.778.259a1.51 1.51 0 00-.229-.7 1.979 1.979 0 00-.562-.58 2.646 2.646 0 00-.81-.371 3.104 3.104 0 00-.933-.106c-.637-.024-1.261.145-1.736.47-.475.327-.761.783-.798 1.27v.137c-.57.038-1.102.233-1.498.548-.397.315-.63.73-.658 1.167.01.285.114.563.302.81.189.245.456.45.776.596 1.237-1 3.248-1.527 5.288-1.5 1.417-.017 4.296.791 5.208 1.5 1-1.383.04-2.474-.82-3.048a2.674 2.674 0 00-.817-.36c-.3-.077-.618-.11-.934-.093z" fill="#57D3D2"/>
  <path fill-rule="evenodd" clip-rule="evenodd" d="M40.956 9.685c-.6-.12-1.162-.19-1.59-.185a11.041 11.041 0 00-2.592.274c-1.056.249-1.999.662-2.696 1.226a2.025 2.025 0 01-.776-.597 1.422 1.422 0 01-.302-.81c.007-.113.029-.225.063-.335a1.74 1.74 0 01.595-.83c.396-.316.928-.511 1.498-.55v-.136c.037-.487.323-.943.798-1.27.475-.325 1.099-.494 1.736-.47.317-.012.634.024.934.106.299.081.574.207.81.37.235.164.425.36.561.58a1.554 1.554 0 01.229.7c0 .023.061.02.164 0 .025-.003.053-.009.082-.014l.24-.051.217-.047c.34-.072.746-.147 1.075-.147a3.47 3.47 0 01.204-.004h.002c.248.004.494.036.729.097.3.078.578.2.817.36.299.2.61.462.847.778.443.59.624 1.368-.027 2.27a2.106 2.106 0 00-.113-.081c-.697-.472-2.193-.972-3.505-1.234zM41.95 5.5a5.081 5.081 0 011.488.156c.5.129.988.339 1.428.633.576.385 1.392 1.068 1.833 2.094.514 1.194.389 2.554-.503 3.788a2 2 0 01-2.848.408c-.007-.004-.049-.033-.14-.082a4.8 4.8 0 00-.402-.187 11.28 11.28 0 00-1.195-.409c-.942-.269-1.798-.406-2.22-.401h-.053c-1.765-.024-3.255.45-4.003 1.055l-.96.777-1.125-.511a4.022 4.022 0 01-1.536-1.2A3.405 3.405 0 0131 9.661l-.003-.097.006-.097c.07-1.091.646-1.999 1.409-2.605.352-.28.744-.5 1.156-.659a3.97 3.97 0 011.253-1.379c.846-.58 1.873-.846 2.868-.823.49-.011.985.047 1.46.177.5.137.986.354 1.423.657.285.198.552.434.785.708.192-.024.393-.04.59-.043zm-1.903.289c-.02.003-.018.002 0 0z" fill="#1A1C20"/>
  <path d="M45 34H33v-8h12v8z" fill="#fff"/>
  <path fill-rule="evenodd" clip-rule="evenodd" d="M33 34a1 1 0 001 1h10a1 1 0 001-1v-4a1 1 0 10-2 0v3h-8v-3a1 1 0 10-2 0v4zm5-9v-6h2v6a1 1 0 11-2 0zm0 25V38h2v12a1 1 0 11-2 0z" fill="#1A1C20"/>
</svg>
