<svg xmlns="http://www.w3.org/2000/svg" width="60" height="60" viewBox="0 0 60 60">
  <g fill="none" fill-rule="evenodd">
    <path fill="#FFF" stroke="#344B63" stroke-width="2" d="M33.7782814,12.4037316 L52.8107449,21.2787151 C54.8129048,22.2123375 55.6791255,24.5922594 54.745503,26.5944193 L42.9121917,51.9710373 C41.9785692,53.9731972 39.5986474,54.8394179 37.5964875,53.9057954 L18.564024,45.0308119 L33.7782814,12.4037316 Z"/>
    <path fill="#D3F2F2" fill-rule="nonzero" stroke="#344B63" stroke-width="2" d="M10,45.0917742 L10,11.9082258 C10,9.74977229 11.7009982,8 13.7992857,8 L19,8 L19,49 L13.7992857,49 C11.7009982,49 10,47.2502277 10,45.0917742 L10,45.0917742 Z"/>
    <path fill="#E3E3E6" stroke="#344B63" stroke-width="2" d="M14 8L19 8 19 50 14 50C11.790861 50 10 48.209139 10 46L10 12C10 9.790861 11.790861 8 14 8zM19 8L43 8C45.209139 8 47 9.790861 47 12L47 46C47 48.209139 45.209139 50 43 50L19 50 19 8z"/>
    <circle cx="33" cy="24" r="4" fill="#FFF" fill-rule="nonzero" stroke="#344B63" stroke-linecap="round" stroke-width="2"/>
    <path fill="#FFF" fill-rule="nonzero" stroke="#344B63" stroke-linecap="round" stroke-width="2" d="M27.7640955,37 C27.543646,37.0021141 27.3332123,36.9089892 27.1878324,36.7449452 C27.0424526,36.5809013 26.9765868,36.3622548 27.007462,36.1461919 C27.4325168,33.19359 29.986866,31 33,31 C36.013134,31 38.5674832,33.19359 38.992538,36.1461919 C39.0234132,36.3622548 38.9575474,36.5809013 38.8121676,36.7449452 C38.6667877,36.9089892 38.456354,37.0021141 38.2359045,37 L27.7640955,37 Z"/>
    <path fill="#FFF" stroke="#344B63" stroke-width="2" d="M8 16L12 16 12 20 8 20C6.8954305 20 6 19.1045695 6 18 6 16.8954305 6.8954305 16 8 16zM8 27L12 27 12 31 8 31C6.8954305 31 6 30.1045695 6 29 6 27.8954305 6.8954305 27 8 27zM8 38L12 38 12 42 8 42C6.8954305 42 6 41.1045695 6 40 6 38.8954305 6.8954305 38 8 38z"/>
  </g>
</svg>
