<svg width="60" height="60" viewBox="0 0 60 60" fill="none" xmlns="http://www.w3.org/2000/svg">
  <path d="M16 12C16 10.8954 16.8954 10 18 10H42C43.1046 10 44 10.8954 44 12V48C44 49.1046 43.1046 50 42 50H18C16.8954 50 16 49.1046 16 48V12Z" fill="white"/>
  <path fill-rule="evenodd" clip-rule="evenodd" d="M15 12C15 10.3431 16.3431 9 18 9H42C43.6569 9 45 10.3431 45 12V48C45 49.6569 43.6569 51 42 51H18C16.3431 51 15 49.6569 15 48V12ZM18 11C17.4477 11 17 11.4477 17 12V48C17 48.5523 17.4477 49 18 49H42C42.5523 49 43 48.5523 43 48V12C43 11.4477 42.5523 11 42 11H18Z" fill="#1A1C20"/>
  <path d="M29 18.5C29 20.9853 26.9853 23 24.5 23C22.0147 23 20 20.9853 20 18.5C20 16.0147 22.0147 14 24.5 14C26.9853 14 29 16.0147 29 18.5Z" fill="#57D3D2"/>
  <path fill-rule="evenodd" clip-rule="evenodd" d="M19 28C19 27.4477 19.4477 27 20 27H24C24.5523 27 25 27.4477 25 28C25 28.5523 24.5523 29 24 29H20C19.4477 29 19 28.5523 19 28Z" fill="#1A1C20"/>
  <path fill-rule="evenodd" clip-rule="evenodd" d="M27 28C27 27.4477 27.4477 27 28 27H32C32.5523 27 33 27.4477 33 28C33 28.5523 32.5523 29 32 29H28C27.4477 29 27 28.5523 27 28Z" fill="#1A1C20"/>
  <path fill-rule="evenodd" clip-rule="evenodd" d="M35 28C35 27.4477 35.4477 27 36 27H40C40.5523 27 41 27.4477 41 28C41 28.5523 40.5523 29 40 29H36C35.4477 29 35 28.5523 35 28Z" fill="#1A1C20"/>
  <path fill-rule="evenodd" clip-rule="evenodd" d="M19 33C19 32.4477 19.4477 32 20 32H24C24.5523 32 25 32.4477 25 33C25 33.5523 24.5523 34 24 34H20C19.4477 34 19 33.5523 19 33Z" fill="#1A1C20"/>
  <path fill-rule="evenodd" clip-rule="evenodd" d="M19 38C19 37.4477 19.4477 37 20 37H24C24.5523 37 25 37.4477 25 38C25 38.5523 24.5523 39 24 39H20C19.4477 39 19 38.5523 19 38Z" fill="#1A1C20"/>
  <path fill-rule="evenodd" clip-rule="evenodd" d="M27 33C27 32.4477 27.4477 32 28 32H32C32.5523 32 33 32.4477 33 33C33 33.5523 32.5523 34 32 34H28C27.4477 34 27 33.5523 27 33Z" fill="#1A1C20"/>
  <path fill-rule="evenodd" clip-rule="evenodd" d="M35 33C35 32.4477 35.4477 32 36 32H40C40.5523 32 41 32.4477 41 33C41 33.5523 40.5523 34 40 34H36C35.4477 34 35 33.5523 35 33Z" fill="#1A1C20"/>
  <path fill-rule="evenodd" clip-rule="evenodd" d="M27 38C27 37.4477 27.4477 37 28 37H32C32.5523 37 33 37.4477 33 38C33 38.5523 32.5523 39 32 39H28C27.4477 39 27 38.5523 27 38Z" fill="#1A1C20"/>
  <path d="M53 44C53 48.9706 48.9706 53 44 53C39.0294 53 35 48.9706 35 44C35 39.0294 39.0294 35 44 35C48.9706 35 53 39.0294 53 44Z" fill="white"/>
  <path fill-rule="evenodd" clip-rule="evenodd" d="M44 51C47.866 51 51 47.866 51 44C51 40.134 47.866 37 44 37C40.134 37 37 40.134 37 44C37 47.866 40.134 51 44 51ZM44 53C48.9706 53 53 48.9706 53 44C53 39.0294 48.9706 35 44 35C39.0294 35 35 39.0294 35 44C35 48.9706 39.0294 53 44 53Z" fill="#1A1C20"/>
  <path fill-rule="evenodd" clip-rule="evenodd" d="M43 38.5H45V42.9197L47.9961 44.6318L47.0039 46.3682L43 44.0803V38.5Z" fill="#1A1C20"/>
</svg>
