<svg width="60" height="60" viewBox="0 0 60 60" fill="none" xmlns="http://www.w3.org/2000/svg">
<path d="M48 16C49.1046 16 50 16.8954 50 18L50 42C50 43.1046 49.1046 44 48 44L12 44C10.8954 44 10 43.1046 10 42L10 18C10 16.8954 10.8954 16 12 16L48 16Z" fill="white" stroke="#1A1C20" stroke-width="2"/>
<path d="M29.3708 27.5094C29.7377 27.2123 30.2623 27.2123 30.6292 27.5094L48.8046 42.2228C49.537 42.8157 49.1178 44 48.1754 44H11.8246C10.8822 44 10.463 42.8157 11.1954 42.2228L29.3708 27.5094Z" fill="white" stroke="#1A1C20" stroke-width="2"/>
<path d="M30.6508 33.4422C30.2763 33.7632 29.7237 33.7632 29.3492 33.4422L11.0525 17.7593C10.3476 17.1551 10.7749 16 11.7033 16L48.2967 16C49.2251 16 49.6524 17.1551 48.9475 17.7593L30.6508 33.4422Z" fill="white" stroke="#1A1C20" stroke-width="2"/>
</svg>
