<svg width="60" height="60" fill="none" xmlns="http://www.w3.org/2000/svg">
  <path d="M18.893 37.735l4.695-3.618-5.244 4.103a2.497 2.497 0 00-.242 3.525 2.501 2.501 0 003.426.326l.004.005a2.498 2.498 0 00-.146 3.437 2.501 2.501 0 003.357.379l.012.014a2.498 2.498 0 00-.084 3.375 2.5 2.5 0 003.527.242l1.665-1.45 26.702-22.67-9.19-10.64-6.803 4.61a4 4 0 01-2.151.688l-6.388.148L13.24 35.742a2.5 2.5 0 003.285 3.77l2.37-1.777z" fill="#57D3D2"/>
  <path fill-rule="evenodd" clip-rule="evenodd" d="M46.813 13.935a1 1 0 011.318.175l9.19 10.64a1 1 0 01-.109 1.415L30.515 48.831l-1.66 1.446a3.501 3.501 0 01-5.788-2.913 3.49 3.49 0 01-2.435-1.194 3.487 3.487 0 01-.85-2.574 3.49 3.49 0 01-2.434-1.194 3.483 3.483 0 01-.81-1.692 3.501 3.501 0 01-3.936-5.74l18.794-15.532a1 1 0 01.614-.229l6.387-.148a3 3 0 001.614-.516l6.802-4.61zM18.983 38.99a1.498 1.498 0 00-.128 2.099 1.501 1.501 0 002.055.197v-.001l4.743-3.747a1 1 0 011.24 1.57l-4.654 3.676a1.498 1.498 0 00-.099 2.072 1.5 1.5 0 002.007.233l3.78-2.857a1 1 0 011.206 1.595L25.5 46.572a1.498 1.498 0 00-.076 2.051 1.5 1.5 0 002.117.146l1.675-1.458 25.933-22.018-7.95-9.203-6.066 4.111a5 5 0 01-2.69.86l-6.04.14-18.516 15.302a1.5 1.5 0 001.98 2.254 1.01 1.01 0 01.057-.046l2.364-1.772 4.684-3.61.006-.005a1 1 0 011.226 1.58l-.006.005-5.215 4.08z" fill="#1A1C20"/>
  <path d="M22.414 16.342a5.437 5.437 0 01-7.107 1.216l-4.927-3.06-7.854 11.19 12.027 8.906 5.552-4.588c.174-.095.344-.21.506-.345l7.724-6.429 2.176 1.585a2.5 2.5 0 102.945-4.04l-6.875-5.01a2.49 2.49 0 00-1.03-.44 3 3 0 00-3.137 1.015z" fill="#fff"/>
  <path fill-rule="evenodd" clip-rule="evenodd" d="M10.104 13.15l5.73 3.558a4.437 4.437 0 005.8-.992 4 4 0 014.139-1.365c.49.095.969.296 1.397.609l6.874 5.008a3.5 3.5 0 01-4.122 5.657L28.376 24.5l-7.125 5.93a4.133 4.133 0 01-.578.405l-6.086 5.03-13.44-9.953 8.957-12.76zm.551 2.697l-6.75 9.617 10.614 7.861 5.023-4.152.085-.046a2.13 2.13 0 00.345-.235l8.323-6.927L31.1 24.01a1.5 1.5 0 001.767-2.425l-6.874-5.008a1.49 1.49 0 00-.618-.264l-.045-.008-.044-.012a2 2 0 00-2.092.676 6.436 6.436 0 01-8.414 1.44l-4.125-2.561z" fill="#1A1C20"/>
  <path d="M29.12 41.835a2.5 2.5 0 013.493-.548l4.504 3.281a2.5 2.5 0 11-2.944 4.041l-4.504-3.281a2.5 2.5 0 01-.549-3.493z" fill="#fff"/>
  <path fill-rule="evenodd" clip-rule="evenodd" d="M28.312 41.246a3.5 3.5 0 014.89-.768l4.504 3.282a3.5 3.5 0 11-4.122 5.658l-4.504-3.282a3.5 3.5 0 01-.768-4.89zm3.712.849a1.5 1.5 0 00-1.767 2.425l4.505 3.281a1.5 1.5 0 101.766-2.425l-4.504-3.281z" fill="#1A1C20"/>
  <path d="M28.852 35.453a2.5 2.5 0 013.493-.548l7.716 5.622a2.5 2.5 0 11-2.944 4.041L29.4 38.946a2.5 2.5 0 01-.548-3.493z" fill="#fff"/>
  <path fill-rule="evenodd" clip-rule="evenodd" d="M28.044 34.864a3.5 3.5 0 014.89-.767l7.716 5.622a3.5 3.5 0 01-4.122 5.657l-7.716-5.622a3.5 3.5 0 01-.768-4.89zm3.712.849a1.5 1.5 0 10-1.767 2.425l7.717 5.622a1.5 1.5 0 001.767-2.425l-7.717-5.622z" fill="#1A1C20"/>
  <path d="M32.639 32.026a2.5 2.5 0 013.493-.549l6.874 5.009a2.5 2.5 0 11-2.944 4.041l-6.875-5.008a2.5 2.5 0 01-.548-3.493z" fill="#fff"/>
  <path fill-rule="evenodd" clip-rule="evenodd" d="M31.83 31.437a3.5 3.5 0 014.89-.768l6.874 5.009a3.5 3.5 0 01-4.122 5.657l-6.874-5.008a3.5 3.5 0 01-.767-4.89zm3.713.849a1.5 1.5 0 10-1.767 2.425l6.874 5.008a1.5 1.5 0 101.767-2.425l-6.874-5.008z" fill="#1A1C20"/>
  <path d="M38.482 29.282a2.777 2.777 0 013.88-.61l4.267 3.11a2.777 2.777 0 01-3.27 4.49l-4.267-3.11a2.777 2.777 0 01-.61-3.88z" fill="#fff"/>
  <path fill-rule="evenodd" clip-rule="evenodd" d="M37.674 28.693a3.777 3.777 0 015.277-.828l4.267 3.108a3.777 3.777 0 01-4.449 6.106l-4.266-3.109a3.777 3.777 0 01-.829-5.277zm4.1.788a1.777 1.777 0 10-2.094 2.873l4.267 3.108a1.777 1.777 0 002.093-2.872l-4.267-3.109z" fill="#1A1C20"/>
</svg>
