<svg width="60" height="60" fill="none" xmlns="http://www.w3.org/2000/svg"><path d="M15.635 45C10.314 45 6 40.672 6 35.333c0-4.923 3.67-8.987 8.414-9.59C15.53 20.187 20.424 16 26.292 16c6.472 0 11.76 5.091 12.1 11.5 4.293.565 7.608 4.25 7.608 8.712 0 4.657-3.61 8.486-8.175 8.788h-22.19Z" fill="#fff" stroke="#1A1C20" stroke-width="2"/><path fill-rule="evenodd" clip-rule="evenodd" d="m24.952 29.826-3.245 3.245a1 1 0 0 1-1.414-1.414L25.95 26l5.657 5.657a1 1 0 0 1-1.414 1.414l-3.241-3.24V39a1 1 0 1 1-2 0v-9.174Z" fill="#1A1C20"/><path d="M51.647 34H36.353C35.053 34 34 35.246 34 36.783v10.434C34 48.754 35.053 50 36.353 50h15.294c1.3 0 2.353-1.246 2.353-2.783V36.783C54 35.246 52.947 34 51.647 34Z" fill="#fff"/><path fill-rule="evenodd" clip-rule="evenodd" d="M36.353 35c-.597 0-1.353.634-1.353 1.783v10.434c0 1.149.756 1.783 1.353 1.783h15.294c.597 0 1.353-.634 1.353-1.783V36.783C53 35.634 52.244 35 51.647 35H36.353ZM33 36.783C33 34.857 34.35 33 36.353 33h15.294C53.65 33 55 34.857 55 36.783v10.434C55 49.143 53.65 51 51.647 51H36.353C34.35 51 33 49.143 33 47.217V36.783Z" fill="#1A1C20"/><path d="m33.443 35 7.728 7.728a4 4 0 0 0 5.657 0L54.556 35h-2.828l-6.314 6.314a2 2 0 0 1-2.828 0L36.272 35h-2.829Z" fill="#1A1C20"/></svg>