<svg width="60" height="60" viewBox="0 0 60 60" fill="none" xmlns="http://www.w3.org/2000/svg">
  <path d="M47 29C47 38.9411 38.9411 47 29 47C19.0589 47 11 38.9411 11 29C11 19.0589 19.0589 11 29 11C38.9411 11 47 19.0589 47 29Z" fill="#57D3D2"/>
  <path d="M17.4902 42.84C18.1952 41.7257 19.0636 40.7113 20.0751 39.8338C22.552 37.6851 25.7209 36.5022 28.9999 36.5022C32.279 36.5022 35.4479 37.6851 37.9248 39.8338C38.9363 40.7112 39.8046 41.7256 40.5096 42.8399C37.3895 45.4375 33.3772 47 28.9999 47C24.6226 47 20.6103 45.4376 17.4902 42.84Z" fill="white"/>
  <path fill-rule="evenodd" clip-rule="evenodd" d="M29.0001 37.5022C25.9618 37.5022 23.0255 38.5983 20.7305 40.5892C19.7932 41.4022 18.9887 42.3422 18.3354 43.3746C18.0401 43.8413 17.4224 43.9803 16.9557 43.685C16.489 43.3897 16.35 42.772 16.6453 42.3053C17.402 41.1092 18.3342 40.0203 19.4199 39.0784C22.0787 36.772 25.4803 35.5022 29.0001 35.5022C32.5198 35.5022 35.9215 36.772 38.5802 39.0784C39.666 40.0203 40.5981 41.1092 41.3548 42.3052C41.6501 42.7719 41.5111 43.3897 41.0444 43.685C40.5777 43.9802 39.96 43.8413 39.6647 43.3746C39.0115 42.3421 38.2069 41.4022 37.2697 40.5892C34.9746 38.5983 32.0383 37.5022 29.0001 37.5022Z" fill="#1A1C20"/>
  <path d="M29 32C32.3137 32 35 29.3137 35 26C35 22.6863 32.3137 20 29 20C25.6863 20 23 22.6863 23 26C23 29.3137 25.6863 32 29 32Z" fill="white"/>
  <path fill-rule="evenodd" clip-rule="evenodd" d="M29 21C26.2386 21 24 23.2386 24 26C24 28.7614 26.2386 31 29 31C31.7614 31 34 28.7614 34 26C34 23.2386 31.7614 21 29 21ZM22 26C22 22.134 25.134 19 29 19C32.866 19 36 22.134 36 26C36 29.866 32.866 33 29 33C25.134 33 22 29.866 22 26Z" fill="#1A1C20"/>
  <path fill-rule="evenodd" clip-rule="evenodd" d="M49 29C49 40.0457 40.0457 49 29 49C17.9543 49 9 40.0457 9 29C9 17.9543 17.9543 9 29 9C40.0457 9 49 17.9543 49 29ZM29 47C38.9411 47 47 38.9411 47 29C47 19.0589 38.9411 11 29 11C19.0589 11 11 19.0589 11 29C11 38.9411 19.0589 47 29 47Z" fill="#1A1C20"/>
  <path fill-rule="evenodd" clip-rule="evenodd" d="M45.6667 48H36.3333C35.0447 48 34 46.9552 34 45.6667V36.3333C34 35.0447 35.0447 34 36.3333 34H45.6667C46.9552 34 48 35.0447 48 36.3333V45.6667C48 46.9552 46.9552 48 45.6667 48Z" fill="white"/>
  <path fill-rule="evenodd" clip-rule="evenodd" d="M36.3333 46.8333H45.6667C46.3109 46.8333 46.8333 46.3109 46.8333 45.6667V36.3333C46.8333 35.6891 46.3109 35.1667 45.6667 35.1667H36.3333C35.6891 35.1667 35.1667 35.6891 35.1667 36.3333V45.6667C35.1667 46.3109 35.6891 46.8333 36.3333 46.8333ZM36.3333 48H45.6667C46.9552 48 48 46.9552 48 45.6667V36.3333C48 35.0447 46.9552 34 45.6667 34H36.3333C35.0447 34 34 35.0447 34 36.3333V45.6667C34 46.9552 35.0447 48 36.3333 48Z" fill="#1A1C20"/>
  <path fill-rule="evenodd" clip-rule="evenodd" d="M41.8 40.2V37.8C41.8 37.3582 41.4418 37 41 37C40.5582 37 40.2 37.3582 40.2 37.8V40.2H37.8C37.3582 40.2 37 40.5582 37 41C37 41.4418 37.3582 41.8 37.8 41.8H40.2V44.2C40.2 44.6418 40.5582 45 41 45C41.4418 45 41.8 44.6418 41.8 44.2V41.8H44.2C44.6418 41.8 45 41.4418 45 41C45 40.5582 44.6418 40.2 44.2 40.2H41.8Z" fill="#1A1C20"/>
</svg>
