<svg width="60" height="60" fill="none" xmlns="http://www.w3.org/2000/svg"><path d="M19.635 45C14.314 45 10 40.672 10 35.333c0-4.923 3.67-8.987 8.414-9.59C19.529 20.187 24.424 16 30.292 16c6.472 0 11.76 5.091 12.1 11.5 4.293.565 7.608 4.25 7.608 8.712 0 4.657-3.61 8.486-8.175 8.788h-22.19Z" fill="#fff" stroke="#1A1C20" stroke-width="2"/><path fill-rule="evenodd" clip-rule="evenodd" d="m30.948 36.174 3.245-3.245a1 1 0 0 1 1.414 1.414L29.95 40l-5.657-5.657a1 1 0 0 1 1.414-1.414l3.241 3.24V27a1 1 0 1 1 2 0v9.174Z" fill="#1A1C20"/></svg>