<svg width="60" height="60" fill="none" xmlns="http://www.w3.org/2000/svg">
  <path d="M16 11h28v32a2 2 0 01-2 2H18a2 2 0 01-2-2V11z" fill="#fff"/>
  <path fill-rule="evenodd" clip-rule="evenodd" d="M15 10h30v33a3 3 0 01-3 3H18a3 3 0 01-3-3V10zm2 2v31a1 1 0 001 1h24a1 1 0 001-1V12H17z" fill="#1A1C20"/>
  <path fill-rule="evenodd" clip-rule="evenodd" d="M15 12a2.02 2.02 0 00-1.419.58A1.943 1.943 0 0013 13.963v34.074c0 .517.208 1.015.581 1.384.375.37.885.579 1.419.579h30a2.02 2.02 0 001.419-.58c.373-.368.581-.866.581-1.383V13.963c0-.517-.208-1.015-.581-1.384A2.02 2.02 0 0045 12H15zm-2.824-.844A4.019 4.019 0 0115 10h30c1.057 0 2.073.415 2.824 1.156A3.945 3.945 0 0149 13.963v34.074a3.945 3.945 0 01-1.176 2.807A4.019 4.019 0 0145 52H15a4.019 4.019 0 01-2.824-1.156A3.945 3.945 0 0111 48.037V13.963c0-1.055.425-2.064 1.176-2.807z" fill="#1A1C20"/>
  <path fill-rule="evenodd" clip-rule="evenodd" d="M37.115 7.948h-2.153c-.291-2.597-2.4-4.615-4.962-4.615s-4.67 2.018-4.962 4.615h-2.153c-.765 0-1.5.325-2.04.902A3.184 3.184 0 0020 11.025v4.308h20v-4.308c0-.816-.304-1.598-.845-2.175a2.796 2.796 0 00-2.04-.902z" fill="#57D3D2"/>
  <path fill-rule="evenodd" clip-rule="evenodd" d="M24.208 6.948c.68-2.631 2.986-4.615 5.792-4.615 2.806 0 5.112 1.984 5.792 4.615h1.323c1.052 0 2.047.447 2.77 1.218A4.184 4.184 0 0141 11.026v5.307H19v-5.308c0-1.06.395-2.09 1.115-2.86a3.796 3.796 0 012.77-1.217h1.323zM30 4.333c-2.01 0-3.729 1.592-3.968 3.727l-.1.888h-3.047c-.479 0-.951.202-1.31.586-.362.385-.575.92-.575 1.491v3.308h18v-3.308c0-.57-.213-1.106-.574-1.491a1.797 1.797 0 00-1.31-.586h-3.048l-.1-.888c-.24-2.135-1.957-3.727-3.968-3.727zM21 23a1 1 0 011-1h16a1 1 0 110 2H22a1 1 0 01-1-1zm0 6a1 1 0 011-1h16a1 1 0 110 2H22a1 1 0 01-1-1zm0 6a1 1 0 011-1h16a1 1 0 110 2H22a1 1 0 01-1-1z" fill="#1A1C20"/>
</svg>
