<svg width="60" height="60" fill="none" xmlns="http://www.w3.org/2000/svg">
  <path d="M60 30c0 16.569-13.431 30-30 30C13.431 60 0 46.569 0 30 0 13.431 13.431 0 30 0c16.569 0 30 13.431 30 30z" fill="#57D3D2"/>
  <path fill-rule="evenodd" clip-rule="evenodd" d="M30 58c15.464 0 28-12.536 28-28S45.464 2 30 2 2 14.536 2 30s12.536 28 28 28zm0 2c16.569 0 30-13.431 30-30C60 13.431 46.569 0 30 0 13.431 0 0 13.431 0 30c0 16.569 13.431 30 30 30z" fill="#1A1C20"/>
  <path fill-rule="evenodd" clip-rule="evenodd" d="M44.94 20.463c-.254-1.575-1.204-2.524-2.735-2.74-.037-.01-3.765-.724-9.616-.724-5.85 0-9.577.715-9.602.72-1.198.17-2.033.785-2.467 1.778a67.393 67.393 0 017.55-.408c5.671 0 9.444.652 9.998.754 2.496.375 4.232 2.107 4.652 4.644.182.828.756 3.735.756 7.206 0 1.858-.167 3.564-.347 4.867.989-.419 1.612-1.257 1.808-2.468.006-.03.724-3.093.724-6.823 0-3.73-.718-6.793-.722-6.806" fill="#fff"/>
  <path fill-rule="evenodd" clip-rule="evenodd" d="M40.422 24.888c-.254-1.576-1.205-2.525-2.735-2.742-.038-.008-3.766-.722-9.616-.722s-9.578.714-9.602.72c-1.543.219-2.494 1.168-2.744 2.727-.008.03-.725 3.092-.725 6.823 0 3.73.717 6.792.72 6.805.255 1.576 1.206 2.525 2.736 2.742.03.006 2.45.469 6.433.65l2.374 4.112a.934.934 0 001.616 0l2.375-4.112c3.984-.181 6.4-.643 6.42-.648 1.543-.22 2.494-1.168 2.744-2.727.008-.03.724-3.093.724-6.822 0-3.73-.717-6.793-.72-6.806z" fill="#fff"/>
  <path fill-rule="evenodd" clip-rule="evenodd" d="M43.908 38.402c1.688-.714 2.688-2.162 2.992-3.924.017-.079.061-.28.116-.558a35.788 35.788 0 00.645-6.652c0-3.416-.566-6.323-.75-7.146-.182-1.107-.636-2.143-1.445-2.952-.81-.81-1.84-1.26-2.947-1.423-.798-.149-4.502-.748-9.93-.748-5.487 0-9.201.612-9.922.746-1.795.266-3.246 1.27-3.98 2.951l-.651 1.491c-1.064.177-2.053.622-2.835 1.4-.8.797-1.254 1.814-1.44 2.903-.155.683-.761 3.66-.761 7.204 0 1.987.19 3.785.38 5.085.14.958.29 1.718.375 2.092.186 1.096.639 2.12 1.44 2.922.806.807 1.832 1.257 2.933 1.421a17.241 17.241 0 00.47.08c.314.05.766.118 1.343.19.939.119 2.21.25 3.758.346l1.831 3.172a2.935 2.935 0 005.081.001l1.833-3.173c2.987-.184 4.975-.506 5.541-.611 1.11-.163 2.144-.612 2.956-1.42.761-.756 1.21-1.712 1.411-2.74l1.556-.657zm-5.84-18.559c2.496.375 4.232 2.107 4.652 4.644a35.627 35.627 0 01.756 7.206c0 .717-.025 1.411-.066 2.068l-.005.082a37.628 37.628 0 01-.276 2.717c.989-.419 1.611-1.257 1.808-2.468l.001-.006c.018-.08.227-.995.416-2.393a32.84 32.84 0 00.307-4.425c0-3.697-.706-6.739-.722-6.804v-.001h.002c-.255-1.576-1.206-2.524-2.736-2.74-.037-.01-3.765-.724-9.616-.724a69.758 69.758 0 00-4.514.145h-.005c-3.183.21-5.066.572-5.084.576-1.197.17-2.032.784-2.466 1.777a67.43 67.43 0 012.685-.243l.126-.008a67.375 67.375 0 015.638-.151c5.169.063 8.575.651 9.099.748zm3.074 11.85c0-3.73-.717-6.792-.72-6.805-.254-1.576-1.205-2.525-2.735-2.742-.038-.008-3.766-.722-9.616-.722s-9.578.714-9.602.72c-1.543.219-2.494 1.168-2.744 2.727-.008.03-.725 3.092-.725 6.823 0 3.73.717 6.792.72 6.805.255 1.576 1.206 2.525 2.736 2.742.06.011 2.474.47 6.433.65l2.374 4.112a.934.934 0 001.616 0l2.375-4.112c3.984-.181 6.4-.643 6.42-.648 1.543-.22 2.494-1.168 2.744-2.727.008-.03.724-3.093.724-6.822z" fill="#1A1C20"/>
</svg>
