<svg width="60" height="60" viewBox="0 0 60 60" fill="none" xmlns="http://www.w3.org/2000/svg">
<path d="M18 50H42C43.1046 50 44 49.1046 44 48V19.8907C44 19.3238 43.7594 18.7834 43.3379 18.4041L34.5705 10.5134C34.2032 10.1829 33.7266 10 33.2325 10H18C16.8954 10 16 10.8954 16 12V48C16 49.1046 16.8954 50 18 50Z" fill="white" stroke="#1A1C20" stroke-width="2"/>
<path d="M33.669 10.2567C33.3754 9.99252 32.9539 9.92584 32.5932 10.0865C32.2324 10.2472 32 10.6051 32 11V20C32 20.5523 32.4477 21 33 21H43C43.4141 21 43.7853 20.7448 43.9336 20.3583C44.082 19.9717 43.9767 19.5337 43.669 19.2567L33.669 10.2567Z" fill="#E4E4E6" stroke="#1A1C20" stroke-width="2" stroke-linejoin="round"/>
<rect x="9" y="25" width="24" height="15" rx="2" fill="#99C9FF" stroke="#1A1C20" stroke-width="2"/>
</svg>
