<svg width="60" height="60" viewBox="0 0 60 60" fill="none" xmlns="http://www.w3.org/2000/svg">
  <g clip-path="url(#clip0_5676_10899)">
  <path d="M16 12C16 10.8954 16.8954 10 18 10H42C43.1046 10 44 10.8954 44 12V48C44 49.1046 43.1046 50 42 50H18C16.8954 50 16 49.1046 16 48V12Z" fill="white" stroke="#1A1C20" stroke-width="2"/>
  <circle cx="22.5" cy="16.5" r="2.5" fill="#E4E4E6" stroke="#1A1C20" stroke-width="2"/>
  <line x1="20" y1="27" x2="24" y2="27" stroke="#1A1C20" stroke-width="2" stroke-linecap="round"/>
  <line x1="28" y1="27" x2="32" y2="27" stroke="#1A1C20" stroke-width="2" stroke-linecap="round"/>
  <line x1="36" y1="27" x2="40" y2="27" stroke="#1A1C20" stroke-width="2" stroke-linecap="round"/>
  <line x1="20" y1="32" x2="24" y2="32" stroke="#1A1C20" stroke-width="2" stroke-linecap="round"/>
  <line x1="20" y1="37" x2="24" y2="37" stroke="#1A1C20" stroke-width="2" stroke-linecap="round"/>
  <line x1="28" y1="32" x2="32" y2="32" stroke="#1A1C20" stroke-width="2" stroke-linecap="round"/>
  <line x1="36" y1="32" x2="40" y2="32" stroke="#1A1C20" stroke-width="2" stroke-linecap="round"/>
  <line x1="28" y1="37" x2="32" y2="37" stroke="#1A1C20" stroke-width="2" stroke-linecap="round"/>
  </g>
  <defs>
  <clipPath id="clip0_5676_10899">
  <rect width="60" height="60" fill="white"/>
  </clipPath>
  </defs>
</svg>
