<svg width="60" height="60" fill="none" xmlns="http://www.w3.org/2000/svg">
  <path fill-rule="evenodd" clip-rule="evenodd" d="M19.19 14.129l.88 1.809c.279.574.7 1.044 1.209 1.36l1.608.988a.232.232 0 01.083.09.267.267 0 010 .248.232.232 0 01-.083.09l-1.608.99c-.511.314-.93.786-1.21 1.358l-.878 1.81a.232.232 0 01-.08.093.2.2 0 01-.223 0 .232.232 0 01-.079-.094l-.88-1.808a3.253 3.253 0 00-1.208-1.359l-1.608-.99a.232.232 0 01-.083-.09.267.267 0 010-.248.232.232 0 01.083-.09l1.608-.989c.51-.315.93-.784 1.208-1.36l.88-1.808a.232.232 0 01.08-.094.2.2 0 01.222 0 .232.232 0 01.08.094z" fill="#1A1C20"/>
  <path fill-rule="evenodd" clip-rule="evenodd" d="M21.286 33.172l1.318 2.411a4.575 4.575 0 001.814 1.813l2.412 1.319a.326.326 0 01.124.45.326.326 0 01-.124.12l-2.412 1.32a4.555 4.555 0 00-1.814 1.812l-1.318 2.411A.322.322 0 0121 45a.325.325 0 01-.286-.172l-1.32-2.411a4.555 4.555 0 00-1.812-1.811l-2.412-1.32a.327.327 0 01-.124-.452.327.327 0 01.124-.12l2.412-1.318a4.545 4.545 0 001.812-1.813l1.32-2.411A.322.322 0 0121 33a.325.325 0 01.286.172z" fill="#fff"/>
  <path fill-rule="evenodd" clip-rule="evenodd" d="M21.286 33.172l1.318 2.411a4.575 4.575 0 001.814 1.813l2.412 1.319a.326.326 0 01.124.45.326.326 0 01-.124.12l-2.412 1.32a4.555 4.555 0 00-1.814 1.812l-1.318 2.411A.322.322 0 0121 45a.325.325 0 01-.286-.172l-1.32-2.411a4.555 4.555 0 00-1.812-1.811l-2.412-1.32a.327.327 0 01-.124-.452.327.327 0 01.124-.12l2.412-1.318a4.545 4.545 0 001.812-1.813l1.32-2.411A.322.322 0 0121 33a.325.325 0 01.286.172z" fill="#fff"/>
  <path fill-rule="evenodd" clip-rule="evenodd" d="M21 34.732l-.727 1.328-.001.002a5.544 5.544 0 01-2.208 2.21l-.002.002-1.33.727 1.33.728c.933.51 1.7 1.276 2.209 2.208l.729 1.33.727-1.33a5.557 5.557 0 012.211-2.209l1.33-.727-1.33-.727-.002-.002a5.575 5.575 0 01-2.21-2.21L21 34.733zm-.681-2.544a1.325 1.325 0 011.847.507l1.316 2.409a3.575 3.575 0 001.417 1.415l2.41 1.318A1.328 1.328 0 0128 39a1.324 1.324 0 01-.69 1.163l-2.412 1.32a3.56 3.56 0 00-1.416 1.413l-1.316 2.409a1.323 1.323 0 01-2.331 0l-1.319-2.408a3.558 3.558 0 00-1.414-1.414l-2.411-1.32a1.328 1.328 0 01-.505-1.84c.122-.205.296-.372.504-.486l2.41-1.317h.001c.6-.33 1.091-.82 1.414-1.414l.001-.003 1.319-2.408c.113-.21.28-.385.484-.507z" fill="#1A1C20"/>
  <path fill-rule="evenodd" clip-rule="evenodd" d="M35.57 16.296l-1.977 4.222c-.627 1.337-1.57 2.438-2.72 3.172L27.254 26a.537.537 0 00-.186.21.643.643 0 000 .58.55.55 0 00.186.21l3.62 2.31c1.147.732 2.09 1.835 2.717 3.17l1.98 4.225c.186.395.67.395.856 0l1.98-4.222c.626-1.337 1.57-2.438 2.72-3.172L44.746 27a.536.536 0 00.186-.21.643.643 0 000-.581.537.537 0 00-.186-.21l-3.62-2.309c-1.148-.734-2.091-1.835-2.717-3.172l-1.982-4.222a.537.537 0 00-.178-.216.438.438 0 00-.25-.08.438.438 0 00-.25.08.538.538 0 00-.178.216" fill="#57D3D2"/>
  <path fill-rule="evenodd" clip-rule="evenodd" d="M35.181 15.257a1.44 1.44 0 01.818-.257c.3 0 .583.095.818.257.232.16.405.378.516.615v.002l1.981 4.22c.553 1.18 1.375 2.13 2.351 2.753l3.621 2.31c.238.153.419.365.537.599a1.642 1.642 0 010 1.486 1.537 1.537 0 01-.537.599l-.002.001-3.62 2.31c-.976.624-1.799 1.574-2.351 2.754l-1.98 4.224c-.245.52-.748.87-1.334.87-.585 0-1.088-.35-1.333-.87l-1.98-4.226c-.553-1.18-1.377-2.13-2.35-2.75l-3.62-2.312-.002-.001a1.537 1.537 0 01-.537-.599 1.642 1.642 0 010-1.486c.119-.234.299-.446.537-.599l.003-.002 3.618-2.308c.977-.624 1.8-1.573 2.352-2.753l1.977-4.22.001-.002c.11-.237.284-.454.516-.615zM36 17.738l1.503 3.204c.7 1.494 1.764 2.746 3.085 3.59l3.083 1.967-3.082 1.968c-1.323.845-2.388 2.097-3.087 3.59l-1.503 3.205-1.503-3.207c-.699-1.491-1.764-2.746-3.085-3.588l-3.082-1.968 3.082-1.966c1.322-.844 2.387-2.097 3.087-3.59L36 17.738z" fill="#1A1C20"/>
</svg>
