<svg xmlns="http://www.w3.org/2000/svg" width="60" height="60" viewBox="0 0 60 60">
  <g fill="none" fill-rule="evenodd">
    <path fill="#F7F7FA" stroke="#979797" d="M40.3333333,49 L13.6666667,49 C12.194,49 11,47.806 11,46.3333333 L11,15.6666667 C11,14.194 12.194,13 13.6666667,13 L40.3333333,13 C41.806,13 43,14.194 43,15.6666667 L43,46.3333333 C43,47.806 41.806,49 40.3333333,49"/>
    <polygon fill="#FFF" stroke="#344B63" stroke-width="2" points="15 13 39 13 39 43 15 43"/>
    <path stroke="#344B63" stroke-width="2" d="M40.3333333,49 L13.6666667,49 C12.194,49 11,47.806 11,46.3333333 L11,15.6666667 C11,14.194 12.194,13 13.6666667,13 L40.3333333,13 C41.806,13 43,14.194 43,15.6666667 L43,46.3333333 C43,47.806 41.806,49 40.3333333,49 Z"/>
    <path fill="#E3E3E6" stroke="#344B63" stroke-width="2" d="M30.9676016,10.6192307 C30.7344146,8.58216681 29.0479616,7 26.9984999,7 C24.9490381,7 23.2625852,8.58216681 23.0293981,10.6192307 L21.3072596,10.6192307 C20.033037,10.6192307 19,11.7001743 19,13.0320512 L19,17 L34.9969997,17 L34.9969997,13.0320512 C34.9969997,11.7001743 33.9639627,10.6192307 32.6897402,10.6192307 L30.9676016,10.6192307 Z"/>
    <path stroke="#344B63" stroke-linecap="round" stroke-width="2" d="M21 24L33 24M21 29L33 29M21 34L33 34"/>
    <path fill="#57D3D2" d="M46.3333333,54 L35.6666667,54 C34.194,54 33,52.806 33,51.3333333 L33,40.6666667 C33,39.194 34.194,38 35.6666667,38 L46.3333333,38 C47.806,38 49,39.194 49,40.6666667 L49,51.3333333 C49,52.806 47.806,54 46.3333333,54"/>
    <path stroke="#344B63" stroke-width="2" d="M46.3333333,54 L35.6666667,54 C34.194,54 33,52.806 33,51.3333333 L33,40.6666667 C33,39.194 34.194,38 35.6666667,38 L46.3333333,38 C47.806,38 49,39.194 49,40.6666667 L49,51.3333333 C49,52.806 47.806,54 46.3333333,54 Z"/>
    <path fill="#FFF" d="M39.867189,49.5 L36.787036,46.4278176 C36.4043213,46.0462148 36.4043213,45.4268442 36.787036,45.044263 C37.170732,44.6626602 37.7919074,44.6626602 38.1746221,45.044263 L39.867189,46.7328908 L43.8246419,42.7869359 C44.2083379,42.4043547 44.8295133,42.4043547 45.212228,42.7869359 C45.595924,43.1685387 45.595924,43.7879093 45.212228,44.1704905 L39.867189,49.5 Z"/>
  </g>
</svg>
