<svg width="60" height="60" xmlns="http://www.w3.org/2000/svg">
  <path d="M44 13a4 4 0 014 4v26a4 4 0 01-4 4H16a4 4 0 01-4-4V17a4 4 0 014-4h28z" fill="#fff" stroke="#1A1C20" stroke-width="2"/>
  <path d="M44 13a4 4 0 014 4v5H12v-5a4 4 0 014-4h28z" fill="#E4E4E6" stroke="#1A1C20" stroke-width="2"/>
  <rect x="27" y="27" width="6" height="14" rx="1" fill="#fff" stroke="#1A1C20" stroke-width="2"/>
  <rect x="17" y="27" width="6" height="6" rx="1" fill="#00B2B2" stroke="#00B2B2" stroke-width="2"/>
  <rect x="38" y="27" width="6" height="11" rx="1" fill="#fff" stroke="#1A1C20" stroke-width="2"/>
</svg>
