<svg width="60" height="60" fill="none" xmlns="http://www.w3.org/2000/svg">
  <path d="M48 30c0 9.941-8.059 18-18 18s-18-8.059-18-18 8.059-18 18-18 18 8.059 18 18z" fill="#57D3D2"/>
  <path d="M18.49 43.84A13.616 13.616 0 0130 37.502a13.62 13.62 0 0111.51 6.338A17.927 17.927 0 0130 48c-4.377 0-8.39-1.562-11.51-4.16z" fill="#fff"/>
  <path fill-rule="evenodd" clip-rule="evenodd" d="M30 38.502a12.62 12.62 0 00-10.665 5.873 1 1 0 11-1.69-1.07 14.618 14.618 0 0124.71 0 1 1 0 01-1.69 1.07A12.616 12.616 0 0030 38.502z" fill="#1A1C20"/>
  <path d="M30 33a6 6 0 100-12 6 6 0 000 12z" fill="#fff"/>
  <path fill-rule="evenodd" clip-rule="evenodd" d="M30 22a5 5 0 100 10 5 5 0 000-10zm-7 5a7 7 0 1114 0 7 7 0 01-14 0z" fill="#1A1C20"/>
  <path fill-rule="evenodd" clip-rule="evenodd" d="M42 12a2 2 0 00-2 2v6a2 2 0 002 2h3v4.073c0 .485.525.73.812.378L49.449 22H54a2 2 0 002-2v-6a2 2 0 00-2-2H42z" fill="#fff"/>
  <path fill-rule="evenodd" clip-rule="evenodd" d="M45.812 26.451c-.287.352-.812.107-.812-.378V22h-3a2 2 0 01-2-2v-6a2 2 0 012-2h12a2 2 0 012 2v6a2 2 0 01-2 2h-4.551l-3.637 4.451zM50.397 24H54a4 4 0 004-4v-6a4 4 0 00-4-4H42a4 4 0 00-4 4v6a4 4 0 004 4h1v2.073c0 .996.56 1.899 1.453 2.316.944.44 2.15.256 2.907-.672L50.398 24z" fill="#1A1C20"/>
</svg>
