<svg xmlns="http://www.w3.org/2000/svg" width="60" height="60" viewBox="0 0 60 60">
  <g fill="none" fill-rule="evenodd">
    <polygon points="0 0 60 0 60 60 0 60"/>
    <polygon points="0 0 60 0 60 60 0 60"/>
    <path fill="#D3F2F2" fill-rule="nonzero" stroke="#344B63" stroke-width="2" d="M6,49.4545455 L6,44 L45.3692308,44 L45.3692308,49.4545455 C45.3692308,51.9649307 47.228971,54 49.5230769,54 L10.1538462,54 C7.85974027,54 6,51.9649307 6,49.4545455 Z"/>
    <path fill="#FFF" fill-rule="nonzero" stroke="#344B63" stroke-width="2" d="M54,50 C54,52.209139 52.209139,54 50,54 L10,54 C12.2941059,54 14.1538462,52.1402597 14.1538462,49.8461538 L14.0217203,8.00631576 C14.0217137,8.00421051 14.0217104,8.00210526 14.0217104,8 C14.0217104,6.8954305 14.9171409,6 16.0217104,6 L52,6 C53.1045695,6 54,6.8954305 54,8 L54,50 Z"/>
    <path fill="#344B63" fill-rule="nonzero" d="M22 20L47 20C47.5522847 20 48 20.4477153 48 21 48 21.5522847 47.5522847 22 47 22L22 22C21.4477153 22 21 21.5522847 21 21 21 20.4477153 21.4477153 20 22 20zM22 26L47 26C47.5522847 26 48 26.4477153 48 27 48 27.5522847 47.5522847 28 47 28L22 28C21.4477153 28 21 27.5522847 21 27 21 26.4477153 21.4477153 26 22 26zM22 32L47 32C47.5522847 32 48 32.4477153 48 33 48 33.5522847 47.5522847 34 47 34L22 34C21.4477153 34 21 33.5522847 21 33 21 32.4477153 21.4477153 32 22 32z"/>
    <path fill="#344B63" fill-rule="nonzero" d="M44 15C44.5522847 15 45 15.4477153 45 16L45 37C45 37.5522847 44.5522847 38 44 38 43.4477153 38 43 37.5522847 43 37L43 16C43 15.4477153 43.4477153 15 44 15zM38 15C38.5522847 15 39 15.4477153 39 16L39 37C39 37.5522847 38.5522847 38 38 38 37.4477153 38 37 37.5522847 37 37L37 16C37 15.4477153 37.4477153 15 38 15z"/>
    <path stroke="#57D3D2" stroke-linecap="round" stroke-width="2" d="M48,48 L42,48 C42,48 45.2128964,43 42,43 C37.9636945,43 37.7620944,48 36,48 C36,43.5412809 30,43.7867649 30,48 L27.9261538,48"/>
  </g>
</svg>
