<svg width="60" height="60" xmlns="http://www.w3.org/2000/svg">
  <path fill-rule="evenodd" clip-rule="evenodd" d="M50 17a4 4 0 00-4-4H18a4 4 0 00-4 4v26a4 4 0 004 4h12v-3.17a3 3 0 100-5.659V35h4.17a3 3 0 115.659 0H44v3.17a3 3 0 100 5.659V47h2a4 4 0 004-4V17z" fill="#fff"/>
  <path d="M30 47v1a1 1 0 001-1h-1zm0-3.17l.333-.944A1 1 0 0029 43.83h1zm0-5.66h-1a1 1 0 001.333.944L30 38.17zM30 35v-1a1 1 0 00-1 1h1zm4.17 0v1a1 1 0 00.944-1.333L34.17 35zm5.66 0l-.944-.333A1 1 0 0039.83 36v-1zM44 35h1a1 1 0 00-1-1v1zm0 3.17l-.333.944A1 1 0 0045 38.17h-1zm0 5.66h1a1 1 0 00-1.333-.944l.333.943zM44 47h-1a1 1 0 001 1v-1zm2-33a3 3 0 013 3h2a5 5 0 00-5-5v2zm-28 0h28v-2H18v2zm-3 3a3 3 0 013-3v-2a5 5 0 00-5 5h2zm0 26V17h-2v26h2zm3 3a3 3 0 01-3-3h-2a5 5 0 005 5v-2zm12 0H18v2h12v-2zm-1-2.17V47h2v-3.17h-2zm2-.83c-.235 0-.46-.04-.667-.114l-.666 1.886c.418.148.867.228 1.333.228v-2zm2-2a2 2 0 01-2 2v2a4 4 0 004-4h-2zm-2-2a2 2 0 012 2h2a4 4 0 00-4-4v2zm-.667.114c.208-.074.432-.114.667-.114v-2c-.466 0-.915.08-1.333.228l.666 1.886zM29 35v3.17h2V35h-2zm5.17-1H30v2h4.17v-2zM33 34c0 .466.08.915.228 1.333l1.886-.666A1.997 1.997 0 0135 34h-2zm4-4a4 4 0 00-4 4h2a2 2 0 012-2v-2zm4 4a4 4 0 00-4-4v2a2 2 0 012 2h2zm-.228 1.333c.148-.418.228-.867.228-1.333h-2c0 .236-.04.46-.114.667l1.886.666zM44 34h-4.17v2H44v-2zm1 4.17V35h-2v3.17h2zM43 39c.236 0 .46.04.667.114l.666-1.886A3.994 3.994 0 0043 37v2zm-2 2a2 2 0 012-2v-2a4 4 0 00-4 4h2zm2 2a2 2 0 01-2-2h-2a4 4 0 004 4v-2zm.667-.114A1.997 1.997 0 0143 43v2c.466 0 .915-.08 1.333-.228l-.666-1.886zM45 47v-3.17h-2V47h2zm1-1h-2v2h2v-2zm3-3a3 3 0 01-3 3v2a5 5 0 005-5h-2zm0-26v26h2V17h-2z" fill="#1A1C20"/>
  <path d="M46 13a4 4 0 014 4v5H14v-5a4 4 0 014-4h28z" fill="#E4E4E6" stroke="#1A1C20" stroke-width="2"/>
  <path fill-rule="evenodd" clip-rule="evenodd" d="M17.341 38.77a3 3 0 103.073-4.751l2.265-3.502-2.662-1.722a3 3 0 11-4.751-3.073L12.604 24 5 35.755l2.662 1.722a3 3 0 114.751 3.073l2.663 1.723 2.265-3.502z" fill="#57D3D2"/>
  <path d="M17.341 38.77l.792-.61a1 1 0 00-1.632.068l.84.543zm3.073-4.75l-.84-.544a1 1 0 00.608 1.516l.232-.973zm2.265-3.503l.84.544a1 1 0 00-.296-1.383l-.543.84zm-2.662-1.722l.543-.84a1 1 0 00-1.515.608l.972.232zm-4.751-3.073l.61.792a1 1 0 00-.067-1.632l-.543.84zM12.604 24l.543-.84a1 1 0 00-1.383.297l.84.543zM5 35.755l-.84-.543a1 1 0 00.297 1.383l.543-.84zm2.662 1.722l-.543.84a1 1 0 001.516-.608l-.973-.232zm4.752 3.074l-.611-.792a1 1 0 00.067 1.631l.544-.84zm2.662 1.722l-.543.84a1 1 0 001.383-.297l-.84-.543zm3.555-3.656a1.995 1.995 0 01-.498-.457l-1.584 1.221c.271.352.605.663.996.916l1.086-1.68zm2.766-.593a2 2 0 01-2.766.593l-1.086 1.68a4 4 0 005.531-1.186l-1.68-1.087zm-.593-2.765a2 2 0 01.593 2.765l1.679 1.087a4 4 0 00-1.186-5.531l-1.086 1.679zm-.622-.267c.214.051.424.139.622.267l1.086-1.68a3.995 3.995 0 00-1.243-.532l-.465 1.945zm1.072-.43l2.265-3.501-1.68-1.087-2.264 3.502 1.679 1.087zm1.969-4.884l-2.663-1.722-1.086 1.679 2.662 1.722 1.087-1.68zm-4.178-1.115a1.996 1.996 0 01-.267.622l1.68 1.086c.252-.391.429-.812.532-1.243l-1.945-.465zm-.267.622a2 2 0 01-2.766.593l-1.086 1.679a4 4 0 005.531-1.186l-1.68-1.086zm-2.766.593a2 2 0 01-.593-2.766l-1.68-1.086a4 4 0 001.187 5.531l1.086-1.68zm-.593-2.766a1.99 1.99 0 01.458-.498l-1.222-1.584a4.004 4.004 0 00-.915.996l1.68 1.086zm.39-2.13l-2.662-1.722-1.087 1.68 2.663 1.722 1.086-1.68zm-4.045-1.425L4.16 35.212l1.68 1.086 7.603-11.755-1.679-1.086zM4.457 36.595l2.662 1.722 1.086-1.68-2.662-1.721-1.086 1.679zm4.178 1.114a2 2 0 01.267-.621l-1.68-1.086c-.253.39-.43.811-.532 1.243l1.945.465zm.267-.621a2 2 0 012.765-.593l1.087-1.68a4 4 0 00-5.532 1.187l1.68 1.086zm2.765-.593a2 2 0 01.593 2.766l1.68 1.086a4 4 0 00-1.186-5.531l-1.087 1.679zm.593 2.766a1.996 1.996 0 01-.457.498l1.221 1.583c.352-.27.663-.604.916-.995l-1.68-1.087zm-.39 2.13l2.663 1.721 1.086-1.679-2.662-1.722-1.087 1.68zm4.046 1.425l2.265-3.502-1.68-1.086-2.265 3.502 1.68 1.086z" fill="#1A1C20"/>
</svg>
