<svg xmlns="http://www.w3.org/2000/svg" width="60" height="60" viewBox="0 0 60 60">
  <g fill="none" fill-rule="evenodd">
    <rect width="60" height="60"/>
    <g transform="translate(11 7)">
      <path fill="#F7F7FA" stroke="#979797" d="M29.3333333,42 L2.66666667,42 C1.194,42 0,40.806 0,39.3333333 L0,8.66666667 C0,7.194 1.194,6 2.66666667,6 L29.3333333,6 C30.806,6 32,7.194 32,8.66666667 L32,39.3333333 C32,40.806 30.806,42 29.3333333,42"/>
      <rect width="24" height="30" x="4" y="6" fill="#FFF" stroke="#344B63" stroke-width="2"/>
      <path stroke="#344B63" stroke-width="2" d="M29.3333333,42 L2.66666667,42 C1.194,42 0,40.806 0,39.3333333 L0,8.66666667 C0,7.194 1.194,6 2.66666667,6 L29.3333333,6 C30.806,6 32,7.194 32,8.66666667 L32,39.3333333 C32,40.806 30.806,42 29.3333333,42 Z"/>
      <path fill="#E3E3E6" stroke="#344B63" stroke-width="2" d="M19.9676016,3.61923071 C19.7344146,1.58216681 18.0479616,0 15.9984999,0 C13.9490381,0 12.2625852,1.58216681 12.0293981,3.61923071 L10.3072596,3.61923071 C9.03303702,3.61923071 8,4.70017428 8,6.03205118 L8,10 L23.9969997,10 L23.9969997,6.03205118 C23.9969997,4.70017428 22.9639627,3.61923071 21.6897402,3.61923071 L19.9676016,3.61923071 Z"/>
      <path stroke="#344B63" stroke-linecap="round" stroke-width="2" d="M10 17L22 17M10 22L22 22M10 27L22 27"/>
      <g transform="translate(22 31)">
        <path fill="#57D3D2" d="M13.3333333,16 L2.66666667,16 C1.194,16 0,14.806 0,13.3333333 L0,2.66666667 C0,1.194 1.194,0 2.66666667,0 L13.3333333,0 C14.806,0 16,1.194 16,2.66666667 L16,13.3333333 C16,14.806 14.806,16 13.3333333,16"/>
        <path stroke="#344B63" stroke-width="2" d="M13.3333333,16 L2.66666667,16 C1.194,16 1.528e-13,14.806 1.528e-13,13.3333333 L1.528e-13,2.66666667 C1.528e-13,1.194 1.194,4.26e-14 2.66666667,4.26e-14 L13.3333333,4.26e-14 C14.806,4.26e-14 16,1.194 16,2.66666667 L16,13.3333333 C16,14.806 14.806,16 13.3333333,16 Z"/>
        <path fill="#FFF" d="M6.86718905,11.5 L3.78703602,8.42781757 C3.40432133,8.04621481 3.40432133,7.42684419 3.78703602,7.04426297 C4.17073203,6.66266022 4.79190741,6.66266022 5.1746221,7.04426297 L6.86718905,8.73289081 L10.8246419,4.78693592 C11.2083379,4.40435469 11.8295133,4.40435469 12.212228,4.78693592 C12.595924,5.16853867 12.595924,5.78790929 12.212228,6.17049051 L6.86718905,11.5 Z"/>
      </g>
    </g>
  </g>
</svg>
