<svg width="60" height="60" xmlns="http://www.w3.org/2000/svg">
  <path d="M18.893 37.735l4.695-3.618-5.244 4.103a2.498 2.498 0 00-.243 3.525 2.501 2.501 0 003.427.326l.004.005a2.498 2.498 0 00-.146 3.437 2.501 2.501 0 003.357.379l.012.014a2.498 2.498 0 00-.084 3.375 2.5 2.5 0 003.527.242l1.665-1.45 26.702-22.67-9.191-10.64-6.802 4.61a4 4 0 01-2.152.688l-6.387.148-18.794 15.533a2.5 2.5 0 103.285 3.77l2.37-1.777z" fill="#E4E4E6"/>
  <path d="M23.588 34.117l.616.787a1 1 0 00-1.226-1.58l.61.793zm-4.695 3.618l.6.8.01-.008-.61-.792zm-.55.485l-.616-.788a1.07 1.07 0 00-.04.034l.657.754zm-.242 3.525l-.753.657.753-.657zm3.431.33l.695.72a1 1 0 00.07-1.363l-.765.644zm-.146 3.438l-.754.657.754-.657zm3.369.393l.719.695a1 1 0 00.046-1.339l-.765.644zm-.084 3.375l.754-.657-.754.657zm3.527.242l-.657-.754.657.754zm1.665-1.45l-.647-.762-.01.008.657.754zm26.702-22.67l.647.762a1 1 0 00.11-1.416l-.757.654zm-9.191-10.64l.757-.653a1 1 0 00-1.318-.174l.56.827zm-6.802 4.61l.56.828-.56-.828zm-8.539.836l-.023-1a1 1 0 00-.614.23l.637.77zm6.387-.148l-.023-1 .023 1zM13.24 35.74l-.637-.77a.634.634 0 00-.02.017l.657.754zm3.285 3.77l-.6-.8a1.01 1.01 0 00-.057.046l.657.754zm10.369-.405a1 1 0 10-1.24-1.569l1.24 1.57zm2.24 4.72a1 1 0 10-1.206-1.595l1.206 1.595zm-6.155-10.502l-4.695 3.619 1.22 1.584 4.696-3.618-1.221-1.584zm-4.018 5.683l5.244-4.103-1.232-1.575-5.245 4.103 1.233 1.575zm-.105 2.08A1.498 1.498 0 0119 38.975l-1.313-1.508a3.498 3.498 0 00-.34 4.936l1.508-1.314zm2.056.197a1.501 1.501 0 01-2.056-.196l-1.507 1.314a3.501 3.501 0 004.797.456l-1.234-1.574zm1.387.148l-.005-.005-1.53 1.287.004.005 1.53-1.287zm-.158 3.424a1.498 1.498 0 01.087-2.06l-1.39-1.44a3.498 3.498 0 00-.205 4.814l1.508-1.314zm2.013.228a1.501 1.501 0 01-2.013-.228l-1.508 1.314a3.501 3.501 0 004.7.53l-1.179-1.616zm1.367.178l-.012-.014-1.53 1.287.011.015 1.53-1.288zm-.095 3.361a1.498 1.498 0 01.049-2.022l-1.439-1.39a3.498 3.498 0 00-.118 4.727l1.508-1.315zm2.116.146a1.501 1.501 0 01-2.116-.145l-1.508 1.314a3.5 3.5 0 004.938.34l-1.314-1.509zm1.666-1.45l-1.666 1.45 1.314 1.508 1.665-1.45-1.313-1.508zm26.71-22.678l-26.7 22.67 1.294 1.524 26.701-22.67-1.294-1.524zm-9.3-9.224l9.191 10.64 1.514-1.308-9.191-10.64-1.514 1.308zM41.134 20.2l6.802-4.61-1.122-1.655-6.802 4.61 1.122 1.655zm-9.077 1.008l6.388-.148-.047-2-6.387.148.046 2zm-19.475 13.78a3.5 3.5 0 00-.34 4.938l1.508-1.314a1.5 1.5 0 01.146-2.116l-1.314-1.508zm-.34 4.938a3.5 3.5 0 004.938.34l-1.313-1.509a1.5 1.5 0 01-2.117-.145l-1.508 1.314zm4.881.386l2.37-1.777-1.2-1.6-2.37 1.776 1.2 1.6zm5.025 2.543l4.745-3.749-1.24-1.569-4.745 3.749 1.24 1.57zm3.198 3.834l3.787-2.863-1.206-1.595-3.787 2.863 1.206 1.595zm-11.47-10.177L32.67 20.98l-1.274-1.542-18.794 15.533 1.274 1.541zm26.135-17.967a3 3 0 01-1.614.516l.047 2a5 5 0 002.689-.86l-1.122-1.656z" fill="#1A1C20"/>
  <path d="M22.414 16.342a5.437 5.437 0 01-7.107 1.216l-4.927-3.06-7.854 11.19 12.027 8.906 5.552-4.588a3.13 3.13 0 00.506-.345l7.724-6.429 2.176 1.585a2.5 2.5 0 002.945-4.041l-6.875-5.008a2.491 2.491 0 00-1.03-.44 3 3 0 00-3.137 1.014z" fill="#fff" stroke="#1A1C20" stroke-width="2"/>
  <rect x="30.592" y="39.815" width="10.573" height="5" rx="2.5" transform="rotate(36.076 30.592 39.815)" fill="#fff" stroke="#1A1C20" stroke-width="2"/>
  <rect x="30.324" y="33.433" width="14.548" height="5" rx="2.5" transform="rotate(36.076 30.324 33.433)" fill="#fff" stroke="#1A1C20" stroke-width="2"/>
  <rect x="34.111" y="30.005" width="13.505" height="5" rx="2.5" transform="rotate(36.076 34.111 30.005)" fill="#fff" stroke="#1A1C20" stroke-width="2"/>
  <rect x="40.118" y="27.038" width="10.833" height="5.554" rx="2.777" transform="rotate(36.076 40.118 27.038)" fill="#fff" stroke="#1A1C20" stroke-width="2"/>
</svg>
