<svg xmlns="http://www.w3.org/2000/svg" width="60" height="60" viewBox="0 0 60 60">
  <g fill="none" fill-rule="evenodd">
    <g stroke="#344B63" stroke-width="2" transform="translate(10 8)">
      <path fill="#FFF" d="M15,8 L36,8 C38.209139,8 40,9.790861 40,12 L40,40 C40,42.209139 38.209139,44 36,44 L15,44 L15,8 Z" transform="rotate(25 27.5 26)"/>
      <path fill="#D3F2F2" fill-rule="nonzero" d="M2.28388736e-15,37.0917742 L2.28388736e-15,3.90822581 C2.28388736e-15,1.74977229 1.70099815,0 3.79928571,0 L9,0 L9,41 L3.79928571,41 C1.70099815,41 2.28388736e-15,39.2502277 0,37.0917742 Z"/>
      <path fill="#64D9DA" d="M4,0 L9,0 L9,42 L4,42 C1.790861,42 2.705415e-16,40.209139 0,38 L0,4 C-2.705415e-16,1.790861 1.790861,4.05812251e-16 4,0 Z"/>
      <path fill="#D3F2F2" d="M9,0 L33,0 C35.209139,-4.05812251e-16 37,1.790861 37,4 L37,38 C37,40.209139 35.209139,42 33,42 L9,42 L9,0 Z"/>
      <circle cx="23" cy="16" r="4" fill="#FFF" fill-rule="nonzero" stroke-linecap="round"/>
      <path fill="#FFF" fill-rule="nonzero" stroke-linecap="round" d="M17.7640955,28.9999636 C17.543646,29.0021141 17.3332123,28.9089892 17.1878324,28.7449452 C17.0424526,28.5809013 16.9765868,28.3622548 17.007462,28.1461919 C17.4325168,25.19359 19.986866,23 23,23 C26.013134,23 28.5674832,25.19359 28.992538,28.1461919 C29.0234132,28.3622548 28.9575474,28.5809013 28.8121676,28.7449452 C28.6667877,28.9089892 28.456354,29.0021141 28.2359045,28.9999636 L17.7640955,28.9999636 Z"/>
    </g>
    <rect width="6" height="4" x="6" y="16" fill="#FFF" stroke="#344B63" stroke-width="2"/>
    <rect width="6" height="4" x="6" y="27" fill="#FFF" stroke="#344B63" stroke-width="2"/>
    <rect width="6" height="4" x="6" y="38" fill="#FFF" stroke="#344B63" stroke-width="2"/>
  </g>
</svg>
