<svg width="60" height="60" viewBox="0 0 60 60" fill="none"
  xmlns="http://www.w3.org/2000/svg">
  <g fill="transparent">
    <path d="M47 60C53.6274 60 59 54.6274 59 48C59 41.3726 53.6274 36 47 36C40.3726 36 35 41.3726 35 48C35 54.6274 40.3726 60 47 60Z" fill="#57D3D2"/>
    <path d="M42 46H52V55H42V46Z" fill="white"/>
    <path fill-rule="evenodd" clip-rule="evenodd" d="M47 40C44.9289 40 43.25 41.7056 43.25 43.8095V45.3333H42.5C41.6716 45.3333 41 46.0156 41 46.8571V54.4762C41 55.3178 41.6716 56 42.5 56H51.5C52.3284 56 53 55.3178 53 54.4762V46.8571C53 46.0156 52.3284 45.3333 51.5 45.3333H50.75V43.8095C50.75 41.7056 49.0711 40 47 40ZM49.25 45.3333V43.8095C49.25 42.5472 48.2426 41.5238 47 41.5238C45.7574 41.5238 44.75 42.5472 44.75 43.8095V45.3333H49.25ZM42.5 46.8571V48.75H47C47.4142 48.75 47.75 49.0858 47.75 49.5C47.75 49.9142 47.4142 50.25 47 50.25H42.5V51.75H45C45.4142 51.75 45.75 52.0858 45.75 52.5C45.75 52.9142 45.4142 53.25 45 53.25H42.5V54.4762H51.5V46.8571H42.5Z" fill="#1A1C20"/>
    <path d="M26.3796 54.7608C26.2539 54.841 26.1278 54.9207 26.0014 55C26.0014 55 26.0014 1.46552 26.0007 1C26.1546 1.13338 26.3077 1.26749 26.4623 1.40015C33.2142 7.2153 41.4063 11.3516 50.4167 13.1754C50.6112 13.2145 50.8058 13.2524 51.0007 13.2892C50.9989 13.4946 50.9953 13.7 50.99 13.9054C50.5577 30.6376 40.9932 45.4473 26.3796 54.7608Z" fill="#F7F7FA"/>
    <path d="M25.6211 54.7608C25.7469 54.841 25.8729 54.9207 25.9993 55C25.9993 55 25.9993 1.46552 26 1C25.8462 1.13338 25.693 1.26749 25.5385 1.40015C18.7865 7.2153 10.5945 11.3516 1.58403 13.1754C1.38956 13.2145 1.19488 13.2524 1 13.2892C1.00186 13.4946 1.00542 13.7 1.01068 13.9054C1.44301 30.6376 11.0076 45.4473 25.6211 54.7608Z" fill="white"/>
    <path fill-rule="evenodd" clip-rule="evenodd" d="M50.9886 13.9054C50.5563 30.6376 40.9915 45.4473 26.3775 54.7608L26 55C25.8736 54.9207 25.7476 54.841 25.6218 54.7608C11.0078 45.4473 1.44302 30.6376 1.01068 13.9054C1.00542 13.7 1.00186 13.4946 1 13.2892C1.19489 13.2524 1.38957 13.2145 1.58405 13.1754C10.5947 11.3516 18.787 7.2153 25.5392 1.40015C25.6937 1.26749 25.8469 1.13338 26.0007 1C26.1531 1.13411 26.3063 1.26749 26.4594 1.40015C33.2115 7.2153 41.4046 11.3516 50.4152 13.1754C50.6104 13.2146 50.8056 13.253 51 13.2929C50.9972 13.4966 50.9936 13.701 50.9886 13.9054Z" stroke="#1A1C20" stroke-width="2" stroke-linejoin="round"/>
    <path fill-rule="evenodd" clip-rule="evenodd" d="M43.9801 17.6965C43.4396 29.6063 36.6386 40.1234 26.3436 46.7806C26.2297 46.8546 26.1158 46.9273 25.9994 47L25.6584 46.7813C15.362 40.1234 8.56166 29.6063 8.02059 17.6965C8.01203 17.5067 8.00517 17.3169 8 17.127C8.17757 17.0926 8.35578 17.0563 8.53399 17.0186C14.9541 15.6628 20.7849 12.6282 25.5792 8.37726C25.7208 8.25173 25.861 8.12619 26.0006 8C26.1396 8.12686 26.2799 8.25239 26.4201 8.37726C31.2151 12.6282 37.0459 15.6628 43.466 17.0186C43.6442 17.0563 43.8231 17.0926 44 17.1276C43.9949 17.3172 43.9878 17.5069 43.9794 17.6965H43.9801Z" stroke="#1A1C20" stroke-width="2" stroke-linejoin="round"/>
    <path d="M14 34H20" stroke="#1A1C20" stroke-width="2" stroke-linecap="round"/>
    <path d="M37 25H42" stroke="#1A1C20" stroke-width="2" stroke-linecap="round"/>
    <path d="M30 40H34" stroke="#1A1C20" stroke-width="2" stroke-linecap="round"/>
  </g>
</svg>
