<svg width="60" height="60" fill="none" xmlns="http://www.w3.org/2000/svg">
  <path d="M26 9a1 1 0 011-1h6a1 1 0 011 1v4a1 1 0 01-1 1h-6a1 1 0 01-1-1V9z" fill="#57D3D2"/>
  <path fill-rule="evenodd" clip-rule="evenodd" d="M27 6h6a3 3 0 013 3v1.916C44.114 13.464 50 21.045 50 30c0 11.046-8.954 20-20 20s-20-8.954-20-20a19.91 19.91 0 013.314-11.03l-1.557-1.556a1 1 0 010-1.414L16 11.757a1 1 0 011.414 0l1.556 1.557A19.914 19.914 0 0124 10.916V9a3 3 0 013-3zM14.776 20.392a1 1 0 001.224-.15L20.243 16a1 1 0 00.149-1.224A17.927 17.927 0 0124 13.024 3 3 0 0027 16h6a3 3 0 003-2.976C42.99 15.495 48 22.163 48 30c0 9.941-8.059 18-18 18s-18-8.059-18-18c0-3.533 1.018-6.828 2.776-9.608zM34 9v1.4c-1.292-.262-2.63-.4-4-.4s-2.708.138-4 .4V9a1 1 0 011-1h6a1 1 0 011 1zm-4 3a18.06 18.06 0 00-4 .446V13a1 1 0 001 1h6a1 1 0 001-1v-.554A18.06 18.06 0 0030 12z" fill="#1A1C20"/>
  <path d="M48 30c0 9.941-8.059 18-18 18s-18-8.059-18-18 8.059-18 18-18 18 8.059 18 18z" fill="#fff"/>
  <path fill-rule="evenodd" clip-rule="evenodd" d="M18.443 19.671a15.58 15.58 0 011.228-1.228l2 2.236c-.349.312-.68.643-.992.992l-2.236-2zm21.886-1.228c.432.386.842.796 1.228 1.228l-2.236 2c-.312-.349-.643-.68-.992-.992l2-2.236zM14.5 30c0-.291.008-.58.024-.868l2.995.165a12.678 12.678 0 000 1.405l-2.995.166A15.722 15.722 0 0114.5 30zm30.976-.868a15.722 15.722 0 010 1.736l-2.995-.165a12.678 12.678 0 000-1.406l2.995-.165zM19.671 41.557a15.58 15.58 0 01-1.228-1.228l2.236-2c.312.349.643.68.992.992l-2 2.236zm21.886-1.228a15.58 15.58 0 01-1.228 1.228l-2-2.236c.349-.312.68-.643.992-.992l2.236 2zM30 45.499c-.291 0-.58-.007-.868-.023l.165-2.995a12.678 12.678 0 001.406 0l.165 2.995A15.61 15.61 0 0130 45.5z" fill="#1A1C20"/>
  <rect x="29.5" y="16.5" width="1" height="14" rx=".5" fill="#fff" stroke="#1A1C20"/>
  <rect x="40" y="29" width="2" height="11" rx="1" transform="rotate(90 40 29)" fill="#1A1C20"/>
  <path d="M27 30a3 3 0 106 0 3 3 0 00-6 0z" fill="#fff"/>
  <path fill-rule="evenodd" clip-rule="evenodd" d="M30 31a1 1 0 110-2 1 1 0 010 2zm0 2a3 3 0 110-6 3 3 0 010 6z" fill="#1A1C20"/>
</svg>
