<svg xmlns="http://www.w3.org/2000/svg" width="90" height="90" viewBox="0 0 90 90">
  <g fill="none" fill-rule="evenodd">
    <path fill="#57D3D2" d="M18.5290805,33.1769318 L19.8996031,35.6973864 C20.3344457,36.4964773 20.9876137,37.1532955 21.7822637,37.5905682 L24.288711,38.96875 C24.523309,39.0978409 24.523309,39.4364773 24.288711,39.5660227 L21.7822637,40.9442045 C20.9876137,41.3814773 20.3344457,42.0382955 19.8996031,42.8373864 L18.5290805,45.3578409 C18.400707,45.5932955 18.0639526,45.5932955 17.9355791,45.3578409 L16.5646044,42.8373864 C16.1302138,42.0382955 15.4765938,41.3814773 14.6819438,40.9442045 L12.1759485,39.5660227 C11.9413505,39.4364773 11.9413505,39.0978409 12.1759485,38.96875 L14.6819438,37.5905682 C15.4765938,37.1532955 16.1302138,36.4964773 16.5646044,35.6973864 L17.9355791,33.1769318 C18.0639526,32.9410227 18.400707,32.9410227 18.5290805,33.1769318"/>
    <path fill="#D3F2F2" d="M69.9355791,33.1769318 L68.5650564,35.6973864 C68.1302138,36.4964773 67.4770458,37.1532955 66.6823958,37.5905682 L64.1759485,38.96875 C63.9413505,39.0978409 63.9413505,39.4364773 64.1759485,39.5660227 L66.6823958,40.9442045 C67.4770458,41.3814773 68.1302138,42.0382955 68.5650564,42.8373864 L69.9355791,45.3578409 C70.0639526,45.5932955 70.400707,45.5932955 70.5290805,45.3578409 L71.9000551,42.8373864 C72.3344457,42.0382955 72.9880657,41.3814773 73.7827157,40.9442045 L76.288711,39.5660227 C76.523309,39.4364773 76.523309,39.0978409 76.288711,38.96875 L73.7827157,37.5905682 C72.9880657,37.1532955 72.3344457,36.4964773 71.9000551,35.6973864 L70.5290805,33.1769318 C70.400707,32.9410227 70.0639526,32.9410227 69.9355791,33.1769318"/>
    <polygon fill="#E3E3E6" stroke="#344B63" stroke-width="2" points="21 50 69 50 69 74 21 74"/>
    <path fill="#FFF" stroke="#344B63" stroke-width="2" d="M34.8284271 31.1715729L45 41.3431458 28 41.3431458 28 34C28 31.790861 29.790861 30 32 30 33.060866 30 34.0782816 30.4214274 34.8284271 31.1715729zM55.1715729 31.1715729C55.9217184 30.4214274 56.939134 30 58 30 60.209139 30 62 31.790861 62 34L62 41.3431458 45 41.3431458 55.1715729 31.1715729z"/>
    <path fill="#FFF" stroke="#344B63" stroke-width="2" d="M45,32 L45,32 C46.6568542,32 48,33.3431458 48,35 L48,40 L42,40 L42,35 C42,33.3431458 43.3431458,32 45,32 Z"/>
    <rect width="54" height="12" x="18" y="38" fill="#E3E3E6" stroke="#344B63" stroke-width="2" rx="2"/>
    <rect width="8" height="12" x="41" y="38" fill="#FFF" stroke="#344B63" stroke-width="2"/>
    <rect width="71" height="1" x="9.5" y="73.5" fill="#D8D8D8" stroke="#344B63" rx=".5"/>
    <rect width="6" height="24" x="42" y="50" fill="#FFF" stroke="#344B63" stroke-width="2"/>
    <g transform="translate(59 56)">
      <path fill="#57D3D2" stroke="#344B63" stroke-width="2" d="M20,24 L4,24 C1.791,24 0,22.209 0,20 L0,4 C0,1.791 1.791,0 4,0 L20,0 C22.209,0 24,1.791 24,4 L24,20 C24,22.209 22.209,24 20,24"/>
      <path fill="#FFF" d="M10.8457,16.2842 L6.2927,11.7302 C5.9027,11.3402 5.9027,10.7072 6.2927,10.3162 C6.6837,9.9262 7.3167,9.9262 7.7067,10.3162 L10.8457,13.4562 L16.2927,8.0092 C16.6837,7.6182 17.3167,7.6182 17.7067,8.0092 C18.0977,8.3992 18.0977,9.0322 17.7067,9.4232 L10.8457,16.2842 Z"/>
    </g>
    <path fill="#00B2B2" d="M38.1086501,15.0842045 L38.761366,16.2842045 C38.9683909,16.6651136 39.2798322,16.9773864 39.6581724,17.1855682 L40.8510514,17.8419318 C40.9631522,17.9032955 40.9631522,18.0651136 40.8510514,18.1260227 L39.6581724,18.7828409 C39.2798322,18.9910227 38.9683909,19.30375 38.761366,19.6842045 L38.1086501,20.8846591 C38.0476274,20.9969318 37.8871606,20.9969318 37.826138,20.8846591 L37.173422,19.6842045 C36.9663972,19.30375 36.6554079,18.9910227 36.2766156,18.7828409 L35.0837366,18.1260227 C34.9720878,18.0651136 34.9720878,17.9032955 35.0837366,17.8419318 L36.2766156,17.1855682 C36.6554079,16.9773864 36.9663972,16.6651136 37.173422,16.2842045 L37.826138,15.0842045 C37.8871606,14.9719318 38.0476274,14.9719318 38.1086501,15.0842045"/>
    <path fill="#D3F2F2" d="M54.826477,7.08420455 L54.173761,8.28420455 C53.9667362,8.66511364 53.6552949,8.97738636 53.2769547,9.18556818 L52.0840756,9.84193182 C51.9719748,9.90329545 51.9719748,10.0651136 52.0840756,10.1260227 L53.2769547,10.7828409 C53.6552949,10.9910227 53.9667362,11.30375 54.173761,11.6842045 L54.826477,12.8846591 C54.8874996,12.9969318 55.0479665,12.9969318 55.1089891,12.8846591 L55.761705,11.6842045 C55.9687299,11.30375 56.2797192,10.9910227 56.6585114,10.7828409 L57.8513905,10.1260227 C57.9630392,10.0651136 57.9630392,9.90329545 57.8513905,9.84193182 L56.6585114,9.18556818 C56.2797192,8.97738636 55.9687299,8.66511364 55.761705,8.28420455 L55.1089891,7.08420455 C55.0479665,6.97193182 54.8874996,6.97193182 54.826477,7.08420455"/>
    <path fill="#57D3D2" d="M82.2397155 19.1264773L81.2606416 20.9269318C80.9501043 21.4978409 80.4836203 21.9669318 79.915884 22.2792045L78.1254354 23.26375C77.9581882 23.3560227 77.9581882 23.5978409 78.1254354 23.6901136L79.915884 24.6746591C80.4836203 24.9869318 80.9501043 25.4560227 81.2606416 26.0269318L82.2397155 27.8269318C82.3314754 27.9955682 82.5719497 27.9955682 82.6637096 27.8269318L83.6427835 26.0269318C83.9533208 25.4560227 84.4198048 24.9869318 84.9875411 24.6746591L86.7779897 23.6901136C86.9452369 23.5978409 86.9452369 23.3560227 86.7779897 23.26375L84.9875411 22.2792045C84.4198048 21.9669318 83.9533208 21.4978409 83.6427835 20.9269318L82.6637096 19.1264773C82.5719497 18.9578409 82.3314754 18.9578409 82.2397155 19.1264773M5.66370962 19.1264773L6.64278353 20.9269318C6.95332082 21.4978409 7.41980479 21.9669318 7.98754109 22.2792045L9.77798973 23.26375C9.94523688 23.3560227 9.94523688 23.5978409 9.77798973 23.6901136L7.98754109 24.6746591C7.41980479 24.9869318 6.95332082 25.4560227 6.64278353 26.0269318L5.66370962 27.8269318C5.57194969 27.9955682 5.3314754 27.9955682 5.23971547 27.8269318L4.26064157 26.0269318C3.95010427 25.4560227 3.48362031 24.9869318 2.91588401 24.6746591L1.12543537 23.6901136C.95818821 23.5978409.95818821 23.3560227 1.12543537 23.26375L2.91588401 22.2792045C3.48362031 21.9669318 3.95010427 21.4978409 4.26064157 20.9269318L5.23971547 19.1264773C5.3314754 18.9578409 5.57194969 18.9578409 5.66370962 19.1264773"/>
  </g>
</svg>
