<svg xmlns="http://www.w3.org/2000/svg" width="90" height="90" viewBox="0 0 90 90">
  <g fill="none" fill-rule="evenodd" transform="translate(10 19)">
    <path fill="#FFF" d="M58.8232,52 L11.3312,52 C10.0492,52 9.0002,50.834 9.0002,49.408 L9.0002,20.38 L33.5052,1.526 C34.4672,0.824 35.6682,0.824 36.6302,1.526 L61.0002,20.38 L61.0002,49.58 C61.0002,50.911 60.0202,52 58.8232,52"/>
    <polygon fill="#E8E8EA" points="9 21 35 40.125 61 21"/>
    <path fill="#FFF" d="M60.5,51 L37.272,34.073 C35.886,33.104 34.114,33.104 32.728,34.073 L9.5,51"/>
    <path fill="#64D9DA" d="M32.6797,33.7402 C34.0997,32.7502 35.9007,32.7502 37.3207,33.7402 L40.6897,36.0902 L47.9997,30.5622 L47.9997,18.0002 C47.9997,15.7902 46.2097,14.0002 43.9997,14.0002 L25.9997,14.0002 C23.7897,14.0002 21.9997,15.7902 21.9997,18.0002 L21.9997,30.5622 L29.3107,36.0902 L32.6797,33.7402 Z"/>
    <path fill="#344B63" d="M11.2178,50.9863 L33.3008,34.8923 C34.3488,34.1593 35.6498,34.1603 36.6838,34.8823 L58.8018,51.0003 L11.3308,51.0003 C11.2918,51.0003 11.2558,50.9903 11.2178,50.9863 Z M48.6028,31.3613 L59.9998,22.9773 L59.9998,49.3983 L42.0478,36.3163 L48.6028,31.3613 Z M46.9998,30.0563 L40.5698,34.7873 L37.8928,32.9203 C36.1348,31.6953 33.8648,31.6953 32.1078,32.9203 L29.4308,34.7873 L22.9998,30.0563 L22.9998,18.0003 C22.9998,16.3453 24.3458,15.0003 25.9998,15.0003 L43.9998,15.0003 C45.6548,15.0003 46.9998,16.3453 46.9998,18.0003 L46.9998,30.0563 Z M9.9998,49.3973 L9.9998,22.9773 L21.3978,31.3613 L27.9518,36.3153 L9.9998,49.3973 Z M34.0948,2.3343 C34.7028,1.8883 35.4308,1.8883 36.0178,2.3173 L59.7508,20.6773 L48.9998,28.5853 L48.9998,18.0003 C48.9998,15.2433 46.7568,13.0003 43.9998,13.0003 L25.9998,13.0003 C23.2428,13.0003 20.9998,15.2433 20.9998,18.0003 L20.9998,28.5853 L10.2508,20.6783 L34.0948,2.3343 Z M68.4998,51.0003 L61.7048,51.0003 C61.8898,50.5663 61.9998,50.0883 61.9998,49.5803 L61.9998,20.3803 C61.9998,20.0703 61.8568,19.7783 61.6128,19.5893 L37.2198,0.7183 C35.9108,-0.2377 34.2218,-0.2357 32.8958,0.7333 L8.3908,19.5873 C8.1448,19.7763 7.9998,20.0693 7.9998,20.3803 L7.9998,49.4083 C7.9998,49.9823 8.1378,50.5173 8.3608,51.0003 L1.4998,51.0003 C0.9468,51.0003 0.4998,51.4473 0.4998,52.0003 C0.4998,52.5523 0.9468,53.0003 1.4998,53.0003 L11.3308,53.0003 L58.8228,53.0003 L68.4998,53.0003 C69.0528,53.0003 69.4998,52.5523 69.4998,52.0003 C69.4998,51.4473 69.0528,51.0003 68.4998,51.0003 Z"/>
    <path fill="#FFF" d="M33.8457,29.4912 L29.2927,24.9372 C28.9027,24.5472 28.9027,23.9142 29.2927,23.5232 C29.6837,23.1332 30.3167,23.1332 30.7067,23.5232 L33.8457,26.6632 L39.2927,21.2162 C39.6837,20.8252 40.3167,20.8252 40.7067,21.2162 C41.0977,21.6062 41.0977,22.2392 40.7067,22.6302 L33.8457,29.4912 Z"/>
  </g>
</svg>
