<svg xmlns="http://www.w3.org/2000/svg" width="68" height="70"><g fill="none" fill-rule="evenodd" transform="translate(-13 -14)"><path d="M0 0h90v90H0z"/><path fill="#00B2B2" d="M68.109 59.084l.652 1.2c.207.381.519.693.897.902l1.193.656a.162.162 0 0 1 0 .284l-1.193.657a2.26 2.26 0 0 0-.897.901l-.652 1.2a.16.16 0 0 1-.283 0l-.653-1.2a2.26 2.26 0 0 0-.896-.901l-1.193-.657a.162.162 0 0 1 0-.284l1.193-.656c.378-.209.69-.52.896-.902l.653-1.2a.16.16 0 0 1 .283 0"/><path fill="#57D3D2" d="M74.983 29.149l-1.15 2.118a3.992 3.992 0 0 1-1.581 1.591l-2.104 1.158a.287.287 0 0 0 0 .502l2.104 1.159c.667.367 1.216.92 1.58 1.59l1.151 2.119c.108.198.39.198.498 0l1.151-2.118a3.99 3.99 0 0 1 1.581-1.591l2.104-1.159a.287.287 0 0 0 0-.502l-2.104-1.158a3.99 3.99 0 0 1-1.58-1.591l-1.152-2.118a.283.283 0 0 0-.498 0"/><path fill="#FFF" d="M21.109 57.084l.652 1.2c.207.381.519.693.897.902l1.193.656a.162.162 0 0 1 0 .284l-1.193.657a2.26 2.26 0 0 0-.897.901l-.652 1.2a.16.16 0 0 1-.283 0l-.653-1.2a2.26 2.26 0 0 0-.896-.901l-1.193-.657a.162.162 0 0 1 0-.284l1.193-.656c.378-.209.69-.52.896-.902l.653-1.2a.16.16 0 0 1 .283 0"/><path fill="#57D3D2" d="M17.664 14.126l.979 1.8c.31.572.777 1.04 1.345 1.353l1.79.985a.244.244 0 0 1 0 .426l-1.79.985a3.392 3.392 0 0 0-1.345 1.352l-.98 1.8a.24.24 0 0 1-.423 0l-.98-1.8a3.392 3.392 0 0 0-1.344-1.352l-1.79-.985a.244.244 0 0 1 0-.426l1.79-.985a3.392 3.392 0 0 0 1.345-1.352l.979-1.8a.24.24 0 0 1 .424 0"/><g transform="translate(27 27)"><circle cx="18" cy="18" r="18" fill="#FFDA8F" stroke="#8F3C00" stroke-linecap="round" stroke-linejoin="round" stroke-width="2"/><circle cx="18" cy="18" r="14" fill="#FFDA8F" stroke="#ED9E00" stroke-linecap="round" stroke-linejoin="round" stroke-width="2"/><path fill="#8F3C00" d="M23.414 19l1.414-1.414a1 1 0 1 0-1.414-1.414L22 17.586l-1.414-1.414a1 1 0 1 0-1.414 1.414L20.586 19l-1.414 1.414a1 1 0 1 0 1.414 1.414L22 20.414l1.414 1.414a1 1 0 1 0 1.414-1.414L23.414 19z"/><path stroke="#8F3C00" stroke-linecap="round" stroke-width="4" d="M14 14v8"/></g><rect width="2" height="15" x="44" y="69" fill="#57D3D2" fill-rule="nonzero" rx="1"/><rect width="2" height="9" x="37" y="67" fill="#57D3D2" fill-rule="nonzero" rx="1"/><rect width="2" height="9" x="51" y="67" fill="#57D3D2" fill-rule="nonzero" rx="1"/></g></svg>