<svg xmlns="http://www.w3.org/2000/svg" width="90" height="90" viewBox="0 0 90 90">
  <g fill="none" fill-rule="evenodd">
    <path fill="#82828C" fill-rule="nonzero" d="M2.99764542,75.8544165 C2.44666107,75.8544165 2,75.4070511 2,74.855198 C2,74.3033448 2.44666107,73.8559794 2.99764542,73.8559794 C3.67178489,73.8559794 4.32411826,73.8434124 4.954684,73.8185044 C5.50524035,73.7967569 5.96915654,74.2261449 5.99086982,74.7775694 C6.0125831,75.3289938 5.58387109,75.7936415 5.03331475,75.8153891 C4.37622684,75.8413447 3.69769326,75.8544165 2.99764542,75.8544165 Z M9.11415999,75.4508684 C8.569024,75.5310602 8.06219795,75.1534517 7.98213232,74.6074562 C7.90206669,74.0614606 8.27908071,73.5538354 8.8242167,73.4736435 C9.4891879,73.3758233 10.1184414,73.2598323 10.7120216,73.1263422 C11.2496207,73.0054416 11.7832858,73.3439297 11.903996,73.8823765 C12.0247062,74.4208233 11.686751,74.95533 11.1491519,75.0762305 C10.5059631,75.2208771 9.8276637,75.3459088 9.11415999,75.4508684 Z M15.1640522,73.7065603 C14.6704736,73.9518217 14.0718385,73.7498898 13.8269632,73.2555329 C13.582088,72.761176 13.783702,72.1615969 14.2772806,71.9163356 C14.859776,71.6268911 15.367622,71.3105128 15.8018558,70.9708855 C16.2361189,70.6312353 16.8630661,70.7084893 17.2021816,71.1434371 C17.5412971,71.5783849 17.4641648,72.2063207 17.0299017,72.5459709 C16.4865108,72.9709733 15.8642558,73.3586262 15.1640522,73.7065603 Z M19.5897481,68.6676902 C19.4773277,69.2079343 18.9489281,69.5546102 18.4095345,69.4420125 C17.870141,69.3294148 17.5240108,68.800182 17.6364313,68.2599379 C17.744593,67.7401592 17.7416292,67.2035419 17.6317164,66.6662016 C17.5211319,66.1255776 17.8690579,65.5975274 18.4088309,65.4867685 C18.9486038,65.3760096 19.4758227,65.7244842 19.5864072,66.2651083 C19.7499624,67.0646951 19.7544445,67.87623 19.5897481,68.6676902 Z M17.1359473,62.2476725 C17.5576227,62.6028775 17.6119609,63.2332025 17.2573152,63.6555428 C16.9026694,64.0778831 16.2733368,64.132307 15.8516614,63.7771021 C15.4121655,63.4068858 14.9244801,63.1118228 14.4164366,62.9096408 C13.9043913,62.7058662 13.6542285,62.1249251 13.8576822,61.6120725 C14.0611359,61.0992198 14.6411624,60.8486625 15.1532077,61.0524371 C15.863132,61.3349599 16.5350141,61.741467 17.1359473,62.2476725 Z M10.434564,61.3978528 C10.8839997,61.0786164 11.5067242,61.1847382 11.8254581,61.6348826 C12.144192,62.085027 12.0382372,62.7087334 11.5888015,63.0279699 C11.2019799,63.3027312 10.834506,63.7061508 10.5070929,64.222553 C10.2117255,64.6884121 9.59522408,64.8262454 9.13009843,64.5304123 C8.66497278,64.2345792 8.5273565,63.6171056 8.82272387,63.1512466 C9.28244848,62.4261602 9.82424637,61.8313645 10.434564,61.3978528 Z M7.33157909,67.4097727 C7.41285372,66.8639564 7.9205148,66.4874748 8.46547186,66.5688776 C9.01042891,66.6502803 9.38631778,67.1587419 9.30504315,67.7045583 C9.21602774,68.3023594 9.17057867,68.9214601 9.17072679,69.5494798 C9.17085695,70.101333 8.72430141,70.548804 8.17331708,70.5489344 C7.62233274,70.5490647 7.17556617,70.1018051 7.17543601,69.5499519 C7.17526466,68.8234468 7.22795864,68.105657 7.33157909,67.4097727 Z M11.0498599,79.4207976 C10.6653302,79.0255609 10.6735055,78.3929437 11.06812,78.0078076 C11.4627346,77.6226715 12.0943558,77.6308598 12.4788855,78.0260965 C12.9013153,78.4602886 13.3622027,78.8631716 13.8614951,79.2325728 C14.3046779,79.5604614 14.3985609,80.1861049 14.0711885,80.6299865 C13.7438161,81.0738682 13.1191576,81.1678992 12.6759747,80.8400106 C12.0897514,80.4062936 11.5474499,79.9322427 11.0498599,79.4207976 Z M16.3360722,82.7998532 C15.8193836,82.6081967 15.5556484,82.0333091 15.7470032,81.5158058 C15.9383579,80.9983024 16.5123405,80.7341514 17.0290291,80.9258079 C17.5982546,81.136952 18.1967942,81.3182481 18.8247312,81.468622 C19.3606111,81.5969507 19.6911604,82.1360833 19.5630337,82.6728082 C19.434907,83.2095331 18.8966232,83.5406036 18.3607433,83.4122748 C17.6558064,83.2434615 16.9808046,83.0390052 16.3360722,82.7998532 Z M22.5107016,83.9743352 C21.960249,83.9500957 21.5336381,83.4835121 21.5578394,82.9321915 C21.5820408,82.380871 22.0478898,81.9535874 22.5983424,81.9778269 C22.9535629,81.9934692 23.3153474,82.001412 23.6832948,82.0015631 C23.9561647,82.0015651 24.217849,81.9910497 24.4789141,81.9698423 C25.0280951,81.92523 25.5094027,82.3349658 25.5539447,82.8850128 C25.5984867,83.4350597 25.189396,83.9171262 24.640215,83.9617385 C24.3252458,83.9873247 24.0097491,84.0000025 23.6828784,84 C23.2857475,83.999837 22.895019,83.9912588 22.5107016,83.9743352 Z M28.8691811,82.77717 C28.3766879,83.0246105 27.7771689,82.8253264 27.530118,82.3320566 C27.2830671,81.8387867 27.4820375,81.2383224 27.9745307,80.990882 C28.5139653,80.7198571 29.0266017,80.3979955 29.505652,80.030096 C29.9428954,79.6943033 30.5691364,79.7771042 30.9044005,80.215037 C31.2396646,80.6529698 31.156994,81.2801983 30.7197507,81.615991 C30.1409762,82.0604763 29.5214079,82.4494757 28.8691811,82.77717 Z M33.6519083,78.3017538 C33.3718373,78.7769954 32.7601419,78.9348543 32.2856486,78.6543417 C31.8111552,78.373829 31.6535448,77.7611691 31.9336159,77.2859276 C32.2401079,76.7658533 32.4968583,76.2177149 32.699969,75.6482094 C32.8853142,75.1285166 33.4561972,74.8577113 33.9750719,75.0433488 C34.4939465,75.2289863 34.7643255,75.8007695 34.5789803,76.3204623 C34.3331822,77.0096599 34.0225595,77.6728104 33.6519083,78.3017538 Z M35.1200447,71.8245432 C35.2662708,72.3566074 34.9541662,72.9066573 34.4229396,73.0531139 C33.891713,73.1995705 33.3425291,72.8869738 33.1963031,72.3549096 C33.0117421,71.6833586 32.8444412,71.0251995 32.6944154,70.3804086 C32.5693645,69.8429565 32.9029958,69.3057318 33.4396018,69.1804836 C33.9762078,69.0552355 34.5125868,69.3893929 34.6376377,69.9268451 C34.7815972,70.5455638 34.9423945,71.1781378 35.1200447,71.8245432 Z M33.9376591,66.090847 C34.0071329,66.6382957 33.6203565,67.138499 33.0737697,67.2080824 C32.5271829,67.2776658 32.027767,66.8902795 31.9582931,66.3428308 C31.8688753,65.638225 31.804402,64.9525728 31.7649427,64.2858352 C31.7323398,63.734949 32.1517884,63.261896 32.7018073,63.2292417 C33.2518262,63.1965874 33.7241345,63.6166973 33.7567374,64.1675835 C33.7935068,64.7888713 33.8537909,65.4299721 33.9376591,66.090847 Z M33.855698,60.3477819 C33.7873816,60.8953767 33.2887858,61.2838213 32.7420532,61.2153971 C32.1953205,61.146973 31.8074875,60.6475911 31.8758039,60.0999963 C31.9661657,59.3756947 32.0955004,58.6802232 32.2640353,58.0137298 C32.3993103,57.4787673 32.9419623,57.1549295 33.4760825,57.2904177 C34.0102028,57.4259059 34.3335308,57.9694136 34.1982559,58.5043761 C34.050276,59.0895819 33.9360143,59.7040011 33.855698,60.3477819 Z M35.6265012,55.1190518 C35.3306558,55.5846065 34.7140133,55.721805 34.2491915,55.4254931 C33.7843697,55.1291813 33.6473873,54.5115664 33.9432327,54.0460117 C34.3343157,53.4305869 34.7766052,52.8553996 35.269682,52.3210335 C35.6436462,51.9157543 36.2748307,51.8908465 36.6794719,52.2654003 C37.0841131,52.6399542 37.1089817,53.2721339 36.7350175,53.6774132 C36.3229543,54.1239817 35.9535886,54.6043333 35.6265012,55.1190518 Z"/>
    <g transform="translate(21 4)">
      <g transform="translate(19 24)">
        <path fill="#344B63" fill-rule="nonzero" d="M1.85775418,22.3364666 C1.04693374,22.8071871 0.092363309,22.0036519 0.417895443,21.124427 L7.97721041,0.707586099 C8.2336755,0.01490336 9.12677274,-0.170244302 9.63746702,0.363398908 L19.4980883,10.6671242 C19.945743,11.1348952 19.8376302,11.8982789 19.2776904,12.223351 L1.85775418,22.3364666 Z"/>
        <polygon fill="#57D3D2" points="3.259 19.21 17.174 11.132 9.298 2.901"/>
      </g>
      <path fill="#344B63" fill-rule="nonzero" d="M0.741180955,18.6337692 L66.4241371,1.03407417 C67.2063916,0.824469719 67.9003326,1.58304587 67.6220755,2.34359113 L52.0843087,44.8121419 C51.8796624,45.3714908 51.2344843,45.6290583 50.7008901,45.3644292 L0.555700725,20.4955735 C-0.270037666,20.0860593 -0.149120691,18.8723248 0.741180955,18.6337692 Z"/>
      <polygon fill="#FFF" points="3.817 19.88 50.59 43.077 65.082 3.464"/>
      <g transform="translate(14 9)">
        <path fill="#344B63" fill-rule="nonzero" d="M7.27393774,36.8676275 C6.89846931,37.7383051 5.63516396,37.6463374 5.38975544,36.7304604 L0.21337454,17.4119438 C0.0827268659,16.9243601 0.335948369,16.4158568 0.803791541,16.226306 L40.2541216,0.242656502 C41.331928,-0.194026273 42.1612484,1.25012714 41.2408584,1.96092992 L12.8826485,23.8615299 L7.27393774,36.8676275 Z"/>
        <path fill="#D3F2F2" d="M34.2490981,4.83356385 L2.3739855,17.7480471 L6.5768631,33.4333998 L11.1485231,22.8321302 C11.2156771,22.6764059 11.3213312,22.540318 11.4555516,22.4366618 L34.2490981,4.83356385 Z"/>
      </g>
    </g>
  </g>
</svg>
