<svg xmlns="http://www.w3.org/2000/svg" width="90" height="90"><g fill="none" fill-rule="evenodd" transform="translate(5 11)"><path fill="#FFF" d="M6.53 15.177l1.37 2.52a4.752 4.752 0 0 0 1.882 1.894l2.507 1.378a.341.341 0 0 1 0 .597l-2.507 1.378A4.752 4.752 0 0 0 7.9 24.837l-1.37 2.52a.338.338 0 0 1-.594 0l-1.371-2.52a4.75 4.75 0 0 0-1.883-1.893L.176 21.566a.341.341 0 0 1 0-.597l2.506-1.378a4.75 4.75 0 0 0 1.883-1.894l1.37-2.52a.337.337 0 0 1 .594 0m57.407 11l-1.37 2.52a4.752 4.752 0 0 1-1.884 1.894l-2.506 1.378a.341.341 0 0 0 0 .597l2.506 1.378a4.752 4.752 0 0 1 1.883 1.893l1.37 2.52a.338.338 0 0 0 .594 0l1.371-2.52a4.75 4.75 0 0 1 1.883-1.893l2.506-1.378a.341.341 0 0 0 0-.597l-2.506-1.378a4.75 4.75 0 0 1-1.883-1.894l-1.37-2.52a.337.337 0 0 0-.594 0"/><path fill="#57D3D2" stroke="#344B63" stroke-width="2" d="M15 43h48v24H15z"/><path fill="#FFF" stroke="#344B63" stroke-width="2" d="M28.828 24.172L39 34.343H22V27a4 4 0 0 1 6.828-2.828zm20.344 0A4 4 0 0 1 56 27v7.343H39l10.172-10.171z"/><path fill="#FFF" stroke="#344B63" stroke-width="2" d="M39 25a3 3 0 0 1 3 3v5h-6v-5a3 3 0 0 1 3-3z"/><rect width="54" height="12" x="12" y="31" fill="#57D3D2" stroke="#344B63" stroke-width="2" rx="2"/><path fill="#FFF" stroke="#344B63" stroke-width="2" d="M35 31h8v12h-8z"/><rect width="71" height="1" x="3.5" y="66.5" fill="#D8D8D8" stroke="#344B63" rx=".5"/><path fill="#FFF" stroke="#344B63" stroke-width="2" d="M36 43h6v24h-6z"/><path fill="#00B2B2" d="M32.109 8.084l.652 1.2c.207.381.519.693.897.902l1.193.656a.162.162 0 0 1 0 .284l-1.193.657c-.378.208-.69.52-.897.901l-.652 1.2a.16.16 0 0 1-.283 0l-.653-1.2a2.26 2.26 0 0 0-.896-.901l-1.193-.657a.162.162 0 0 1 0-.284l1.193-.656c.378-.209.69-.52.896-.902l.653-1.2a.16.16 0 0 1 .283 0"/><path fill="#FFF" d="M48.826.084l-.652 1.2a2.26 2.26 0 0 1-.897.902l-1.193.656a.162.162 0 0 0 0 .284l1.193.657c.378.208.69.52.897.901l.652 1.2a.16.16 0 0 0 .283 0l.653-1.2a2.26 2.26 0 0 1 .897-.901l1.192-.657a.162.162 0 0 0 0-.284l-1.192-.656a2.258 2.258 0 0 1-.897-.902l-.653-1.2a.16.16 0 0 0-.283 0"/><path fill="#57D3D2" d="M76.24 12.126l-.98 1.8c-.31.572-.776 1.04-1.344 1.353l-1.79.985a.244.244 0 0 0 0 .426l1.79.985a3.392 3.392 0 0 1 1.345 1.352l.979 1.8a.24.24 0 0 0 .424 0l.979-1.8c.31-.571.777-1.04 1.345-1.352l1.79-.985a.244.244 0 0 0 0-.426l-1.79-.985a3.392 3.392 0 0 1-1.345-1.352l-.98-1.8a.24.24 0 0 0-.423 0m-59.576-11l.979 1.8c.31.57.777 1.04 1.345 1.352l1.79.985a.244.244 0 0 1 0 .426l-1.79.985a3.392 3.392 0 0 0-1.345 1.352l-.98 1.8a.24.24 0 0 1-.423 0l-.98-1.8a3.392 3.392 0 0 0-1.344-1.352l-1.79-.985a.244.244 0 0 1 0-.426l1.79-.985a3.392 3.392 0 0 0 1.345-1.352l.979-1.8a.24.24 0 0 1 .424 0"/></g></svg>