<svg xmlns="http://www.w3.org/2000/svg" width="90" height="90" viewBox="0 0 90 90">
  <g fill="none" fill-rule="evenodd" transform="translate(26 10)">
    <path fill="#E3E3E6" d="M32,64 L6,64 C2.687,64 0,61.313 0,58 L0,6 C0,2.687 2.687,0 6,0 L32,0 C35.313,0 38,2.687 38,6 L38,58 C38,61.313 35.313,64 32,64"/>
    <path stroke="#344B63" stroke-width="2" d="M32,64 L6,64 C2.687,64 0,61.313 0,58 L0,6 C0,2.687 2.687,0 6,0 L32,0 C35.313,0 38,2.687 38,6 L38,58 C38,61.313 35.313,64 32,64 Z"/>
    <path fill="#FFF" d="M7,60 C5.346,60 4,58.654 4,57 L4,7 C4,5.346 5.346,4 7,4 L31,4 C32.654,4 34,5.346 34,7 L34,57 C34,58.654 32.654,60 31,60 L7,60 Z"/>
    <path fill="#344B63" d="M31,3 L7,3 C4.791,3 3,4.791 3,7 L3,57 C3,59.209 4.791,61 7,61 L31,61 C33.209,61 35,59.209 35,57 L35,7 C35,4.791 33.209,3 31,3 M31,5 C32.103,5 33,5.897 33,7 L33,57 C33,58.103 32.103,59 31,59 L7,59 C5.897,59 5,58.103 5,57 L5,7 C5,5.897 5.897,5 7,5 L31,5"/>
    <g transform="translate(10 2)">
      <path fill="#E3E3E6" d="M18,0 L18,2.4 C18,4.3884 16.657,6 15,6 L3,6 C1.343,6 0,4.3884 0,2.4 L0,0"/>
      <path stroke="#344B63" stroke-width="2" d="M18,1 L18,3 C18,4.657 16.657,6 15,6 L3,6 C1.343,6 0,4.657 0,3 L0,1"/>
    </g>
    <path fill="#344B63" d="M20.5,4 C20.5,4.828 19.828,5.5 19,5.5 C18.172,5.5 17.5,4.828 17.5,4 C17.5,3.172 18.172,2.5 19,2.5 C19.828,2.5 20.5,3.172 20.5,4"/>
    <path fill="#57D3D2" d="M46,70 L30,70 C27.791,70 26,68.209 26,66 L26,50 C26,47.791 27.791,46 30,46 L46,46 C48.209,46 50,47.791 50,50 L50,66 C50,68.209 48.209,70 46,70"/>
    <path stroke="#344B63" stroke-width="2" d="M46,70 L30,70 C27.791,70 26,68.209 26,66 L26,50 C26,47.791 27.791,46 30,46 L46,46 C48.209,46 50,47.791 50,50 L50,66 C50,68.209 48.209,70 46,70 Z"/>
    <path fill="#FFF" d="M36.8457,62.2842 L32.2927,57.7302 C31.9027,57.3402 31.9027,56.7072 32.2927,56.3162 C32.6837,55.9262 33.3167,55.9262 33.7067,56.3162 L36.8457,59.4562 L42.2927,54.0092 C42.6837,53.6182 43.3167,53.6182 43.7067,54.0092 C44.0977,54.3992 44.0977,55.0322 43.7067,55.4232 L36.8457,62.2842 Z"/>
    <path fill="#344B63" d="M27.8271,35.5195 L24.0841,33.3615 C23.8891,33.2645 23.6071,33.3145 23.4571,33.4725 L21.4241,35.6405 C21.2731,35.7975 20.9731,35.9315 20.7571,35.9375 C20.7571,35.9375 19.3621,35.9765 16.7291,33.3865 C14.0961,30.7975 14.0861,29.3785 14.0861,29.3785 C14.0841,29.1595 14.2061,28.8505 14.3561,28.6935 L16.2311,26.6915 C16.3821,26.5335 16.4291,26.2425 16.3361,26.0445 L14.2281,22.1725 C14.1361,21.9745 13.9351,21.9425 13.7851,22.0995 L10.3291,25.7505 C10.1791,25.9085 10.0341,26.2155 10.0091,26.4335 C10.0091,26.4335 9.5721,30.1935 14.8361,35.3685 C20.1001,40.5435 23.7911,39.9825 23.7911,39.9825 C24.0051,39.9495 24.3031,39.7935 24.4531,39.6365 L27.9071,35.9815 C28.0571,35.8245 28.0211,35.6165 27.8271,35.5195"/>
    <path stroke="#344B63" d="M27.8271,35.5195 L24.0841,33.3615 C23.8891,33.2645 23.6071,33.3145 23.4571,33.4725 L21.4241,35.6405 C21.2731,35.7975 20.9731,35.9315 20.7571,35.9375 C20.7571,35.9375 19.3621,35.9765 16.7291,33.3865 C14.0961,30.7975 14.0861,29.3785 14.0861,29.3785 C14.0841,29.1595 14.2061,28.8505 14.3561,28.6935 L16.2311,26.6915 C16.3821,26.5335 16.4291,26.2425 16.3361,26.0445 L14.2281,22.1725 C14.1361,21.9745 13.9351,21.9425 13.7851,22.0995 L10.3291,25.7505 C10.1791,25.9085 10.0341,26.2155 10.0091,26.4335 C10.0091,26.4335 9.5721,30.1935 14.8361,35.3685 C20.1001,40.5435 23.7911,39.9825 23.7911,39.9825 C24.0051,39.9495 24.3031,39.7935 24.4531,39.6365 L27.9071,35.9815 C28.0571,35.8245 28.0211,35.6165 27.8271,35.5195 Z"/>
  </g>
</svg>
