<svg xmlns="http://www.w3.org/2000/svg" xmlns:xlink="http://www.w3.org/1999/xlink" width="90" height="90" viewBox="0 0 90 90">
  <defs>
    <polygon id="90x90_meetings_static-a" points="0 90 90 90 90 0 0 0"/>
  </defs>
  <g fill="none" fill-rule="evenodd">
    <path fill="#E3E3E6" d="M66.6934,72 L23.3064,72 C20.3764,72 18.0004,69.762 18.0004,67 L18.0004,35 C18.0004,32.238 20.3764,30 23.3064,30 L66.6934,30 C69.6244,30 72.0004,32.238 72.0004,35 L72.0004,67 C72.0004,69.762 69.6244,72 66.6934,72 Z"/>
    <path stroke="#344B63" stroke-width="2" d="M66.6934,72 L23.3064,72 C20.3764,72 18.0004,69.762 18.0004,67 L18.0004,35 C18.0004,32.238 20.3764,30 23.3064,30 L66.6934,30 C69.6244,30 72.0004,32.238 72.0004,35 L72.0004,67 C72.0004,69.762 69.6244,72 66.6934,72 Z"/>
    <path fill="#FFF" d="M66.6934,68 L23.3064,68 C20.3764,68 18.0004,64.762 18.0004,62 L18.0004,31 C18.0004,28.238 20.3764,26 23.3064,26 L66.6934,26 C69.6244,26 72.0004,28.238 72.0004,31 L72.0004,62 C72.0004,64.762 69.6244,68 66.6934,68"/>
    <path stroke="#344B63" stroke-width="2" d="M66.6934,68 L23.3064,68 C20.3764,68 18.0004,64.762 18.0004,62 L18.0004,31 C18.0004,28.238 20.3764,26 23.3064,26 L66.6934,26 C69.6244,26 72.0004,28.238 72.0004,31 L72.0004,62 C72.0004,64.762 69.6244,68 66.6934,68 Z"/>
    <path fill="#F7F7FA" d="M23.9131,18 L66.0871,18 C69.3521,18 72.0001,20.647 72.0001,23.913 L72.0001,36 L18.0001,36 L18.0001,23.913 C18.0001,20.647 20.6471,18 23.9131,18"/>
    <path stroke="#344B63" stroke-width="2" d="M23.9131,18 L66.0871,18 C69.3521,18 72.0001,20.647 72.0001,23.913 L72.0001,36 L18.0001,36 L18.0001,23.913 C18.0001,20.647 20.6471,18 23.9131,18 Z"/>
    <mask id="90x90_meetings_static-b" fill="#fff">
      <use xlink:href="#90x90_meetings_static-a"/>
    </mask>
    <path fill="#344B63" d="M34.5,25 L27.5,25 C26.947,25 26.5,24.553 26.5,24 L26.5,23 C26.5,22.448 26.947,22 27.5,22 L34.5,22 C35.053,22 35.5,22.448 35.5,23 L35.5,24 C35.5,24.553 35.053,25 34.5,25" mask="url(#90x90_meetings_static-b)"/>
    <path fill="#E3E3E6" d="M33,24 L29,24 L29,15.81 C29,14.811 29.81,14 30.809,14 L31.191,14 C32.19,14 33,14.811 33,15.81 L33,24 Z" mask="url(#90x90_meetings_static-b)"/>
    <path stroke="#344B63" stroke-width="2" d="M33,24 L29,24 L29,15.81 C29,14.811 29.81,14 30.809,14 L31.191,14 C32.19,14 33,14.811 33,15.81 L33,24 Z" mask="url(#90x90_meetings_static-b)"/>
    <path fill="#344B63" d="M62.5 25L55.5 25C54.947 25 54.5 24.553 54.5 24L54.5 23C54.5 22.448 54.947 22 55.5 22L62.5 22C63.053 22 63.5 22.448 63.5 23L63.5 24C63.5 24.553 63.053 25 62.5 25M48.5 25L41.5 25C40.947 25 40.5 24.553 40.5 24L40.5 23C40.5 22.448 40.947 22 41.5 22L48.5 22C49.053 22 49.5 22.448 49.5 23L49.5 24C49.5 24.553 49.053 25 48.5 25" mask="url(#90x90_meetings_static-b)"/>
    <path fill="#E3E3E6" d="M61,24 L57,24 L57,15.81 C57,14.811 57.81,14 58.809,14 L59.191,14 C60.19,14 61,14.811 61,15.81 L61,24 Z" mask="url(#90x90_meetings_static-b)"/>
    <path stroke="#344B63" stroke-width="2" d="M61,24 L57,24 L57,15.81 C57,14.811 57.81,14 58.809,14 L59.191,14 C60.19,14 61,14.811 61,15.81 L61,24 Z" mask="url(#90x90_meetings_static-b)"/>
    <path fill="#E3E3E6" d="M47,24 L43,24 L43,15.81 C43,14.811 43.81,14 44.809,14 L45.191,14 C46.19,14 47,14.811 47,15.81 L47,24 Z" mask="url(#90x90_meetings_static-b)"/>
    <path stroke="#344B63" stroke-width="2" d="M47,24 L43,24 L43,15.81 C43,14.811 43.81,14 44.809,14 L45.191,14 C46.19,14 47,14.811 47,15.81 L47,24 Z" mask="url(#90x90_meetings_static-b)"/>
    <path stroke="#344B63" stroke-linecap="round" stroke-width="2" d="M27.5 48L62.5 48M27.5 56L48.5 56" mask="url(#90x90_meetings_static-b)"/>
    <path fill="#57D3D2" d="M73,79 L57,79 C54.791,79 53,77.209 53,75 L53,59 C53,56.791 54.791,55 57,55 L73,55 C75.209,55 77,56.791 77,59 L77,75 C77,77.209 75.209,79 73,79" mask="url(#90x90_meetings_static-b)"/>
    <path stroke="#344B63" stroke-width="2" d="M73,79 L57,79 C54.791,79 53,77.209 53,75 L53,59 C53,56.791 54.791,55 57,55 L73,55 C75.209,55 77,56.791 77,59 L77,75 C77,77.209 75.209,79 73,79 Z" mask="url(#90x90_meetings_static-b)"/>
    <path fill="#FFF" d="M63.8457,71.2842 L59.2927,66.7302 C58.9027,66.3402 58.9027,65.7072 59.2927,65.3162 C59.6837,64.9262 60.3167,64.9262 60.7067,65.3162 L63.8457,68.4562 L69.2927,63.0092 C69.6837,62.6182 70.3167,62.6182 70.7067,63.0092 C71.0977,63.3992 71.0977,64.0322 70.7067,64.4232 L63.8457,71.2842 Z" mask="url(#90x90_meetings_static-b)"/>
    <path stroke="#344B63" stroke-linecap="round" stroke-width="2" d="M33 43L33 61M45 43L45 61M57 43L57 51" mask="url(#90x90_meetings_static-b)"/>
  </g>
</svg>
