<svg xmlns="http://www.w3.org/2000/svg" width="90" height="90" viewBox="0 0 90 90">
  <g fill="none" fill-rule="evenodd" transform="translate(17 10)">
    <path fill="#F7F7FA" d="M44,63 L4,63 C1.791,63 0,61.209 0,59 L0,13 C0,10.791 1.791,9 4,9 L44,9 C46.209,9 48,10.791 48,13 L48,59 C48,61.209 46.209,63 44,63"/>
    <path stroke="#344B63" stroke-width="2" d="M44,63 L4,63 C1.791,63 0,61.209 0,59 L0,13 C0,10.791 1.791,9 4,9 L44,9 C46.209,9 48,10.791 48,13 L48,59 C48,61.209 46.209,63 44,63 Z"/>
    <path fill="#E0E0E0" d="M36,19 L13,19 C11.896,19 11,18.104 11,17 L11,16 L38,16 L38,17 C38,18.104 37.104,19 36,19"/>
    <polygon fill="#F7F7FA" points="11 18 38 18 38 15 11 15"/>
    <path fill="#FFF" d="M43,50.25 L43,15.5 C43,14.672 42.328,14 41.5,14 L6.5,14 C5.672,14 5,14.672 5,15.5 L5,54 L39.25,54 C41.321,54 43,52.321 43,50.25"/>
    <path stroke="#344B63" stroke-width="2" d="M43,50.25 L43,15.5 C43,14.672 42.328,14 41.5,14 L6.5,14 C5.672,14 5,14.672 5,15.5 L5,54 L39.25,54 C41.321,54 43,52.321 43,50.25 Z"/>
    <path fill="#E3E3E6" d="M33.25,5.958 L30.451,5.958 C30.072,2.792 27.331,0.333 24,0.333 C20.669,0.333 17.928,2.792 17.549,5.958 L14.75,5.958 C12.679,5.958 11,7.638 11,9.708 L11,14.958 L37,14.958 L37,9.708 C37,7.638 35.321,5.958 33.25,5.958"/>
    <path stroke="#344B63" stroke-width="2" d="M33.25,5.958 L30.451,5.958 C30.072,2.792 27.331,0.333 24,0.333 C20.669,0.333 17.928,2.792 17.549,5.958 L14.75,5.958 C12.679,5.958 11,7.638 11,9.708 L11,14.958 L37,14.958 L37,9.708 C37,7.638 35.321,5.958 33.25,5.958 Z"/>
    <path fill="#344B63" d="M26,6 C26,7.104 25.104,8 24,8 C22.896,8 22,7.104 22,6 C22,4.896 22.896,4 24,4 C25.104,4 26,4.896 26,6"/>
    <path stroke="#344B63" stroke-linecap="round" stroke-width="2" d="M15 25L33 25M15 33L33 33M15 41L33 41"/>
    <g transform="translate(33 46)">
      <path fill="#57D3D2" d="M20,24 L4,24 C1.791,24 0,22.209 0,20 L0,4 C0,1.791 1.791,0 4,0 L20,0 C22.209,0 24,1.791 24,4 L24,20 C24,22.209 22.209,24 20,24"/>
      <path stroke="#344B63" stroke-width="2" d="M20,24 L4,24 C1.791,24 0,22.209 0,20 L0,4 C0,1.791 1.791,0 4,0 L20,0 C22.209,0 24,1.791 24,4 L24,20 C24,22.209 22.209,24 20,24 Z"/>
      <path fill="#FFF" d="M10.8457,16.2842 L6.2927,11.7302 C5.9027,11.3402 5.9027,10.7072 6.2927,10.3162 C6.6837,9.9262 7.3167,9.9262 7.7067,10.3162 L10.8457,13.4562 L16.2927,8.0092 C16.6837,7.6182 17.3167,7.6182 17.7067,8.0092 C18.0977,8.3992 18.0977,9.0322 17.7067,9.4232 L10.8457,16.2842 Z"/>
    </g>
    <path fill="#FFF" d="M43.8457,62.2842 L39.2927,57.7302 C38.9027,57.3402 38.9027,56.7072 39.2927,56.3162 C39.6837,55.9262 40.3167,55.9262 40.7067,56.3162 L43.8457,59.4562 L49.2927,54.0092 C49.6837,53.6182 50.3167,53.6182 50.7067,54.0092 C51.0977,54.3992 51.0977,55.0322 50.7067,55.4232 L43.8457,62.2842 Z"/>
  </g>
</svg>
